G04 #@! TF.GenerationSoftware,KiCad,Pcbnew,9.0.2*
G04 #@! TF.CreationDate,2025-07-06T17:30:18+02:00*
G04 #@! TF.ProjectId,injection-controller,696e6a65-6374-4696-9f6e-2d636f6e7472,rev?*
G04 #@! TF.SameCoordinates,Original*
G04 #@! TF.FileFunction,Soldermask,Top*
G04 #@! TF.FilePolarity,Negative*
%FSLAX46Y46*%
G04 Gerber Fmt 4.6, Leading zero omitted, Abs format (unit mm)*
G04 Created by KiCad (PCBNEW 9.0.2) date 2025-07-06 17:30:18*
%MOMM*%
%LPD*%
G01*
G04 APERTURE LIST*
G04 Aperture macros list*
%AMRoundRect*
0 Rectangle with rounded corners*
0 $1 Rounding radius*
0 $2 $3 $4 $5 $6 $7 $8 $9 X,Y pos of 4 corners*
0 Add a 4 corners polygon primitive as box body*
4,1,4,$2,$3,$4,$5,$6,$7,$8,$9,$2,$3,0*
0 Add four circle primitives for the rounded corners*
1,1,$1+$1,$2,$3*
1,1,$1+$1,$4,$5*
1,1,$1+$1,$6,$7*
1,1,$1+$1,$8,$9*
0 Add four rect primitives between the rounded corners*
20,1,$1+$1,$2,$3,$4,$5,0*
20,1,$1+$1,$4,$5,$6,$7,0*
20,1,$1+$1,$6,$7,$8,$9,0*
20,1,$1+$1,$8,$9,$2,$3,0*%
G04 Aperture macros list end*
%ADD10C,1.300000*%
%ADD11R,1.300000X1.300000*%
%ADD12C,1.600000*%
%ADD13R,1.600000X1.600000*%
%ADD14R,1.700000X1.700000*%
%ADD15C,1.700000*%
%ADD16RoundRect,0.150000X0.587500X0.150000X-0.587500X0.150000X-0.587500X-0.150000X0.587500X-0.150000X0*%
%ADD17RoundRect,0.225000X0.250000X-0.225000X0.250000X0.225000X-0.250000X0.225000X-0.250000X-0.225000X0*%
%ADD18RoundRect,0.243750X-0.243750X-0.456250X0.243750X-0.456250X0.243750X0.456250X-0.243750X0.456250X0*%
%ADD19C,2.000000*%
%ADD20R,2.000000X2.000000*%
%ADD21R,1.550000X1.600000*%
%ADD22R,0.600000X1.200000*%
%ADD23R,0.800000X1.400000*%
%ADD24RoundRect,0.200000X-0.200000X-0.275000X0.200000X-0.275000X0.200000X0.275000X-0.200000X0.275000X0*%
%ADD25RoundRect,0.200000X-0.275000X0.200000X-0.275000X-0.200000X0.275000X-0.200000X0.275000X0.200000X0*%
%ADD26RoundRect,0.375000X0.625000X0.375000X-0.625000X0.375000X-0.625000X-0.375000X0.625000X-0.375000X0*%
%ADD27RoundRect,0.500000X0.500000X1.400000X-0.500000X1.400000X-0.500000X-1.400000X0.500000X-1.400000X0*%
%ADD28RoundRect,0.200000X0.275000X-0.200000X0.275000X0.200000X-0.275000X0.200000X-0.275000X-0.200000X0*%
%ADD29RoundRect,0.250000X-0.550000X1.250000X-0.550000X-1.250000X0.550000X-1.250000X0.550000X1.250000X0*%
%ADD30RoundRect,0.225000X-0.225000X-0.250000X0.225000X-0.250000X0.225000X0.250000X-0.225000X0.250000X0*%
%ADD31C,2.100000*%
%ADD32O,2.100000X5.000000*%
%ADD33RoundRect,0.250000X-1.250000X-0.550000X1.250000X-0.550000X1.250000X0.550000X-1.250000X0.550000X0*%
%ADD34RoundRect,0.250000X0.650000X-1.000000X0.650000X1.000000X-0.650000X1.000000X-0.650000X-1.000000X0*%
%ADD35RoundRect,0.250000X1.000000X0.650000X-1.000000X0.650000X-1.000000X-0.650000X1.000000X-0.650000X0*%
G04 APERTURE END LIST*
D10*
G04 #@! TO.C,U1*
X120970000Y-112410000D03*
X120970000Y-109870000D03*
X135210000Y-105958400D03*
X135210000Y-107958400D03*
X135210000Y-109958400D03*
X133210000Y-109958400D03*
X133210000Y-107958400D03*
D11*
X133210000Y-105958400D03*
D12*
X136699200Y-115709200D03*
X134159200Y-115709200D03*
X131619200Y-115709200D03*
X129079200Y-115709200D03*
D13*
X126539200Y-115709200D03*
D12*
X165960000Y-106060000D03*
X165960000Y-108600000D03*
X165960000Y-111140000D03*
X165960000Y-113680000D03*
X165960000Y-116220000D03*
X122780000Y-106060000D03*
X120240000Y-103520000D03*
X122780000Y-103520000D03*
X125320000Y-103520000D03*
X127860000Y-103520000D03*
X130400000Y-103520000D03*
X132940000Y-103520000D03*
X135480000Y-103520000D03*
X138020000Y-103520000D03*
X140560000Y-103520000D03*
X143100000Y-103520000D03*
X145640000Y-103520000D03*
X148180000Y-103520000D03*
X150720000Y-103520000D03*
X153260000Y-103520000D03*
X155800000Y-103520000D03*
X158340000Y-103520000D03*
X160880000Y-103520000D03*
X163420000Y-103520000D03*
X165960000Y-103520000D03*
X168500000Y-103520000D03*
X171040000Y-103520000D03*
X173580000Y-103520000D03*
X176120000Y-103520000D03*
X178660000Y-103520000D03*
X178660000Y-118760000D03*
X176120000Y-118760000D03*
X173580000Y-118760000D03*
X171040000Y-118760000D03*
X168500000Y-118760000D03*
X165960000Y-118760000D03*
X163420000Y-118760000D03*
X160880000Y-118760000D03*
X158340000Y-118760000D03*
X155800000Y-118760000D03*
X153260000Y-118760000D03*
X150720000Y-118760000D03*
X148180000Y-118760000D03*
X145640000Y-118760000D03*
X143100000Y-118760000D03*
X140560000Y-118760000D03*
X138020000Y-118760000D03*
X135480000Y-118760000D03*
X132940000Y-118760000D03*
X130400000Y-118760000D03*
X127860000Y-118760000D03*
X125320000Y-118760000D03*
X122780000Y-118760000D03*
D13*
X120240000Y-118760000D03*
G04 #@! TD*
D14*
G04 #@! TO.C,JP1*
X168025000Y-92750000D03*
D15*
X165485000Y-92750000D03*
X162945000Y-92750000D03*
G04 #@! TD*
D16*
G04 #@! TO.C,Q1*
X159562500Y-97162500D03*
X159562500Y-95262500D03*
X157687500Y-96212500D03*
G04 #@! TD*
D17*
G04 #@! TO.C,C2*
X126540000Y-113395000D03*
X126540000Y-111845000D03*
G04 #@! TD*
D18*
G04 #@! TO.C,D2*
X120340000Y-75450000D03*
X122215000Y-75450000D03*
G04 #@! TD*
D19*
G04 #@! TO.C,TP6*
X170850000Y-92750000D03*
G04 #@! TD*
D20*
G04 #@! TO.C,K1*
X151182500Y-100457500D03*
D19*
X151182500Y-97917500D03*
X151182500Y-90297500D03*
X146102500Y-90297500D03*
X146102500Y-97917500D03*
X146102500Y-100457500D03*
G04 #@! TD*
G04 #@! TO.C,TP2*
X169425000Y-84725000D03*
G04 #@! TD*
D21*
G04 #@! TO.C,SW1*
X163925000Y-73450000D03*
X177875000Y-73450000D03*
X163925000Y-78450000D03*
X177875000Y-78450000D03*
G04 #@! TD*
D22*
G04 #@! TO.C,J2*
X149125015Y-74324999D03*
X149625015Y-71425000D03*
X150125015Y-74324999D03*
X150625015Y-71425000D03*
X151125015Y-74324999D03*
X151625015Y-71425000D03*
X152125015Y-74324999D03*
X152625015Y-71425000D03*
X153125015Y-74324999D03*
X153625015Y-71425000D03*
X154125015Y-74324999D03*
X154625015Y-71425000D03*
X155125015Y-74324999D03*
X155625015Y-71425000D03*
X156125015Y-74324999D03*
X156625015Y-71425000D03*
X157125015Y-74324999D03*
X157625015Y-71425000D03*
X158125015Y-74324999D03*
X158625015Y-71425000D03*
X159125015Y-74324999D03*
X159625015Y-71425000D03*
X160125015Y-74324999D03*
X160625015Y-71425000D03*
D23*
X148125011Y-74225000D03*
X161624989Y-74225000D03*
X148125011Y-71525000D03*
X161624989Y-71525000D03*
G04 #@! TD*
D17*
G04 #@! TO.C,C1*
X155800000Y-116795000D03*
X155800000Y-115245000D03*
G04 #@! TD*
D14*
G04 #@! TO.C,JP2*
X126175000Y-81300000D03*
D15*
X126175000Y-78760000D03*
G04 #@! TD*
D24*
G04 #@! TO.C,R7*
X157325000Y-98800000D03*
X158975000Y-98800000D03*
G04 #@! TD*
G04 #@! TO.C,R6*
X160450000Y-98825000D03*
X162100000Y-98825000D03*
G04 #@! TD*
D25*
G04 #@! TO.C,R4*
X122100000Y-78200000D03*
X122100000Y-79850000D03*
G04 #@! TD*
D26*
G04 #@! TO.C,U2*
X159425000Y-86900000D03*
X159425000Y-84600000D03*
D27*
X153125000Y-84600000D03*
D26*
X159425000Y-82300000D03*
G04 #@! TD*
D28*
G04 #@! TO.C,R1*
X123635451Y-79906713D03*
X123635451Y-78256713D03*
G04 #@! TD*
D29*
G04 #@! TO.C,C7*
X148375000Y-81675000D03*
X148375000Y-86075000D03*
G04 #@! TD*
D25*
G04 #@! TO.C,R5*
X161625000Y-88875000D03*
X161625000Y-90525000D03*
G04 #@! TD*
D30*
G04 #@! TO.C,C3*
X161600000Y-82350000D03*
X163150000Y-82350000D03*
G04 #@! TD*
D19*
G04 #@! TO.C,J1*
X138630000Y-95580000D03*
X136090000Y-94350000D03*
X138630000Y-93080000D03*
X136090000Y-91810000D03*
X138630000Y-90540000D03*
X135990000Y-89270000D03*
X138630000Y-88000000D03*
X136090000Y-86730000D03*
D31*
X143460000Y-94100000D03*
X143460000Y-96640000D03*
X143460000Y-85720000D03*
X143460000Y-88260000D03*
D32*
X132790000Y-83310000D03*
X132790000Y-99050000D03*
G04 #@! TD*
D30*
G04 #@! TO.C,C4*
X161600000Y-84000000D03*
X163150000Y-84000000D03*
G04 #@! TD*
D19*
G04 #@! TO.C,TP3*
X169450000Y-97225000D03*
G04 #@! TD*
G04 #@! TO.C,TP5*
X130000000Y-71850000D03*
G04 #@! TD*
D18*
G04 #@! TO.C,D3*
X120340000Y-73450000D03*
X122215000Y-73450000D03*
G04 #@! TD*
D33*
G04 #@! TO.C,C6*
X154750000Y-91400000D03*
X159150000Y-91400000D03*
G04 #@! TD*
D19*
G04 #@! TO.C,TP1*
X129850000Y-76650000D03*
G04 #@! TD*
D25*
G04 #@! TO.C,R3*
X120575000Y-78200000D03*
X120575000Y-79850000D03*
G04 #@! TD*
D14*
G04 #@! TO.C,J3*
X138755000Y-71950000D03*
D15*
X136215000Y-71950000D03*
X133675000Y-71950000D03*
G04 #@! TD*
D19*
G04 #@! TO.C,TP4*
X163625000Y-97150000D03*
G04 #@! TD*
D34*
G04 #@! TO.C,D4*
X154600000Y-99775000D03*
X154600000Y-95775000D03*
G04 #@! TD*
D35*
G04 #@! TO.C,D5*
X166350000Y-86525000D03*
X162350000Y-86525000D03*
G04 #@! TD*
D18*
G04 #@! TO.C,D1*
X120340000Y-71450000D03*
X122215000Y-71450000D03*
G04 #@! TD*
M02*
