G04 #@! TF.GenerationSoftware,KiCad,Pcbnew,9.0.2*
G04 #@! TF.CreationDate,2025-07-06T17:30:17+02:00*
G04 #@! TF.ProjectId,injection-controller,696e6a65-6374-4696-9f6e-2d636f6e7472,rev?*
G04 #@! TF.SameCoordinates,Original*
G04 #@! TF.FileFunction,Legend,Bot*
G04 #@! TF.FilePolarity,Positive*
%FSLAX46Y46*%
G04 Gerber Fmt 4.6, Leading zero omitted, Abs format (unit mm)*
G04 Created by KiCad (PCBNEW 9.0.2) date 2025-07-06 17:30:17*
%MOMM*%
%LPD*%
G01*
G04 APERTURE LIST*
G04 Aperture macros list*
%AMRoundRect*
0 Rectangle with rounded corners*
0 $1 Rounding radius*
0 $2 $3 $4 $5 $6 $7 $8 $9 X,Y pos of 4 corners*
0 Add a 4 corners polygon primitive as box body*
4,1,4,$2,$3,$4,$5,$6,$7,$8,$9,$2,$3,0*
0 Add four circle primitives for the rounded corners*
1,1,$1+$1,$2,$3*
1,1,$1+$1,$4,$5*
1,1,$1+$1,$6,$7*
1,1,$1+$1,$8,$9*
0 Add four rect primitives between the rounded corners*
20,1,$1+$1,$2,$3,$4,$5,0*
20,1,$1+$1,$4,$5,$6,$7,0*
20,1,$1+$1,$6,$7,$8,$9,0*
20,1,$1+$1,$8,$9,$2,$3,0*%
G04 Aperture macros list end*
%ADD10C,0.150000*%
%ADD11C,0.120000*%
%ADD12C,1.300000*%
%ADD13R,1.300000X1.300000*%
%ADD14C,1.600000*%
%ADD15R,1.600000X1.600000*%
%ADD16R,1.700000X1.700000*%
%ADD17C,1.700000*%
%ADD18C,2.000000*%
%ADD19R,2.000000X2.000000*%
%ADD20C,2.100000*%
%ADD21O,2.100000X5.000000*%
%ADD22RoundRect,0.225000X-0.225000X-0.250000X0.225000X-0.250000X0.225000X0.250000X-0.225000X0.250000X0*%
%ADD23RoundRect,0.200000X-0.275000X0.200000X-0.275000X-0.200000X0.275000X-0.200000X0.275000X0.200000X0*%
G04 APERTURE END LIST*
D10*
X142106666Y-92459580D02*
X142154285Y-92507200D01*
X142154285Y-92507200D02*
X142297142Y-92554819D01*
X142297142Y-92554819D02*
X142392380Y-92554819D01*
X142392380Y-92554819D02*
X142535237Y-92507200D01*
X142535237Y-92507200D02*
X142630475Y-92411961D01*
X142630475Y-92411961D02*
X142678094Y-92316723D01*
X142678094Y-92316723D02*
X142725713Y-92126247D01*
X142725713Y-92126247D02*
X142725713Y-91983390D01*
X142725713Y-91983390D02*
X142678094Y-91792914D01*
X142678094Y-91792914D02*
X142630475Y-91697676D01*
X142630475Y-91697676D02*
X142535237Y-91602438D01*
X142535237Y-91602438D02*
X142392380Y-91554819D01*
X142392380Y-91554819D02*
X142297142Y-91554819D01*
X142297142Y-91554819D02*
X142154285Y-91602438D01*
X142154285Y-91602438D02*
X142106666Y-91650057D01*
X141201904Y-91554819D02*
X141678094Y-91554819D01*
X141678094Y-91554819D02*
X141725713Y-92031009D01*
X141725713Y-92031009D02*
X141678094Y-91983390D01*
X141678094Y-91983390D02*
X141582856Y-91935771D01*
X141582856Y-91935771D02*
X141344761Y-91935771D01*
X141344761Y-91935771D02*
X141249523Y-91983390D01*
X141249523Y-91983390D02*
X141201904Y-92031009D01*
X141201904Y-92031009D02*
X141154285Y-92126247D01*
X141154285Y-92126247D02*
X141154285Y-92364342D01*
X141154285Y-92364342D02*
X141201904Y-92459580D01*
X141201904Y-92459580D02*
X141249523Y-92507200D01*
X141249523Y-92507200D02*
X141344761Y-92554819D01*
X141344761Y-92554819D02*
X141582856Y-92554819D01*
X141582856Y-92554819D02*
X141678094Y-92507200D01*
X141678094Y-92507200D02*
X141725713Y-92459580D01*
X147856666Y-95514819D02*
X148189999Y-95038628D01*
X148428094Y-95514819D02*
X148428094Y-94514819D01*
X148428094Y-94514819D02*
X148047142Y-94514819D01*
X148047142Y-94514819D02*
X147951904Y-94562438D01*
X147951904Y-94562438D02*
X147904285Y-94610057D01*
X147904285Y-94610057D02*
X147856666Y-94705295D01*
X147856666Y-94705295D02*
X147856666Y-94848152D01*
X147856666Y-94848152D02*
X147904285Y-94943390D01*
X147904285Y-94943390D02*
X147951904Y-94991009D01*
X147951904Y-94991009D02*
X148047142Y-95038628D01*
X148047142Y-95038628D02*
X148428094Y-95038628D01*
X147475713Y-94610057D02*
X147428094Y-94562438D01*
X147428094Y-94562438D02*
X147332856Y-94514819D01*
X147332856Y-94514819D02*
X147094761Y-94514819D01*
X147094761Y-94514819D02*
X146999523Y-94562438D01*
X146999523Y-94562438D02*
X146951904Y-94610057D01*
X146951904Y-94610057D02*
X146904285Y-94705295D01*
X146904285Y-94705295D02*
X146904285Y-94800533D01*
X146904285Y-94800533D02*
X146951904Y-94943390D01*
X146951904Y-94943390D02*
X147523332Y-95514819D01*
X147523332Y-95514819D02*
X146904285Y-95514819D01*
D11*
G04 #@! TO.C,C5*
X141719420Y-90040000D02*
X142000580Y-90040000D01*
X141719420Y-91060000D02*
X142000580Y-91060000D01*
G04 #@! TO.C,R2*
X145407500Y-94762742D02*
X145407500Y-95237258D01*
X146452500Y-94762742D02*
X146452500Y-95237258D01*
G04 #@! TD*
%LPC*%
D12*
G04 #@! TO.C,U1*
X120970000Y-112410000D03*
X120970000Y-109870000D03*
X135210000Y-105958400D03*
X135210000Y-107958400D03*
X135210000Y-109958400D03*
X133210000Y-109958400D03*
X133210000Y-107958400D03*
D13*
X133210000Y-105958400D03*
D14*
X136699200Y-115709200D03*
X134159200Y-115709200D03*
X131619200Y-115709200D03*
X129079200Y-115709200D03*
D15*
X126539200Y-115709200D03*
D14*
X165960000Y-106060000D03*
X165960000Y-108600000D03*
X165960000Y-111140000D03*
X165960000Y-113680000D03*
X165960000Y-116220000D03*
X122780000Y-106060000D03*
X120240000Y-103520000D03*
X122780000Y-103520000D03*
X125320000Y-103520000D03*
X127860000Y-103520000D03*
X130400000Y-103520000D03*
X132940000Y-103520000D03*
X135480000Y-103520000D03*
X138020000Y-103520000D03*
X140560000Y-103520000D03*
X143100000Y-103520000D03*
X145640000Y-103520000D03*
X148180000Y-103520000D03*
X150720000Y-103520000D03*
X153260000Y-103520000D03*
X155800000Y-103520000D03*
X158340000Y-103520000D03*
X160880000Y-103520000D03*
X163420000Y-103520000D03*
X165960000Y-103520000D03*
X168500000Y-103520000D03*
X171040000Y-103520000D03*
X173580000Y-103520000D03*
X176120000Y-103520000D03*
X178660000Y-103520000D03*
X178660000Y-118760000D03*
X176120000Y-118760000D03*
X173580000Y-118760000D03*
X171040000Y-118760000D03*
X168500000Y-118760000D03*
X165960000Y-118760000D03*
X163420000Y-118760000D03*
X160880000Y-118760000D03*
X158340000Y-118760000D03*
X155800000Y-118760000D03*
X153260000Y-118760000D03*
X150720000Y-118760000D03*
X148180000Y-118760000D03*
X145640000Y-118760000D03*
X143100000Y-118760000D03*
X140560000Y-118760000D03*
X138020000Y-118760000D03*
X135480000Y-118760000D03*
X132940000Y-118760000D03*
X130400000Y-118760000D03*
X127860000Y-118760000D03*
X125320000Y-118760000D03*
X122780000Y-118760000D03*
D15*
X120240000Y-118760000D03*
G04 #@! TD*
D16*
G04 #@! TO.C,JP1*
X168025000Y-92750000D03*
D17*
X165485000Y-92750000D03*
X162945000Y-92750000D03*
G04 #@! TD*
D18*
G04 #@! TO.C,TP6*
X170850000Y-92750000D03*
G04 #@! TD*
D19*
G04 #@! TO.C,K1*
X151182500Y-100457500D03*
D18*
X151182500Y-97917500D03*
X151182500Y-90297500D03*
X146102500Y-90297500D03*
X146102500Y-97917500D03*
X146102500Y-100457500D03*
G04 #@! TD*
G04 #@! TO.C,TP2*
X169425000Y-84725000D03*
G04 #@! TD*
D16*
G04 #@! TO.C,JP2*
X126175000Y-81300000D03*
D17*
X126175000Y-78760000D03*
G04 #@! TD*
D18*
G04 #@! TO.C,J1*
X138630000Y-95580000D03*
X136090000Y-94350000D03*
X138630000Y-93080000D03*
X136090000Y-91810000D03*
X138630000Y-90540000D03*
X135990000Y-89270000D03*
X138630000Y-88000000D03*
X136090000Y-86730000D03*
D20*
X143460000Y-94100000D03*
X143460000Y-96640000D03*
X143460000Y-85720000D03*
X143460000Y-88260000D03*
D21*
X132790000Y-83310000D03*
X132790000Y-99050000D03*
G04 #@! TD*
D18*
G04 #@! TO.C,TP3*
X169450000Y-97225000D03*
G04 #@! TD*
G04 #@! TO.C,TP5*
X130000000Y-71850000D03*
G04 #@! TD*
G04 #@! TO.C,TP1*
X129850000Y-76650000D03*
G04 #@! TD*
D16*
G04 #@! TO.C,J3*
X138755000Y-71950000D03*
D17*
X136215000Y-71950000D03*
X133675000Y-71950000D03*
G04 #@! TD*
D18*
G04 #@! TO.C,TP4*
X163625000Y-97150000D03*
G04 #@! TD*
D22*
G04 #@! TO.C,C5*
X141085000Y-90550000D03*
X142635000Y-90550000D03*
G04 #@! TD*
D23*
G04 #@! TO.C,R2*
X145930000Y-94175000D03*
X145930000Y-95825000D03*
G04 #@! TD*
%LPD*%
M02*
