%TF.GenerationSoftware,KiCad,Pcbnew,9.0.2*%
%TF.CreationDate,2025-07-06T17:30:26+02:00*%
%TF.ProjectId,injection-controller,696e6a65-6374-4696-9f6e-2d636f6e7472,rev?*%
%TF.SameCoordinates,Original*%
%TF.FileFunction,Drillmap*%
%TF.FilePolarity,Positive*%
%FSLAX45Y45*%
G04 Gerber Fmt 4.5, Leading zero omitted, Abs format (unit mm)*
G04 Created by KiCad (PCBNEW 9.0.2) date 2025-07-06 17:30:26*
%MOMM*%
%LPD*%
G01*
G04 APERTURE LIST*
%ADD10C,0.100000*%
%ADD11C,0.120000*%
%ADD12C,0.200000*%
%ADD13C,0.110000*%
%ADD14C,0.180000*%
G04 APERTURE END LIST*
D10*
X11897000Y-6968000D02*
X17993000Y-6968000D01*
X17993000Y-12003000D01*
X11897000Y-12003000D01*
X11897000Y-6968000D01*
D11*
X13134000Y-8546500D02*
G75*
G02*
X12814000Y-8546500I-160000J0D01*
G01*
X12814000Y-8546500D02*
G75*
G02*
X13134000Y-8546500I160000J0D01*
G01*
X13134000Y-9689500D02*
G75*
G02*
X12814000Y-9689500I-160000J0D01*
G01*
X12814000Y-9689500D02*
G75*
G02*
X13134000Y-9689500I160000J0D01*
G01*
D12*
D10*
X12017500Y-8890000D02*
X12047500Y-8920000D01*
X12047500Y-8890000D02*
X12017500Y-8920000D01*
X12017500Y-9342500D02*
X12047500Y-9372500D01*
X12047500Y-9342500D02*
X12017500Y-9372500D01*
X12017500Y-9797500D02*
X12047500Y-9827500D01*
X12047500Y-9797500D02*
X12017500Y-9827500D01*
X12022500Y-8430000D02*
X12052500Y-8460000D01*
X12052500Y-8430000D02*
X12022500Y-8460000D01*
X12022500Y-11602500D02*
X12052500Y-11632500D01*
X12052500Y-11602500D02*
X12022500Y-11632500D01*
X12047500Y-10590000D02*
X12077500Y-10620000D01*
X12077500Y-10590000D02*
X12047500Y-10620000D01*
X12267500Y-10110000D02*
X12297500Y-10140000D01*
X12297500Y-10110000D02*
X12267500Y-10140000D01*
X12295000Y-8891000D02*
X12325000Y-8921000D01*
X12325000Y-8891000D02*
X12295000Y-8921000D01*
X12295000Y-9343500D02*
X12325000Y-9373500D01*
X12325000Y-9343500D02*
X12295000Y-9373500D01*
X12295000Y-9798500D02*
X12325000Y-9828500D01*
X12325000Y-9798500D02*
X12295000Y-9828500D01*
X12300000Y-8431000D02*
X12330000Y-8461000D01*
X12330000Y-8431000D02*
X12300000Y-8461000D01*
X12310000Y-7657500D02*
X12340000Y-7687500D01*
X12340000Y-7657500D02*
X12310000Y-7687500D01*
X12315000Y-7027000D02*
X12345000Y-7057000D01*
X12345000Y-7027000D02*
X12315000Y-7057000D01*
X12320000Y-11627500D02*
X12350000Y-11657500D01*
X12350000Y-11627500D02*
X12320000Y-11657500D01*
X12324000Y-7130000D02*
X12354000Y-7160000D01*
X12354000Y-7130000D02*
X12324000Y-7160000D01*
X12330000Y-7530000D02*
X12360000Y-7560000D01*
X12360000Y-7530000D02*
X12330000Y-7560000D01*
X12334000Y-7442000D02*
X12364000Y-7472000D01*
X12364000Y-7442000D02*
X12334000Y-7472000D01*
X12350000Y-7220000D02*
X12380000Y-7250000D01*
X12380000Y-7220000D02*
X12350000Y-7250000D01*
X12381250Y-7563750D02*
X12411250Y-7593750D01*
X12411250Y-7563750D02*
X12381250Y-7593750D01*
X12462500Y-11297500D02*
X12492500Y-11327500D01*
X12492500Y-11297500D02*
X12462500Y-11327500D01*
X12472500Y-10745000D02*
X12502500Y-10775000D01*
X12502500Y-10745000D02*
X12472500Y-10775000D01*
X12507500Y-10495000D02*
X12537500Y-10525000D01*
X12537500Y-10495000D02*
X12507500Y-10525000D01*
X12522300Y-8475000D02*
X12552300Y-8505000D01*
X12552300Y-8475000D02*
X12522300Y-8505000D01*
X12585000Y-7217500D02*
X12615000Y-7247500D01*
X12615000Y-7217500D02*
X12585000Y-7247500D01*
X12620000Y-10955000D02*
X12650000Y-10985000D01*
X12650000Y-10955000D02*
X12620000Y-10985000D01*
X12725000Y-10190000D02*
X12755000Y-10220000D01*
X12755000Y-10190000D02*
X12725000Y-10220000D01*
X12782500Y-7055000D02*
X12812500Y-7085000D01*
X12812500Y-7055000D02*
X12782500Y-7085000D01*
X12830000Y-10577000D02*
X12860000Y-10607000D01*
X12860000Y-10577000D02*
X12830000Y-10607000D01*
X12842500Y-7865000D02*
X12872500Y-7895000D01*
X12872500Y-7865000D02*
X12842500Y-7895000D01*
X12865000Y-9357500D02*
X12895000Y-9387500D01*
X12895000Y-9357500D02*
X12865000Y-9387500D01*
X12870000Y-8785000D02*
X12900000Y-8815000D01*
X12900000Y-8785000D02*
X12870000Y-8815000D01*
X12905000Y-7410000D02*
X12935000Y-7440000D01*
X12935000Y-7410000D02*
X12905000Y-7440000D01*
X12935000Y-11012500D02*
X12965000Y-11042500D01*
X12965000Y-11012500D02*
X12935000Y-11042500D01*
X12965000Y-9950000D02*
X12995000Y-9980000D01*
X12995000Y-9950000D02*
X12965000Y-9980000D01*
X13035000Y-8222500D02*
X13065000Y-8252500D01*
X13065000Y-8222500D02*
X13035000Y-8252500D01*
X13037500Y-10610000D02*
X13067500Y-10640000D01*
X13067500Y-10610000D02*
X13037500Y-10640000D01*
X13155000Y-9087500D02*
X13185000Y-9117500D01*
X13185000Y-9087500D02*
X13155000Y-9117500D01*
X13172500Y-8772500D02*
X13202500Y-8802500D01*
X13202500Y-8772500D02*
X13172500Y-8802500D01*
X13302500Y-7527500D02*
X13332500Y-7557500D01*
X13332500Y-7527500D02*
X13302500Y-7557500D01*
X13337500Y-7917500D02*
X13367500Y-7947500D01*
X13367500Y-7917500D02*
X13337500Y-7947500D01*
X13415000Y-9282500D02*
X13445000Y-9312500D01*
X13445000Y-9282500D02*
X13415000Y-9312500D01*
X13421000Y-10692000D02*
X13451000Y-10722000D01*
X13451000Y-10692000D02*
X13421000Y-10722000D01*
X13464000Y-10096000D02*
X13494000Y-10126000D01*
X13494000Y-10096000D02*
X13464000Y-10126000D01*
X13470000Y-7035000D02*
X13500000Y-7065000D01*
X13500000Y-7035000D02*
X13470000Y-7065000D01*
X13476000Y-8073000D02*
X13506000Y-8103000D01*
X13506000Y-8073000D02*
X13476000Y-8103000D01*
X13490000Y-8347500D02*
X13520000Y-8377500D01*
X13520000Y-8347500D02*
X13490000Y-8377500D01*
X13562000Y-10009000D02*
X13592000Y-10039000D01*
X13592000Y-10009000D02*
X13562000Y-10039000D01*
X13577500Y-11187500D02*
X13607500Y-11217500D01*
X13607500Y-11187500D02*
X13577500Y-11217500D01*
X13589000Y-10691000D02*
X13619000Y-10721000D01*
X13619000Y-10691000D02*
X13589000Y-10721000D01*
X13642500Y-9610000D02*
X13672500Y-9640000D01*
X13672500Y-9610000D02*
X13642500Y-9640000D01*
X13670000Y-9925000D02*
X13700000Y-9955000D01*
X13700000Y-9925000D02*
X13670000Y-9955000D01*
X13732500Y-7037500D02*
X13762500Y-7067500D01*
X13762500Y-7037500D02*
X13732500Y-7067500D01*
X13734000Y-8101000D02*
X13764000Y-8131000D01*
X13764000Y-8101000D02*
X13734000Y-8131000D01*
X13811000Y-7558000D02*
X13841000Y-7588000D01*
X13841000Y-7558000D02*
X13811000Y-7588000D01*
X13845000Y-8481000D02*
X13875000Y-8511000D01*
X13875000Y-8481000D02*
X13845000Y-8511000D01*
X13860000Y-9755000D02*
X13890000Y-9785000D01*
X13890000Y-9755000D02*
X13860000Y-9785000D01*
X13967500Y-9965000D02*
X13997500Y-9995000D01*
X13997500Y-9965000D02*
X13967500Y-9995000D01*
X13970000Y-10760000D02*
X14000000Y-10790000D01*
X14000000Y-10760000D02*
X13970000Y-10790000D01*
X13977500Y-7377500D02*
X14007500Y-7407500D01*
X14007500Y-7377500D02*
X13977500Y-7407500D01*
X13977500Y-11462500D02*
X14007500Y-11492500D01*
X14007500Y-11462500D02*
X13977500Y-11492500D01*
X14011000Y-11083000D02*
X14041000Y-11113000D01*
X14041000Y-11083000D02*
X14011000Y-11113000D01*
X14047500Y-9235000D02*
X14077500Y-9265000D01*
X14077500Y-9235000D02*
X14047500Y-9265000D01*
X14057500Y-8860000D02*
X14087500Y-8890000D01*
X14087500Y-8860000D02*
X14057500Y-8890000D01*
X14095000Y-8477500D02*
X14125000Y-8507500D01*
X14125000Y-8477500D02*
X14095000Y-8507500D01*
X14112500Y-7560000D02*
X14142500Y-7590000D01*
X14142500Y-7560000D02*
X14112500Y-7590000D01*
X14207500Y-9882500D02*
X14237500Y-9912500D01*
X14237500Y-9882500D02*
X14207500Y-9912500D01*
X14250000Y-10152500D02*
X14280000Y-10182500D01*
X14280000Y-10152500D02*
X14250000Y-10182500D01*
X14287500Y-7650000D02*
X14317500Y-7680000D01*
X14317500Y-7650000D02*
X14287500Y-7680000D01*
X14290000Y-7560000D02*
X14320000Y-7590000D01*
X14320000Y-7560000D02*
X14290000Y-7590000D01*
X14293000Y-8183000D02*
X14323000Y-8213000D01*
X14323000Y-8183000D02*
X14293000Y-8213000D01*
X14317000Y-11552000D02*
X14347000Y-11582000D01*
X14347000Y-11552000D02*
X14317000Y-11582000D01*
X14317500Y-9200000D02*
X14347500Y-9230000D01*
X14347500Y-9200000D02*
X14317500Y-9230000D01*
X14326000Y-7900000D02*
X14356000Y-7930000D01*
X14356000Y-7900000D02*
X14326000Y-7930000D01*
X14370000Y-7650000D02*
X14400000Y-7680000D01*
X14400000Y-7650000D02*
X14370000Y-7680000D01*
X14375000Y-7392500D02*
X14405000Y-7422500D01*
X14405000Y-7392500D02*
X14375000Y-7422500D01*
X14409000Y-10665000D02*
X14439000Y-10695000D01*
X14439000Y-10665000D02*
X14409000Y-10695000D01*
X14432500Y-10855000D02*
X14462500Y-10885000D01*
X14462500Y-10855000D02*
X14432500Y-10885000D01*
X14441000Y-8693000D02*
X14471000Y-8723000D01*
X14471000Y-8693000D02*
X14441000Y-8723000D01*
X14463000Y-11071000D02*
X14493000Y-11101000D01*
X14493000Y-11071000D02*
X14463000Y-11101000D01*
X14470000Y-7560000D02*
X14500000Y-7590000D01*
X14500000Y-7560000D02*
X14470000Y-7590000D01*
X14555000Y-9269000D02*
X14585000Y-9299000D01*
X14585000Y-9269000D02*
X14555000Y-9299000D01*
X14607500Y-11292500D02*
X14637500Y-11322500D01*
X14637500Y-11292500D02*
X14607500Y-11322500D01*
X14680000Y-7027500D02*
X14710000Y-7057500D01*
X14710000Y-7027500D02*
X14680000Y-7057500D01*
X14689000Y-7879000D02*
X14719000Y-7909000D01*
X14719000Y-7879000D02*
X14689000Y-7909000D01*
X14713000Y-9655000D02*
X14743000Y-9685000D01*
X14743000Y-9655000D02*
X14713000Y-9685000D01*
X14737000Y-8372500D02*
X14767000Y-8402500D01*
X14767000Y-8372500D02*
X14737000Y-8402500D01*
X14803000Y-8821000D02*
X14833000Y-8851000D01*
X14833000Y-8821000D02*
X14803000Y-8851000D01*
X14809570Y-7572500D02*
X14839570Y-7602500D01*
X14839570Y-7572500D02*
X14809570Y-7602500D01*
X14824000Y-9798000D02*
X14854000Y-9828000D01*
X14854000Y-9798000D02*
X14824000Y-9828000D01*
X14825000Y-10070000D02*
X14855000Y-10100000D01*
X14855000Y-10070000D02*
X14825000Y-10100000D01*
X14895000Y-7802500D02*
X14925000Y-7832500D01*
X14925000Y-7802500D02*
X14895000Y-7832500D01*
X14897501Y-7569501D02*
X14927501Y-7599501D01*
X14927501Y-7569501D02*
X14897501Y-7599501D01*
X14897501Y-7732500D02*
X14927501Y-7762500D01*
X14927501Y-7732500D02*
X14897501Y-7762500D01*
X14977500Y-8895000D02*
X15007500Y-8925000D01*
X15007500Y-8895000D02*
X14977500Y-8925000D01*
X14981000Y-8250000D02*
X15011000Y-8280000D01*
X15011000Y-8250000D02*
X14981000Y-8280000D01*
X14985000Y-9187500D02*
X15015000Y-9217500D01*
X15015000Y-9187500D02*
X14985000Y-9217500D01*
X14995000Y-8562500D02*
X15025000Y-8592500D01*
X15025000Y-8562500D02*
X14995000Y-8592500D01*
X14997500Y-7540000D02*
X15027500Y-7570000D01*
X15027500Y-7540000D02*
X14997500Y-7570000D01*
X15020000Y-10747500D02*
X15050000Y-10777500D01*
X15050000Y-10747500D02*
X15020000Y-10777500D01*
X15062500Y-11607500D02*
X15092500Y-11637500D01*
X15092500Y-11607500D02*
X15062500Y-11637500D01*
X15075000Y-9397000D02*
X15105000Y-9427000D01*
X15105000Y-9397000D02*
X15075000Y-9427000D01*
X15097500Y-7515000D02*
X15127500Y-7545000D01*
X15127500Y-7515000D02*
X15097500Y-7545000D01*
X15129000Y-7611000D02*
X15159000Y-7641000D01*
X15159000Y-7611000D02*
X15129000Y-7641000D01*
X15137500Y-8217500D02*
X15167500Y-8247500D01*
X15167500Y-8217500D02*
X15137500Y-8247500D01*
X15137500Y-8322500D02*
X15167500Y-8352500D01*
X15167500Y-8322500D02*
X15137500Y-8352500D01*
X15137500Y-8432500D02*
X15167500Y-8462500D01*
X15167500Y-8432500D02*
X15137500Y-8462500D01*
X15137500Y-8540000D02*
X15167500Y-8570000D01*
X15167500Y-8540000D02*
X15137500Y-8570000D01*
X15137500Y-8642500D02*
X15167500Y-8672500D01*
X15167500Y-8642500D02*
X15137500Y-8672500D01*
X15147500Y-7035000D02*
X15177500Y-7065000D01*
X15177500Y-7035000D02*
X15147500Y-7065000D01*
X15183000Y-7812000D02*
X15213000Y-7842000D01*
X15213000Y-7812000D02*
X15183000Y-7842000D01*
X15247500Y-7035000D02*
X15277500Y-7065000D01*
X15277500Y-7035000D02*
X15247500Y-7065000D01*
X15310000Y-8760000D02*
X15340000Y-8790000D01*
X15340000Y-8760000D02*
X15310000Y-8790000D01*
X15342500Y-7255000D02*
X15372500Y-7285000D01*
X15372500Y-7255000D02*
X15342500Y-7285000D01*
X15370000Y-7622500D02*
X15400000Y-7652500D01*
X15400000Y-7622500D02*
X15370000Y-7652500D01*
X15389000Y-10761000D02*
X15419000Y-10791000D01*
X15419000Y-10761000D02*
X15389000Y-10791000D01*
X15398000Y-7012000D02*
X15428000Y-7042000D01*
X15428000Y-7012000D02*
X15398000Y-7042000D01*
X15442500Y-7247500D02*
X15472500Y-7277500D01*
X15472500Y-7247500D02*
X15442500Y-7277500D01*
X15598086Y-7535585D02*
X15628086Y-7565585D01*
X15628086Y-7535585D02*
X15598086Y-7565585D01*
X15647501Y-7227500D02*
X15677501Y-7257500D01*
X15677501Y-7227500D02*
X15647501Y-7257500D01*
X15657500Y-11227500D02*
X15687500Y-11257500D01*
X15687500Y-11227500D02*
X15657500Y-11257500D01*
X15668000Y-8642000D02*
X15698000Y-8672000D01*
X15698000Y-8642000D02*
X15668000Y-8672000D01*
X15670000Y-8360000D02*
X15700000Y-8390000D01*
X15700000Y-8360000D02*
X15670000Y-8390000D01*
X15670000Y-8500000D02*
X15700000Y-8530000D01*
X15700000Y-8500000D02*
X15670000Y-8530000D01*
X15685000Y-10715000D02*
X15715000Y-10745000D01*
X15715000Y-10715000D02*
X15685000Y-10745000D01*
X15700000Y-7012000D02*
X15730000Y-7042000D01*
X15730000Y-7012000D02*
X15700000Y-7042000D01*
X15700000Y-7987500D02*
X15730000Y-8017500D01*
X15730000Y-7987500D02*
X15700000Y-8017500D01*
X15702500Y-8210000D02*
X15732500Y-8240000D01*
X15732500Y-8210000D02*
X15702500Y-8240000D01*
X15727502Y-7237500D02*
X15757502Y-7267500D01*
X15757502Y-7237500D02*
X15727502Y-7267500D01*
X15762500Y-8777500D02*
X15792500Y-8807500D01*
X15792500Y-8777500D02*
X15762500Y-8807500D01*
X15767500Y-7592500D02*
X15797500Y-7622500D01*
X15797500Y-7592500D02*
X15767500Y-7622500D01*
X15787500Y-9730000D02*
X15817500Y-9760000D01*
X15817500Y-9730000D02*
X15787500Y-9760000D01*
X15789255Y-7288358D02*
X15819255Y-7318358D01*
X15819255Y-7288358D02*
X15789255Y-7318358D01*
X15792500Y-9507500D02*
X15822500Y-9537500D01*
X15822500Y-9507500D02*
X15792500Y-9537500D01*
X15798000Y-8533000D02*
X15828000Y-8563000D01*
X15828000Y-8533000D02*
X15798000Y-8563000D01*
X15808000Y-8345000D02*
X15838000Y-8375000D01*
X15838000Y-8345000D02*
X15808000Y-8375000D01*
X15850000Y-7032500D02*
X15880000Y-7062500D01*
X15880000Y-7032500D02*
X15850000Y-7062500D01*
X15870000Y-9975000D02*
X15900000Y-10005000D01*
X15900000Y-9975000D02*
X15870000Y-10005000D01*
X15892500Y-7987500D02*
X15922500Y-8017500D01*
X15922500Y-7987500D02*
X15892500Y-8017500D01*
X15904000Y-8989000D02*
X15934000Y-9019000D01*
X15934000Y-8989000D02*
X15904000Y-9019000D01*
X15945000Y-7032500D02*
X15975000Y-7062500D01*
X15975000Y-7032500D02*
X15945000Y-7062500D01*
X15965000Y-7285000D02*
X15995000Y-7315000D01*
X15995000Y-7285000D02*
X15965000Y-7315000D01*
X15987500Y-9360000D02*
X16017500Y-9390000D01*
X16017500Y-9360000D02*
X15987500Y-9390000D01*
X16000000Y-11542500D02*
X16030000Y-11572500D01*
X16030000Y-11542500D02*
X16000000Y-11572500D01*
X16052500Y-7025000D02*
X16082500Y-7055000D01*
X16082500Y-7025000D02*
X16052500Y-7055000D01*
X16102500Y-9502500D02*
X16132500Y-9532500D01*
X16132500Y-9502500D02*
X16102500Y-9532500D01*
X16110000Y-9173000D02*
X16140000Y-9203000D01*
X16140000Y-9173000D02*
X16110000Y-9203000D01*
X16112500Y-9765000D02*
X16142500Y-9795000D01*
X16142500Y-9765000D02*
X16112500Y-9795000D01*
X16200000Y-7807500D02*
X16230000Y-7837500D01*
X16230000Y-7807500D02*
X16200000Y-7837500D01*
X16272500Y-11040000D02*
X16302500Y-11070000D01*
X16302500Y-11040000D02*
X16272500Y-11070000D01*
X16273000Y-7477000D02*
X16303000Y-7507000D01*
X16303000Y-7477000D02*
X16273000Y-7507000D01*
X16290000Y-10622500D02*
X16320000Y-10652500D01*
X16320000Y-10622500D02*
X16290000Y-10652500D01*
X16345000Y-8970000D02*
X16375000Y-9000000D01*
X16375000Y-8970000D02*
X16345000Y-9000000D01*
X16351000Y-11422000D02*
X16381000Y-11452000D01*
X16381000Y-11422000D02*
X16351000Y-11452000D01*
X16382500Y-8305000D02*
X16412500Y-8335000D01*
X16412500Y-8305000D02*
X16382500Y-8335000D01*
X16409000Y-8395000D02*
X16439000Y-8425000D01*
X16439000Y-8395000D02*
X16409000Y-8425000D01*
X16437500Y-7057500D02*
X16467500Y-7087500D01*
X16467500Y-7057500D02*
X16437500Y-7087500D01*
X16487000Y-10155000D02*
X16517000Y-10185000D01*
X16517000Y-10155000D02*
X16487000Y-10185000D01*
X16505000Y-8145000D02*
X16535000Y-8175000D01*
X16535000Y-8145000D02*
X16505000Y-8175000D01*
X16530000Y-7330000D02*
X16560000Y-7360000D01*
X16560000Y-7330000D02*
X16530000Y-7360000D01*
X16592500Y-9685000D02*
X16622500Y-9715000D01*
X16622500Y-9685000D02*
X16592500Y-9715000D01*
X16630000Y-8155000D02*
X16660000Y-8185000D01*
X16660000Y-8155000D02*
X16630000Y-8185000D01*
X16630000Y-8860000D02*
X16660000Y-8890000D01*
X16660000Y-8860000D02*
X16630000Y-8890000D01*
X16672500Y-7822500D02*
X16702500Y-7852500D01*
X16702500Y-7822500D02*
X16672500Y-7852500D01*
X16707500Y-8452500D02*
X16737500Y-8482500D01*
X16737500Y-8452500D02*
X16707500Y-8482500D01*
X16872500Y-7820000D02*
X16902500Y-7850000D01*
X16902500Y-7820000D02*
X16872500Y-7850000D01*
X16878000Y-11095000D02*
X16908000Y-11125000D01*
X16908000Y-11095000D02*
X16878000Y-11125000D01*
X16882038Y-11514030D02*
X16912038Y-11544030D01*
X16912038Y-11514030D02*
X16882038Y-11544030D01*
X16887500Y-10622500D02*
X16917500Y-10652500D01*
X16917500Y-10622500D02*
X16887500Y-10652500D01*
X16920000Y-7467500D02*
X16950000Y-7497500D01*
X16950000Y-7467500D02*
X16920000Y-7497500D01*
X16947500Y-8210000D02*
X16977500Y-8240000D01*
X16977500Y-8210000D02*
X16947500Y-8240000D01*
X16982500Y-7052500D02*
X17012500Y-7082500D01*
X17012500Y-7052500D02*
X16982500Y-7082500D01*
X17087500Y-8172500D02*
X17117500Y-8202500D01*
X17117500Y-8172500D02*
X17087500Y-8202500D01*
X17087500Y-9022500D02*
X17117500Y-9052500D01*
X17117500Y-9022500D02*
X17087500Y-9052500D01*
X17092500Y-8692500D02*
X17122500Y-8722500D01*
X17122500Y-8692500D02*
X17092500Y-8722500D01*
X17102500Y-9525000D02*
X17132500Y-9555000D01*
X17132500Y-9525000D02*
X17102500Y-9555000D01*
X17125000Y-7820000D02*
X17155000Y-7850000D01*
X17155000Y-7820000D02*
X17125000Y-7850000D01*
X17142000Y-11593000D02*
X17172000Y-11623000D01*
X17172000Y-11593000D02*
X17142000Y-11623000D01*
X17218000Y-10648000D02*
X17248000Y-10678000D01*
X17248000Y-10648000D02*
X17218000Y-10678000D01*
X17230000Y-8178000D02*
X17260000Y-8208000D01*
X17260000Y-8178000D02*
X17230000Y-8208000D01*
X17450000Y-11400000D02*
X17480000Y-11430000D01*
X17480000Y-11400000D02*
X17450000Y-11430000D01*
X17475000Y-10840000D02*
X17505000Y-10870000D01*
X17505000Y-10840000D02*
X17475000Y-10870000D01*
X17545000Y-7065000D02*
X17575000Y-7095000D01*
X17575000Y-7065000D02*
X17545000Y-7095000D01*
X17557500Y-7722500D02*
X17587500Y-7752500D01*
X17587500Y-7722500D02*
X17557500Y-7752500D01*
X17757500Y-10147500D02*
X17787500Y-10177500D01*
X17787500Y-10147500D02*
X17757500Y-10177500D01*
X17800000Y-7567500D02*
X17830000Y-7597500D01*
X17830000Y-7567500D02*
X17800000Y-7597500D01*
X17850000Y-11560000D02*
X17880000Y-11590000D01*
X17880000Y-11560000D02*
X17850000Y-11590000D01*
X17852500Y-11112500D02*
X17882500Y-11142500D01*
X17882500Y-11112500D02*
X17852500Y-11142500D01*
X17855000Y-10527500D02*
X17885000Y-10557500D01*
X17885000Y-10527500D02*
X17855000Y-10557500D01*
X17882500Y-7075000D02*
X17912500Y-7105000D01*
X17912500Y-7075000D02*
X17882500Y-7105000D01*
X17905000Y-8072500D02*
X17935000Y-8102500D01*
X17935000Y-8072500D02*
X17905000Y-8102500D01*
X17922500Y-10120000D02*
X17952500Y-10150000D01*
X17952500Y-10120000D02*
X17922500Y-10150000D01*
X17929000Y-9129000D02*
X17959000Y-9159000D01*
X17959000Y-9129000D02*
X17929000Y-9159000D01*
X13920000Y-8180000D02*
G75*
G02*
X13870000Y-8180000I-25000J0D01*
G01*
X13870000Y-8180000D02*
G75*
G02*
X13920000Y-8180000I25000J0D01*
G01*
X14063700Y-8135374D02*
G75*
G02*
X14013700Y-8135374I-25000J0D01*
G01*
X14013700Y-8135374D02*
G75*
G02*
X14063700Y-8135374I25000J0D01*
G01*
X14207500Y-8057500D02*
G75*
G02*
X14157500Y-8057500I-25000J0D01*
G01*
X14157500Y-8057500D02*
G75*
G02*
X14207500Y-8057500I25000J0D01*
G01*
X12097000Y-10947000D02*
X12097000Y-11027000D01*
X12057000Y-10987000D02*
X12137000Y-10987000D01*
X12097000Y-11201000D02*
X12097000Y-11281000D01*
X12057000Y-11241000D02*
X12137000Y-11241000D01*
X13321000Y-10555840D02*
X13321000Y-10635840D01*
X13281000Y-10595840D02*
X13361000Y-10595840D01*
X13321000Y-10755840D02*
X13321000Y-10835840D01*
X13281000Y-10795840D02*
X13361000Y-10795840D01*
X13321000Y-10955840D02*
X13321000Y-11035840D01*
X13281000Y-10995840D02*
X13361000Y-10995840D01*
X13521000Y-10555840D02*
X13521000Y-10635840D01*
X13481000Y-10595840D02*
X13561000Y-10595840D01*
X13521000Y-10755840D02*
X13521000Y-10835840D01*
X13481000Y-10795840D02*
X13561000Y-10795840D01*
X13521000Y-10955840D02*
X13521000Y-11035840D01*
X13481000Y-10995840D02*
X13561000Y-10995840D01*
X12652856Y-7911356D02*
X12652856Y-7840644D01*
X12582144Y-7840644D01*
X12582144Y-7911356D01*
X12652856Y-7911356D01*
X12652856Y-8165356D02*
X12652856Y-8094644D01*
X12582144Y-8094644D01*
X12582144Y-8165356D01*
X12652856Y-8165356D01*
X13020356Y-7700356D02*
X13020356Y-7629644D01*
X12949644Y-7629644D01*
X12949644Y-7700356D01*
X13020356Y-7700356D01*
X13035356Y-7220356D02*
X13035356Y-7149644D01*
X12964644Y-7149644D01*
X12964644Y-7220356D01*
X13035356Y-7220356D01*
X13402856Y-7230356D02*
X13402856Y-7159644D01*
X13332144Y-7159644D01*
X13332144Y-7230356D01*
X13402856Y-7230356D01*
X13634356Y-8962356D02*
X13634356Y-8891644D01*
X13563644Y-8891644D01*
X13563644Y-8962356D01*
X13634356Y-8962356D01*
X13644356Y-8708356D02*
X13644356Y-8637644D01*
X13573644Y-8637644D01*
X13573644Y-8708356D01*
X13644356Y-8708356D01*
X13644356Y-9216356D02*
X13644356Y-9145644D01*
X13573644Y-9145644D01*
X13573644Y-9216356D01*
X13644356Y-9216356D01*
X13644356Y-9470356D02*
X13644356Y-9399644D01*
X13573644Y-9399644D01*
X13573644Y-9470356D01*
X13644356Y-9470356D01*
X13656856Y-7230356D02*
X13656856Y-7159644D01*
X13586144Y-7159644D01*
X13586144Y-7230356D01*
X13656856Y-7230356D01*
X13898356Y-8835356D02*
X13898356Y-8764644D01*
X13827644Y-8764644D01*
X13827644Y-8835356D01*
X13898356Y-8835356D01*
X13898356Y-9089356D02*
X13898356Y-9018644D01*
X13827644Y-9018644D01*
X13827644Y-9089356D01*
X13898356Y-9089356D01*
X13898356Y-9343356D02*
X13898356Y-9272644D01*
X13827644Y-9272644D01*
X13827644Y-9343356D01*
X13898356Y-9343356D01*
X13898356Y-9593356D02*
X13898356Y-9522644D01*
X13827644Y-9522644D01*
X13827644Y-9593356D01*
X13898356Y-9593356D01*
X13910856Y-7230356D02*
X13910856Y-7159644D01*
X13840144Y-7159644D01*
X13840144Y-7230356D01*
X13910856Y-7230356D01*
X14645606Y-9065106D02*
X14645606Y-8994394D01*
X14574894Y-8994394D01*
X14574894Y-9065106D01*
X14645606Y-9065106D01*
X14645606Y-9827106D02*
X14645606Y-9756394D01*
X14574894Y-9756394D01*
X14574894Y-9827106D01*
X14645606Y-9827106D01*
X14645606Y-10081106D02*
X14645606Y-10010394D01*
X14574894Y-10010394D01*
X14574894Y-10081106D01*
X14645606Y-10081106D01*
X15153606Y-9065106D02*
X15153606Y-8994394D01*
X15082894Y-8994394D01*
X15082894Y-9065106D01*
X15153606Y-9065106D01*
X15153606Y-9827106D02*
X15153606Y-9756394D01*
X15082894Y-9756394D01*
X15082894Y-9827106D01*
X15153606Y-9827106D01*
X15153606Y-10081106D02*
X15153606Y-10010394D01*
X15082894Y-10010394D01*
X15082894Y-10081106D01*
X15153606Y-10081106D01*
X16329856Y-9310356D02*
X16329856Y-9239644D01*
X16259144Y-9239644D01*
X16259144Y-9310356D01*
X16329856Y-9310356D01*
X16397856Y-9750356D02*
X16397856Y-9679644D01*
X16327144Y-9679644D01*
X16327144Y-9750356D01*
X16397856Y-9750356D01*
X16583856Y-9310356D02*
X16583856Y-9239644D01*
X16513144Y-9239644D01*
X16513144Y-9310356D01*
X16583856Y-9310356D01*
X16837856Y-9310356D02*
X16837856Y-9239644D01*
X16767144Y-9239644D01*
X16767144Y-9310356D01*
X16837856Y-9310356D01*
X16977856Y-8507856D02*
X16977856Y-8437144D01*
X16907144Y-8437144D01*
X16907144Y-8507856D01*
X16977856Y-8507856D01*
X16980356Y-9757856D02*
X16980356Y-9687144D01*
X16909644Y-9687144D01*
X16909644Y-9757856D01*
X16980356Y-9757856D01*
X17120356Y-9310356D02*
X17120356Y-9239644D01*
X17049644Y-9239644D01*
X17049644Y-9310356D01*
X17120356Y-9310356D01*
D13*
X12024000Y-10407000D02*
X12079000Y-10352000D01*
X12024000Y-10297000D01*
X11969000Y-10352000D01*
X12024000Y-10407000D01*
X12024000Y-11931000D02*
X12079000Y-11876000D01*
X12024000Y-11821000D01*
X11969000Y-11876000D01*
X12024000Y-11931000D01*
X12278000Y-10407000D02*
X12333000Y-10352000D01*
X12278000Y-10297000D01*
X12223000Y-10352000D01*
X12278000Y-10407000D01*
X12278000Y-10661000D02*
X12333000Y-10606000D01*
X12278000Y-10551000D01*
X12223000Y-10606000D01*
X12278000Y-10661000D01*
X12278000Y-11931000D02*
X12333000Y-11876000D01*
X12278000Y-11821000D01*
X12223000Y-11876000D01*
X12278000Y-11931000D01*
X12532000Y-10407000D02*
X12587000Y-10352000D01*
X12532000Y-10297000D01*
X12477000Y-10352000D01*
X12532000Y-10407000D01*
X12532000Y-11931000D02*
X12587000Y-11876000D01*
X12532000Y-11821000D01*
X12477000Y-11876000D01*
X12532000Y-11931000D01*
X12653920Y-11625920D02*
X12708920Y-11570920D01*
X12653920Y-11515920D01*
X12598920Y-11570920D01*
X12653920Y-11625920D01*
X12786000Y-10407000D02*
X12841000Y-10352000D01*
X12786000Y-10297000D01*
X12731000Y-10352000D01*
X12786000Y-10407000D01*
X12786000Y-11931000D02*
X12841000Y-11876000D01*
X12786000Y-11821000D01*
X12731000Y-11876000D01*
X12786000Y-11931000D01*
X12907920Y-11625920D02*
X12962920Y-11570920D01*
X12907920Y-11515920D01*
X12852920Y-11570920D01*
X12907920Y-11625920D01*
X13040000Y-10407000D02*
X13095000Y-10352000D01*
X13040000Y-10297000D01*
X12985000Y-10352000D01*
X13040000Y-10407000D01*
X13040000Y-11931000D02*
X13095000Y-11876000D01*
X13040000Y-11821000D01*
X12985000Y-11876000D01*
X13040000Y-11931000D01*
X13161920Y-11625920D02*
X13216920Y-11570920D01*
X13161920Y-11515920D01*
X13106920Y-11570920D01*
X13161920Y-11625920D01*
X13294000Y-10407000D02*
X13349000Y-10352000D01*
X13294000Y-10297000D01*
X13239000Y-10352000D01*
X13294000Y-10407000D01*
X13294000Y-11931000D02*
X13349000Y-11876000D01*
X13294000Y-11821000D01*
X13239000Y-11876000D01*
X13294000Y-11931000D01*
X13415920Y-11625920D02*
X13470920Y-11570920D01*
X13415920Y-11515920D01*
X13360920Y-11570920D01*
X13415920Y-11625920D01*
X13548000Y-10407000D02*
X13603000Y-10352000D01*
X13548000Y-10297000D01*
X13493000Y-10352000D01*
X13548000Y-10407000D01*
X13548000Y-11931000D02*
X13603000Y-11876000D01*
X13548000Y-11821000D01*
X13493000Y-11876000D01*
X13548000Y-11931000D01*
X13669920Y-11625920D02*
X13724920Y-11570920D01*
X13669920Y-11515920D01*
X13614920Y-11570920D01*
X13669920Y-11625920D01*
X13802000Y-10407000D02*
X13857000Y-10352000D01*
X13802000Y-10297000D01*
X13747000Y-10352000D01*
X13802000Y-10407000D01*
X13802000Y-11931000D02*
X13857000Y-11876000D01*
X13802000Y-11821000D01*
X13747000Y-11876000D01*
X13802000Y-11931000D01*
X14056000Y-10407000D02*
X14111000Y-10352000D01*
X14056000Y-10297000D01*
X14001000Y-10352000D01*
X14056000Y-10407000D01*
X14056000Y-11931000D02*
X14111000Y-11876000D01*
X14056000Y-11821000D01*
X14001000Y-11876000D01*
X14056000Y-11931000D01*
X14310000Y-10407000D02*
X14365000Y-10352000D01*
X14310000Y-10297000D01*
X14255000Y-10352000D01*
X14310000Y-10407000D01*
X14310000Y-11931000D02*
X14365000Y-11876000D01*
X14310000Y-11821000D01*
X14255000Y-11876000D01*
X14310000Y-11931000D01*
X14564000Y-10407000D02*
X14619000Y-10352000D01*
X14564000Y-10297000D01*
X14509000Y-10352000D01*
X14564000Y-10407000D01*
X14564000Y-11931000D02*
X14619000Y-11876000D01*
X14564000Y-11821000D01*
X14509000Y-11876000D01*
X14564000Y-11931000D01*
X14818000Y-10407000D02*
X14873000Y-10352000D01*
X14818000Y-10297000D01*
X14763000Y-10352000D01*
X14818000Y-10407000D01*
X14818000Y-11931000D02*
X14873000Y-11876000D01*
X14818000Y-11821000D01*
X14763000Y-11876000D01*
X14818000Y-11931000D01*
X15072000Y-10407000D02*
X15127000Y-10352000D01*
X15072000Y-10297000D01*
X15017000Y-10352000D01*
X15072000Y-10407000D01*
X15072000Y-11931000D02*
X15127000Y-11876000D01*
X15072000Y-11821000D01*
X15017000Y-11876000D01*
X15072000Y-11931000D01*
X15326000Y-10407000D02*
X15381000Y-10352000D01*
X15326000Y-10297000D01*
X15271000Y-10352000D01*
X15326000Y-10407000D01*
X15326000Y-11931000D02*
X15381000Y-11876000D01*
X15326000Y-11821000D01*
X15271000Y-11876000D01*
X15326000Y-11931000D01*
X15580000Y-10407000D02*
X15635000Y-10352000D01*
X15580000Y-10297000D01*
X15525000Y-10352000D01*
X15580000Y-10407000D01*
X15580000Y-11931000D02*
X15635000Y-11876000D01*
X15580000Y-11821000D01*
X15525000Y-11876000D01*
X15580000Y-11931000D01*
X15834000Y-10407000D02*
X15889000Y-10352000D01*
X15834000Y-10297000D01*
X15779000Y-10352000D01*
X15834000Y-10407000D01*
X15834000Y-11931000D02*
X15889000Y-11876000D01*
X15834000Y-11821000D01*
X15779000Y-11876000D01*
X15834000Y-11931000D01*
X16088000Y-10407000D02*
X16143000Y-10352000D01*
X16088000Y-10297000D01*
X16033000Y-10352000D01*
X16088000Y-10407000D01*
X16088000Y-11931000D02*
X16143000Y-11876000D01*
X16088000Y-11821000D01*
X16033000Y-11876000D01*
X16088000Y-11931000D01*
X16342000Y-10407000D02*
X16397000Y-10352000D01*
X16342000Y-10297000D01*
X16287000Y-10352000D01*
X16342000Y-10407000D01*
X16342000Y-11931000D02*
X16397000Y-11876000D01*
X16342000Y-11821000D01*
X16287000Y-11876000D01*
X16342000Y-11931000D01*
X16596000Y-10407000D02*
X16651000Y-10352000D01*
X16596000Y-10297000D01*
X16541000Y-10352000D01*
X16596000Y-10407000D01*
X16596000Y-10661000D02*
X16651000Y-10606000D01*
X16596000Y-10551000D01*
X16541000Y-10606000D01*
X16596000Y-10661000D01*
X16596000Y-10915000D02*
X16651000Y-10860000D01*
X16596000Y-10805000D01*
X16541000Y-10860000D01*
X16596000Y-10915000D01*
X16596000Y-11169000D02*
X16651000Y-11114000D01*
X16596000Y-11059000D01*
X16541000Y-11114000D01*
X16596000Y-11169000D01*
X16596000Y-11423000D02*
X16651000Y-11368000D01*
X16596000Y-11313000D01*
X16541000Y-11368000D01*
X16596000Y-11423000D01*
X16596000Y-11677000D02*
X16651000Y-11622000D01*
X16596000Y-11567000D01*
X16541000Y-11622000D01*
X16596000Y-11677000D01*
X16596000Y-11931000D02*
X16651000Y-11876000D01*
X16596000Y-11821000D01*
X16541000Y-11876000D01*
X16596000Y-11931000D01*
X16850000Y-10407000D02*
X16905000Y-10352000D01*
X16850000Y-10297000D01*
X16795000Y-10352000D01*
X16850000Y-10407000D01*
X16850000Y-11931000D02*
X16905000Y-11876000D01*
X16850000Y-11821000D01*
X16795000Y-11876000D01*
X16850000Y-11931000D01*
X17104000Y-10407000D02*
X17159000Y-10352000D01*
X17104000Y-10297000D01*
X17049000Y-10352000D01*
X17104000Y-10407000D01*
X17104000Y-11931000D02*
X17159000Y-11876000D01*
X17104000Y-11821000D01*
X17049000Y-11876000D01*
X17104000Y-11931000D01*
X17358000Y-10407000D02*
X17413000Y-10352000D01*
X17358000Y-10297000D01*
X17303000Y-10352000D01*
X17358000Y-10407000D01*
X17358000Y-11931000D02*
X17413000Y-11876000D01*
X17358000Y-11821000D01*
X17303000Y-11876000D01*
X17358000Y-11931000D01*
X17612000Y-10407000D02*
X17667000Y-10352000D01*
X17612000Y-10297000D01*
X17557000Y-10352000D01*
X17612000Y-10407000D01*
X17612000Y-11931000D02*
X17667000Y-11876000D01*
X17612000Y-11821000D01*
X17557000Y-11876000D01*
X17612000Y-11931000D01*
X17866000Y-10407000D02*
X17921000Y-10352000D01*
X17866000Y-10297000D01*
X17811000Y-10352000D01*
X17866000Y-10407000D01*
X17866000Y-11931000D02*
X17921000Y-11876000D01*
X17866000Y-11821000D01*
X17811000Y-11876000D01*
X17866000Y-11931000D01*
D11*
X14286000Y-8512000D02*
X14406000Y-8632000D01*
X14406000Y-8512000D02*
X14286000Y-8632000D01*
X14406000Y-8572000D02*
G75*
G02*
X14286000Y-8572000I-60000J0D01*
G01*
X14286000Y-8572000D02*
G75*
G02*
X14406000Y-8572000I60000J0D01*
G01*
X14286000Y-8766000D02*
X14406000Y-8886000D01*
X14406000Y-8766000D02*
X14286000Y-8886000D01*
X14406000Y-8826000D02*
G75*
G02*
X14286000Y-8826000I-60000J0D01*
G01*
X14286000Y-8826000D02*
G75*
G02*
X14406000Y-8826000I60000J0D01*
G01*
X14286000Y-9350000D02*
X14406000Y-9470000D01*
X14406000Y-9350000D02*
X14286000Y-9470000D01*
X14406000Y-9410000D02*
G75*
G02*
X14286000Y-9410000I-60000J0D01*
G01*
X14286000Y-9410000D02*
G75*
G02*
X14406000Y-9410000I60000J0D01*
G01*
X14286000Y-9604000D02*
X14406000Y-9724000D01*
X14406000Y-9604000D02*
X14286000Y-9724000D01*
X14406000Y-9664000D02*
G75*
G02*
X14286000Y-9664000I-60000J0D01*
G01*
X14286000Y-9664000D02*
G75*
G02*
X14406000Y-9664000I60000J0D01*
G01*
D14*
X13189000Y-8241000D02*
X13369000Y-8421000D01*
X13369000Y-8241000D02*
X13189000Y-8421000D01*
X13279000Y-8241000D02*
X13279000Y-8421000D01*
X13189000Y-8331000D02*
X13369000Y-8331000D01*
X13189000Y-9815000D02*
X13369000Y-9995000D01*
X13369000Y-9815000D02*
X13189000Y-9995000D01*
X13279000Y-9815000D02*
X13279000Y-9995000D01*
X13189000Y-9905000D02*
X13369000Y-9905000D01*
D12*
X12152777Y-12319484D02*
X12152777Y-12119484D01*
X12152777Y-12119484D02*
X12200396Y-12119484D01*
X12200396Y-12119484D02*
X12228967Y-12129008D01*
X12228967Y-12129008D02*
X12248015Y-12148055D01*
X12248015Y-12148055D02*
X12257539Y-12167103D01*
X12257539Y-12167103D02*
X12267062Y-12205198D01*
X12267062Y-12205198D02*
X12267062Y-12233769D01*
X12267062Y-12233769D02*
X12257539Y-12271865D01*
X12257539Y-12271865D02*
X12248015Y-12290912D01*
X12248015Y-12290912D02*
X12228967Y-12309960D01*
X12228967Y-12309960D02*
X12200396Y-12319484D01*
X12200396Y-12319484D02*
X12152777Y-12319484D01*
X12352777Y-12319484D02*
X12352777Y-12186150D01*
X12352777Y-12224246D02*
X12362301Y-12205198D01*
X12362301Y-12205198D02*
X12371824Y-12195674D01*
X12371824Y-12195674D02*
X12390872Y-12186150D01*
X12390872Y-12186150D02*
X12409920Y-12186150D01*
X12476586Y-12319484D02*
X12476586Y-12186150D01*
X12476586Y-12119484D02*
X12467062Y-12129008D01*
X12467062Y-12129008D02*
X12476586Y-12138531D01*
X12476586Y-12138531D02*
X12486110Y-12129008D01*
X12486110Y-12129008D02*
X12476586Y-12119484D01*
X12476586Y-12119484D02*
X12476586Y-12138531D01*
X12600396Y-12319484D02*
X12581348Y-12309960D01*
X12581348Y-12309960D02*
X12571824Y-12290912D01*
X12571824Y-12290912D02*
X12571824Y-12119484D01*
X12705158Y-12319484D02*
X12686110Y-12309960D01*
X12686110Y-12309960D02*
X12676586Y-12290912D01*
X12676586Y-12290912D02*
X12676586Y-12119484D01*
X12933729Y-12319484D02*
X12933729Y-12119484D01*
X12933729Y-12119484D02*
X13000396Y-12262341D01*
X13000396Y-12262341D02*
X13067062Y-12119484D01*
X13067062Y-12119484D02*
X13067062Y-12319484D01*
X13248015Y-12319484D02*
X13248015Y-12214722D01*
X13248015Y-12214722D02*
X13238491Y-12195674D01*
X13238491Y-12195674D02*
X13219443Y-12186150D01*
X13219443Y-12186150D02*
X13181348Y-12186150D01*
X13181348Y-12186150D02*
X13162301Y-12195674D01*
X13248015Y-12309960D02*
X13228967Y-12319484D01*
X13228967Y-12319484D02*
X13181348Y-12319484D01*
X13181348Y-12319484D02*
X13162301Y-12309960D01*
X13162301Y-12309960D02*
X13152777Y-12290912D01*
X13152777Y-12290912D02*
X13152777Y-12271865D01*
X13152777Y-12271865D02*
X13162301Y-12252817D01*
X13162301Y-12252817D02*
X13181348Y-12243293D01*
X13181348Y-12243293D02*
X13228967Y-12243293D01*
X13228967Y-12243293D02*
X13248015Y-12233769D01*
X13343253Y-12186150D02*
X13343253Y-12386150D01*
X13343253Y-12195674D02*
X13362301Y-12186150D01*
X13362301Y-12186150D02*
X13400396Y-12186150D01*
X13400396Y-12186150D02*
X13419443Y-12195674D01*
X13419443Y-12195674D02*
X13428967Y-12205198D01*
X13428967Y-12205198D02*
X13438491Y-12224246D01*
X13438491Y-12224246D02*
X13438491Y-12281388D01*
X13438491Y-12281388D02*
X13428967Y-12300436D01*
X13428967Y-12300436D02*
X13419443Y-12309960D01*
X13419443Y-12309960D02*
X13400396Y-12319484D01*
X13400396Y-12319484D02*
X13362301Y-12319484D01*
X13362301Y-12319484D02*
X13343253Y-12309960D01*
X13524205Y-12300436D02*
X13533729Y-12309960D01*
X13533729Y-12309960D02*
X13524205Y-12319484D01*
X13524205Y-12319484D02*
X13514682Y-12309960D01*
X13514682Y-12309960D02*
X13524205Y-12300436D01*
X13524205Y-12300436D02*
X13524205Y-12319484D01*
X13524205Y-12195674D02*
X13533729Y-12205198D01*
X13533729Y-12205198D02*
X13524205Y-12214722D01*
X13524205Y-12214722D02*
X13514682Y-12205198D01*
X13514682Y-12205198D02*
X13524205Y-12195674D01*
X13524205Y-12195674D02*
X13524205Y-12214722D01*
D10*
X11862000Y-12633000D02*
X11892000Y-12663000D01*
X11892000Y-12633000D02*
X11862000Y-12663000D01*
D12*
X12190872Y-12539484D02*
X12209920Y-12539484D01*
X12209920Y-12539484D02*
X12228967Y-12549008D01*
X12228967Y-12549008D02*
X12238491Y-12558531D01*
X12238491Y-12558531D02*
X12248015Y-12577579D01*
X12248015Y-12577579D02*
X12257539Y-12615674D01*
X12257539Y-12615674D02*
X12257539Y-12663293D01*
X12257539Y-12663293D02*
X12248015Y-12701388D01*
X12248015Y-12701388D02*
X12238491Y-12720436D01*
X12238491Y-12720436D02*
X12228967Y-12729960D01*
X12228967Y-12729960D02*
X12209920Y-12739484D01*
X12209920Y-12739484D02*
X12190872Y-12739484D01*
X12190872Y-12739484D02*
X12171824Y-12729960D01*
X12171824Y-12729960D02*
X12162301Y-12720436D01*
X12162301Y-12720436D02*
X12152777Y-12701388D01*
X12152777Y-12701388D02*
X12143253Y-12663293D01*
X12143253Y-12663293D02*
X12143253Y-12615674D01*
X12143253Y-12615674D02*
X12152777Y-12577579D01*
X12152777Y-12577579D02*
X12162301Y-12558531D01*
X12162301Y-12558531D02*
X12171824Y-12549008D01*
X12171824Y-12549008D02*
X12190872Y-12539484D01*
X12343253Y-12720436D02*
X12352777Y-12729960D01*
X12352777Y-12729960D02*
X12343253Y-12739484D01*
X12343253Y-12739484D02*
X12333729Y-12729960D01*
X12333729Y-12729960D02*
X12343253Y-12720436D01*
X12343253Y-12720436D02*
X12343253Y-12739484D01*
X12419443Y-12539484D02*
X12543253Y-12539484D01*
X12543253Y-12539484D02*
X12476586Y-12615674D01*
X12476586Y-12615674D02*
X12505158Y-12615674D01*
X12505158Y-12615674D02*
X12524205Y-12625198D01*
X12524205Y-12625198D02*
X12533729Y-12634722D01*
X12533729Y-12634722D02*
X12543253Y-12653769D01*
X12543253Y-12653769D02*
X12543253Y-12701388D01*
X12543253Y-12701388D02*
X12533729Y-12720436D01*
X12533729Y-12720436D02*
X12524205Y-12729960D01*
X12524205Y-12729960D02*
X12505158Y-12739484D01*
X12505158Y-12739484D02*
X12448015Y-12739484D01*
X12448015Y-12739484D02*
X12428967Y-12729960D01*
X12428967Y-12729960D02*
X12419443Y-12720436D01*
X12667062Y-12539484D02*
X12686110Y-12539484D01*
X12686110Y-12539484D02*
X12705158Y-12549008D01*
X12705158Y-12549008D02*
X12714682Y-12558531D01*
X12714682Y-12558531D02*
X12724205Y-12577579D01*
X12724205Y-12577579D02*
X12733729Y-12615674D01*
X12733729Y-12615674D02*
X12733729Y-12663293D01*
X12733729Y-12663293D02*
X12724205Y-12701388D01*
X12724205Y-12701388D02*
X12714682Y-12720436D01*
X12714682Y-12720436D02*
X12705158Y-12729960D01*
X12705158Y-12729960D02*
X12686110Y-12739484D01*
X12686110Y-12739484D02*
X12667062Y-12739484D01*
X12667062Y-12739484D02*
X12648015Y-12729960D01*
X12648015Y-12729960D02*
X12638491Y-12720436D01*
X12638491Y-12720436D02*
X12628967Y-12701388D01*
X12628967Y-12701388D02*
X12619443Y-12663293D01*
X12619443Y-12663293D02*
X12619443Y-12615674D01*
X12619443Y-12615674D02*
X12628967Y-12577579D01*
X12628967Y-12577579D02*
X12638491Y-12558531D01*
X12638491Y-12558531D02*
X12648015Y-12549008D01*
X12648015Y-12549008D02*
X12667062Y-12539484D01*
X12857539Y-12539484D02*
X12876586Y-12539484D01*
X12876586Y-12539484D02*
X12895634Y-12549008D01*
X12895634Y-12549008D02*
X12905158Y-12558531D01*
X12905158Y-12558531D02*
X12914682Y-12577579D01*
X12914682Y-12577579D02*
X12924205Y-12615674D01*
X12924205Y-12615674D02*
X12924205Y-12663293D01*
X12924205Y-12663293D02*
X12914682Y-12701388D01*
X12914682Y-12701388D02*
X12905158Y-12720436D01*
X12905158Y-12720436D02*
X12895634Y-12729960D01*
X12895634Y-12729960D02*
X12876586Y-12739484D01*
X12876586Y-12739484D02*
X12857539Y-12739484D01*
X12857539Y-12739484D02*
X12838491Y-12729960D01*
X12838491Y-12729960D02*
X12828967Y-12720436D01*
X12828967Y-12720436D02*
X12819443Y-12701388D01*
X12819443Y-12701388D02*
X12809920Y-12663293D01*
X12809920Y-12663293D02*
X12809920Y-12615674D01*
X12809920Y-12615674D02*
X12819443Y-12577579D01*
X12819443Y-12577579D02*
X12828967Y-12558531D01*
X12828967Y-12558531D02*
X12838491Y-12549008D01*
X12838491Y-12549008D02*
X12857539Y-12539484D01*
X13009920Y-12739484D02*
X13009920Y-12606150D01*
X13009920Y-12625198D02*
X13019443Y-12615674D01*
X13019443Y-12615674D02*
X13038491Y-12606150D01*
X13038491Y-12606150D02*
X13067063Y-12606150D01*
X13067063Y-12606150D02*
X13086110Y-12615674D01*
X13086110Y-12615674D02*
X13095634Y-12634722D01*
X13095634Y-12634722D02*
X13095634Y-12739484D01*
X13095634Y-12634722D02*
X13105158Y-12615674D01*
X13105158Y-12615674D02*
X13124205Y-12606150D01*
X13124205Y-12606150D02*
X13152777Y-12606150D01*
X13152777Y-12606150D02*
X13171824Y-12615674D01*
X13171824Y-12615674D02*
X13181348Y-12634722D01*
X13181348Y-12634722D02*
X13181348Y-12739484D01*
X13276586Y-12739484D02*
X13276586Y-12606150D01*
X13276586Y-12625198D02*
X13286110Y-12615674D01*
X13286110Y-12615674D02*
X13305158Y-12606150D01*
X13305158Y-12606150D02*
X13333729Y-12606150D01*
X13333729Y-12606150D02*
X13352777Y-12615674D01*
X13352777Y-12615674D02*
X13362301Y-12634722D01*
X13362301Y-12634722D02*
X13362301Y-12739484D01*
X13362301Y-12634722D02*
X13371824Y-12615674D01*
X13371824Y-12615674D02*
X13390872Y-12606150D01*
X13390872Y-12606150D02*
X13419443Y-12606150D01*
X13419443Y-12606150D02*
X13438491Y-12615674D01*
X13438491Y-12615674D02*
X13448015Y-12634722D01*
X13448015Y-12634722D02*
X13448015Y-12739484D01*
X13838491Y-12529960D02*
X13667063Y-12787103D01*
X14095634Y-12539484D02*
X14114682Y-12539484D01*
X14114682Y-12539484D02*
X14133729Y-12549008D01*
X14133729Y-12549008D02*
X14143253Y-12558531D01*
X14143253Y-12558531D02*
X14152777Y-12577579D01*
X14152777Y-12577579D02*
X14162301Y-12615674D01*
X14162301Y-12615674D02*
X14162301Y-12663293D01*
X14162301Y-12663293D02*
X14152777Y-12701388D01*
X14152777Y-12701388D02*
X14143253Y-12720436D01*
X14143253Y-12720436D02*
X14133729Y-12729960D01*
X14133729Y-12729960D02*
X14114682Y-12739484D01*
X14114682Y-12739484D02*
X14095634Y-12739484D01*
X14095634Y-12739484D02*
X14076586Y-12729960D01*
X14076586Y-12729960D02*
X14067063Y-12720436D01*
X14067063Y-12720436D02*
X14057539Y-12701388D01*
X14057539Y-12701388D02*
X14048015Y-12663293D01*
X14048015Y-12663293D02*
X14048015Y-12615674D01*
X14048015Y-12615674D02*
X14057539Y-12577579D01*
X14057539Y-12577579D02*
X14067063Y-12558531D01*
X14067063Y-12558531D02*
X14076586Y-12549008D01*
X14076586Y-12549008D02*
X14095634Y-12539484D01*
X14248015Y-12720436D02*
X14257539Y-12729960D01*
X14257539Y-12729960D02*
X14248015Y-12739484D01*
X14248015Y-12739484D02*
X14238491Y-12729960D01*
X14238491Y-12729960D02*
X14248015Y-12720436D01*
X14248015Y-12720436D02*
X14248015Y-12739484D01*
X14381348Y-12539484D02*
X14400396Y-12539484D01*
X14400396Y-12539484D02*
X14419444Y-12549008D01*
X14419444Y-12549008D02*
X14428967Y-12558531D01*
X14428967Y-12558531D02*
X14438491Y-12577579D01*
X14438491Y-12577579D02*
X14448015Y-12615674D01*
X14448015Y-12615674D02*
X14448015Y-12663293D01*
X14448015Y-12663293D02*
X14438491Y-12701388D01*
X14438491Y-12701388D02*
X14428967Y-12720436D01*
X14428967Y-12720436D02*
X14419444Y-12729960D01*
X14419444Y-12729960D02*
X14400396Y-12739484D01*
X14400396Y-12739484D02*
X14381348Y-12739484D01*
X14381348Y-12739484D02*
X14362301Y-12729960D01*
X14362301Y-12729960D02*
X14352777Y-12720436D01*
X14352777Y-12720436D02*
X14343253Y-12701388D01*
X14343253Y-12701388D02*
X14333729Y-12663293D01*
X14333729Y-12663293D02*
X14333729Y-12615674D01*
X14333729Y-12615674D02*
X14343253Y-12577579D01*
X14343253Y-12577579D02*
X14352777Y-12558531D01*
X14352777Y-12558531D02*
X14362301Y-12549008D01*
X14362301Y-12549008D02*
X14381348Y-12539484D01*
X14638491Y-12739484D02*
X14524206Y-12739484D01*
X14581348Y-12739484D02*
X14581348Y-12539484D01*
X14581348Y-12539484D02*
X14562301Y-12568055D01*
X14562301Y-12568055D02*
X14543253Y-12587103D01*
X14543253Y-12587103D02*
X14524206Y-12596627D01*
X14828967Y-12739484D02*
X14714682Y-12739484D01*
X14771825Y-12739484D02*
X14771825Y-12539484D01*
X14771825Y-12539484D02*
X14752777Y-12568055D01*
X14752777Y-12568055D02*
X14733729Y-12587103D01*
X14733729Y-12587103D02*
X14714682Y-12596627D01*
X14943253Y-12625198D02*
X14924206Y-12615674D01*
X14924206Y-12615674D02*
X14914682Y-12606150D01*
X14914682Y-12606150D02*
X14905158Y-12587103D01*
X14905158Y-12587103D02*
X14905158Y-12577579D01*
X14905158Y-12577579D02*
X14914682Y-12558531D01*
X14914682Y-12558531D02*
X14924206Y-12549008D01*
X14924206Y-12549008D02*
X14943253Y-12539484D01*
X14943253Y-12539484D02*
X14981348Y-12539484D01*
X14981348Y-12539484D02*
X15000396Y-12549008D01*
X15000396Y-12549008D02*
X15009920Y-12558531D01*
X15009920Y-12558531D02*
X15019444Y-12577579D01*
X15019444Y-12577579D02*
X15019444Y-12587103D01*
X15019444Y-12587103D02*
X15009920Y-12606150D01*
X15009920Y-12606150D02*
X15000396Y-12615674D01*
X15000396Y-12615674D02*
X14981348Y-12625198D01*
X14981348Y-12625198D02*
X14943253Y-12625198D01*
X14943253Y-12625198D02*
X14924206Y-12634722D01*
X14924206Y-12634722D02*
X14914682Y-12644246D01*
X14914682Y-12644246D02*
X14905158Y-12663293D01*
X14905158Y-12663293D02*
X14905158Y-12701388D01*
X14905158Y-12701388D02*
X14914682Y-12720436D01*
X14914682Y-12720436D02*
X14924206Y-12729960D01*
X14924206Y-12729960D02*
X14943253Y-12739484D01*
X14943253Y-12739484D02*
X14981348Y-12739484D01*
X14981348Y-12739484D02*
X15000396Y-12729960D01*
X15000396Y-12729960D02*
X15009920Y-12720436D01*
X15009920Y-12720436D02*
X15019444Y-12701388D01*
X15019444Y-12701388D02*
X15019444Y-12663293D01*
X15019444Y-12663293D02*
X15009920Y-12644246D01*
X15009920Y-12644246D02*
X15000396Y-12634722D01*
X15000396Y-12634722D02*
X14981348Y-12625198D01*
X15095634Y-12539484D02*
X15095634Y-12577579D01*
X15171825Y-12539484D02*
X15171825Y-12577579D01*
X15467063Y-12815674D02*
X15457539Y-12806150D01*
X15457539Y-12806150D02*
X15438491Y-12777579D01*
X15438491Y-12777579D02*
X15428968Y-12758531D01*
X15428968Y-12758531D02*
X15419444Y-12729960D01*
X15419444Y-12729960D02*
X15409920Y-12682341D01*
X15409920Y-12682341D02*
X15409920Y-12644246D01*
X15409920Y-12644246D02*
X15419444Y-12596627D01*
X15419444Y-12596627D02*
X15428968Y-12568055D01*
X15428968Y-12568055D02*
X15438491Y-12549008D01*
X15438491Y-12549008D02*
X15457539Y-12520436D01*
X15457539Y-12520436D02*
X15467063Y-12510912D01*
X15648015Y-12739484D02*
X15533729Y-12739484D01*
X15590872Y-12739484D02*
X15590872Y-12539484D01*
X15590872Y-12539484D02*
X15571825Y-12568055D01*
X15571825Y-12568055D02*
X15552777Y-12587103D01*
X15552777Y-12587103D02*
X15533729Y-12596627D01*
X15743253Y-12739484D02*
X15781348Y-12739484D01*
X15781348Y-12739484D02*
X15800396Y-12729960D01*
X15800396Y-12729960D02*
X15809920Y-12720436D01*
X15809920Y-12720436D02*
X15828968Y-12691865D01*
X15828968Y-12691865D02*
X15838491Y-12653769D01*
X15838491Y-12653769D02*
X15838491Y-12577579D01*
X15838491Y-12577579D02*
X15828968Y-12558531D01*
X15828968Y-12558531D02*
X15819444Y-12549008D01*
X15819444Y-12549008D02*
X15800396Y-12539484D01*
X15800396Y-12539484D02*
X15762301Y-12539484D01*
X15762301Y-12539484D02*
X15743253Y-12549008D01*
X15743253Y-12549008D02*
X15733729Y-12558531D01*
X15733729Y-12558531D02*
X15724206Y-12577579D01*
X15724206Y-12577579D02*
X15724206Y-12625198D01*
X15724206Y-12625198D02*
X15733729Y-12644246D01*
X15733729Y-12644246D02*
X15743253Y-12653769D01*
X15743253Y-12653769D02*
X15762301Y-12663293D01*
X15762301Y-12663293D02*
X15800396Y-12663293D01*
X15800396Y-12663293D02*
X15819444Y-12653769D01*
X15819444Y-12653769D02*
X15828968Y-12644246D01*
X15828968Y-12644246D02*
X15838491Y-12625198D01*
X15914682Y-12558531D02*
X15924206Y-12549008D01*
X15924206Y-12549008D02*
X15943253Y-12539484D01*
X15943253Y-12539484D02*
X15990872Y-12539484D01*
X15990872Y-12539484D02*
X16009920Y-12549008D01*
X16009920Y-12549008D02*
X16019444Y-12558531D01*
X16019444Y-12558531D02*
X16028968Y-12577579D01*
X16028968Y-12577579D02*
X16028968Y-12596627D01*
X16028968Y-12596627D02*
X16019444Y-12625198D01*
X16019444Y-12625198D02*
X15905158Y-12739484D01*
X15905158Y-12739484D02*
X16028968Y-12739484D01*
X16267063Y-12739484D02*
X16267063Y-12539484D01*
X16352777Y-12739484D02*
X16352777Y-12634722D01*
X16352777Y-12634722D02*
X16343253Y-12615674D01*
X16343253Y-12615674D02*
X16324206Y-12606150D01*
X16324206Y-12606150D02*
X16295634Y-12606150D01*
X16295634Y-12606150D02*
X16276587Y-12615674D01*
X16276587Y-12615674D02*
X16267063Y-12625198D01*
X16476587Y-12739484D02*
X16457539Y-12729960D01*
X16457539Y-12729960D02*
X16448015Y-12720436D01*
X16448015Y-12720436D02*
X16438491Y-12701388D01*
X16438491Y-12701388D02*
X16438491Y-12644246D01*
X16438491Y-12644246D02*
X16448015Y-12625198D01*
X16448015Y-12625198D02*
X16457539Y-12615674D01*
X16457539Y-12615674D02*
X16476587Y-12606150D01*
X16476587Y-12606150D02*
X16505158Y-12606150D01*
X16505158Y-12606150D02*
X16524206Y-12615674D01*
X16524206Y-12615674D02*
X16533730Y-12625198D01*
X16533730Y-12625198D02*
X16543253Y-12644246D01*
X16543253Y-12644246D02*
X16543253Y-12701388D01*
X16543253Y-12701388D02*
X16533730Y-12720436D01*
X16533730Y-12720436D02*
X16524206Y-12729960D01*
X16524206Y-12729960D02*
X16505158Y-12739484D01*
X16505158Y-12739484D02*
X16476587Y-12739484D01*
X16657539Y-12739484D02*
X16638491Y-12729960D01*
X16638491Y-12729960D02*
X16628968Y-12710912D01*
X16628968Y-12710912D02*
X16628968Y-12539484D01*
X16809920Y-12729960D02*
X16790873Y-12739484D01*
X16790873Y-12739484D02*
X16752777Y-12739484D01*
X16752777Y-12739484D02*
X16733730Y-12729960D01*
X16733730Y-12729960D02*
X16724206Y-12710912D01*
X16724206Y-12710912D02*
X16724206Y-12634722D01*
X16724206Y-12634722D02*
X16733730Y-12615674D01*
X16733730Y-12615674D02*
X16752777Y-12606150D01*
X16752777Y-12606150D02*
X16790873Y-12606150D01*
X16790873Y-12606150D02*
X16809920Y-12615674D01*
X16809920Y-12615674D02*
X16819444Y-12634722D01*
X16819444Y-12634722D02*
X16819444Y-12653769D01*
X16819444Y-12653769D02*
X16724206Y-12672817D01*
X16895634Y-12729960D02*
X16914682Y-12739484D01*
X16914682Y-12739484D02*
X16952777Y-12739484D01*
X16952777Y-12739484D02*
X16971825Y-12729960D01*
X16971825Y-12729960D02*
X16981349Y-12710912D01*
X16981349Y-12710912D02*
X16981349Y-12701388D01*
X16981349Y-12701388D02*
X16971825Y-12682341D01*
X16971825Y-12682341D02*
X16952777Y-12672817D01*
X16952777Y-12672817D02*
X16924206Y-12672817D01*
X16924206Y-12672817D02*
X16905158Y-12663293D01*
X16905158Y-12663293D02*
X16895634Y-12644246D01*
X16895634Y-12644246D02*
X16895634Y-12634722D01*
X16895634Y-12634722D02*
X16905158Y-12615674D01*
X16905158Y-12615674D02*
X16924206Y-12606150D01*
X16924206Y-12606150D02*
X16952777Y-12606150D01*
X16952777Y-12606150D02*
X16971825Y-12615674D01*
X17048015Y-12815674D02*
X17057539Y-12806150D01*
X17057539Y-12806150D02*
X17076587Y-12777579D01*
X17076587Y-12777579D02*
X17086111Y-12758531D01*
X17086111Y-12758531D02*
X17095634Y-12729960D01*
X17095634Y-12729960D02*
X17105158Y-12682341D01*
X17105158Y-12682341D02*
X17105158Y-12644246D01*
X17105158Y-12644246D02*
X17095634Y-12596627D01*
X17095634Y-12596627D02*
X17086111Y-12568055D01*
X17086111Y-12568055D02*
X17076587Y-12549008D01*
X17076587Y-12549008D02*
X17057539Y-12520436D01*
X17057539Y-12520436D02*
X17048015Y-12510912D01*
D10*
X11892000Y-12912000D02*
G75*
G02*
X11842000Y-12912000I-25000J0D01*
G01*
X11842000Y-12912000D02*
G75*
G02*
X11892000Y-12912000I25000J0D01*
G01*
D12*
X12190872Y-12803484D02*
X12209920Y-12803484D01*
X12209920Y-12803484D02*
X12228967Y-12813008D01*
X12228967Y-12813008D02*
X12238491Y-12822531D01*
X12238491Y-12822531D02*
X12248015Y-12841579D01*
X12248015Y-12841579D02*
X12257539Y-12879674D01*
X12257539Y-12879674D02*
X12257539Y-12927293D01*
X12257539Y-12927293D02*
X12248015Y-12965388D01*
X12248015Y-12965388D02*
X12238491Y-12984436D01*
X12238491Y-12984436D02*
X12228967Y-12993960D01*
X12228967Y-12993960D02*
X12209920Y-13003484D01*
X12209920Y-13003484D02*
X12190872Y-13003484D01*
X12190872Y-13003484D02*
X12171824Y-12993960D01*
X12171824Y-12993960D02*
X12162301Y-12984436D01*
X12162301Y-12984436D02*
X12152777Y-12965388D01*
X12152777Y-12965388D02*
X12143253Y-12927293D01*
X12143253Y-12927293D02*
X12143253Y-12879674D01*
X12143253Y-12879674D02*
X12152777Y-12841579D01*
X12152777Y-12841579D02*
X12162301Y-12822531D01*
X12162301Y-12822531D02*
X12171824Y-12813008D01*
X12171824Y-12813008D02*
X12190872Y-12803484D01*
X12343253Y-12984436D02*
X12352777Y-12993960D01*
X12352777Y-12993960D02*
X12343253Y-13003484D01*
X12343253Y-13003484D02*
X12333729Y-12993960D01*
X12333729Y-12993960D02*
X12343253Y-12984436D01*
X12343253Y-12984436D02*
X12343253Y-13003484D01*
X12533729Y-12803484D02*
X12438491Y-12803484D01*
X12438491Y-12803484D02*
X12428967Y-12898722D01*
X12428967Y-12898722D02*
X12438491Y-12889198D01*
X12438491Y-12889198D02*
X12457539Y-12879674D01*
X12457539Y-12879674D02*
X12505158Y-12879674D01*
X12505158Y-12879674D02*
X12524205Y-12889198D01*
X12524205Y-12889198D02*
X12533729Y-12898722D01*
X12533729Y-12898722D02*
X12543253Y-12917769D01*
X12543253Y-12917769D02*
X12543253Y-12965388D01*
X12543253Y-12965388D02*
X12533729Y-12984436D01*
X12533729Y-12984436D02*
X12524205Y-12993960D01*
X12524205Y-12993960D02*
X12505158Y-13003484D01*
X12505158Y-13003484D02*
X12457539Y-13003484D01*
X12457539Y-13003484D02*
X12438491Y-12993960D01*
X12438491Y-12993960D02*
X12428967Y-12984436D01*
X12667062Y-12803484D02*
X12686110Y-12803484D01*
X12686110Y-12803484D02*
X12705158Y-12813008D01*
X12705158Y-12813008D02*
X12714682Y-12822531D01*
X12714682Y-12822531D02*
X12724205Y-12841579D01*
X12724205Y-12841579D02*
X12733729Y-12879674D01*
X12733729Y-12879674D02*
X12733729Y-12927293D01*
X12733729Y-12927293D02*
X12724205Y-12965388D01*
X12724205Y-12965388D02*
X12714682Y-12984436D01*
X12714682Y-12984436D02*
X12705158Y-12993960D01*
X12705158Y-12993960D02*
X12686110Y-13003484D01*
X12686110Y-13003484D02*
X12667062Y-13003484D01*
X12667062Y-13003484D02*
X12648015Y-12993960D01*
X12648015Y-12993960D02*
X12638491Y-12984436D01*
X12638491Y-12984436D02*
X12628967Y-12965388D01*
X12628967Y-12965388D02*
X12619443Y-12927293D01*
X12619443Y-12927293D02*
X12619443Y-12879674D01*
X12619443Y-12879674D02*
X12628967Y-12841579D01*
X12628967Y-12841579D02*
X12638491Y-12822531D01*
X12638491Y-12822531D02*
X12648015Y-12813008D01*
X12648015Y-12813008D02*
X12667062Y-12803484D01*
X12857539Y-12803484D02*
X12876586Y-12803484D01*
X12876586Y-12803484D02*
X12895634Y-12813008D01*
X12895634Y-12813008D02*
X12905158Y-12822531D01*
X12905158Y-12822531D02*
X12914682Y-12841579D01*
X12914682Y-12841579D02*
X12924205Y-12879674D01*
X12924205Y-12879674D02*
X12924205Y-12927293D01*
X12924205Y-12927293D02*
X12914682Y-12965388D01*
X12914682Y-12965388D02*
X12905158Y-12984436D01*
X12905158Y-12984436D02*
X12895634Y-12993960D01*
X12895634Y-12993960D02*
X12876586Y-13003484D01*
X12876586Y-13003484D02*
X12857539Y-13003484D01*
X12857539Y-13003484D02*
X12838491Y-12993960D01*
X12838491Y-12993960D02*
X12828967Y-12984436D01*
X12828967Y-12984436D02*
X12819443Y-12965388D01*
X12819443Y-12965388D02*
X12809920Y-12927293D01*
X12809920Y-12927293D02*
X12809920Y-12879674D01*
X12809920Y-12879674D02*
X12819443Y-12841579D01*
X12819443Y-12841579D02*
X12828967Y-12822531D01*
X12828967Y-12822531D02*
X12838491Y-12813008D01*
X12838491Y-12813008D02*
X12857539Y-12803484D01*
X13009920Y-13003484D02*
X13009920Y-12870150D01*
X13009920Y-12889198D02*
X13019443Y-12879674D01*
X13019443Y-12879674D02*
X13038491Y-12870150D01*
X13038491Y-12870150D02*
X13067063Y-12870150D01*
X13067063Y-12870150D02*
X13086110Y-12879674D01*
X13086110Y-12879674D02*
X13095634Y-12898722D01*
X13095634Y-12898722D02*
X13095634Y-13003484D01*
X13095634Y-12898722D02*
X13105158Y-12879674D01*
X13105158Y-12879674D02*
X13124205Y-12870150D01*
X13124205Y-12870150D02*
X13152777Y-12870150D01*
X13152777Y-12870150D02*
X13171824Y-12879674D01*
X13171824Y-12879674D02*
X13181348Y-12898722D01*
X13181348Y-12898722D02*
X13181348Y-13003484D01*
X13276586Y-13003484D02*
X13276586Y-12870150D01*
X13276586Y-12889198D02*
X13286110Y-12879674D01*
X13286110Y-12879674D02*
X13305158Y-12870150D01*
X13305158Y-12870150D02*
X13333729Y-12870150D01*
X13333729Y-12870150D02*
X13352777Y-12879674D01*
X13352777Y-12879674D02*
X13362301Y-12898722D01*
X13362301Y-12898722D02*
X13362301Y-13003484D01*
X13362301Y-12898722D02*
X13371824Y-12879674D01*
X13371824Y-12879674D02*
X13390872Y-12870150D01*
X13390872Y-12870150D02*
X13419443Y-12870150D01*
X13419443Y-12870150D02*
X13438491Y-12879674D01*
X13438491Y-12879674D02*
X13448015Y-12898722D01*
X13448015Y-12898722D02*
X13448015Y-13003484D01*
X13838491Y-12793960D02*
X13667063Y-13051103D01*
X14095634Y-12803484D02*
X14114682Y-12803484D01*
X14114682Y-12803484D02*
X14133729Y-12813008D01*
X14133729Y-12813008D02*
X14143253Y-12822531D01*
X14143253Y-12822531D02*
X14152777Y-12841579D01*
X14152777Y-12841579D02*
X14162301Y-12879674D01*
X14162301Y-12879674D02*
X14162301Y-12927293D01*
X14162301Y-12927293D02*
X14152777Y-12965388D01*
X14152777Y-12965388D02*
X14143253Y-12984436D01*
X14143253Y-12984436D02*
X14133729Y-12993960D01*
X14133729Y-12993960D02*
X14114682Y-13003484D01*
X14114682Y-13003484D02*
X14095634Y-13003484D01*
X14095634Y-13003484D02*
X14076586Y-12993960D01*
X14076586Y-12993960D02*
X14067063Y-12984436D01*
X14067063Y-12984436D02*
X14057539Y-12965388D01*
X14057539Y-12965388D02*
X14048015Y-12927293D01*
X14048015Y-12927293D02*
X14048015Y-12879674D01*
X14048015Y-12879674D02*
X14057539Y-12841579D01*
X14057539Y-12841579D02*
X14067063Y-12822531D01*
X14067063Y-12822531D02*
X14076586Y-12813008D01*
X14076586Y-12813008D02*
X14095634Y-12803484D01*
X14248015Y-12984436D02*
X14257539Y-12993960D01*
X14257539Y-12993960D02*
X14248015Y-13003484D01*
X14248015Y-13003484D02*
X14238491Y-12993960D01*
X14238491Y-12993960D02*
X14248015Y-12984436D01*
X14248015Y-12984436D02*
X14248015Y-13003484D01*
X14381348Y-12803484D02*
X14400396Y-12803484D01*
X14400396Y-12803484D02*
X14419444Y-12813008D01*
X14419444Y-12813008D02*
X14428967Y-12822531D01*
X14428967Y-12822531D02*
X14438491Y-12841579D01*
X14438491Y-12841579D02*
X14448015Y-12879674D01*
X14448015Y-12879674D02*
X14448015Y-12927293D01*
X14448015Y-12927293D02*
X14438491Y-12965388D01*
X14438491Y-12965388D02*
X14428967Y-12984436D01*
X14428967Y-12984436D02*
X14419444Y-12993960D01*
X14419444Y-12993960D02*
X14400396Y-13003484D01*
X14400396Y-13003484D02*
X14381348Y-13003484D01*
X14381348Y-13003484D02*
X14362301Y-12993960D01*
X14362301Y-12993960D02*
X14352777Y-12984436D01*
X14352777Y-12984436D02*
X14343253Y-12965388D01*
X14343253Y-12965388D02*
X14333729Y-12927293D01*
X14333729Y-12927293D02*
X14333729Y-12879674D01*
X14333729Y-12879674D02*
X14343253Y-12841579D01*
X14343253Y-12841579D02*
X14352777Y-12822531D01*
X14352777Y-12822531D02*
X14362301Y-12813008D01*
X14362301Y-12813008D02*
X14381348Y-12803484D01*
X14638491Y-13003484D02*
X14524206Y-13003484D01*
X14581348Y-13003484D02*
X14581348Y-12803484D01*
X14581348Y-12803484D02*
X14562301Y-12832055D01*
X14562301Y-12832055D02*
X14543253Y-12851103D01*
X14543253Y-12851103D02*
X14524206Y-12860627D01*
X14733729Y-13003484D02*
X14771825Y-13003484D01*
X14771825Y-13003484D02*
X14790872Y-12993960D01*
X14790872Y-12993960D02*
X14800396Y-12984436D01*
X14800396Y-12984436D02*
X14819444Y-12955865D01*
X14819444Y-12955865D02*
X14828967Y-12917769D01*
X14828967Y-12917769D02*
X14828967Y-12841579D01*
X14828967Y-12841579D02*
X14819444Y-12822531D01*
X14819444Y-12822531D02*
X14809920Y-12813008D01*
X14809920Y-12813008D02*
X14790872Y-12803484D01*
X14790872Y-12803484D02*
X14752777Y-12803484D01*
X14752777Y-12803484D02*
X14733729Y-12813008D01*
X14733729Y-12813008D02*
X14724206Y-12822531D01*
X14724206Y-12822531D02*
X14714682Y-12841579D01*
X14714682Y-12841579D02*
X14714682Y-12889198D01*
X14714682Y-12889198D02*
X14724206Y-12908246D01*
X14724206Y-12908246D02*
X14733729Y-12917769D01*
X14733729Y-12917769D02*
X14752777Y-12927293D01*
X14752777Y-12927293D02*
X14790872Y-12927293D01*
X14790872Y-12927293D02*
X14809920Y-12917769D01*
X14809920Y-12917769D02*
X14819444Y-12908246D01*
X14819444Y-12908246D02*
X14828967Y-12889198D01*
X14895634Y-12803484D02*
X15028967Y-12803484D01*
X15028967Y-12803484D02*
X14943253Y-13003484D01*
X15095634Y-12803484D02*
X15095634Y-12841579D01*
X15171825Y-12803484D02*
X15171825Y-12841579D01*
X15467063Y-13079674D02*
X15457539Y-13070150D01*
X15457539Y-13070150D02*
X15438491Y-13041579D01*
X15438491Y-13041579D02*
X15428968Y-13022531D01*
X15428968Y-13022531D02*
X15419444Y-12993960D01*
X15419444Y-12993960D02*
X15409920Y-12946341D01*
X15409920Y-12946341D02*
X15409920Y-12908246D01*
X15409920Y-12908246D02*
X15419444Y-12860627D01*
X15419444Y-12860627D02*
X15428968Y-12832055D01*
X15428968Y-12832055D02*
X15438491Y-12813008D01*
X15438491Y-12813008D02*
X15457539Y-12784436D01*
X15457539Y-12784436D02*
X15467063Y-12774912D01*
X15524206Y-12803484D02*
X15648015Y-12803484D01*
X15648015Y-12803484D02*
X15581348Y-12879674D01*
X15581348Y-12879674D02*
X15609920Y-12879674D01*
X15609920Y-12879674D02*
X15628968Y-12889198D01*
X15628968Y-12889198D02*
X15638491Y-12898722D01*
X15638491Y-12898722D02*
X15648015Y-12917769D01*
X15648015Y-12917769D02*
X15648015Y-12965388D01*
X15648015Y-12965388D02*
X15638491Y-12984436D01*
X15638491Y-12984436D02*
X15628968Y-12993960D01*
X15628968Y-12993960D02*
X15609920Y-13003484D01*
X15609920Y-13003484D02*
X15552777Y-13003484D01*
X15552777Y-13003484D02*
X15533729Y-12993960D01*
X15533729Y-12993960D02*
X15524206Y-12984436D01*
X15886110Y-13003484D02*
X15886110Y-12803484D01*
X15971825Y-13003484D02*
X15971825Y-12898722D01*
X15971825Y-12898722D02*
X15962301Y-12879674D01*
X15962301Y-12879674D02*
X15943253Y-12870150D01*
X15943253Y-12870150D02*
X15914682Y-12870150D01*
X15914682Y-12870150D02*
X15895634Y-12879674D01*
X15895634Y-12879674D02*
X15886110Y-12889198D01*
X16095634Y-13003484D02*
X16076587Y-12993960D01*
X16076587Y-12993960D02*
X16067063Y-12984436D01*
X16067063Y-12984436D02*
X16057539Y-12965388D01*
X16057539Y-12965388D02*
X16057539Y-12908246D01*
X16057539Y-12908246D02*
X16067063Y-12889198D01*
X16067063Y-12889198D02*
X16076587Y-12879674D01*
X16076587Y-12879674D02*
X16095634Y-12870150D01*
X16095634Y-12870150D02*
X16124206Y-12870150D01*
X16124206Y-12870150D02*
X16143253Y-12879674D01*
X16143253Y-12879674D02*
X16152777Y-12889198D01*
X16152777Y-12889198D02*
X16162301Y-12908246D01*
X16162301Y-12908246D02*
X16162301Y-12965388D01*
X16162301Y-12965388D02*
X16152777Y-12984436D01*
X16152777Y-12984436D02*
X16143253Y-12993960D01*
X16143253Y-12993960D02*
X16124206Y-13003484D01*
X16124206Y-13003484D02*
X16095634Y-13003484D01*
X16276587Y-13003484D02*
X16257539Y-12993960D01*
X16257539Y-12993960D02*
X16248015Y-12974912D01*
X16248015Y-12974912D02*
X16248015Y-12803484D01*
X16428968Y-12993960D02*
X16409920Y-13003484D01*
X16409920Y-13003484D02*
X16371825Y-13003484D01*
X16371825Y-13003484D02*
X16352777Y-12993960D01*
X16352777Y-12993960D02*
X16343253Y-12974912D01*
X16343253Y-12974912D02*
X16343253Y-12898722D01*
X16343253Y-12898722D02*
X16352777Y-12879674D01*
X16352777Y-12879674D02*
X16371825Y-12870150D01*
X16371825Y-12870150D02*
X16409920Y-12870150D01*
X16409920Y-12870150D02*
X16428968Y-12879674D01*
X16428968Y-12879674D02*
X16438491Y-12898722D01*
X16438491Y-12898722D02*
X16438491Y-12917769D01*
X16438491Y-12917769D02*
X16343253Y-12936817D01*
X16514682Y-12993960D02*
X16533730Y-13003484D01*
X16533730Y-13003484D02*
X16571825Y-13003484D01*
X16571825Y-13003484D02*
X16590872Y-12993960D01*
X16590872Y-12993960D02*
X16600396Y-12974912D01*
X16600396Y-12974912D02*
X16600396Y-12965388D01*
X16600396Y-12965388D02*
X16590872Y-12946341D01*
X16590872Y-12946341D02*
X16571825Y-12936817D01*
X16571825Y-12936817D02*
X16543253Y-12936817D01*
X16543253Y-12936817D02*
X16524206Y-12927293D01*
X16524206Y-12927293D02*
X16514682Y-12908246D01*
X16514682Y-12908246D02*
X16514682Y-12898722D01*
X16514682Y-12898722D02*
X16524206Y-12879674D01*
X16524206Y-12879674D02*
X16543253Y-12870150D01*
X16543253Y-12870150D02*
X16571825Y-12870150D01*
X16571825Y-12870150D02*
X16590872Y-12879674D01*
X16667063Y-13079674D02*
X16676587Y-13070150D01*
X16676587Y-13070150D02*
X16695634Y-13041579D01*
X16695634Y-13041579D02*
X16705158Y-13022531D01*
X16705158Y-13022531D02*
X16714682Y-12993960D01*
X16714682Y-12993960D02*
X16724206Y-12946341D01*
X16724206Y-12946341D02*
X16724206Y-12908246D01*
X16724206Y-12908246D02*
X16714682Y-12860627D01*
X16714682Y-12860627D02*
X16705158Y-12832055D01*
X16705158Y-12832055D02*
X16695634Y-12813008D01*
X16695634Y-12813008D02*
X16676587Y-12784436D01*
X16676587Y-12784436D02*
X16667063Y-12774912D01*
D10*
X11852000Y-13136000D02*
X11852000Y-13216000D01*
X11812000Y-13176000D02*
X11892000Y-13176000D01*
D12*
X12190872Y-13067484D02*
X12209920Y-13067484D01*
X12209920Y-13067484D02*
X12228967Y-13077008D01*
X12228967Y-13077008D02*
X12238491Y-13086531D01*
X12238491Y-13086531D02*
X12248015Y-13105579D01*
X12248015Y-13105579D02*
X12257539Y-13143674D01*
X12257539Y-13143674D02*
X12257539Y-13191293D01*
X12257539Y-13191293D02*
X12248015Y-13229388D01*
X12248015Y-13229388D02*
X12238491Y-13248436D01*
X12238491Y-13248436D02*
X12228967Y-13257960D01*
X12228967Y-13257960D02*
X12209920Y-13267484D01*
X12209920Y-13267484D02*
X12190872Y-13267484D01*
X12190872Y-13267484D02*
X12171824Y-13257960D01*
X12171824Y-13257960D02*
X12162301Y-13248436D01*
X12162301Y-13248436D02*
X12152777Y-13229388D01*
X12152777Y-13229388D02*
X12143253Y-13191293D01*
X12143253Y-13191293D02*
X12143253Y-13143674D01*
X12143253Y-13143674D02*
X12152777Y-13105579D01*
X12152777Y-13105579D02*
X12162301Y-13086531D01*
X12162301Y-13086531D02*
X12171824Y-13077008D01*
X12171824Y-13077008D02*
X12190872Y-13067484D01*
X12343253Y-13248436D02*
X12352777Y-13257960D01*
X12352777Y-13257960D02*
X12343253Y-13267484D01*
X12343253Y-13267484D02*
X12333729Y-13257960D01*
X12333729Y-13257960D02*
X12343253Y-13248436D01*
X12343253Y-13248436D02*
X12343253Y-13267484D01*
X12467062Y-13153198D02*
X12448015Y-13143674D01*
X12448015Y-13143674D02*
X12438491Y-13134150D01*
X12438491Y-13134150D02*
X12428967Y-13115103D01*
X12428967Y-13115103D02*
X12428967Y-13105579D01*
X12428967Y-13105579D02*
X12438491Y-13086531D01*
X12438491Y-13086531D02*
X12448015Y-13077008D01*
X12448015Y-13077008D02*
X12467062Y-13067484D01*
X12467062Y-13067484D02*
X12505158Y-13067484D01*
X12505158Y-13067484D02*
X12524205Y-13077008D01*
X12524205Y-13077008D02*
X12533729Y-13086531D01*
X12533729Y-13086531D02*
X12543253Y-13105579D01*
X12543253Y-13105579D02*
X12543253Y-13115103D01*
X12543253Y-13115103D02*
X12533729Y-13134150D01*
X12533729Y-13134150D02*
X12524205Y-13143674D01*
X12524205Y-13143674D02*
X12505158Y-13153198D01*
X12505158Y-13153198D02*
X12467062Y-13153198D01*
X12467062Y-13153198D02*
X12448015Y-13162722D01*
X12448015Y-13162722D02*
X12438491Y-13172246D01*
X12438491Y-13172246D02*
X12428967Y-13191293D01*
X12428967Y-13191293D02*
X12428967Y-13229388D01*
X12428967Y-13229388D02*
X12438491Y-13248436D01*
X12438491Y-13248436D02*
X12448015Y-13257960D01*
X12448015Y-13257960D02*
X12467062Y-13267484D01*
X12467062Y-13267484D02*
X12505158Y-13267484D01*
X12505158Y-13267484D02*
X12524205Y-13257960D01*
X12524205Y-13257960D02*
X12533729Y-13248436D01*
X12533729Y-13248436D02*
X12543253Y-13229388D01*
X12543253Y-13229388D02*
X12543253Y-13191293D01*
X12543253Y-13191293D02*
X12533729Y-13172246D01*
X12533729Y-13172246D02*
X12524205Y-13162722D01*
X12524205Y-13162722D02*
X12505158Y-13153198D01*
X12667062Y-13067484D02*
X12686110Y-13067484D01*
X12686110Y-13067484D02*
X12705158Y-13077008D01*
X12705158Y-13077008D02*
X12714682Y-13086531D01*
X12714682Y-13086531D02*
X12724205Y-13105579D01*
X12724205Y-13105579D02*
X12733729Y-13143674D01*
X12733729Y-13143674D02*
X12733729Y-13191293D01*
X12733729Y-13191293D02*
X12724205Y-13229388D01*
X12724205Y-13229388D02*
X12714682Y-13248436D01*
X12714682Y-13248436D02*
X12705158Y-13257960D01*
X12705158Y-13257960D02*
X12686110Y-13267484D01*
X12686110Y-13267484D02*
X12667062Y-13267484D01*
X12667062Y-13267484D02*
X12648015Y-13257960D01*
X12648015Y-13257960D02*
X12638491Y-13248436D01*
X12638491Y-13248436D02*
X12628967Y-13229388D01*
X12628967Y-13229388D02*
X12619443Y-13191293D01*
X12619443Y-13191293D02*
X12619443Y-13143674D01*
X12619443Y-13143674D02*
X12628967Y-13105579D01*
X12628967Y-13105579D02*
X12638491Y-13086531D01*
X12638491Y-13086531D02*
X12648015Y-13077008D01*
X12648015Y-13077008D02*
X12667062Y-13067484D01*
X12857539Y-13067484D02*
X12876586Y-13067484D01*
X12876586Y-13067484D02*
X12895634Y-13077008D01*
X12895634Y-13077008D02*
X12905158Y-13086531D01*
X12905158Y-13086531D02*
X12914682Y-13105579D01*
X12914682Y-13105579D02*
X12924205Y-13143674D01*
X12924205Y-13143674D02*
X12924205Y-13191293D01*
X12924205Y-13191293D02*
X12914682Y-13229388D01*
X12914682Y-13229388D02*
X12905158Y-13248436D01*
X12905158Y-13248436D02*
X12895634Y-13257960D01*
X12895634Y-13257960D02*
X12876586Y-13267484D01*
X12876586Y-13267484D02*
X12857539Y-13267484D01*
X12857539Y-13267484D02*
X12838491Y-13257960D01*
X12838491Y-13257960D02*
X12828967Y-13248436D01*
X12828967Y-13248436D02*
X12819443Y-13229388D01*
X12819443Y-13229388D02*
X12809920Y-13191293D01*
X12809920Y-13191293D02*
X12809920Y-13143674D01*
X12809920Y-13143674D02*
X12819443Y-13105579D01*
X12819443Y-13105579D02*
X12828967Y-13086531D01*
X12828967Y-13086531D02*
X12838491Y-13077008D01*
X12838491Y-13077008D02*
X12857539Y-13067484D01*
X13009920Y-13267484D02*
X13009920Y-13134150D01*
X13009920Y-13153198D02*
X13019443Y-13143674D01*
X13019443Y-13143674D02*
X13038491Y-13134150D01*
X13038491Y-13134150D02*
X13067063Y-13134150D01*
X13067063Y-13134150D02*
X13086110Y-13143674D01*
X13086110Y-13143674D02*
X13095634Y-13162722D01*
X13095634Y-13162722D02*
X13095634Y-13267484D01*
X13095634Y-13162722D02*
X13105158Y-13143674D01*
X13105158Y-13143674D02*
X13124205Y-13134150D01*
X13124205Y-13134150D02*
X13152777Y-13134150D01*
X13152777Y-13134150D02*
X13171824Y-13143674D01*
X13171824Y-13143674D02*
X13181348Y-13162722D01*
X13181348Y-13162722D02*
X13181348Y-13267484D01*
X13276586Y-13267484D02*
X13276586Y-13134150D01*
X13276586Y-13153198D02*
X13286110Y-13143674D01*
X13286110Y-13143674D02*
X13305158Y-13134150D01*
X13305158Y-13134150D02*
X13333729Y-13134150D01*
X13333729Y-13134150D02*
X13352777Y-13143674D01*
X13352777Y-13143674D02*
X13362301Y-13162722D01*
X13362301Y-13162722D02*
X13362301Y-13267484D01*
X13362301Y-13162722D02*
X13371824Y-13143674D01*
X13371824Y-13143674D02*
X13390872Y-13134150D01*
X13390872Y-13134150D02*
X13419443Y-13134150D01*
X13419443Y-13134150D02*
X13438491Y-13143674D01*
X13438491Y-13143674D02*
X13448015Y-13162722D01*
X13448015Y-13162722D02*
X13448015Y-13267484D01*
X13838491Y-13057960D02*
X13667063Y-13315103D01*
X14095634Y-13067484D02*
X14114682Y-13067484D01*
X14114682Y-13067484D02*
X14133729Y-13077008D01*
X14133729Y-13077008D02*
X14143253Y-13086531D01*
X14143253Y-13086531D02*
X14152777Y-13105579D01*
X14152777Y-13105579D02*
X14162301Y-13143674D01*
X14162301Y-13143674D02*
X14162301Y-13191293D01*
X14162301Y-13191293D02*
X14152777Y-13229388D01*
X14152777Y-13229388D02*
X14143253Y-13248436D01*
X14143253Y-13248436D02*
X14133729Y-13257960D01*
X14133729Y-13257960D02*
X14114682Y-13267484D01*
X14114682Y-13267484D02*
X14095634Y-13267484D01*
X14095634Y-13267484D02*
X14076586Y-13257960D01*
X14076586Y-13257960D02*
X14067063Y-13248436D01*
X14067063Y-13248436D02*
X14057539Y-13229388D01*
X14057539Y-13229388D02*
X14048015Y-13191293D01*
X14048015Y-13191293D02*
X14048015Y-13143674D01*
X14048015Y-13143674D02*
X14057539Y-13105579D01*
X14057539Y-13105579D02*
X14067063Y-13086531D01*
X14067063Y-13086531D02*
X14076586Y-13077008D01*
X14076586Y-13077008D02*
X14095634Y-13067484D01*
X14248015Y-13248436D02*
X14257539Y-13257960D01*
X14257539Y-13257960D02*
X14248015Y-13267484D01*
X14248015Y-13267484D02*
X14238491Y-13257960D01*
X14238491Y-13257960D02*
X14248015Y-13248436D01*
X14248015Y-13248436D02*
X14248015Y-13267484D01*
X14381348Y-13067484D02*
X14400396Y-13067484D01*
X14400396Y-13067484D02*
X14419444Y-13077008D01*
X14419444Y-13077008D02*
X14428967Y-13086531D01*
X14428967Y-13086531D02*
X14438491Y-13105579D01*
X14438491Y-13105579D02*
X14448015Y-13143674D01*
X14448015Y-13143674D02*
X14448015Y-13191293D01*
X14448015Y-13191293D02*
X14438491Y-13229388D01*
X14438491Y-13229388D02*
X14428967Y-13248436D01*
X14428967Y-13248436D02*
X14419444Y-13257960D01*
X14419444Y-13257960D02*
X14400396Y-13267484D01*
X14400396Y-13267484D02*
X14381348Y-13267484D01*
X14381348Y-13267484D02*
X14362301Y-13257960D01*
X14362301Y-13257960D02*
X14352777Y-13248436D01*
X14352777Y-13248436D02*
X14343253Y-13229388D01*
X14343253Y-13229388D02*
X14333729Y-13191293D01*
X14333729Y-13191293D02*
X14333729Y-13143674D01*
X14333729Y-13143674D02*
X14343253Y-13105579D01*
X14343253Y-13105579D02*
X14352777Y-13086531D01*
X14352777Y-13086531D02*
X14362301Y-13077008D01*
X14362301Y-13077008D02*
X14381348Y-13067484D01*
X14514682Y-13067484D02*
X14638491Y-13067484D01*
X14638491Y-13067484D02*
X14571825Y-13143674D01*
X14571825Y-13143674D02*
X14600396Y-13143674D01*
X14600396Y-13143674D02*
X14619444Y-13153198D01*
X14619444Y-13153198D02*
X14628967Y-13162722D01*
X14628967Y-13162722D02*
X14638491Y-13181769D01*
X14638491Y-13181769D02*
X14638491Y-13229388D01*
X14638491Y-13229388D02*
X14628967Y-13248436D01*
X14628967Y-13248436D02*
X14619444Y-13257960D01*
X14619444Y-13257960D02*
X14600396Y-13267484D01*
X14600396Y-13267484D02*
X14543253Y-13267484D01*
X14543253Y-13267484D02*
X14524206Y-13257960D01*
X14524206Y-13257960D02*
X14514682Y-13248436D01*
X14828967Y-13267484D02*
X14714682Y-13267484D01*
X14771825Y-13267484D02*
X14771825Y-13067484D01*
X14771825Y-13067484D02*
X14752777Y-13096055D01*
X14752777Y-13096055D02*
X14733729Y-13115103D01*
X14733729Y-13115103D02*
X14714682Y-13124627D01*
X15009920Y-13067484D02*
X14914682Y-13067484D01*
X14914682Y-13067484D02*
X14905158Y-13162722D01*
X14905158Y-13162722D02*
X14914682Y-13153198D01*
X14914682Y-13153198D02*
X14933729Y-13143674D01*
X14933729Y-13143674D02*
X14981348Y-13143674D01*
X14981348Y-13143674D02*
X15000396Y-13153198D01*
X15000396Y-13153198D02*
X15009920Y-13162722D01*
X15009920Y-13162722D02*
X15019444Y-13181769D01*
X15019444Y-13181769D02*
X15019444Y-13229388D01*
X15019444Y-13229388D02*
X15009920Y-13248436D01*
X15009920Y-13248436D02*
X15000396Y-13257960D01*
X15000396Y-13257960D02*
X14981348Y-13267484D01*
X14981348Y-13267484D02*
X14933729Y-13267484D01*
X14933729Y-13267484D02*
X14914682Y-13257960D01*
X14914682Y-13257960D02*
X14905158Y-13248436D01*
X15095634Y-13067484D02*
X15095634Y-13105579D01*
X15171825Y-13067484D02*
X15171825Y-13105579D01*
X15467063Y-13343674D02*
X15457539Y-13334150D01*
X15457539Y-13334150D02*
X15438491Y-13305579D01*
X15438491Y-13305579D02*
X15428968Y-13286531D01*
X15428968Y-13286531D02*
X15419444Y-13257960D01*
X15419444Y-13257960D02*
X15409920Y-13210341D01*
X15409920Y-13210341D02*
X15409920Y-13172246D01*
X15409920Y-13172246D02*
X15419444Y-13124627D01*
X15419444Y-13124627D02*
X15428968Y-13096055D01*
X15428968Y-13096055D02*
X15438491Y-13077008D01*
X15438491Y-13077008D02*
X15457539Y-13048436D01*
X15457539Y-13048436D02*
X15467063Y-13038912D01*
X15571825Y-13153198D02*
X15552777Y-13143674D01*
X15552777Y-13143674D02*
X15543253Y-13134150D01*
X15543253Y-13134150D02*
X15533729Y-13115103D01*
X15533729Y-13115103D02*
X15533729Y-13105579D01*
X15533729Y-13105579D02*
X15543253Y-13086531D01*
X15543253Y-13086531D02*
X15552777Y-13077008D01*
X15552777Y-13077008D02*
X15571825Y-13067484D01*
X15571825Y-13067484D02*
X15609920Y-13067484D01*
X15609920Y-13067484D02*
X15628968Y-13077008D01*
X15628968Y-13077008D02*
X15638491Y-13086531D01*
X15638491Y-13086531D02*
X15648015Y-13105579D01*
X15648015Y-13105579D02*
X15648015Y-13115103D01*
X15648015Y-13115103D02*
X15638491Y-13134150D01*
X15638491Y-13134150D02*
X15628968Y-13143674D01*
X15628968Y-13143674D02*
X15609920Y-13153198D01*
X15609920Y-13153198D02*
X15571825Y-13153198D01*
X15571825Y-13153198D02*
X15552777Y-13162722D01*
X15552777Y-13162722D02*
X15543253Y-13172246D01*
X15543253Y-13172246D02*
X15533729Y-13191293D01*
X15533729Y-13191293D02*
X15533729Y-13229388D01*
X15533729Y-13229388D02*
X15543253Y-13248436D01*
X15543253Y-13248436D02*
X15552777Y-13257960D01*
X15552777Y-13257960D02*
X15571825Y-13267484D01*
X15571825Y-13267484D02*
X15609920Y-13267484D01*
X15609920Y-13267484D02*
X15628968Y-13257960D01*
X15628968Y-13257960D02*
X15638491Y-13248436D01*
X15638491Y-13248436D02*
X15648015Y-13229388D01*
X15648015Y-13229388D02*
X15648015Y-13191293D01*
X15648015Y-13191293D02*
X15638491Y-13172246D01*
X15638491Y-13172246D02*
X15628968Y-13162722D01*
X15628968Y-13162722D02*
X15609920Y-13153198D01*
X15886110Y-13267484D02*
X15886110Y-13067484D01*
X15971825Y-13267484D02*
X15971825Y-13162722D01*
X15971825Y-13162722D02*
X15962301Y-13143674D01*
X15962301Y-13143674D02*
X15943253Y-13134150D01*
X15943253Y-13134150D02*
X15914682Y-13134150D01*
X15914682Y-13134150D02*
X15895634Y-13143674D01*
X15895634Y-13143674D02*
X15886110Y-13153198D01*
X16095634Y-13267484D02*
X16076587Y-13257960D01*
X16076587Y-13257960D02*
X16067063Y-13248436D01*
X16067063Y-13248436D02*
X16057539Y-13229388D01*
X16057539Y-13229388D02*
X16057539Y-13172246D01*
X16057539Y-13172246D02*
X16067063Y-13153198D01*
X16067063Y-13153198D02*
X16076587Y-13143674D01*
X16076587Y-13143674D02*
X16095634Y-13134150D01*
X16095634Y-13134150D02*
X16124206Y-13134150D01*
X16124206Y-13134150D02*
X16143253Y-13143674D01*
X16143253Y-13143674D02*
X16152777Y-13153198D01*
X16152777Y-13153198D02*
X16162301Y-13172246D01*
X16162301Y-13172246D02*
X16162301Y-13229388D01*
X16162301Y-13229388D02*
X16152777Y-13248436D01*
X16152777Y-13248436D02*
X16143253Y-13257960D01*
X16143253Y-13257960D02*
X16124206Y-13267484D01*
X16124206Y-13267484D02*
X16095634Y-13267484D01*
X16276587Y-13267484D02*
X16257539Y-13257960D01*
X16257539Y-13257960D02*
X16248015Y-13238912D01*
X16248015Y-13238912D02*
X16248015Y-13067484D01*
X16428968Y-13257960D02*
X16409920Y-13267484D01*
X16409920Y-13267484D02*
X16371825Y-13267484D01*
X16371825Y-13267484D02*
X16352777Y-13257960D01*
X16352777Y-13257960D02*
X16343253Y-13238912D01*
X16343253Y-13238912D02*
X16343253Y-13162722D01*
X16343253Y-13162722D02*
X16352777Y-13143674D01*
X16352777Y-13143674D02*
X16371825Y-13134150D01*
X16371825Y-13134150D02*
X16409920Y-13134150D01*
X16409920Y-13134150D02*
X16428968Y-13143674D01*
X16428968Y-13143674D02*
X16438491Y-13162722D01*
X16438491Y-13162722D02*
X16438491Y-13181769D01*
X16438491Y-13181769D02*
X16343253Y-13200817D01*
X16514682Y-13257960D02*
X16533730Y-13267484D01*
X16533730Y-13267484D02*
X16571825Y-13267484D01*
X16571825Y-13267484D02*
X16590872Y-13257960D01*
X16590872Y-13257960D02*
X16600396Y-13238912D01*
X16600396Y-13238912D02*
X16600396Y-13229388D01*
X16600396Y-13229388D02*
X16590872Y-13210341D01*
X16590872Y-13210341D02*
X16571825Y-13200817D01*
X16571825Y-13200817D02*
X16543253Y-13200817D01*
X16543253Y-13200817D02*
X16524206Y-13191293D01*
X16524206Y-13191293D02*
X16514682Y-13172246D01*
X16514682Y-13172246D02*
X16514682Y-13162722D01*
X16514682Y-13162722D02*
X16524206Y-13143674D01*
X16524206Y-13143674D02*
X16543253Y-13134150D01*
X16543253Y-13134150D02*
X16571825Y-13134150D01*
X16571825Y-13134150D02*
X16590872Y-13143674D01*
X16667063Y-13343674D02*
X16676587Y-13334150D01*
X16676587Y-13334150D02*
X16695634Y-13305579D01*
X16695634Y-13305579D02*
X16705158Y-13286531D01*
X16705158Y-13286531D02*
X16714682Y-13257960D01*
X16714682Y-13257960D02*
X16724206Y-13210341D01*
X16724206Y-13210341D02*
X16724206Y-13172246D01*
X16724206Y-13172246D02*
X16714682Y-13124627D01*
X16714682Y-13124627D02*
X16705158Y-13096055D01*
X16705158Y-13096055D02*
X16695634Y-13077008D01*
X16695634Y-13077008D02*
X16676587Y-13048436D01*
X16676587Y-13048436D02*
X16667063Y-13038912D01*
D10*
X11877356Y-13475356D02*
X11877356Y-13404644D01*
X11806644Y-13404644D01*
X11806644Y-13475356D01*
X11877356Y-13475356D01*
D12*
X12257539Y-13531484D02*
X12143253Y-13531484D01*
X12200396Y-13531484D02*
X12200396Y-13331484D01*
X12200396Y-13331484D02*
X12181348Y-13360055D01*
X12181348Y-13360055D02*
X12162301Y-13379103D01*
X12162301Y-13379103D02*
X12143253Y-13388627D01*
X12343253Y-13512436D02*
X12352777Y-13521960D01*
X12352777Y-13521960D02*
X12343253Y-13531484D01*
X12343253Y-13531484D02*
X12333729Y-13521960D01*
X12333729Y-13521960D02*
X12343253Y-13512436D01*
X12343253Y-13512436D02*
X12343253Y-13531484D01*
X12476586Y-13331484D02*
X12495634Y-13331484D01*
X12495634Y-13331484D02*
X12514682Y-13341008D01*
X12514682Y-13341008D02*
X12524205Y-13350531D01*
X12524205Y-13350531D02*
X12533729Y-13369579D01*
X12533729Y-13369579D02*
X12543253Y-13407674D01*
X12543253Y-13407674D02*
X12543253Y-13455293D01*
X12543253Y-13455293D02*
X12533729Y-13493388D01*
X12533729Y-13493388D02*
X12524205Y-13512436D01*
X12524205Y-13512436D02*
X12514682Y-13521960D01*
X12514682Y-13521960D02*
X12495634Y-13531484D01*
X12495634Y-13531484D02*
X12476586Y-13531484D01*
X12476586Y-13531484D02*
X12457539Y-13521960D01*
X12457539Y-13521960D02*
X12448015Y-13512436D01*
X12448015Y-13512436D02*
X12438491Y-13493388D01*
X12438491Y-13493388D02*
X12428967Y-13455293D01*
X12428967Y-13455293D02*
X12428967Y-13407674D01*
X12428967Y-13407674D02*
X12438491Y-13369579D01*
X12438491Y-13369579D02*
X12448015Y-13350531D01*
X12448015Y-13350531D02*
X12457539Y-13341008D01*
X12457539Y-13341008D02*
X12476586Y-13331484D01*
X12667062Y-13331484D02*
X12686110Y-13331484D01*
X12686110Y-13331484D02*
X12705158Y-13341008D01*
X12705158Y-13341008D02*
X12714682Y-13350531D01*
X12714682Y-13350531D02*
X12724205Y-13369579D01*
X12724205Y-13369579D02*
X12733729Y-13407674D01*
X12733729Y-13407674D02*
X12733729Y-13455293D01*
X12733729Y-13455293D02*
X12724205Y-13493388D01*
X12724205Y-13493388D02*
X12714682Y-13512436D01*
X12714682Y-13512436D02*
X12705158Y-13521960D01*
X12705158Y-13521960D02*
X12686110Y-13531484D01*
X12686110Y-13531484D02*
X12667062Y-13531484D01*
X12667062Y-13531484D02*
X12648015Y-13521960D01*
X12648015Y-13521960D02*
X12638491Y-13512436D01*
X12638491Y-13512436D02*
X12628967Y-13493388D01*
X12628967Y-13493388D02*
X12619443Y-13455293D01*
X12619443Y-13455293D02*
X12619443Y-13407674D01*
X12619443Y-13407674D02*
X12628967Y-13369579D01*
X12628967Y-13369579D02*
X12638491Y-13350531D01*
X12638491Y-13350531D02*
X12648015Y-13341008D01*
X12648015Y-13341008D02*
X12667062Y-13331484D01*
X12857539Y-13331484D02*
X12876586Y-13331484D01*
X12876586Y-13331484D02*
X12895634Y-13341008D01*
X12895634Y-13341008D02*
X12905158Y-13350531D01*
X12905158Y-13350531D02*
X12914682Y-13369579D01*
X12914682Y-13369579D02*
X12924205Y-13407674D01*
X12924205Y-13407674D02*
X12924205Y-13455293D01*
X12924205Y-13455293D02*
X12914682Y-13493388D01*
X12914682Y-13493388D02*
X12905158Y-13512436D01*
X12905158Y-13512436D02*
X12895634Y-13521960D01*
X12895634Y-13521960D02*
X12876586Y-13531484D01*
X12876586Y-13531484D02*
X12857539Y-13531484D01*
X12857539Y-13531484D02*
X12838491Y-13521960D01*
X12838491Y-13521960D02*
X12828967Y-13512436D01*
X12828967Y-13512436D02*
X12819443Y-13493388D01*
X12819443Y-13493388D02*
X12809920Y-13455293D01*
X12809920Y-13455293D02*
X12809920Y-13407674D01*
X12809920Y-13407674D02*
X12819443Y-13369579D01*
X12819443Y-13369579D02*
X12828967Y-13350531D01*
X12828967Y-13350531D02*
X12838491Y-13341008D01*
X12838491Y-13341008D02*
X12857539Y-13331484D01*
X13009920Y-13531484D02*
X13009920Y-13398150D01*
X13009920Y-13417198D02*
X13019443Y-13407674D01*
X13019443Y-13407674D02*
X13038491Y-13398150D01*
X13038491Y-13398150D02*
X13067063Y-13398150D01*
X13067063Y-13398150D02*
X13086110Y-13407674D01*
X13086110Y-13407674D02*
X13095634Y-13426722D01*
X13095634Y-13426722D02*
X13095634Y-13531484D01*
X13095634Y-13426722D02*
X13105158Y-13407674D01*
X13105158Y-13407674D02*
X13124205Y-13398150D01*
X13124205Y-13398150D02*
X13152777Y-13398150D01*
X13152777Y-13398150D02*
X13171824Y-13407674D01*
X13171824Y-13407674D02*
X13181348Y-13426722D01*
X13181348Y-13426722D02*
X13181348Y-13531484D01*
X13276586Y-13531484D02*
X13276586Y-13398150D01*
X13276586Y-13417198D02*
X13286110Y-13407674D01*
X13286110Y-13407674D02*
X13305158Y-13398150D01*
X13305158Y-13398150D02*
X13333729Y-13398150D01*
X13333729Y-13398150D02*
X13352777Y-13407674D01*
X13352777Y-13407674D02*
X13362301Y-13426722D01*
X13362301Y-13426722D02*
X13362301Y-13531484D01*
X13362301Y-13426722D02*
X13371824Y-13407674D01*
X13371824Y-13407674D02*
X13390872Y-13398150D01*
X13390872Y-13398150D02*
X13419443Y-13398150D01*
X13419443Y-13398150D02*
X13438491Y-13407674D01*
X13438491Y-13407674D02*
X13448015Y-13426722D01*
X13448015Y-13426722D02*
X13448015Y-13531484D01*
X13838491Y-13321960D02*
X13667063Y-13579103D01*
X14095634Y-13331484D02*
X14114682Y-13331484D01*
X14114682Y-13331484D02*
X14133729Y-13341008D01*
X14133729Y-13341008D02*
X14143253Y-13350531D01*
X14143253Y-13350531D02*
X14152777Y-13369579D01*
X14152777Y-13369579D02*
X14162301Y-13407674D01*
X14162301Y-13407674D02*
X14162301Y-13455293D01*
X14162301Y-13455293D02*
X14152777Y-13493388D01*
X14152777Y-13493388D02*
X14143253Y-13512436D01*
X14143253Y-13512436D02*
X14133729Y-13521960D01*
X14133729Y-13521960D02*
X14114682Y-13531484D01*
X14114682Y-13531484D02*
X14095634Y-13531484D01*
X14095634Y-13531484D02*
X14076586Y-13521960D01*
X14076586Y-13521960D02*
X14067063Y-13512436D01*
X14067063Y-13512436D02*
X14057539Y-13493388D01*
X14057539Y-13493388D02*
X14048015Y-13455293D01*
X14048015Y-13455293D02*
X14048015Y-13407674D01*
X14048015Y-13407674D02*
X14057539Y-13369579D01*
X14057539Y-13369579D02*
X14067063Y-13350531D01*
X14067063Y-13350531D02*
X14076586Y-13341008D01*
X14076586Y-13341008D02*
X14095634Y-13331484D01*
X14248015Y-13512436D02*
X14257539Y-13521960D01*
X14257539Y-13521960D02*
X14248015Y-13531484D01*
X14248015Y-13531484D02*
X14238491Y-13521960D01*
X14238491Y-13521960D02*
X14248015Y-13512436D01*
X14248015Y-13512436D02*
X14248015Y-13531484D01*
X14381348Y-13331484D02*
X14400396Y-13331484D01*
X14400396Y-13331484D02*
X14419444Y-13341008D01*
X14419444Y-13341008D02*
X14428967Y-13350531D01*
X14428967Y-13350531D02*
X14438491Y-13369579D01*
X14438491Y-13369579D02*
X14448015Y-13407674D01*
X14448015Y-13407674D02*
X14448015Y-13455293D01*
X14448015Y-13455293D02*
X14438491Y-13493388D01*
X14438491Y-13493388D02*
X14428967Y-13512436D01*
X14428967Y-13512436D02*
X14419444Y-13521960D01*
X14419444Y-13521960D02*
X14400396Y-13531484D01*
X14400396Y-13531484D02*
X14381348Y-13531484D01*
X14381348Y-13531484D02*
X14362301Y-13521960D01*
X14362301Y-13521960D02*
X14352777Y-13512436D01*
X14352777Y-13512436D02*
X14343253Y-13493388D01*
X14343253Y-13493388D02*
X14333729Y-13455293D01*
X14333729Y-13455293D02*
X14333729Y-13407674D01*
X14333729Y-13407674D02*
X14343253Y-13369579D01*
X14343253Y-13369579D02*
X14352777Y-13350531D01*
X14352777Y-13350531D02*
X14362301Y-13341008D01*
X14362301Y-13341008D02*
X14381348Y-13331484D01*
X14514682Y-13331484D02*
X14638491Y-13331484D01*
X14638491Y-13331484D02*
X14571825Y-13407674D01*
X14571825Y-13407674D02*
X14600396Y-13407674D01*
X14600396Y-13407674D02*
X14619444Y-13417198D01*
X14619444Y-13417198D02*
X14628967Y-13426722D01*
X14628967Y-13426722D02*
X14638491Y-13445769D01*
X14638491Y-13445769D02*
X14638491Y-13493388D01*
X14638491Y-13493388D02*
X14628967Y-13512436D01*
X14628967Y-13512436D02*
X14619444Y-13521960D01*
X14619444Y-13521960D02*
X14600396Y-13531484D01*
X14600396Y-13531484D02*
X14543253Y-13531484D01*
X14543253Y-13531484D02*
X14524206Y-13521960D01*
X14524206Y-13521960D02*
X14514682Y-13512436D01*
X14733729Y-13531484D02*
X14771825Y-13531484D01*
X14771825Y-13531484D02*
X14790872Y-13521960D01*
X14790872Y-13521960D02*
X14800396Y-13512436D01*
X14800396Y-13512436D02*
X14819444Y-13483865D01*
X14819444Y-13483865D02*
X14828967Y-13445769D01*
X14828967Y-13445769D02*
X14828967Y-13369579D01*
X14828967Y-13369579D02*
X14819444Y-13350531D01*
X14819444Y-13350531D02*
X14809920Y-13341008D01*
X14809920Y-13341008D02*
X14790872Y-13331484D01*
X14790872Y-13331484D02*
X14752777Y-13331484D01*
X14752777Y-13331484D02*
X14733729Y-13341008D01*
X14733729Y-13341008D02*
X14724206Y-13350531D01*
X14724206Y-13350531D02*
X14714682Y-13369579D01*
X14714682Y-13369579D02*
X14714682Y-13417198D01*
X14714682Y-13417198D02*
X14724206Y-13436246D01*
X14724206Y-13436246D02*
X14733729Y-13445769D01*
X14733729Y-13445769D02*
X14752777Y-13455293D01*
X14752777Y-13455293D02*
X14790872Y-13455293D01*
X14790872Y-13455293D02*
X14809920Y-13445769D01*
X14809920Y-13445769D02*
X14819444Y-13436246D01*
X14819444Y-13436246D02*
X14828967Y-13417198D01*
X15000396Y-13398150D02*
X15000396Y-13531484D01*
X14952777Y-13321960D02*
X14905158Y-13464817D01*
X14905158Y-13464817D02*
X15028967Y-13464817D01*
X15095634Y-13331484D02*
X15095634Y-13369579D01*
X15171825Y-13331484D02*
X15171825Y-13369579D01*
X15467063Y-13607674D02*
X15457539Y-13598150D01*
X15457539Y-13598150D02*
X15438491Y-13569579D01*
X15438491Y-13569579D02*
X15428968Y-13550531D01*
X15428968Y-13550531D02*
X15419444Y-13521960D01*
X15419444Y-13521960D02*
X15409920Y-13474341D01*
X15409920Y-13474341D02*
X15409920Y-13436246D01*
X15409920Y-13436246D02*
X15419444Y-13388627D01*
X15419444Y-13388627D02*
X15428968Y-13360055D01*
X15428968Y-13360055D02*
X15438491Y-13341008D01*
X15438491Y-13341008D02*
X15457539Y-13312436D01*
X15457539Y-13312436D02*
X15467063Y-13302912D01*
X15533729Y-13350531D02*
X15543253Y-13341008D01*
X15543253Y-13341008D02*
X15562301Y-13331484D01*
X15562301Y-13331484D02*
X15609920Y-13331484D01*
X15609920Y-13331484D02*
X15628968Y-13341008D01*
X15628968Y-13341008D02*
X15638491Y-13350531D01*
X15638491Y-13350531D02*
X15648015Y-13369579D01*
X15648015Y-13369579D02*
X15648015Y-13388627D01*
X15648015Y-13388627D02*
X15638491Y-13417198D01*
X15638491Y-13417198D02*
X15524206Y-13531484D01*
X15524206Y-13531484D02*
X15648015Y-13531484D01*
X15762301Y-13417198D02*
X15743253Y-13407674D01*
X15743253Y-13407674D02*
X15733729Y-13398150D01*
X15733729Y-13398150D02*
X15724206Y-13379103D01*
X15724206Y-13379103D02*
X15724206Y-13369579D01*
X15724206Y-13369579D02*
X15733729Y-13350531D01*
X15733729Y-13350531D02*
X15743253Y-13341008D01*
X15743253Y-13341008D02*
X15762301Y-13331484D01*
X15762301Y-13331484D02*
X15800396Y-13331484D01*
X15800396Y-13331484D02*
X15819444Y-13341008D01*
X15819444Y-13341008D02*
X15828968Y-13350531D01*
X15828968Y-13350531D02*
X15838491Y-13369579D01*
X15838491Y-13369579D02*
X15838491Y-13379103D01*
X15838491Y-13379103D02*
X15828968Y-13398150D01*
X15828968Y-13398150D02*
X15819444Y-13407674D01*
X15819444Y-13407674D02*
X15800396Y-13417198D01*
X15800396Y-13417198D02*
X15762301Y-13417198D01*
X15762301Y-13417198D02*
X15743253Y-13426722D01*
X15743253Y-13426722D02*
X15733729Y-13436246D01*
X15733729Y-13436246D02*
X15724206Y-13455293D01*
X15724206Y-13455293D02*
X15724206Y-13493388D01*
X15724206Y-13493388D02*
X15733729Y-13512436D01*
X15733729Y-13512436D02*
X15743253Y-13521960D01*
X15743253Y-13521960D02*
X15762301Y-13531484D01*
X15762301Y-13531484D02*
X15800396Y-13531484D01*
X15800396Y-13531484D02*
X15819444Y-13521960D01*
X15819444Y-13521960D02*
X15828968Y-13512436D01*
X15828968Y-13512436D02*
X15838491Y-13493388D01*
X15838491Y-13493388D02*
X15838491Y-13455293D01*
X15838491Y-13455293D02*
X15828968Y-13436246D01*
X15828968Y-13436246D02*
X15819444Y-13426722D01*
X15819444Y-13426722D02*
X15800396Y-13417198D01*
X16076587Y-13531484D02*
X16076587Y-13331484D01*
X16162301Y-13531484D02*
X16162301Y-13426722D01*
X16162301Y-13426722D02*
X16152777Y-13407674D01*
X16152777Y-13407674D02*
X16133730Y-13398150D01*
X16133730Y-13398150D02*
X16105158Y-13398150D01*
X16105158Y-13398150D02*
X16086110Y-13407674D01*
X16086110Y-13407674D02*
X16076587Y-13417198D01*
X16286110Y-13531484D02*
X16267063Y-13521960D01*
X16267063Y-13521960D02*
X16257539Y-13512436D01*
X16257539Y-13512436D02*
X16248015Y-13493388D01*
X16248015Y-13493388D02*
X16248015Y-13436246D01*
X16248015Y-13436246D02*
X16257539Y-13417198D01*
X16257539Y-13417198D02*
X16267063Y-13407674D01*
X16267063Y-13407674D02*
X16286110Y-13398150D01*
X16286110Y-13398150D02*
X16314682Y-13398150D01*
X16314682Y-13398150D02*
X16333730Y-13407674D01*
X16333730Y-13407674D02*
X16343253Y-13417198D01*
X16343253Y-13417198D02*
X16352777Y-13436246D01*
X16352777Y-13436246D02*
X16352777Y-13493388D01*
X16352777Y-13493388D02*
X16343253Y-13512436D01*
X16343253Y-13512436D02*
X16333730Y-13521960D01*
X16333730Y-13521960D02*
X16314682Y-13531484D01*
X16314682Y-13531484D02*
X16286110Y-13531484D01*
X16467063Y-13531484D02*
X16448015Y-13521960D01*
X16448015Y-13521960D02*
X16438491Y-13502912D01*
X16438491Y-13502912D02*
X16438491Y-13331484D01*
X16619444Y-13521960D02*
X16600396Y-13531484D01*
X16600396Y-13531484D02*
X16562301Y-13531484D01*
X16562301Y-13531484D02*
X16543253Y-13521960D01*
X16543253Y-13521960D02*
X16533730Y-13502912D01*
X16533730Y-13502912D02*
X16533730Y-13426722D01*
X16533730Y-13426722D02*
X16543253Y-13407674D01*
X16543253Y-13407674D02*
X16562301Y-13398150D01*
X16562301Y-13398150D02*
X16600396Y-13398150D01*
X16600396Y-13398150D02*
X16619444Y-13407674D01*
X16619444Y-13407674D02*
X16628968Y-13426722D01*
X16628968Y-13426722D02*
X16628968Y-13445769D01*
X16628968Y-13445769D02*
X16533730Y-13464817D01*
X16705158Y-13521960D02*
X16724206Y-13531484D01*
X16724206Y-13531484D02*
X16762301Y-13531484D01*
X16762301Y-13531484D02*
X16781349Y-13521960D01*
X16781349Y-13521960D02*
X16790873Y-13502912D01*
X16790873Y-13502912D02*
X16790873Y-13493388D01*
X16790873Y-13493388D02*
X16781349Y-13474341D01*
X16781349Y-13474341D02*
X16762301Y-13464817D01*
X16762301Y-13464817D02*
X16733730Y-13464817D01*
X16733730Y-13464817D02*
X16714682Y-13455293D01*
X16714682Y-13455293D02*
X16705158Y-13436246D01*
X16705158Y-13436246D02*
X16705158Y-13426722D01*
X16705158Y-13426722D02*
X16714682Y-13407674D01*
X16714682Y-13407674D02*
X16733730Y-13398150D01*
X16733730Y-13398150D02*
X16762301Y-13398150D01*
X16762301Y-13398150D02*
X16781349Y-13407674D01*
X16857539Y-13607674D02*
X16867063Y-13598150D01*
X16867063Y-13598150D02*
X16886111Y-13569579D01*
X16886111Y-13569579D02*
X16895634Y-13550531D01*
X16895634Y-13550531D02*
X16905158Y-13521960D01*
X16905158Y-13521960D02*
X16914682Y-13474341D01*
X16914682Y-13474341D02*
X16914682Y-13436246D01*
X16914682Y-13436246D02*
X16905158Y-13388627D01*
X16905158Y-13388627D02*
X16895634Y-13360055D01*
X16895634Y-13360055D02*
X16886111Y-13341008D01*
X16886111Y-13341008D02*
X16867063Y-13312436D01*
X16867063Y-13312436D02*
X16857539Y-13302912D01*
D13*
X11837000Y-13759000D02*
X11892000Y-13704000D01*
X11837000Y-13649000D01*
X11782000Y-13704000D01*
X11837000Y-13759000D01*
D12*
X12257539Y-13795484D02*
X12143253Y-13795484D01*
X12200396Y-13795484D02*
X12200396Y-13595484D01*
X12200396Y-13595484D02*
X12181348Y-13624055D01*
X12181348Y-13624055D02*
X12162301Y-13643103D01*
X12162301Y-13643103D02*
X12143253Y-13652627D01*
X12343253Y-13776436D02*
X12352777Y-13785960D01*
X12352777Y-13785960D02*
X12343253Y-13795484D01*
X12343253Y-13795484D02*
X12333729Y-13785960D01*
X12333729Y-13785960D02*
X12343253Y-13776436D01*
X12343253Y-13776436D02*
X12343253Y-13795484D01*
X12543253Y-13795484D02*
X12428967Y-13795484D01*
X12486110Y-13795484D02*
X12486110Y-13595484D01*
X12486110Y-13595484D02*
X12467062Y-13624055D01*
X12467062Y-13624055D02*
X12448015Y-13643103D01*
X12448015Y-13643103D02*
X12428967Y-13652627D01*
X12667062Y-13595484D02*
X12686110Y-13595484D01*
X12686110Y-13595484D02*
X12705158Y-13605008D01*
X12705158Y-13605008D02*
X12714682Y-13614531D01*
X12714682Y-13614531D02*
X12724205Y-13633579D01*
X12724205Y-13633579D02*
X12733729Y-13671674D01*
X12733729Y-13671674D02*
X12733729Y-13719293D01*
X12733729Y-13719293D02*
X12724205Y-13757388D01*
X12724205Y-13757388D02*
X12714682Y-13776436D01*
X12714682Y-13776436D02*
X12705158Y-13785960D01*
X12705158Y-13785960D02*
X12686110Y-13795484D01*
X12686110Y-13795484D02*
X12667062Y-13795484D01*
X12667062Y-13795484D02*
X12648015Y-13785960D01*
X12648015Y-13785960D02*
X12638491Y-13776436D01*
X12638491Y-13776436D02*
X12628967Y-13757388D01*
X12628967Y-13757388D02*
X12619443Y-13719293D01*
X12619443Y-13719293D02*
X12619443Y-13671674D01*
X12619443Y-13671674D02*
X12628967Y-13633579D01*
X12628967Y-13633579D02*
X12638491Y-13614531D01*
X12638491Y-13614531D02*
X12648015Y-13605008D01*
X12648015Y-13605008D02*
X12667062Y-13595484D01*
X12857539Y-13595484D02*
X12876586Y-13595484D01*
X12876586Y-13595484D02*
X12895634Y-13605008D01*
X12895634Y-13605008D02*
X12905158Y-13614531D01*
X12905158Y-13614531D02*
X12914682Y-13633579D01*
X12914682Y-13633579D02*
X12924205Y-13671674D01*
X12924205Y-13671674D02*
X12924205Y-13719293D01*
X12924205Y-13719293D02*
X12914682Y-13757388D01*
X12914682Y-13757388D02*
X12905158Y-13776436D01*
X12905158Y-13776436D02*
X12895634Y-13785960D01*
X12895634Y-13785960D02*
X12876586Y-13795484D01*
X12876586Y-13795484D02*
X12857539Y-13795484D01*
X12857539Y-13795484D02*
X12838491Y-13785960D01*
X12838491Y-13785960D02*
X12828967Y-13776436D01*
X12828967Y-13776436D02*
X12819443Y-13757388D01*
X12819443Y-13757388D02*
X12809920Y-13719293D01*
X12809920Y-13719293D02*
X12809920Y-13671674D01*
X12809920Y-13671674D02*
X12819443Y-13633579D01*
X12819443Y-13633579D02*
X12828967Y-13614531D01*
X12828967Y-13614531D02*
X12838491Y-13605008D01*
X12838491Y-13605008D02*
X12857539Y-13595484D01*
X13009920Y-13795484D02*
X13009920Y-13662150D01*
X13009920Y-13681198D02*
X13019443Y-13671674D01*
X13019443Y-13671674D02*
X13038491Y-13662150D01*
X13038491Y-13662150D02*
X13067063Y-13662150D01*
X13067063Y-13662150D02*
X13086110Y-13671674D01*
X13086110Y-13671674D02*
X13095634Y-13690722D01*
X13095634Y-13690722D02*
X13095634Y-13795484D01*
X13095634Y-13690722D02*
X13105158Y-13671674D01*
X13105158Y-13671674D02*
X13124205Y-13662150D01*
X13124205Y-13662150D02*
X13152777Y-13662150D01*
X13152777Y-13662150D02*
X13171824Y-13671674D01*
X13171824Y-13671674D02*
X13181348Y-13690722D01*
X13181348Y-13690722D02*
X13181348Y-13795484D01*
X13276586Y-13795484D02*
X13276586Y-13662150D01*
X13276586Y-13681198D02*
X13286110Y-13671674D01*
X13286110Y-13671674D02*
X13305158Y-13662150D01*
X13305158Y-13662150D02*
X13333729Y-13662150D01*
X13333729Y-13662150D02*
X13352777Y-13671674D01*
X13352777Y-13671674D02*
X13362301Y-13690722D01*
X13362301Y-13690722D02*
X13362301Y-13795484D01*
X13362301Y-13690722D02*
X13371824Y-13671674D01*
X13371824Y-13671674D02*
X13390872Y-13662150D01*
X13390872Y-13662150D02*
X13419443Y-13662150D01*
X13419443Y-13662150D02*
X13438491Y-13671674D01*
X13438491Y-13671674D02*
X13448015Y-13690722D01*
X13448015Y-13690722D02*
X13448015Y-13795484D01*
X13838491Y-13585960D02*
X13667063Y-13843103D01*
X14095634Y-13595484D02*
X14114682Y-13595484D01*
X14114682Y-13595484D02*
X14133729Y-13605008D01*
X14133729Y-13605008D02*
X14143253Y-13614531D01*
X14143253Y-13614531D02*
X14152777Y-13633579D01*
X14152777Y-13633579D02*
X14162301Y-13671674D01*
X14162301Y-13671674D02*
X14162301Y-13719293D01*
X14162301Y-13719293D02*
X14152777Y-13757388D01*
X14152777Y-13757388D02*
X14143253Y-13776436D01*
X14143253Y-13776436D02*
X14133729Y-13785960D01*
X14133729Y-13785960D02*
X14114682Y-13795484D01*
X14114682Y-13795484D02*
X14095634Y-13795484D01*
X14095634Y-13795484D02*
X14076586Y-13785960D01*
X14076586Y-13785960D02*
X14067063Y-13776436D01*
X14067063Y-13776436D02*
X14057539Y-13757388D01*
X14057539Y-13757388D02*
X14048015Y-13719293D01*
X14048015Y-13719293D02*
X14048015Y-13671674D01*
X14048015Y-13671674D02*
X14057539Y-13633579D01*
X14057539Y-13633579D02*
X14067063Y-13614531D01*
X14067063Y-13614531D02*
X14076586Y-13605008D01*
X14076586Y-13605008D02*
X14095634Y-13595484D01*
X14248015Y-13776436D02*
X14257539Y-13785960D01*
X14257539Y-13785960D02*
X14248015Y-13795484D01*
X14248015Y-13795484D02*
X14238491Y-13785960D01*
X14238491Y-13785960D02*
X14248015Y-13776436D01*
X14248015Y-13776436D02*
X14248015Y-13795484D01*
X14381348Y-13595484D02*
X14400396Y-13595484D01*
X14400396Y-13595484D02*
X14419444Y-13605008D01*
X14419444Y-13605008D02*
X14428967Y-13614531D01*
X14428967Y-13614531D02*
X14438491Y-13633579D01*
X14438491Y-13633579D02*
X14448015Y-13671674D01*
X14448015Y-13671674D02*
X14448015Y-13719293D01*
X14448015Y-13719293D02*
X14438491Y-13757388D01*
X14438491Y-13757388D02*
X14428967Y-13776436D01*
X14428967Y-13776436D02*
X14419444Y-13785960D01*
X14419444Y-13785960D02*
X14400396Y-13795484D01*
X14400396Y-13795484D02*
X14381348Y-13795484D01*
X14381348Y-13795484D02*
X14362301Y-13785960D01*
X14362301Y-13785960D02*
X14352777Y-13776436D01*
X14352777Y-13776436D02*
X14343253Y-13757388D01*
X14343253Y-13757388D02*
X14333729Y-13719293D01*
X14333729Y-13719293D02*
X14333729Y-13671674D01*
X14333729Y-13671674D02*
X14343253Y-13633579D01*
X14343253Y-13633579D02*
X14352777Y-13614531D01*
X14352777Y-13614531D02*
X14362301Y-13605008D01*
X14362301Y-13605008D02*
X14381348Y-13595484D01*
X14619444Y-13662150D02*
X14619444Y-13795484D01*
X14571825Y-13585960D02*
X14524206Y-13728817D01*
X14524206Y-13728817D02*
X14648015Y-13728817D01*
X14705158Y-13595484D02*
X14828967Y-13595484D01*
X14828967Y-13595484D02*
X14762301Y-13671674D01*
X14762301Y-13671674D02*
X14790872Y-13671674D01*
X14790872Y-13671674D02*
X14809920Y-13681198D01*
X14809920Y-13681198D02*
X14819444Y-13690722D01*
X14819444Y-13690722D02*
X14828967Y-13709769D01*
X14828967Y-13709769D02*
X14828967Y-13757388D01*
X14828967Y-13757388D02*
X14819444Y-13776436D01*
X14819444Y-13776436D02*
X14809920Y-13785960D01*
X14809920Y-13785960D02*
X14790872Y-13795484D01*
X14790872Y-13795484D02*
X14733729Y-13795484D01*
X14733729Y-13795484D02*
X14714682Y-13785960D01*
X14714682Y-13785960D02*
X14705158Y-13776436D01*
X14895634Y-13595484D02*
X15019444Y-13595484D01*
X15019444Y-13595484D02*
X14952777Y-13671674D01*
X14952777Y-13671674D02*
X14981348Y-13671674D01*
X14981348Y-13671674D02*
X15000396Y-13681198D01*
X15000396Y-13681198D02*
X15009920Y-13690722D01*
X15009920Y-13690722D02*
X15019444Y-13709769D01*
X15019444Y-13709769D02*
X15019444Y-13757388D01*
X15019444Y-13757388D02*
X15009920Y-13776436D01*
X15009920Y-13776436D02*
X15000396Y-13785960D01*
X15000396Y-13785960D02*
X14981348Y-13795484D01*
X14981348Y-13795484D02*
X14924206Y-13795484D01*
X14924206Y-13795484D02*
X14905158Y-13785960D01*
X14905158Y-13785960D02*
X14895634Y-13776436D01*
X15095634Y-13595484D02*
X15095634Y-13633579D01*
X15171825Y-13595484D02*
X15171825Y-13633579D01*
X15467063Y-13871674D02*
X15457539Y-13862150D01*
X15457539Y-13862150D02*
X15438491Y-13833579D01*
X15438491Y-13833579D02*
X15428968Y-13814531D01*
X15428968Y-13814531D02*
X15419444Y-13785960D01*
X15419444Y-13785960D02*
X15409920Y-13738341D01*
X15409920Y-13738341D02*
X15409920Y-13700246D01*
X15409920Y-13700246D02*
X15419444Y-13652627D01*
X15419444Y-13652627D02*
X15428968Y-13624055D01*
X15428968Y-13624055D02*
X15438491Y-13605008D01*
X15438491Y-13605008D02*
X15457539Y-13576436D01*
X15457539Y-13576436D02*
X15467063Y-13566912D01*
X15638491Y-13595484D02*
X15543253Y-13595484D01*
X15543253Y-13595484D02*
X15533729Y-13690722D01*
X15533729Y-13690722D02*
X15543253Y-13681198D01*
X15543253Y-13681198D02*
X15562301Y-13671674D01*
X15562301Y-13671674D02*
X15609920Y-13671674D01*
X15609920Y-13671674D02*
X15628968Y-13681198D01*
X15628968Y-13681198D02*
X15638491Y-13690722D01*
X15638491Y-13690722D02*
X15648015Y-13709769D01*
X15648015Y-13709769D02*
X15648015Y-13757388D01*
X15648015Y-13757388D02*
X15638491Y-13776436D01*
X15638491Y-13776436D02*
X15628968Y-13785960D01*
X15628968Y-13785960D02*
X15609920Y-13795484D01*
X15609920Y-13795484D02*
X15562301Y-13795484D01*
X15562301Y-13795484D02*
X15543253Y-13785960D01*
X15543253Y-13785960D02*
X15533729Y-13776436D01*
X15743253Y-13795484D02*
X15781348Y-13795484D01*
X15781348Y-13795484D02*
X15800396Y-13785960D01*
X15800396Y-13785960D02*
X15809920Y-13776436D01*
X15809920Y-13776436D02*
X15828968Y-13747865D01*
X15828968Y-13747865D02*
X15838491Y-13709769D01*
X15838491Y-13709769D02*
X15838491Y-13633579D01*
X15838491Y-13633579D02*
X15828968Y-13614531D01*
X15828968Y-13614531D02*
X15819444Y-13605008D01*
X15819444Y-13605008D02*
X15800396Y-13595484D01*
X15800396Y-13595484D02*
X15762301Y-13595484D01*
X15762301Y-13595484D02*
X15743253Y-13605008D01*
X15743253Y-13605008D02*
X15733729Y-13614531D01*
X15733729Y-13614531D02*
X15724206Y-13633579D01*
X15724206Y-13633579D02*
X15724206Y-13681198D01*
X15724206Y-13681198D02*
X15733729Y-13700246D01*
X15733729Y-13700246D02*
X15743253Y-13709769D01*
X15743253Y-13709769D02*
X15762301Y-13719293D01*
X15762301Y-13719293D02*
X15800396Y-13719293D01*
X15800396Y-13719293D02*
X15819444Y-13709769D01*
X15819444Y-13709769D02*
X15828968Y-13700246D01*
X15828968Y-13700246D02*
X15838491Y-13681198D01*
X16076587Y-13795484D02*
X16076587Y-13595484D01*
X16162301Y-13795484D02*
X16162301Y-13690722D01*
X16162301Y-13690722D02*
X16152777Y-13671674D01*
X16152777Y-13671674D02*
X16133730Y-13662150D01*
X16133730Y-13662150D02*
X16105158Y-13662150D01*
X16105158Y-13662150D02*
X16086110Y-13671674D01*
X16086110Y-13671674D02*
X16076587Y-13681198D01*
X16286110Y-13795484D02*
X16267063Y-13785960D01*
X16267063Y-13785960D02*
X16257539Y-13776436D01*
X16257539Y-13776436D02*
X16248015Y-13757388D01*
X16248015Y-13757388D02*
X16248015Y-13700246D01*
X16248015Y-13700246D02*
X16257539Y-13681198D01*
X16257539Y-13681198D02*
X16267063Y-13671674D01*
X16267063Y-13671674D02*
X16286110Y-13662150D01*
X16286110Y-13662150D02*
X16314682Y-13662150D01*
X16314682Y-13662150D02*
X16333730Y-13671674D01*
X16333730Y-13671674D02*
X16343253Y-13681198D01*
X16343253Y-13681198D02*
X16352777Y-13700246D01*
X16352777Y-13700246D02*
X16352777Y-13757388D01*
X16352777Y-13757388D02*
X16343253Y-13776436D01*
X16343253Y-13776436D02*
X16333730Y-13785960D01*
X16333730Y-13785960D02*
X16314682Y-13795484D01*
X16314682Y-13795484D02*
X16286110Y-13795484D01*
X16467063Y-13795484D02*
X16448015Y-13785960D01*
X16448015Y-13785960D02*
X16438491Y-13766912D01*
X16438491Y-13766912D02*
X16438491Y-13595484D01*
X16619444Y-13785960D02*
X16600396Y-13795484D01*
X16600396Y-13795484D02*
X16562301Y-13795484D01*
X16562301Y-13795484D02*
X16543253Y-13785960D01*
X16543253Y-13785960D02*
X16533730Y-13766912D01*
X16533730Y-13766912D02*
X16533730Y-13690722D01*
X16533730Y-13690722D02*
X16543253Y-13671674D01*
X16543253Y-13671674D02*
X16562301Y-13662150D01*
X16562301Y-13662150D02*
X16600396Y-13662150D01*
X16600396Y-13662150D02*
X16619444Y-13671674D01*
X16619444Y-13671674D02*
X16628968Y-13690722D01*
X16628968Y-13690722D02*
X16628968Y-13709769D01*
X16628968Y-13709769D02*
X16533730Y-13728817D01*
X16705158Y-13785960D02*
X16724206Y-13795484D01*
X16724206Y-13795484D02*
X16762301Y-13795484D01*
X16762301Y-13795484D02*
X16781349Y-13785960D01*
X16781349Y-13785960D02*
X16790873Y-13766912D01*
X16790873Y-13766912D02*
X16790873Y-13757388D01*
X16790873Y-13757388D02*
X16781349Y-13738341D01*
X16781349Y-13738341D02*
X16762301Y-13728817D01*
X16762301Y-13728817D02*
X16733730Y-13728817D01*
X16733730Y-13728817D02*
X16714682Y-13719293D01*
X16714682Y-13719293D02*
X16705158Y-13700246D01*
X16705158Y-13700246D02*
X16705158Y-13690722D01*
X16705158Y-13690722D02*
X16714682Y-13671674D01*
X16714682Y-13671674D02*
X16733730Y-13662150D01*
X16733730Y-13662150D02*
X16762301Y-13662150D01*
X16762301Y-13662150D02*
X16781349Y-13671674D01*
X16857539Y-13871674D02*
X16867063Y-13862150D01*
X16867063Y-13862150D02*
X16886111Y-13833579D01*
X16886111Y-13833579D02*
X16895634Y-13814531D01*
X16895634Y-13814531D02*
X16905158Y-13785960D01*
X16905158Y-13785960D02*
X16914682Y-13738341D01*
X16914682Y-13738341D02*
X16914682Y-13700246D01*
X16914682Y-13700246D02*
X16905158Y-13652627D01*
X16905158Y-13652627D02*
X16895634Y-13624055D01*
X16895634Y-13624055D02*
X16886111Y-13605008D01*
X16886111Y-13605008D02*
X16867063Y-13576436D01*
X16867063Y-13576436D02*
X16857539Y-13566912D01*
D11*
X11772000Y-13908000D02*
X11892000Y-14028000D01*
X11892000Y-13908000D02*
X11772000Y-14028000D01*
X11892000Y-13968000D02*
G75*
G02*
X11772000Y-13968000I-60000J0D01*
G01*
X11772000Y-13968000D02*
G75*
G02*
X11892000Y-13968000I60000J0D01*
G01*
D12*
X12257539Y-14059484D02*
X12143253Y-14059484D01*
X12200396Y-14059484D02*
X12200396Y-13859484D01*
X12200396Y-13859484D02*
X12181348Y-13888055D01*
X12181348Y-13888055D02*
X12162301Y-13907103D01*
X12162301Y-13907103D02*
X12143253Y-13916627D01*
X12343253Y-14040436D02*
X12352777Y-14049960D01*
X12352777Y-14049960D02*
X12343253Y-14059484D01*
X12343253Y-14059484D02*
X12333729Y-14049960D01*
X12333729Y-14049960D02*
X12343253Y-14040436D01*
X12343253Y-14040436D02*
X12343253Y-14059484D01*
X12428967Y-13878531D02*
X12438491Y-13869008D01*
X12438491Y-13869008D02*
X12457539Y-13859484D01*
X12457539Y-13859484D02*
X12505158Y-13859484D01*
X12505158Y-13859484D02*
X12524205Y-13869008D01*
X12524205Y-13869008D02*
X12533729Y-13878531D01*
X12533729Y-13878531D02*
X12543253Y-13897579D01*
X12543253Y-13897579D02*
X12543253Y-13916627D01*
X12543253Y-13916627D02*
X12533729Y-13945198D01*
X12533729Y-13945198D02*
X12419443Y-14059484D01*
X12419443Y-14059484D02*
X12543253Y-14059484D01*
X12667062Y-13859484D02*
X12686110Y-13859484D01*
X12686110Y-13859484D02*
X12705158Y-13869008D01*
X12705158Y-13869008D02*
X12714682Y-13878531D01*
X12714682Y-13878531D02*
X12724205Y-13897579D01*
X12724205Y-13897579D02*
X12733729Y-13935674D01*
X12733729Y-13935674D02*
X12733729Y-13983293D01*
X12733729Y-13983293D02*
X12724205Y-14021388D01*
X12724205Y-14021388D02*
X12714682Y-14040436D01*
X12714682Y-14040436D02*
X12705158Y-14049960D01*
X12705158Y-14049960D02*
X12686110Y-14059484D01*
X12686110Y-14059484D02*
X12667062Y-14059484D01*
X12667062Y-14059484D02*
X12648015Y-14049960D01*
X12648015Y-14049960D02*
X12638491Y-14040436D01*
X12638491Y-14040436D02*
X12628967Y-14021388D01*
X12628967Y-14021388D02*
X12619443Y-13983293D01*
X12619443Y-13983293D02*
X12619443Y-13935674D01*
X12619443Y-13935674D02*
X12628967Y-13897579D01*
X12628967Y-13897579D02*
X12638491Y-13878531D01*
X12638491Y-13878531D02*
X12648015Y-13869008D01*
X12648015Y-13869008D02*
X12667062Y-13859484D01*
X12857539Y-13859484D02*
X12876586Y-13859484D01*
X12876586Y-13859484D02*
X12895634Y-13869008D01*
X12895634Y-13869008D02*
X12905158Y-13878531D01*
X12905158Y-13878531D02*
X12914682Y-13897579D01*
X12914682Y-13897579D02*
X12924205Y-13935674D01*
X12924205Y-13935674D02*
X12924205Y-13983293D01*
X12924205Y-13983293D02*
X12914682Y-14021388D01*
X12914682Y-14021388D02*
X12905158Y-14040436D01*
X12905158Y-14040436D02*
X12895634Y-14049960D01*
X12895634Y-14049960D02*
X12876586Y-14059484D01*
X12876586Y-14059484D02*
X12857539Y-14059484D01*
X12857539Y-14059484D02*
X12838491Y-14049960D01*
X12838491Y-14049960D02*
X12828967Y-14040436D01*
X12828967Y-14040436D02*
X12819443Y-14021388D01*
X12819443Y-14021388D02*
X12809920Y-13983293D01*
X12809920Y-13983293D02*
X12809920Y-13935674D01*
X12809920Y-13935674D02*
X12819443Y-13897579D01*
X12819443Y-13897579D02*
X12828967Y-13878531D01*
X12828967Y-13878531D02*
X12838491Y-13869008D01*
X12838491Y-13869008D02*
X12857539Y-13859484D01*
X13009920Y-14059484D02*
X13009920Y-13926150D01*
X13009920Y-13945198D02*
X13019443Y-13935674D01*
X13019443Y-13935674D02*
X13038491Y-13926150D01*
X13038491Y-13926150D02*
X13067063Y-13926150D01*
X13067063Y-13926150D02*
X13086110Y-13935674D01*
X13086110Y-13935674D02*
X13095634Y-13954722D01*
X13095634Y-13954722D02*
X13095634Y-14059484D01*
X13095634Y-13954722D02*
X13105158Y-13935674D01*
X13105158Y-13935674D02*
X13124205Y-13926150D01*
X13124205Y-13926150D02*
X13152777Y-13926150D01*
X13152777Y-13926150D02*
X13171824Y-13935674D01*
X13171824Y-13935674D02*
X13181348Y-13954722D01*
X13181348Y-13954722D02*
X13181348Y-14059484D01*
X13276586Y-14059484D02*
X13276586Y-13926150D01*
X13276586Y-13945198D02*
X13286110Y-13935674D01*
X13286110Y-13935674D02*
X13305158Y-13926150D01*
X13305158Y-13926150D02*
X13333729Y-13926150D01*
X13333729Y-13926150D02*
X13352777Y-13935674D01*
X13352777Y-13935674D02*
X13362301Y-13954722D01*
X13362301Y-13954722D02*
X13362301Y-14059484D01*
X13362301Y-13954722D02*
X13371824Y-13935674D01*
X13371824Y-13935674D02*
X13390872Y-13926150D01*
X13390872Y-13926150D02*
X13419443Y-13926150D01*
X13419443Y-13926150D02*
X13438491Y-13935674D01*
X13438491Y-13935674D02*
X13448015Y-13954722D01*
X13448015Y-13954722D02*
X13448015Y-14059484D01*
X13838491Y-13849960D02*
X13667063Y-14107103D01*
X14095634Y-13859484D02*
X14114682Y-13859484D01*
X14114682Y-13859484D02*
X14133729Y-13869008D01*
X14133729Y-13869008D02*
X14143253Y-13878531D01*
X14143253Y-13878531D02*
X14152777Y-13897579D01*
X14152777Y-13897579D02*
X14162301Y-13935674D01*
X14162301Y-13935674D02*
X14162301Y-13983293D01*
X14162301Y-13983293D02*
X14152777Y-14021388D01*
X14152777Y-14021388D02*
X14143253Y-14040436D01*
X14143253Y-14040436D02*
X14133729Y-14049960D01*
X14133729Y-14049960D02*
X14114682Y-14059484D01*
X14114682Y-14059484D02*
X14095634Y-14059484D01*
X14095634Y-14059484D02*
X14076586Y-14049960D01*
X14076586Y-14049960D02*
X14067063Y-14040436D01*
X14067063Y-14040436D02*
X14057539Y-14021388D01*
X14057539Y-14021388D02*
X14048015Y-13983293D01*
X14048015Y-13983293D02*
X14048015Y-13935674D01*
X14048015Y-13935674D02*
X14057539Y-13897579D01*
X14057539Y-13897579D02*
X14067063Y-13878531D01*
X14067063Y-13878531D02*
X14076586Y-13869008D01*
X14076586Y-13869008D02*
X14095634Y-13859484D01*
X14248015Y-14040436D02*
X14257539Y-14049960D01*
X14257539Y-14049960D02*
X14248015Y-14059484D01*
X14248015Y-14059484D02*
X14238491Y-14049960D01*
X14238491Y-14049960D02*
X14248015Y-14040436D01*
X14248015Y-14040436D02*
X14248015Y-14059484D01*
X14381348Y-13859484D02*
X14400396Y-13859484D01*
X14400396Y-13859484D02*
X14419444Y-13869008D01*
X14419444Y-13869008D02*
X14428967Y-13878531D01*
X14428967Y-13878531D02*
X14438491Y-13897579D01*
X14438491Y-13897579D02*
X14448015Y-13935674D01*
X14448015Y-13935674D02*
X14448015Y-13983293D01*
X14448015Y-13983293D02*
X14438491Y-14021388D01*
X14438491Y-14021388D02*
X14428967Y-14040436D01*
X14428967Y-14040436D02*
X14419444Y-14049960D01*
X14419444Y-14049960D02*
X14400396Y-14059484D01*
X14400396Y-14059484D02*
X14381348Y-14059484D01*
X14381348Y-14059484D02*
X14362301Y-14049960D01*
X14362301Y-14049960D02*
X14352777Y-14040436D01*
X14352777Y-14040436D02*
X14343253Y-14021388D01*
X14343253Y-14021388D02*
X14333729Y-13983293D01*
X14333729Y-13983293D02*
X14333729Y-13935674D01*
X14333729Y-13935674D02*
X14343253Y-13897579D01*
X14343253Y-13897579D02*
X14352777Y-13878531D01*
X14352777Y-13878531D02*
X14362301Y-13869008D01*
X14362301Y-13869008D02*
X14381348Y-13859484D01*
X14619444Y-13926150D02*
X14619444Y-14059484D01*
X14571825Y-13849960D02*
X14524206Y-13992817D01*
X14524206Y-13992817D02*
X14648015Y-13992817D01*
X14705158Y-13859484D02*
X14838491Y-13859484D01*
X14838491Y-13859484D02*
X14752777Y-14059484D01*
X14905158Y-13878531D02*
X14914682Y-13869008D01*
X14914682Y-13869008D02*
X14933729Y-13859484D01*
X14933729Y-13859484D02*
X14981348Y-13859484D01*
X14981348Y-13859484D02*
X15000396Y-13869008D01*
X15000396Y-13869008D02*
X15009920Y-13878531D01*
X15009920Y-13878531D02*
X15019444Y-13897579D01*
X15019444Y-13897579D02*
X15019444Y-13916627D01*
X15019444Y-13916627D02*
X15009920Y-13945198D01*
X15009920Y-13945198D02*
X14895634Y-14059484D01*
X14895634Y-14059484D02*
X15019444Y-14059484D01*
X15095634Y-13859484D02*
X15095634Y-13897579D01*
X15171825Y-13859484D02*
X15171825Y-13897579D01*
X15467063Y-14135674D02*
X15457539Y-14126150D01*
X15457539Y-14126150D02*
X15438491Y-14097579D01*
X15438491Y-14097579D02*
X15428968Y-14078531D01*
X15428968Y-14078531D02*
X15419444Y-14049960D01*
X15419444Y-14049960D02*
X15409920Y-14002341D01*
X15409920Y-14002341D02*
X15409920Y-13964246D01*
X15409920Y-13964246D02*
X15419444Y-13916627D01*
X15419444Y-13916627D02*
X15428968Y-13888055D01*
X15428968Y-13888055D02*
X15438491Y-13869008D01*
X15438491Y-13869008D02*
X15457539Y-13840436D01*
X15457539Y-13840436D02*
X15467063Y-13830912D01*
X15628968Y-13926150D02*
X15628968Y-14059484D01*
X15581348Y-13849960D02*
X15533729Y-13992817D01*
X15533729Y-13992817D02*
X15657539Y-13992817D01*
X15886110Y-14059484D02*
X15886110Y-13859484D01*
X15971825Y-14059484D02*
X15971825Y-13954722D01*
X15971825Y-13954722D02*
X15962301Y-13935674D01*
X15962301Y-13935674D02*
X15943253Y-13926150D01*
X15943253Y-13926150D02*
X15914682Y-13926150D01*
X15914682Y-13926150D02*
X15895634Y-13935674D01*
X15895634Y-13935674D02*
X15886110Y-13945198D01*
X16095634Y-14059484D02*
X16076587Y-14049960D01*
X16076587Y-14049960D02*
X16067063Y-14040436D01*
X16067063Y-14040436D02*
X16057539Y-14021388D01*
X16057539Y-14021388D02*
X16057539Y-13964246D01*
X16057539Y-13964246D02*
X16067063Y-13945198D01*
X16067063Y-13945198D02*
X16076587Y-13935674D01*
X16076587Y-13935674D02*
X16095634Y-13926150D01*
X16095634Y-13926150D02*
X16124206Y-13926150D01*
X16124206Y-13926150D02*
X16143253Y-13935674D01*
X16143253Y-13935674D02*
X16152777Y-13945198D01*
X16152777Y-13945198D02*
X16162301Y-13964246D01*
X16162301Y-13964246D02*
X16162301Y-14021388D01*
X16162301Y-14021388D02*
X16152777Y-14040436D01*
X16152777Y-14040436D02*
X16143253Y-14049960D01*
X16143253Y-14049960D02*
X16124206Y-14059484D01*
X16124206Y-14059484D02*
X16095634Y-14059484D01*
X16276587Y-14059484D02*
X16257539Y-14049960D01*
X16257539Y-14049960D02*
X16248015Y-14030912D01*
X16248015Y-14030912D02*
X16248015Y-13859484D01*
X16428968Y-14049960D02*
X16409920Y-14059484D01*
X16409920Y-14059484D02*
X16371825Y-14059484D01*
X16371825Y-14059484D02*
X16352777Y-14049960D01*
X16352777Y-14049960D02*
X16343253Y-14030912D01*
X16343253Y-14030912D02*
X16343253Y-13954722D01*
X16343253Y-13954722D02*
X16352777Y-13935674D01*
X16352777Y-13935674D02*
X16371825Y-13926150D01*
X16371825Y-13926150D02*
X16409920Y-13926150D01*
X16409920Y-13926150D02*
X16428968Y-13935674D01*
X16428968Y-13935674D02*
X16438491Y-13954722D01*
X16438491Y-13954722D02*
X16438491Y-13973769D01*
X16438491Y-13973769D02*
X16343253Y-13992817D01*
X16514682Y-14049960D02*
X16533730Y-14059484D01*
X16533730Y-14059484D02*
X16571825Y-14059484D01*
X16571825Y-14059484D02*
X16590872Y-14049960D01*
X16590872Y-14049960D02*
X16600396Y-14030912D01*
X16600396Y-14030912D02*
X16600396Y-14021388D01*
X16600396Y-14021388D02*
X16590872Y-14002341D01*
X16590872Y-14002341D02*
X16571825Y-13992817D01*
X16571825Y-13992817D02*
X16543253Y-13992817D01*
X16543253Y-13992817D02*
X16524206Y-13983293D01*
X16524206Y-13983293D02*
X16514682Y-13964246D01*
X16514682Y-13964246D02*
X16514682Y-13954722D01*
X16514682Y-13954722D02*
X16524206Y-13935674D01*
X16524206Y-13935674D02*
X16543253Y-13926150D01*
X16543253Y-13926150D02*
X16571825Y-13926150D01*
X16571825Y-13926150D02*
X16590872Y-13935674D01*
X16667063Y-14135674D02*
X16676587Y-14126150D01*
X16676587Y-14126150D02*
X16695634Y-14097579D01*
X16695634Y-14097579D02*
X16705158Y-14078531D01*
X16705158Y-14078531D02*
X16714682Y-14049960D01*
X16714682Y-14049960D02*
X16724206Y-14002341D01*
X16724206Y-14002341D02*
X16724206Y-13964246D01*
X16724206Y-13964246D02*
X16714682Y-13916627D01*
X16714682Y-13916627D02*
X16705158Y-13888055D01*
X16705158Y-13888055D02*
X16695634Y-13869008D01*
X16695634Y-13869008D02*
X16676587Y-13840436D01*
X16676587Y-13840436D02*
X16667063Y-13830912D01*
D14*
X11712000Y-14142000D02*
X11892000Y-14322000D01*
X11892000Y-14142000D02*
X11712000Y-14322000D01*
X11802000Y-14142000D02*
X11802000Y-14322000D01*
X11712000Y-14232000D02*
X11892000Y-14232000D01*
D12*
X12257539Y-14323484D02*
X12143253Y-14323484D01*
X12200396Y-14323484D02*
X12200396Y-14123484D01*
X12200396Y-14123484D02*
X12181348Y-14152055D01*
X12181348Y-14152055D02*
X12162301Y-14171103D01*
X12162301Y-14171103D02*
X12143253Y-14180627D01*
X12343253Y-14304436D02*
X12352777Y-14313960D01*
X12352777Y-14313960D02*
X12343253Y-14323484D01*
X12343253Y-14323484D02*
X12333729Y-14313960D01*
X12333729Y-14313960D02*
X12343253Y-14304436D01*
X12343253Y-14304436D02*
X12343253Y-14323484D01*
X12467062Y-14209198D02*
X12448015Y-14199674D01*
X12448015Y-14199674D02*
X12438491Y-14190150D01*
X12438491Y-14190150D02*
X12428967Y-14171103D01*
X12428967Y-14171103D02*
X12428967Y-14161579D01*
X12428967Y-14161579D02*
X12438491Y-14142531D01*
X12438491Y-14142531D02*
X12448015Y-14133008D01*
X12448015Y-14133008D02*
X12467062Y-14123484D01*
X12467062Y-14123484D02*
X12505158Y-14123484D01*
X12505158Y-14123484D02*
X12524205Y-14133008D01*
X12524205Y-14133008D02*
X12533729Y-14142531D01*
X12533729Y-14142531D02*
X12543253Y-14161579D01*
X12543253Y-14161579D02*
X12543253Y-14171103D01*
X12543253Y-14171103D02*
X12533729Y-14190150D01*
X12533729Y-14190150D02*
X12524205Y-14199674D01*
X12524205Y-14199674D02*
X12505158Y-14209198D01*
X12505158Y-14209198D02*
X12467062Y-14209198D01*
X12467062Y-14209198D02*
X12448015Y-14218722D01*
X12448015Y-14218722D02*
X12438491Y-14228246D01*
X12438491Y-14228246D02*
X12428967Y-14247293D01*
X12428967Y-14247293D02*
X12428967Y-14285388D01*
X12428967Y-14285388D02*
X12438491Y-14304436D01*
X12438491Y-14304436D02*
X12448015Y-14313960D01*
X12448015Y-14313960D02*
X12467062Y-14323484D01*
X12467062Y-14323484D02*
X12505158Y-14323484D01*
X12505158Y-14323484D02*
X12524205Y-14313960D01*
X12524205Y-14313960D02*
X12533729Y-14304436D01*
X12533729Y-14304436D02*
X12543253Y-14285388D01*
X12543253Y-14285388D02*
X12543253Y-14247293D01*
X12543253Y-14247293D02*
X12533729Y-14228246D01*
X12533729Y-14228246D02*
X12524205Y-14218722D01*
X12524205Y-14218722D02*
X12505158Y-14209198D01*
X12667062Y-14123484D02*
X12686110Y-14123484D01*
X12686110Y-14123484D02*
X12705158Y-14133008D01*
X12705158Y-14133008D02*
X12714682Y-14142531D01*
X12714682Y-14142531D02*
X12724205Y-14161579D01*
X12724205Y-14161579D02*
X12733729Y-14199674D01*
X12733729Y-14199674D02*
X12733729Y-14247293D01*
X12733729Y-14247293D02*
X12724205Y-14285388D01*
X12724205Y-14285388D02*
X12714682Y-14304436D01*
X12714682Y-14304436D02*
X12705158Y-14313960D01*
X12705158Y-14313960D02*
X12686110Y-14323484D01*
X12686110Y-14323484D02*
X12667062Y-14323484D01*
X12667062Y-14323484D02*
X12648015Y-14313960D01*
X12648015Y-14313960D02*
X12638491Y-14304436D01*
X12638491Y-14304436D02*
X12628967Y-14285388D01*
X12628967Y-14285388D02*
X12619443Y-14247293D01*
X12619443Y-14247293D02*
X12619443Y-14199674D01*
X12619443Y-14199674D02*
X12628967Y-14161579D01*
X12628967Y-14161579D02*
X12638491Y-14142531D01*
X12638491Y-14142531D02*
X12648015Y-14133008D01*
X12648015Y-14133008D02*
X12667062Y-14123484D01*
X12857539Y-14123484D02*
X12876586Y-14123484D01*
X12876586Y-14123484D02*
X12895634Y-14133008D01*
X12895634Y-14133008D02*
X12905158Y-14142531D01*
X12905158Y-14142531D02*
X12914682Y-14161579D01*
X12914682Y-14161579D02*
X12924205Y-14199674D01*
X12924205Y-14199674D02*
X12924205Y-14247293D01*
X12924205Y-14247293D02*
X12914682Y-14285388D01*
X12914682Y-14285388D02*
X12905158Y-14304436D01*
X12905158Y-14304436D02*
X12895634Y-14313960D01*
X12895634Y-14313960D02*
X12876586Y-14323484D01*
X12876586Y-14323484D02*
X12857539Y-14323484D01*
X12857539Y-14323484D02*
X12838491Y-14313960D01*
X12838491Y-14313960D02*
X12828967Y-14304436D01*
X12828967Y-14304436D02*
X12819443Y-14285388D01*
X12819443Y-14285388D02*
X12809920Y-14247293D01*
X12809920Y-14247293D02*
X12809920Y-14199674D01*
X12809920Y-14199674D02*
X12819443Y-14161579D01*
X12819443Y-14161579D02*
X12828967Y-14142531D01*
X12828967Y-14142531D02*
X12838491Y-14133008D01*
X12838491Y-14133008D02*
X12857539Y-14123484D01*
X13009920Y-14323484D02*
X13009920Y-14190150D01*
X13009920Y-14209198D02*
X13019443Y-14199674D01*
X13019443Y-14199674D02*
X13038491Y-14190150D01*
X13038491Y-14190150D02*
X13067063Y-14190150D01*
X13067063Y-14190150D02*
X13086110Y-14199674D01*
X13086110Y-14199674D02*
X13095634Y-14218722D01*
X13095634Y-14218722D02*
X13095634Y-14323484D01*
X13095634Y-14218722D02*
X13105158Y-14199674D01*
X13105158Y-14199674D02*
X13124205Y-14190150D01*
X13124205Y-14190150D02*
X13152777Y-14190150D01*
X13152777Y-14190150D02*
X13171824Y-14199674D01*
X13171824Y-14199674D02*
X13181348Y-14218722D01*
X13181348Y-14218722D02*
X13181348Y-14323484D01*
X13276586Y-14323484D02*
X13276586Y-14190150D01*
X13276586Y-14209198D02*
X13286110Y-14199674D01*
X13286110Y-14199674D02*
X13305158Y-14190150D01*
X13305158Y-14190150D02*
X13333729Y-14190150D01*
X13333729Y-14190150D02*
X13352777Y-14199674D01*
X13352777Y-14199674D02*
X13362301Y-14218722D01*
X13362301Y-14218722D02*
X13362301Y-14323484D01*
X13362301Y-14218722D02*
X13371824Y-14199674D01*
X13371824Y-14199674D02*
X13390872Y-14190150D01*
X13390872Y-14190150D02*
X13419443Y-14190150D01*
X13419443Y-14190150D02*
X13438491Y-14199674D01*
X13438491Y-14199674D02*
X13448015Y-14218722D01*
X13448015Y-14218722D02*
X13448015Y-14323484D01*
X13838491Y-14113960D02*
X13667063Y-14371103D01*
X14095634Y-14123484D02*
X14114682Y-14123484D01*
X14114682Y-14123484D02*
X14133729Y-14133008D01*
X14133729Y-14133008D02*
X14143253Y-14142531D01*
X14143253Y-14142531D02*
X14152777Y-14161579D01*
X14152777Y-14161579D02*
X14162301Y-14199674D01*
X14162301Y-14199674D02*
X14162301Y-14247293D01*
X14162301Y-14247293D02*
X14152777Y-14285388D01*
X14152777Y-14285388D02*
X14143253Y-14304436D01*
X14143253Y-14304436D02*
X14133729Y-14313960D01*
X14133729Y-14313960D02*
X14114682Y-14323484D01*
X14114682Y-14323484D02*
X14095634Y-14323484D01*
X14095634Y-14323484D02*
X14076586Y-14313960D01*
X14076586Y-14313960D02*
X14067063Y-14304436D01*
X14067063Y-14304436D02*
X14057539Y-14285388D01*
X14057539Y-14285388D02*
X14048015Y-14247293D01*
X14048015Y-14247293D02*
X14048015Y-14199674D01*
X14048015Y-14199674D02*
X14057539Y-14161579D01*
X14057539Y-14161579D02*
X14067063Y-14142531D01*
X14067063Y-14142531D02*
X14076586Y-14133008D01*
X14076586Y-14133008D02*
X14095634Y-14123484D01*
X14248015Y-14304436D02*
X14257539Y-14313960D01*
X14257539Y-14313960D02*
X14248015Y-14323484D01*
X14248015Y-14323484D02*
X14238491Y-14313960D01*
X14238491Y-14313960D02*
X14248015Y-14304436D01*
X14248015Y-14304436D02*
X14248015Y-14323484D01*
X14381348Y-14123484D02*
X14400396Y-14123484D01*
X14400396Y-14123484D02*
X14419444Y-14133008D01*
X14419444Y-14133008D02*
X14428967Y-14142531D01*
X14428967Y-14142531D02*
X14438491Y-14161579D01*
X14438491Y-14161579D02*
X14448015Y-14199674D01*
X14448015Y-14199674D02*
X14448015Y-14247293D01*
X14448015Y-14247293D02*
X14438491Y-14285388D01*
X14438491Y-14285388D02*
X14428967Y-14304436D01*
X14428967Y-14304436D02*
X14419444Y-14313960D01*
X14419444Y-14313960D02*
X14400396Y-14323484D01*
X14400396Y-14323484D02*
X14381348Y-14323484D01*
X14381348Y-14323484D02*
X14362301Y-14313960D01*
X14362301Y-14313960D02*
X14352777Y-14304436D01*
X14352777Y-14304436D02*
X14343253Y-14285388D01*
X14343253Y-14285388D02*
X14333729Y-14247293D01*
X14333729Y-14247293D02*
X14333729Y-14199674D01*
X14333729Y-14199674D02*
X14343253Y-14161579D01*
X14343253Y-14161579D02*
X14352777Y-14142531D01*
X14352777Y-14142531D02*
X14362301Y-14133008D01*
X14362301Y-14133008D02*
X14381348Y-14123484D01*
X14514682Y-14123484D02*
X14648015Y-14123484D01*
X14648015Y-14123484D02*
X14562301Y-14323484D01*
X14762301Y-14123484D02*
X14781348Y-14123484D01*
X14781348Y-14123484D02*
X14800396Y-14133008D01*
X14800396Y-14133008D02*
X14809920Y-14142531D01*
X14809920Y-14142531D02*
X14819444Y-14161579D01*
X14819444Y-14161579D02*
X14828967Y-14199674D01*
X14828967Y-14199674D02*
X14828967Y-14247293D01*
X14828967Y-14247293D02*
X14819444Y-14285388D01*
X14819444Y-14285388D02*
X14809920Y-14304436D01*
X14809920Y-14304436D02*
X14800396Y-14313960D01*
X14800396Y-14313960D02*
X14781348Y-14323484D01*
X14781348Y-14323484D02*
X14762301Y-14323484D01*
X14762301Y-14323484D02*
X14743253Y-14313960D01*
X14743253Y-14313960D02*
X14733729Y-14304436D01*
X14733729Y-14304436D02*
X14724206Y-14285388D01*
X14724206Y-14285388D02*
X14714682Y-14247293D01*
X14714682Y-14247293D02*
X14714682Y-14199674D01*
X14714682Y-14199674D02*
X14724206Y-14161579D01*
X14724206Y-14161579D02*
X14733729Y-14142531D01*
X14733729Y-14142531D02*
X14743253Y-14133008D01*
X14743253Y-14133008D02*
X14762301Y-14123484D01*
X14924206Y-14323484D02*
X14962301Y-14323484D01*
X14962301Y-14323484D02*
X14981348Y-14313960D01*
X14981348Y-14313960D02*
X14990872Y-14304436D01*
X14990872Y-14304436D02*
X15009920Y-14275865D01*
X15009920Y-14275865D02*
X15019444Y-14237769D01*
X15019444Y-14237769D02*
X15019444Y-14161579D01*
X15019444Y-14161579D02*
X15009920Y-14142531D01*
X15009920Y-14142531D02*
X15000396Y-14133008D01*
X15000396Y-14133008D02*
X14981348Y-14123484D01*
X14981348Y-14123484D02*
X14943253Y-14123484D01*
X14943253Y-14123484D02*
X14924206Y-14133008D01*
X14924206Y-14133008D02*
X14914682Y-14142531D01*
X14914682Y-14142531D02*
X14905158Y-14161579D01*
X14905158Y-14161579D02*
X14905158Y-14209198D01*
X14905158Y-14209198D02*
X14914682Y-14228246D01*
X14914682Y-14228246D02*
X14924206Y-14237769D01*
X14924206Y-14237769D02*
X14943253Y-14247293D01*
X14943253Y-14247293D02*
X14981348Y-14247293D01*
X14981348Y-14247293D02*
X15000396Y-14237769D01*
X15000396Y-14237769D02*
X15009920Y-14228246D01*
X15009920Y-14228246D02*
X15019444Y-14209198D01*
X15095634Y-14123484D02*
X15095634Y-14161579D01*
X15171825Y-14123484D02*
X15171825Y-14161579D01*
X15467063Y-14399674D02*
X15457539Y-14390150D01*
X15457539Y-14390150D02*
X15438491Y-14361579D01*
X15438491Y-14361579D02*
X15428968Y-14342531D01*
X15428968Y-14342531D02*
X15419444Y-14313960D01*
X15419444Y-14313960D02*
X15409920Y-14266341D01*
X15409920Y-14266341D02*
X15409920Y-14228246D01*
X15409920Y-14228246D02*
X15419444Y-14180627D01*
X15419444Y-14180627D02*
X15428968Y-14152055D01*
X15428968Y-14152055D02*
X15438491Y-14133008D01*
X15438491Y-14133008D02*
X15457539Y-14104436D01*
X15457539Y-14104436D02*
X15467063Y-14094912D01*
X15533729Y-14142531D02*
X15543253Y-14133008D01*
X15543253Y-14133008D02*
X15562301Y-14123484D01*
X15562301Y-14123484D02*
X15609920Y-14123484D01*
X15609920Y-14123484D02*
X15628968Y-14133008D01*
X15628968Y-14133008D02*
X15638491Y-14142531D01*
X15638491Y-14142531D02*
X15648015Y-14161579D01*
X15648015Y-14161579D02*
X15648015Y-14180627D01*
X15648015Y-14180627D02*
X15638491Y-14209198D01*
X15638491Y-14209198D02*
X15524206Y-14323484D01*
X15524206Y-14323484D02*
X15648015Y-14323484D01*
X15886110Y-14323484D02*
X15886110Y-14123484D01*
X15971825Y-14323484D02*
X15971825Y-14218722D01*
X15971825Y-14218722D02*
X15962301Y-14199674D01*
X15962301Y-14199674D02*
X15943253Y-14190150D01*
X15943253Y-14190150D02*
X15914682Y-14190150D01*
X15914682Y-14190150D02*
X15895634Y-14199674D01*
X15895634Y-14199674D02*
X15886110Y-14209198D01*
X16095634Y-14323484D02*
X16076587Y-14313960D01*
X16076587Y-14313960D02*
X16067063Y-14304436D01*
X16067063Y-14304436D02*
X16057539Y-14285388D01*
X16057539Y-14285388D02*
X16057539Y-14228246D01*
X16057539Y-14228246D02*
X16067063Y-14209198D01*
X16067063Y-14209198D02*
X16076587Y-14199674D01*
X16076587Y-14199674D02*
X16095634Y-14190150D01*
X16095634Y-14190150D02*
X16124206Y-14190150D01*
X16124206Y-14190150D02*
X16143253Y-14199674D01*
X16143253Y-14199674D02*
X16152777Y-14209198D01*
X16152777Y-14209198D02*
X16162301Y-14228246D01*
X16162301Y-14228246D02*
X16162301Y-14285388D01*
X16162301Y-14285388D02*
X16152777Y-14304436D01*
X16152777Y-14304436D02*
X16143253Y-14313960D01*
X16143253Y-14313960D02*
X16124206Y-14323484D01*
X16124206Y-14323484D02*
X16095634Y-14323484D01*
X16276587Y-14323484D02*
X16257539Y-14313960D01*
X16257539Y-14313960D02*
X16248015Y-14294912D01*
X16248015Y-14294912D02*
X16248015Y-14123484D01*
X16428968Y-14313960D02*
X16409920Y-14323484D01*
X16409920Y-14323484D02*
X16371825Y-14323484D01*
X16371825Y-14323484D02*
X16352777Y-14313960D01*
X16352777Y-14313960D02*
X16343253Y-14294912D01*
X16343253Y-14294912D02*
X16343253Y-14218722D01*
X16343253Y-14218722D02*
X16352777Y-14199674D01*
X16352777Y-14199674D02*
X16371825Y-14190150D01*
X16371825Y-14190150D02*
X16409920Y-14190150D01*
X16409920Y-14190150D02*
X16428968Y-14199674D01*
X16428968Y-14199674D02*
X16438491Y-14218722D01*
X16438491Y-14218722D02*
X16438491Y-14237769D01*
X16438491Y-14237769D02*
X16343253Y-14256817D01*
X16514682Y-14313960D02*
X16533730Y-14323484D01*
X16533730Y-14323484D02*
X16571825Y-14323484D01*
X16571825Y-14323484D02*
X16590872Y-14313960D01*
X16590872Y-14313960D02*
X16600396Y-14294912D01*
X16600396Y-14294912D02*
X16600396Y-14285388D01*
X16600396Y-14285388D02*
X16590872Y-14266341D01*
X16590872Y-14266341D02*
X16571825Y-14256817D01*
X16571825Y-14256817D02*
X16543253Y-14256817D01*
X16543253Y-14256817D02*
X16524206Y-14247293D01*
X16524206Y-14247293D02*
X16514682Y-14228246D01*
X16514682Y-14228246D02*
X16514682Y-14218722D01*
X16514682Y-14218722D02*
X16524206Y-14199674D01*
X16524206Y-14199674D02*
X16543253Y-14190150D01*
X16543253Y-14190150D02*
X16571825Y-14190150D01*
X16571825Y-14190150D02*
X16590872Y-14199674D01*
X16667063Y-14399674D02*
X16676587Y-14390150D01*
X16676587Y-14390150D02*
X16695634Y-14361579D01*
X16695634Y-14361579D02*
X16705158Y-14342531D01*
X16705158Y-14342531D02*
X16714682Y-14313960D01*
X16714682Y-14313960D02*
X16724206Y-14266341D01*
X16724206Y-14266341D02*
X16724206Y-14228246D01*
X16724206Y-14228246D02*
X16714682Y-14180627D01*
X16714682Y-14180627D02*
X16705158Y-14152055D01*
X16705158Y-14152055D02*
X16695634Y-14133008D01*
X16695634Y-14133008D02*
X16676587Y-14104436D01*
X16676587Y-14104436D02*
X16667063Y-14094912D01*
M02*
