G04 #@! TF.GenerationSoftware,KiCad,Pcbnew,9.0.2*
G04 #@! TF.CreationDate,2025-07-06T17:30:17+02:00*
G04 #@! TF.ProjectId,injection-controller,696e6a65-6374-4696-9f6e-2d636f6e7472,rev?*
G04 #@! TF.SameCoordinates,Original*
G04 #@! TF.FileFunction,Legend,Top*
G04 #@! TF.FilePolarity,Positive*
%FSLAX46Y46*%
G04 Gerber Fmt 4.6, Leading zero omitted, Abs format (unit mm)*
G04 Created by KiCad (PCBNEW 9.0.2) date 2025-07-06 17:30:17*
%MOMM*%
%LPD*%
G01*
G04 APERTURE LIST*
G04 Aperture macros list*
%AMRoundRect*
0 Rectangle with rounded corners*
0 $1 Rounding radius*
0 $2 $3 $4 $5 $6 $7 $8 $9 X,Y pos of 4 corners*
0 Add a 4 corners polygon primitive as box body*
4,1,4,$2,$3,$4,$5,$6,$7,$8,$9,$2,$3,0*
0 Add four circle primitives for the rounded corners*
1,1,$1+$1,$2,$3*
1,1,$1+$1,$4,$5*
1,1,$1+$1,$6,$7*
1,1,$1+$1,$8,$9*
0 Add four rect primitives between the rounded corners*
20,1,$1+$1,$2,$3,$4,$5,0*
20,1,$1+$1,$4,$5,$6,$7,0*
20,1,$1+$1,$6,$7,$8,$9,0*
20,1,$1+$1,$8,$9,$2,$3,0*%
G04 Aperture macros list end*
%ADD10C,0.300000*%
%ADD11C,0.500000*%
%ADD12C,0.150000*%
%ADD13C,0.250000*%
%ADD14C,0.100000*%
%ADD15C,0.120000*%
%ADD16C,0.000000*%
%ADD17C,1.300000*%
%ADD18R,1.300000X1.300000*%
%ADD19C,1.600000*%
%ADD20R,1.600000X1.600000*%
%ADD21R,1.700000X1.700000*%
%ADD22C,1.700000*%
%ADD23RoundRect,0.150000X0.587500X0.150000X-0.587500X0.150000X-0.587500X-0.150000X0.587500X-0.150000X0*%
%ADD24RoundRect,0.225000X0.250000X-0.225000X0.250000X0.225000X-0.250000X0.225000X-0.250000X-0.225000X0*%
%ADD25RoundRect,0.243750X-0.243750X-0.456250X0.243750X-0.456250X0.243750X0.456250X-0.243750X0.456250X0*%
%ADD26C,2.000000*%
%ADD27R,2.000000X2.000000*%
%ADD28R,1.550000X1.600000*%
%ADD29R,0.600000X1.200000*%
%ADD30R,0.800000X1.400000*%
%ADD31RoundRect,0.200000X-0.200000X-0.275000X0.200000X-0.275000X0.200000X0.275000X-0.200000X0.275000X0*%
%ADD32RoundRect,0.200000X-0.275000X0.200000X-0.275000X-0.200000X0.275000X-0.200000X0.275000X0.200000X0*%
%ADD33RoundRect,0.375000X0.625000X0.375000X-0.625000X0.375000X-0.625000X-0.375000X0.625000X-0.375000X0*%
%ADD34RoundRect,0.500000X0.500000X1.400000X-0.500000X1.400000X-0.500000X-1.400000X0.500000X-1.400000X0*%
%ADD35RoundRect,0.200000X0.275000X-0.200000X0.275000X0.200000X-0.275000X0.200000X-0.275000X-0.200000X0*%
%ADD36RoundRect,0.250000X-0.550000X1.250000X-0.550000X-1.250000X0.550000X-1.250000X0.550000X1.250000X0*%
%ADD37RoundRect,0.225000X-0.225000X-0.250000X0.225000X-0.250000X0.225000X0.250000X-0.225000X0.250000X0*%
%ADD38C,2.100000*%
%ADD39O,2.100000X5.000000*%
%ADD40RoundRect,0.250000X-1.250000X-0.550000X1.250000X-0.550000X1.250000X0.550000X-1.250000X0.550000X0*%
%ADD41RoundRect,0.250000X0.650000X-1.000000X0.650000X1.000000X-0.650000X1.000000X-0.650000X-1.000000X0*%
%ADD42RoundRect,0.250000X1.000000X0.650000X-1.000000X0.650000X-1.000000X-0.650000X1.000000X-0.650000X0*%
G04 APERTURE END LIST*
D10*
X138516918Y-77259374D02*
X138093584Y-77259374D01*
X138093584Y-77924612D02*
X138093584Y-76654612D01*
X138093584Y-76654612D02*
X138698346Y-76654612D01*
X139726441Y-77924612D02*
X139726441Y-77259374D01*
X139726441Y-77259374D02*
X139665965Y-77138421D01*
X139665965Y-77138421D02*
X139545013Y-77077945D01*
X139545013Y-77077945D02*
X139303108Y-77077945D01*
X139303108Y-77077945D02*
X139182155Y-77138421D01*
X139726441Y-77864136D02*
X139605489Y-77924612D01*
X139605489Y-77924612D02*
X139303108Y-77924612D01*
X139303108Y-77924612D02*
X139182155Y-77864136D01*
X139182155Y-77864136D02*
X139121679Y-77743183D01*
X139121679Y-77743183D02*
X139121679Y-77622231D01*
X139121679Y-77622231D02*
X139182155Y-77501278D01*
X139182155Y-77501278D02*
X139303108Y-77440802D01*
X139303108Y-77440802D02*
X139605489Y-77440802D01*
X139605489Y-77440802D02*
X139726441Y-77380326D01*
X140875489Y-77077945D02*
X140875489Y-77924612D01*
X140331203Y-77077945D02*
X140331203Y-77743183D01*
X140331203Y-77743183D02*
X140391680Y-77864136D01*
X140391680Y-77864136D02*
X140512632Y-77924612D01*
X140512632Y-77924612D02*
X140694061Y-77924612D01*
X140694061Y-77924612D02*
X140815013Y-77864136D01*
X140815013Y-77864136D02*
X140875489Y-77803659D01*
X141661680Y-77924612D02*
X141540728Y-77864136D01*
X141540728Y-77864136D02*
X141480251Y-77743183D01*
X141480251Y-77743183D02*
X141480251Y-76654612D01*
X141964061Y-77077945D02*
X142447870Y-77077945D01*
X142145489Y-76654612D02*
X142145489Y-77743183D01*
X142145489Y-77743183D02*
X142205966Y-77864136D01*
X142205966Y-77864136D02*
X142326918Y-77924612D01*
X142326918Y-77924612D02*
X142447870Y-77924612D01*
X143838822Y-77924612D02*
X143838822Y-76654612D01*
X144443584Y-77077945D02*
X144443584Y-77924612D01*
X144443584Y-77198897D02*
X144504061Y-77138421D01*
X144504061Y-77138421D02*
X144625013Y-77077945D01*
X144625013Y-77077945D02*
X144806442Y-77077945D01*
X144806442Y-77077945D02*
X144927394Y-77138421D01*
X144927394Y-77138421D02*
X144987870Y-77259374D01*
X144987870Y-77259374D02*
X144987870Y-77924612D01*
X145592632Y-77077945D02*
X145592632Y-78166516D01*
X145592632Y-78166516D02*
X145532156Y-78287469D01*
X145532156Y-78287469D02*
X145411204Y-78347945D01*
X145411204Y-78347945D02*
X145350728Y-78347945D01*
X145592632Y-76654612D02*
X145532156Y-76715088D01*
X145532156Y-76715088D02*
X145592632Y-76775564D01*
X145592632Y-76775564D02*
X145653109Y-76715088D01*
X145653109Y-76715088D02*
X145592632Y-76654612D01*
X145592632Y-76654612D02*
X145592632Y-76775564D01*
X146681204Y-77864136D02*
X146560252Y-77924612D01*
X146560252Y-77924612D02*
X146318347Y-77924612D01*
X146318347Y-77924612D02*
X146197394Y-77864136D01*
X146197394Y-77864136D02*
X146136918Y-77743183D01*
X146136918Y-77743183D02*
X146136918Y-77259374D01*
X146136918Y-77259374D02*
X146197394Y-77138421D01*
X146197394Y-77138421D02*
X146318347Y-77077945D01*
X146318347Y-77077945D02*
X146560252Y-77077945D01*
X146560252Y-77077945D02*
X146681204Y-77138421D01*
X146681204Y-77138421D02*
X146741680Y-77259374D01*
X146741680Y-77259374D02*
X146741680Y-77380326D01*
X146741680Y-77380326D02*
X146136918Y-77501278D01*
X147830251Y-77864136D02*
X147709299Y-77924612D01*
X147709299Y-77924612D02*
X147467394Y-77924612D01*
X147467394Y-77924612D02*
X147346442Y-77864136D01*
X147346442Y-77864136D02*
X147285965Y-77803659D01*
X147285965Y-77803659D02*
X147225489Y-77682707D01*
X147225489Y-77682707D02*
X147225489Y-77319850D01*
X147225489Y-77319850D02*
X147285965Y-77198897D01*
X147285965Y-77198897D02*
X147346442Y-77138421D01*
X147346442Y-77138421D02*
X147467394Y-77077945D01*
X147467394Y-77077945D02*
X147709299Y-77077945D01*
X147709299Y-77077945D02*
X147830251Y-77138421D01*
X148193108Y-77077945D02*
X148676917Y-77077945D01*
X148374536Y-76654612D02*
X148374536Y-77743183D01*
X148374536Y-77743183D02*
X148435013Y-77864136D01*
X148435013Y-77864136D02*
X148555965Y-77924612D01*
X148555965Y-77924612D02*
X148676917Y-77924612D01*
X149100250Y-77924612D02*
X149100250Y-77077945D01*
X149100250Y-76654612D02*
X149039774Y-76715088D01*
X149039774Y-76715088D02*
X149100250Y-76775564D01*
X149100250Y-76775564D02*
X149160727Y-76715088D01*
X149160727Y-76715088D02*
X149100250Y-76654612D01*
X149100250Y-76654612D02*
X149100250Y-76775564D01*
X149886441Y-77924612D02*
X149765489Y-77864136D01*
X149765489Y-77864136D02*
X149705012Y-77803659D01*
X149705012Y-77803659D02*
X149644536Y-77682707D01*
X149644536Y-77682707D02*
X149644536Y-77319850D01*
X149644536Y-77319850D02*
X149705012Y-77198897D01*
X149705012Y-77198897D02*
X149765489Y-77138421D01*
X149765489Y-77138421D02*
X149886441Y-77077945D01*
X149886441Y-77077945D02*
X150067870Y-77077945D01*
X150067870Y-77077945D02*
X150188822Y-77138421D01*
X150188822Y-77138421D02*
X150249298Y-77198897D01*
X150249298Y-77198897D02*
X150309774Y-77319850D01*
X150309774Y-77319850D02*
X150309774Y-77682707D01*
X150309774Y-77682707D02*
X150249298Y-77803659D01*
X150249298Y-77803659D02*
X150188822Y-77864136D01*
X150188822Y-77864136D02*
X150067870Y-77924612D01*
X150067870Y-77924612D02*
X149886441Y-77924612D01*
X150854060Y-77077945D02*
X150854060Y-77924612D01*
X150854060Y-77198897D02*
X150914537Y-77138421D01*
X150914537Y-77138421D02*
X151035489Y-77077945D01*
X151035489Y-77077945D02*
X151216918Y-77077945D01*
X151216918Y-77077945D02*
X151337870Y-77138421D01*
X151337870Y-77138421D02*
X151398346Y-77259374D01*
X151398346Y-77259374D02*
X151398346Y-77924612D01*
X153696442Y-77803659D02*
X153635966Y-77864136D01*
X153635966Y-77864136D02*
X153454537Y-77924612D01*
X153454537Y-77924612D02*
X153333585Y-77924612D01*
X153333585Y-77924612D02*
X153152156Y-77864136D01*
X153152156Y-77864136D02*
X153031204Y-77743183D01*
X153031204Y-77743183D02*
X152970727Y-77622231D01*
X152970727Y-77622231D02*
X152910251Y-77380326D01*
X152910251Y-77380326D02*
X152910251Y-77198897D01*
X152910251Y-77198897D02*
X152970727Y-76956993D01*
X152970727Y-76956993D02*
X153031204Y-76836040D01*
X153031204Y-76836040D02*
X153152156Y-76715088D01*
X153152156Y-76715088D02*
X153333585Y-76654612D01*
X153333585Y-76654612D02*
X153454537Y-76654612D01*
X153454537Y-76654612D02*
X153635966Y-76715088D01*
X153635966Y-76715088D02*
X153696442Y-76775564D01*
X154422156Y-77924612D02*
X154301204Y-77864136D01*
X154301204Y-77864136D02*
X154240727Y-77803659D01*
X154240727Y-77803659D02*
X154180251Y-77682707D01*
X154180251Y-77682707D02*
X154180251Y-77319850D01*
X154180251Y-77319850D02*
X154240727Y-77198897D01*
X154240727Y-77198897D02*
X154301204Y-77138421D01*
X154301204Y-77138421D02*
X154422156Y-77077945D01*
X154422156Y-77077945D02*
X154603585Y-77077945D01*
X154603585Y-77077945D02*
X154724537Y-77138421D01*
X154724537Y-77138421D02*
X154785013Y-77198897D01*
X154785013Y-77198897D02*
X154845489Y-77319850D01*
X154845489Y-77319850D02*
X154845489Y-77682707D01*
X154845489Y-77682707D02*
X154785013Y-77803659D01*
X154785013Y-77803659D02*
X154724537Y-77864136D01*
X154724537Y-77864136D02*
X154603585Y-77924612D01*
X154603585Y-77924612D02*
X154422156Y-77924612D01*
X155389775Y-77077945D02*
X155389775Y-77924612D01*
X155389775Y-77198897D02*
X155450252Y-77138421D01*
X155450252Y-77138421D02*
X155571204Y-77077945D01*
X155571204Y-77077945D02*
X155752633Y-77077945D01*
X155752633Y-77077945D02*
X155873585Y-77138421D01*
X155873585Y-77138421D02*
X155934061Y-77259374D01*
X155934061Y-77259374D02*
X155934061Y-77924612D01*
X156357395Y-77077945D02*
X156841204Y-77077945D01*
X156538823Y-76654612D02*
X156538823Y-77743183D01*
X156538823Y-77743183D02*
X156599300Y-77864136D01*
X156599300Y-77864136D02*
X156720252Y-77924612D01*
X156720252Y-77924612D02*
X156841204Y-77924612D01*
X157264537Y-77924612D02*
X157264537Y-77077945D01*
X157264537Y-77319850D02*
X157325014Y-77198897D01*
X157325014Y-77198897D02*
X157385490Y-77138421D01*
X157385490Y-77138421D02*
X157506442Y-77077945D01*
X157506442Y-77077945D02*
X157627395Y-77077945D01*
X158232156Y-77924612D02*
X158111204Y-77864136D01*
X158111204Y-77864136D02*
X158050727Y-77803659D01*
X158050727Y-77803659D02*
X157990251Y-77682707D01*
X157990251Y-77682707D02*
X157990251Y-77319850D01*
X157990251Y-77319850D02*
X158050727Y-77198897D01*
X158050727Y-77198897D02*
X158111204Y-77138421D01*
X158111204Y-77138421D02*
X158232156Y-77077945D01*
X158232156Y-77077945D02*
X158413585Y-77077945D01*
X158413585Y-77077945D02*
X158534537Y-77138421D01*
X158534537Y-77138421D02*
X158595013Y-77198897D01*
X158595013Y-77198897D02*
X158655489Y-77319850D01*
X158655489Y-77319850D02*
X158655489Y-77682707D01*
X158655489Y-77682707D02*
X158595013Y-77803659D01*
X158595013Y-77803659D02*
X158534537Y-77864136D01*
X158534537Y-77864136D02*
X158413585Y-77924612D01*
X158413585Y-77924612D02*
X158232156Y-77924612D01*
X159381204Y-77924612D02*
X159260252Y-77864136D01*
X159260252Y-77864136D02*
X159199775Y-77743183D01*
X159199775Y-77743183D02*
X159199775Y-76654612D01*
X160046442Y-77924612D02*
X159925490Y-77864136D01*
X159925490Y-77864136D02*
X159865013Y-77743183D01*
X159865013Y-77743183D02*
X159865013Y-76654612D01*
X161014061Y-77864136D02*
X160893109Y-77924612D01*
X160893109Y-77924612D02*
X160651204Y-77924612D01*
X160651204Y-77924612D02*
X160530251Y-77864136D01*
X160530251Y-77864136D02*
X160469775Y-77743183D01*
X160469775Y-77743183D02*
X160469775Y-77259374D01*
X160469775Y-77259374D02*
X160530251Y-77138421D01*
X160530251Y-77138421D02*
X160651204Y-77077945D01*
X160651204Y-77077945D02*
X160893109Y-77077945D01*
X160893109Y-77077945D02*
X161014061Y-77138421D01*
X161014061Y-77138421D02*
X161074537Y-77259374D01*
X161074537Y-77259374D02*
X161074537Y-77380326D01*
X161074537Y-77380326D02*
X160469775Y-77501278D01*
X161618822Y-77924612D02*
X161618822Y-77077945D01*
X161618822Y-77319850D02*
X161679299Y-77198897D01*
X161679299Y-77198897D02*
X161739775Y-77138421D01*
X161739775Y-77138421D02*
X161860727Y-77077945D01*
X161860727Y-77077945D02*
X161981680Y-77077945D01*
X150672630Y-79122574D02*
X150975011Y-79969241D01*
X150975011Y-79969241D02*
X151277392Y-79122574D01*
X151700725Y-78820193D02*
X151761201Y-78759717D01*
X151761201Y-78759717D02*
X151882154Y-78699241D01*
X151882154Y-78699241D02*
X152184535Y-78699241D01*
X152184535Y-78699241D02*
X152305487Y-78759717D01*
X152305487Y-78759717D02*
X152365963Y-78820193D01*
X152365963Y-78820193D02*
X152426440Y-78941145D01*
X152426440Y-78941145D02*
X152426440Y-79062098D01*
X152426440Y-79062098D02*
X152365963Y-79243526D01*
X152365963Y-79243526D02*
X151640249Y-79969241D01*
X151640249Y-79969241D02*
X152426440Y-79969241D01*
X152970725Y-79848288D02*
X153031202Y-79908765D01*
X153031202Y-79908765D02*
X152970725Y-79969241D01*
X152970725Y-79969241D02*
X152910249Y-79908765D01*
X152910249Y-79908765D02*
X152970725Y-79848288D01*
X152970725Y-79848288D02*
X152970725Y-79969241D01*
X153817392Y-78699241D02*
X153938345Y-78699241D01*
X153938345Y-78699241D02*
X154059297Y-78759717D01*
X154059297Y-78759717D02*
X154119773Y-78820193D01*
X154119773Y-78820193D02*
X154180249Y-78941145D01*
X154180249Y-78941145D02*
X154240726Y-79183050D01*
X154240726Y-79183050D02*
X154240726Y-79485431D01*
X154240726Y-79485431D02*
X154180249Y-79727336D01*
X154180249Y-79727336D02*
X154119773Y-79848288D01*
X154119773Y-79848288D02*
X154059297Y-79908765D01*
X154059297Y-79908765D02*
X153938345Y-79969241D01*
X153938345Y-79969241D02*
X153817392Y-79969241D01*
X153817392Y-79969241D02*
X153696440Y-79908765D01*
X153696440Y-79908765D02*
X153635964Y-79848288D01*
X153635964Y-79848288D02*
X153575487Y-79727336D01*
X153575487Y-79727336D02*
X153515011Y-79485431D01*
X153515011Y-79485431D02*
X153515011Y-79183050D01*
X153515011Y-79183050D02*
X153575487Y-78941145D01*
X153575487Y-78941145D02*
X153635964Y-78820193D01*
X153635964Y-78820193D02*
X153696440Y-78759717D01*
X153696440Y-78759717D02*
X153817392Y-78699241D01*
X155631678Y-78699241D02*
X156478345Y-78699241D01*
X156478345Y-78699241D02*
X155934059Y-79969241D01*
X156962154Y-79848288D02*
X157022631Y-79908765D01*
X157022631Y-79908765D02*
X156962154Y-79969241D01*
X156962154Y-79969241D02*
X156901678Y-79908765D01*
X156901678Y-79908765D02*
X156962154Y-79848288D01*
X156962154Y-79848288D02*
X156962154Y-79969241D01*
X157506440Y-78820193D02*
X157566916Y-78759717D01*
X157566916Y-78759717D02*
X157687869Y-78699241D01*
X157687869Y-78699241D02*
X157990250Y-78699241D01*
X157990250Y-78699241D02*
X158111202Y-78759717D01*
X158111202Y-78759717D02*
X158171678Y-78820193D01*
X158171678Y-78820193D02*
X158232155Y-78941145D01*
X158232155Y-78941145D02*
X158232155Y-79062098D01*
X158232155Y-79062098D02*
X158171678Y-79243526D01*
X158171678Y-79243526D02*
X157445964Y-79969241D01*
X157445964Y-79969241D02*
X158232155Y-79969241D01*
X159018345Y-78699241D02*
X159139298Y-78699241D01*
X159139298Y-78699241D02*
X159260250Y-78759717D01*
X159260250Y-78759717D02*
X159320726Y-78820193D01*
X159320726Y-78820193D02*
X159381202Y-78941145D01*
X159381202Y-78941145D02*
X159441679Y-79183050D01*
X159441679Y-79183050D02*
X159441679Y-79485431D01*
X159441679Y-79485431D02*
X159381202Y-79727336D01*
X159381202Y-79727336D02*
X159320726Y-79848288D01*
X159320726Y-79848288D02*
X159260250Y-79908765D01*
X159260250Y-79908765D02*
X159139298Y-79969241D01*
X159139298Y-79969241D02*
X159018345Y-79969241D01*
X159018345Y-79969241D02*
X158897393Y-79908765D01*
X158897393Y-79908765D02*
X158836917Y-79848288D01*
X158836917Y-79848288D02*
X158776440Y-79727336D01*
X158776440Y-79727336D02*
X158715964Y-79485431D01*
X158715964Y-79485431D02*
X158715964Y-79183050D01*
X158715964Y-79183050D02*
X158776440Y-78941145D01*
X158776440Y-78941145D02*
X158836917Y-78820193D01*
X158836917Y-78820193D02*
X158897393Y-78759717D01*
X158897393Y-78759717D02*
X159018345Y-78699241D01*
X159925488Y-78820193D02*
X159985964Y-78759717D01*
X159985964Y-78759717D02*
X160106917Y-78699241D01*
X160106917Y-78699241D02*
X160409298Y-78699241D01*
X160409298Y-78699241D02*
X160530250Y-78759717D01*
X160530250Y-78759717D02*
X160590726Y-78820193D01*
X160590726Y-78820193D02*
X160651203Y-78941145D01*
X160651203Y-78941145D02*
X160651203Y-79062098D01*
X160651203Y-79062098D02*
X160590726Y-79243526D01*
X160590726Y-79243526D02*
X159865012Y-79969241D01*
X159865012Y-79969241D02*
X160651203Y-79969241D01*
X161800250Y-78699241D02*
X161195488Y-78699241D01*
X161195488Y-78699241D02*
X161135012Y-79304003D01*
X161135012Y-79304003D02*
X161195488Y-79243526D01*
X161195488Y-79243526D02*
X161316441Y-79183050D01*
X161316441Y-79183050D02*
X161618822Y-79183050D01*
X161618822Y-79183050D02*
X161739774Y-79243526D01*
X161739774Y-79243526D02*
X161800250Y-79304003D01*
X161800250Y-79304003D02*
X161860727Y-79424955D01*
X161860727Y-79424955D02*
X161860727Y-79727336D01*
X161860727Y-79727336D02*
X161800250Y-79848288D01*
X161800250Y-79848288D02*
X161739774Y-79908765D01*
X161739774Y-79908765D02*
X161618822Y-79969241D01*
X161618822Y-79969241D02*
X161316441Y-79969241D01*
X161316441Y-79969241D02*
X161195488Y-79908765D01*
X161195488Y-79908765D02*
X161135012Y-79848288D01*
D11*
X165675000Y-94650000D02*
X168225000Y-94650000D01*
D12*
X136200000Y-73975000D02*
X136200000Y-74475000D01*
X136200000Y-74475000D02*
X138700000Y-74475000D01*
D11*
X162825000Y-90875000D02*
X165375000Y-90875000D01*
D12*
X138700000Y-74475000D02*
X138700000Y-73975000D01*
X162436779Y-89244819D02*
X162436779Y-90054342D01*
X162436779Y-90054342D02*
X162484398Y-90149580D01*
X162484398Y-90149580D02*
X162532017Y-90197200D01*
X162532017Y-90197200D02*
X162627255Y-90244819D01*
X162627255Y-90244819D02*
X162817731Y-90244819D01*
X162817731Y-90244819D02*
X162912969Y-90197200D01*
X162912969Y-90197200D02*
X162960588Y-90149580D01*
X162960588Y-90149580D02*
X163008207Y-90054342D01*
X163008207Y-90054342D02*
X163008207Y-89244819D01*
X163436779Y-90197200D02*
X163579636Y-90244819D01*
X163579636Y-90244819D02*
X163817731Y-90244819D01*
X163817731Y-90244819D02*
X163912969Y-90197200D01*
X163912969Y-90197200D02*
X163960588Y-90149580D01*
X163960588Y-90149580D02*
X164008207Y-90054342D01*
X164008207Y-90054342D02*
X164008207Y-89959104D01*
X164008207Y-89959104D02*
X163960588Y-89863866D01*
X163960588Y-89863866D02*
X163912969Y-89816247D01*
X163912969Y-89816247D02*
X163817731Y-89768628D01*
X163817731Y-89768628D02*
X163627255Y-89721009D01*
X163627255Y-89721009D02*
X163532017Y-89673390D01*
X163532017Y-89673390D02*
X163484398Y-89625771D01*
X163484398Y-89625771D02*
X163436779Y-89530533D01*
X163436779Y-89530533D02*
X163436779Y-89435295D01*
X163436779Y-89435295D02*
X163484398Y-89340057D01*
X163484398Y-89340057D02*
X163532017Y-89292438D01*
X163532017Y-89292438D02*
X163627255Y-89244819D01*
X163627255Y-89244819D02*
X163865350Y-89244819D01*
X163865350Y-89244819D02*
X164008207Y-89292438D01*
X164436779Y-89721009D02*
X164770112Y-89721009D01*
X164912969Y-90244819D02*
X164436779Y-90244819D01*
X164436779Y-90244819D02*
X164436779Y-89244819D01*
X164436779Y-89244819D02*
X164912969Y-89244819D01*
X165912969Y-90244819D02*
X165579636Y-89768628D01*
X165341541Y-90244819D02*
X165341541Y-89244819D01*
X165341541Y-89244819D02*
X165722493Y-89244819D01*
X165722493Y-89244819D02*
X165817731Y-89292438D01*
X165817731Y-89292438D02*
X165865350Y-89340057D01*
X165865350Y-89340057D02*
X165912969Y-89435295D01*
X165912969Y-89435295D02*
X165912969Y-89578152D01*
X165912969Y-89578152D02*
X165865350Y-89673390D01*
X165865350Y-89673390D02*
X165817731Y-89721009D01*
X165817731Y-89721009D02*
X165722493Y-89768628D01*
X165722493Y-89768628D02*
X165341541Y-89768628D01*
X141458207Y-71659875D02*
X141124874Y-71183684D01*
X140886779Y-71659875D02*
X140886779Y-70659875D01*
X140886779Y-70659875D02*
X141267731Y-70659875D01*
X141267731Y-70659875D02*
X141362969Y-70707494D01*
X141362969Y-70707494D02*
X141410588Y-70755113D01*
X141410588Y-70755113D02*
X141458207Y-70850351D01*
X141458207Y-70850351D02*
X141458207Y-70993208D01*
X141458207Y-70993208D02*
X141410588Y-71088446D01*
X141410588Y-71088446D02*
X141362969Y-71136065D01*
X141362969Y-71136065D02*
X141267731Y-71183684D01*
X141267731Y-71183684D02*
X140886779Y-71183684D01*
X141886779Y-71136065D02*
X142220112Y-71136065D01*
X142362969Y-71659875D02*
X141886779Y-71659875D01*
X141886779Y-71659875D02*
X141886779Y-70659875D01*
X141886779Y-70659875D02*
X142362969Y-70659875D01*
X143267731Y-71659875D02*
X142791541Y-71659875D01*
X142791541Y-71659875D02*
X142791541Y-70659875D01*
X143553446Y-71374160D02*
X144029636Y-71374160D01*
X143458208Y-71659875D02*
X143791541Y-70659875D01*
X143791541Y-70659875D02*
X144124874Y-71659875D01*
X144648684Y-71183684D02*
X144648684Y-71659875D01*
X144315351Y-70659875D02*
X144648684Y-71183684D01*
X144648684Y-71183684D02*
X144982017Y-70659875D01*
X141458207Y-73174580D02*
X141410588Y-73222200D01*
X141410588Y-73222200D02*
X141267731Y-73269819D01*
X141267731Y-73269819D02*
X141172493Y-73269819D01*
X141172493Y-73269819D02*
X141029636Y-73222200D01*
X141029636Y-73222200D02*
X140934398Y-73126961D01*
X140934398Y-73126961D02*
X140886779Y-73031723D01*
X140886779Y-73031723D02*
X140839160Y-72841247D01*
X140839160Y-72841247D02*
X140839160Y-72698390D01*
X140839160Y-72698390D02*
X140886779Y-72507914D01*
X140886779Y-72507914D02*
X140934398Y-72412676D01*
X140934398Y-72412676D02*
X141029636Y-72317438D01*
X141029636Y-72317438D02*
X141172493Y-72269819D01*
X141172493Y-72269819D02*
X141267731Y-72269819D01*
X141267731Y-72269819D02*
X141410588Y-72317438D01*
X141410588Y-72317438D02*
X141458207Y-72365057D01*
X142077255Y-72269819D02*
X142267731Y-72269819D01*
X142267731Y-72269819D02*
X142362969Y-72317438D01*
X142362969Y-72317438D02*
X142458207Y-72412676D01*
X142458207Y-72412676D02*
X142505826Y-72603152D01*
X142505826Y-72603152D02*
X142505826Y-72936485D01*
X142505826Y-72936485D02*
X142458207Y-73126961D01*
X142458207Y-73126961D02*
X142362969Y-73222200D01*
X142362969Y-73222200D02*
X142267731Y-73269819D01*
X142267731Y-73269819D02*
X142077255Y-73269819D01*
X142077255Y-73269819D02*
X141982017Y-73222200D01*
X141982017Y-73222200D02*
X141886779Y-73126961D01*
X141886779Y-73126961D02*
X141839160Y-72936485D01*
X141839160Y-72936485D02*
X141839160Y-72603152D01*
X141839160Y-72603152D02*
X141886779Y-72412676D01*
X141886779Y-72412676D02*
X141982017Y-72317438D01*
X141982017Y-72317438D02*
X142077255Y-72269819D01*
X142934398Y-73269819D02*
X142934398Y-72269819D01*
X142934398Y-72269819D02*
X143505826Y-73269819D01*
X143505826Y-73269819D02*
X143505826Y-72269819D01*
X143839160Y-72269819D02*
X144410588Y-72269819D01*
X144124874Y-73269819D02*
X144124874Y-72269819D01*
X144696303Y-72984104D02*
X145172493Y-72984104D01*
X144601065Y-73269819D02*
X144934398Y-72269819D01*
X144934398Y-72269819D02*
X145267731Y-73269819D01*
X146172493Y-73174580D02*
X146124874Y-73222200D01*
X146124874Y-73222200D02*
X145982017Y-73269819D01*
X145982017Y-73269819D02*
X145886779Y-73269819D01*
X145886779Y-73269819D02*
X145743922Y-73222200D01*
X145743922Y-73222200D02*
X145648684Y-73126961D01*
X145648684Y-73126961D02*
X145601065Y-73031723D01*
X145601065Y-73031723D02*
X145553446Y-72841247D01*
X145553446Y-72841247D02*
X145553446Y-72698390D01*
X145553446Y-72698390D02*
X145601065Y-72507914D01*
X145601065Y-72507914D02*
X145648684Y-72412676D01*
X145648684Y-72412676D02*
X145743922Y-72317438D01*
X145743922Y-72317438D02*
X145886779Y-72269819D01*
X145886779Y-72269819D02*
X145982017Y-72269819D01*
X145982017Y-72269819D02*
X146124874Y-72317438D01*
X146124874Y-72317438D02*
X146172493Y-72365057D01*
X146458208Y-72269819D02*
X147029636Y-72269819D01*
X146743922Y-73269819D02*
X146743922Y-72269819D01*
X123614279Y-70819819D02*
X123614279Y-71629342D01*
X123614279Y-71629342D02*
X123661898Y-71724580D01*
X123661898Y-71724580D02*
X123709517Y-71772200D01*
X123709517Y-71772200D02*
X123804755Y-71819819D01*
X123804755Y-71819819D02*
X123995231Y-71819819D01*
X123995231Y-71819819D02*
X124090469Y-71772200D01*
X124090469Y-71772200D02*
X124138088Y-71724580D01*
X124138088Y-71724580D02*
X124185707Y-71629342D01*
X124185707Y-71629342D02*
X124185707Y-70819819D01*
X124614279Y-71772200D02*
X124757136Y-71819819D01*
X124757136Y-71819819D02*
X124995231Y-71819819D01*
X124995231Y-71819819D02*
X125090469Y-71772200D01*
X125090469Y-71772200D02*
X125138088Y-71724580D01*
X125138088Y-71724580D02*
X125185707Y-71629342D01*
X125185707Y-71629342D02*
X125185707Y-71534104D01*
X125185707Y-71534104D02*
X125138088Y-71438866D01*
X125138088Y-71438866D02*
X125090469Y-71391247D01*
X125090469Y-71391247D02*
X124995231Y-71343628D01*
X124995231Y-71343628D02*
X124804755Y-71296009D01*
X124804755Y-71296009D02*
X124709517Y-71248390D01*
X124709517Y-71248390D02*
X124661898Y-71200771D01*
X124661898Y-71200771D02*
X124614279Y-71105533D01*
X124614279Y-71105533D02*
X124614279Y-71010295D01*
X124614279Y-71010295D02*
X124661898Y-70915057D01*
X124661898Y-70915057D02*
X124709517Y-70867438D01*
X124709517Y-70867438D02*
X124804755Y-70819819D01*
X124804755Y-70819819D02*
X125042850Y-70819819D01*
X125042850Y-70819819D02*
X125185707Y-70867438D01*
X125614279Y-71296009D02*
X125947612Y-71296009D01*
X126090469Y-71819819D02*
X125614279Y-71819819D01*
X125614279Y-71819819D02*
X125614279Y-70819819D01*
X125614279Y-70819819D02*
X126090469Y-70819819D01*
X127090469Y-71819819D02*
X126757136Y-71343628D01*
X126519041Y-71819819D02*
X126519041Y-70819819D01*
X126519041Y-70819819D02*
X126899993Y-70819819D01*
X126899993Y-70819819D02*
X126995231Y-70867438D01*
X126995231Y-70867438D02*
X127042850Y-70915057D01*
X127042850Y-70915057D02*
X127090469Y-71010295D01*
X127090469Y-71010295D02*
X127090469Y-71153152D01*
X127090469Y-71153152D02*
X127042850Y-71248390D01*
X127042850Y-71248390D02*
X126995231Y-71296009D01*
X126995231Y-71296009D02*
X126899993Y-71343628D01*
X126899993Y-71343628D02*
X126519041Y-71343628D01*
X165258207Y-96069819D02*
X164924874Y-95593628D01*
X164686779Y-96069819D02*
X164686779Y-95069819D01*
X164686779Y-95069819D02*
X165067731Y-95069819D01*
X165067731Y-95069819D02*
X165162969Y-95117438D01*
X165162969Y-95117438D02*
X165210588Y-95165057D01*
X165210588Y-95165057D02*
X165258207Y-95260295D01*
X165258207Y-95260295D02*
X165258207Y-95403152D01*
X165258207Y-95403152D02*
X165210588Y-95498390D01*
X165210588Y-95498390D02*
X165162969Y-95546009D01*
X165162969Y-95546009D02*
X165067731Y-95593628D01*
X165067731Y-95593628D02*
X164686779Y-95593628D01*
X165686779Y-95546009D02*
X166020112Y-95546009D01*
X166162969Y-96069819D02*
X165686779Y-96069819D01*
X165686779Y-96069819D02*
X165686779Y-95069819D01*
X165686779Y-95069819D02*
X166162969Y-95069819D01*
X167067731Y-96069819D02*
X166591541Y-96069819D01*
X166591541Y-96069819D02*
X166591541Y-95069819D01*
X167353446Y-95784104D02*
X167829636Y-95784104D01*
X167258208Y-96069819D02*
X167591541Y-95069819D01*
X167591541Y-95069819D02*
X167924874Y-96069819D01*
X168448684Y-95593628D02*
X168448684Y-96069819D01*
X168115351Y-95069819D02*
X168448684Y-95593628D01*
X168448684Y-95593628D02*
X168782017Y-95069819D01*
X123614279Y-75819819D02*
X123614279Y-74819819D01*
X123614279Y-74819819D02*
X123995231Y-74819819D01*
X123995231Y-74819819D02*
X124090469Y-74867438D01*
X124090469Y-74867438D02*
X124138088Y-74915057D01*
X124138088Y-74915057D02*
X124185707Y-75010295D01*
X124185707Y-75010295D02*
X124185707Y-75153152D01*
X124185707Y-75153152D02*
X124138088Y-75248390D01*
X124138088Y-75248390D02*
X124090469Y-75296009D01*
X124090469Y-75296009D02*
X123995231Y-75343628D01*
X123995231Y-75343628D02*
X123614279Y-75343628D01*
X124804755Y-74819819D02*
X124995231Y-74819819D01*
X124995231Y-74819819D02*
X125090469Y-74867438D01*
X125090469Y-74867438D02*
X125185707Y-74962676D01*
X125185707Y-74962676D02*
X125233326Y-75153152D01*
X125233326Y-75153152D02*
X125233326Y-75486485D01*
X125233326Y-75486485D02*
X125185707Y-75676961D01*
X125185707Y-75676961D02*
X125090469Y-75772200D01*
X125090469Y-75772200D02*
X124995231Y-75819819D01*
X124995231Y-75819819D02*
X124804755Y-75819819D01*
X124804755Y-75819819D02*
X124709517Y-75772200D01*
X124709517Y-75772200D02*
X124614279Y-75676961D01*
X124614279Y-75676961D02*
X124566660Y-75486485D01*
X124566660Y-75486485D02*
X124566660Y-75153152D01*
X124566660Y-75153152D02*
X124614279Y-74962676D01*
X124614279Y-74962676D02*
X124709517Y-74867438D01*
X124709517Y-74867438D02*
X124804755Y-74819819D01*
X125566660Y-74819819D02*
X125804755Y-75819819D01*
X125804755Y-75819819D02*
X125995231Y-75105533D01*
X125995231Y-75105533D02*
X126185707Y-75819819D01*
X126185707Y-75819819D02*
X126423803Y-74819819D01*
X126804755Y-75296009D02*
X127138088Y-75296009D01*
X127280945Y-75819819D02*
X126804755Y-75819819D01*
X126804755Y-75819819D02*
X126804755Y-74819819D01*
X126804755Y-74819819D02*
X127280945Y-74819819D01*
X128280945Y-75819819D02*
X127947612Y-75343628D01*
X127709517Y-75819819D02*
X127709517Y-74819819D01*
X127709517Y-74819819D02*
X128090469Y-74819819D01*
X128090469Y-74819819D02*
X128185707Y-74867438D01*
X128185707Y-74867438D02*
X128233326Y-74915057D01*
X128233326Y-74915057D02*
X128280945Y-75010295D01*
X128280945Y-75010295D02*
X128280945Y-75153152D01*
X128280945Y-75153152D02*
X128233326Y-75248390D01*
X128233326Y-75248390D02*
X128185707Y-75296009D01*
X128185707Y-75296009D02*
X128090469Y-75343628D01*
X128090469Y-75343628D02*
X127709517Y-75343628D01*
D13*
X142471429Y-113380928D02*
X143328572Y-113380928D01*
X142900000Y-114880928D02*
X142900000Y-113380928D01*
X144400000Y-114809500D02*
X144257143Y-114880928D01*
X144257143Y-114880928D02*
X143971429Y-114880928D01*
X143971429Y-114880928D02*
X143828571Y-114809500D01*
X143828571Y-114809500D02*
X143757143Y-114666642D01*
X143757143Y-114666642D02*
X143757143Y-114095214D01*
X143757143Y-114095214D02*
X143828571Y-113952357D01*
X143828571Y-113952357D02*
X143971429Y-113880928D01*
X143971429Y-113880928D02*
X144257143Y-113880928D01*
X144257143Y-113880928D02*
X144400000Y-113952357D01*
X144400000Y-113952357D02*
X144471429Y-114095214D01*
X144471429Y-114095214D02*
X144471429Y-114238071D01*
X144471429Y-114238071D02*
X143757143Y-114380928D01*
X145685714Y-114809500D02*
X145542857Y-114880928D01*
X145542857Y-114880928D02*
X145257143Y-114880928D01*
X145257143Y-114880928D02*
X145114285Y-114809500D01*
X145114285Y-114809500D02*
X145042857Y-114666642D01*
X145042857Y-114666642D02*
X145042857Y-114095214D01*
X145042857Y-114095214D02*
X145114285Y-113952357D01*
X145114285Y-113952357D02*
X145257143Y-113880928D01*
X145257143Y-113880928D02*
X145542857Y-113880928D01*
X145542857Y-113880928D02*
X145685714Y-113952357D01*
X145685714Y-113952357D02*
X145757143Y-114095214D01*
X145757143Y-114095214D02*
X145757143Y-114238071D01*
X145757143Y-114238071D02*
X145042857Y-114380928D01*
X146399999Y-113880928D02*
X146399999Y-114880928D01*
X146399999Y-114023785D02*
X146471428Y-113952357D01*
X146471428Y-113952357D02*
X146614285Y-113880928D01*
X146614285Y-113880928D02*
X146828571Y-113880928D01*
X146828571Y-113880928D02*
X146971428Y-113952357D01*
X146971428Y-113952357D02*
X147042857Y-114095214D01*
X147042857Y-114095214D02*
X147042857Y-114880928D01*
X147685714Y-114809500D02*
X147828571Y-114880928D01*
X147828571Y-114880928D02*
X148114285Y-114880928D01*
X148114285Y-114880928D02*
X148257142Y-114809500D01*
X148257142Y-114809500D02*
X148328571Y-114666642D01*
X148328571Y-114666642D02*
X148328571Y-114595214D01*
X148328571Y-114595214D02*
X148257142Y-114452357D01*
X148257142Y-114452357D02*
X148114285Y-114380928D01*
X148114285Y-114380928D02*
X147900000Y-114380928D01*
X147900000Y-114380928D02*
X147757142Y-114309500D01*
X147757142Y-114309500D02*
X147685714Y-114166642D01*
X147685714Y-114166642D02*
X147685714Y-114095214D01*
X147685714Y-114095214D02*
X147757142Y-113952357D01*
X147757142Y-113952357D02*
X147900000Y-113880928D01*
X147900000Y-113880928D02*
X148114285Y-113880928D01*
X148114285Y-113880928D02*
X148257142Y-113952357D01*
X148828571Y-113880928D02*
X149185714Y-114880928D01*
X149542857Y-113880928D02*
X149185714Y-114880928D01*
X149185714Y-114880928D02*
X149042857Y-115238071D01*
X149042857Y-115238071D02*
X148971428Y-115309500D01*
X148971428Y-115309500D02*
X148828571Y-115380928D01*
X151900000Y-113880928D02*
X151900000Y-114880928D01*
X151542857Y-113309500D02*
X151185714Y-114380928D01*
X151185714Y-114380928D02*
X152114285Y-114380928D01*
X152685713Y-114738071D02*
X152757142Y-114809500D01*
X152757142Y-114809500D02*
X152685713Y-114880928D01*
X152685713Y-114880928D02*
X152614285Y-114809500D01*
X152614285Y-114809500D02*
X152685713Y-114738071D01*
X152685713Y-114738071D02*
X152685713Y-114880928D01*
X154185714Y-114880928D02*
X153328571Y-114880928D01*
X153757142Y-114880928D02*
X153757142Y-113380928D01*
X153757142Y-113380928D02*
X153614285Y-113595214D01*
X153614285Y-113595214D02*
X153471428Y-113738071D01*
X153471428Y-113738071D02*
X153328571Y-113809500D01*
D12*
X134355952Y-75894819D02*
X134355952Y-74894819D01*
X134355952Y-74894819D02*
X134736904Y-74894819D01*
X134736904Y-74894819D02*
X134832142Y-74942438D01*
X134832142Y-74942438D02*
X134879761Y-74990057D01*
X134879761Y-74990057D02*
X134927380Y-75085295D01*
X134927380Y-75085295D02*
X134927380Y-75228152D01*
X134927380Y-75228152D02*
X134879761Y-75323390D01*
X134879761Y-75323390D02*
X134832142Y-75371009D01*
X134832142Y-75371009D02*
X134736904Y-75418628D01*
X134736904Y-75418628D02*
X134355952Y-75418628D01*
X135260714Y-74894819D02*
X135498809Y-75894819D01*
X135498809Y-75894819D02*
X135689285Y-75180533D01*
X135689285Y-75180533D02*
X135879761Y-75894819D01*
X135879761Y-75894819D02*
X136117857Y-74894819D01*
X137070237Y-75894819D02*
X136736904Y-75418628D01*
X136498809Y-75894819D02*
X136498809Y-74894819D01*
X136498809Y-74894819D02*
X136879761Y-74894819D01*
X136879761Y-74894819D02*
X136974999Y-74942438D01*
X136974999Y-74942438D02*
X137022618Y-74990057D01*
X137022618Y-74990057D02*
X137070237Y-75085295D01*
X137070237Y-75085295D02*
X137070237Y-75228152D01*
X137070237Y-75228152D02*
X137022618Y-75323390D01*
X137022618Y-75323390D02*
X136974999Y-75371009D01*
X136974999Y-75371009D02*
X136879761Y-75418628D01*
X136879761Y-75418628D02*
X136498809Y-75418628D01*
X138594047Y-75371009D02*
X138736904Y-75418628D01*
X138736904Y-75418628D02*
X138784523Y-75466247D01*
X138784523Y-75466247D02*
X138832142Y-75561485D01*
X138832142Y-75561485D02*
X138832142Y-75704342D01*
X138832142Y-75704342D02*
X138784523Y-75799580D01*
X138784523Y-75799580D02*
X138736904Y-75847200D01*
X138736904Y-75847200D02*
X138641666Y-75894819D01*
X138641666Y-75894819D02*
X138260714Y-75894819D01*
X138260714Y-75894819D02*
X138260714Y-74894819D01*
X138260714Y-74894819D02*
X138594047Y-74894819D01*
X138594047Y-74894819D02*
X138689285Y-74942438D01*
X138689285Y-74942438D02*
X138736904Y-74990057D01*
X138736904Y-74990057D02*
X138784523Y-75085295D01*
X138784523Y-75085295D02*
X138784523Y-75180533D01*
X138784523Y-75180533D02*
X138736904Y-75275771D01*
X138736904Y-75275771D02*
X138689285Y-75323390D01*
X138689285Y-75323390D02*
X138594047Y-75371009D01*
X138594047Y-75371009D02*
X138260714Y-75371009D01*
X139117857Y-74894819D02*
X139689285Y-74894819D01*
X139403571Y-75894819D02*
X139403571Y-74894819D01*
X140022619Y-75894819D02*
X140022619Y-74894819D01*
X140022619Y-74894819D02*
X140594047Y-75894819D01*
X140594047Y-75894819D02*
X140594047Y-74894819D01*
X127748922Y-78319819D02*
X128320350Y-78319819D01*
X128034636Y-79319819D02*
X128034636Y-78319819D01*
X128653684Y-78796009D02*
X128987017Y-78796009D01*
X129129874Y-79319819D02*
X128653684Y-79319819D01*
X128653684Y-79319819D02*
X128653684Y-78319819D01*
X128653684Y-78319819D02*
X129129874Y-78319819D01*
X129558446Y-78796009D02*
X129891779Y-78796009D01*
X130034636Y-79319819D02*
X129558446Y-79319819D01*
X129558446Y-79319819D02*
X129558446Y-78319819D01*
X129558446Y-78319819D02*
X130034636Y-78319819D01*
X130463208Y-79319819D02*
X130463208Y-78319819D01*
X130463208Y-78319819D02*
X131034636Y-79319819D01*
X131034636Y-79319819D02*
X131034636Y-78319819D01*
X131463208Y-79272200D02*
X131606065Y-79319819D01*
X131606065Y-79319819D02*
X131844160Y-79319819D01*
X131844160Y-79319819D02*
X131939398Y-79272200D01*
X131939398Y-79272200D02*
X131987017Y-79224580D01*
X131987017Y-79224580D02*
X132034636Y-79129342D01*
X132034636Y-79129342D02*
X132034636Y-79034104D01*
X132034636Y-79034104D02*
X131987017Y-78938866D01*
X131987017Y-78938866D02*
X131939398Y-78891247D01*
X131939398Y-78891247D02*
X131844160Y-78843628D01*
X131844160Y-78843628D02*
X131653684Y-78796009D01*
X131653684Y-78796009D02*
X131558446Y-78748390D01*
X131558446Y-78748390D02*
X131510827Y-78700771D01*
X131510827Y-78700771D02*
X131463208Y-78605533D01*
X131463208Y-78605533D02*
X131463208Y-78510295D01*
X131463208Y-78510295D02*
X131510827Y-78415057D01*
X131510827Y-78415057D02*
X131558446Y-78367438D01*
X131558446Y-78367438D02*
X131653684Y-78319819D01*
X131653684Y-78319819D02*
X131891779Y-78319819D01*
X131891779Y-78319819D02*
X132034636Y-78367438D01*
X132653684Y-78843628D02*
X132653684Y-79319819D01*
X132320351Y-78319819D02*
X132653684Y-78843628D01*
X132653684Y-78843628D02*
X132987017Y-78319819D01*
X133987018Y-78319819D02*
X134606065Y-78319819D01*
X134606065Y-78319819D02*
X134272732Y-78700771D01*
X134272732Y-78700771D02*
X134415589Y-78700771D01*
X134415589Y-78700771D02*
X134510827Y-78748390D01*
X134510827Y-78748390D02*
X134558446Y-78796009D01*
X134558446Y-78796009D02*
X134606065Y-78891247D01*
X134606065Y-78891247D02*
X134606065Y-79129342D01*
X134606065Y-79129342D02*
X134558446Y-79224580D01*
X134558446Y-79224580D02*
X134510827Y-79272200D01*
X134510827Y-79272200D02*
X134415589Y-79319819D01*
X134415589Y-79319819D02*
X134129875Y-79319819D01*
X134129875Y-79319819D02*
X134034637Y-79272200D01*
X134034637Y-79272200D02*
X133987018Y-79224580D01*
X134891780Y-78319819D02*
X135225113Y-79319819D01*
X135225113Y-79319819D02*
X135558446Y-78319819D01*
X135796542Y-78319819D02*
X136415589Y-78319819D01*
X136415589Y-78319819D02*
X136082256Y-78700771D01*
X136082256Y-78700771D02*
X136225113Y-78700771D01*
X136225113Y-78700771D02*
X136320351Y-78748390D01*
X136320351Y-78748390D02*
X136367970Y-78796009D01*
X136367970Y-78796009D02*
X136415589Y-78891247D01*
X136415589Y-78891247D02*
X136415589Y-79129342D01*
X136415589Y-79129342D02*
X136367970Y-79224580D01*
X136367970Y-79224580D02*
X136320351Y-79272200D01*
X136320351Y-79272200D02*
X136225113Y-79319819D01*
X136225113Y-79319819D02*
X135939399Y-79319819D01*
X135939399Y-79319819D02*
X135844161Y-79272200D01*
X135844161Y-79272200D02*
X135796542Y-79224580D01*
X167220112Y-88961065D02*
X167362969Y-89008684D01*
X167362969Y-89008684D02*
X167410588Y-89056303D01*
X167410588Y-89056303D02*
X167458207Y-89151541D01*
X167458207Y-89151541D02*
X167458207Y-89294398D01*
X167458207Y-89294398D02*
X167410588Y-89389636D01*
X167410588Y-89389636D02*
X167362969Y-89437256D01*
X167362969Y-89437256D02*
X167267731Y-89484875D01*
X167267731Y-89484875D02*
X166886779Y-89484875D01*
X166886779Y-89484875D02*
X166886779Y-88484875D01*
X166886779Y-88484875D02*
X167220112Y-88484875D01*
X167220112Y-88484875D02*
X167315350Y-88532494D01*
X167315350Y-88532494D02*
X167362969Y-88580113D01*
X167362969Y-88580113D02*
X167410588Y-88675351D01*
X167410588Y-88675351D02*
X167410588Y-88770589D01*
X167410588Y-88770589D02*
X167362969Y-88865827D01*
X167362969Y-88865827D02*
X167315350Y-88913446D01*
X167315350Y-88913446D02*
X167220112Y-88961065D01*
X167220112Y-88961065D02*
X166886779Y-88961065D01*
X167743922Y-88484875D02*
X168315350Y-88484875D01*
X168029636Y-89484875D02*
X168029636Y-88484875D01*
X168648684Y-89484875D02*
X168648684Y-88484875D01*
X168648684Y-88484875D02*
X169220112Y-89484875D01*
X169220112Y-89484875D02*
X169220112Y-88484875D01*
X167458207Y-90999580D02*
X167410588Y-91047200D01*
X167410588Y-91047200D02*
X167267731Y-91094819D01*
X167267731Y-91094819D02*
X167172493Y-91094819D01*
X167172493Y-91094819D02*
X167029636Y-91047200D01*
X167029636Y-91047200D02*
X166934398Y-90951961D01*
X166934398Y-90951961D02*
X166886779Y-90856723D01*
X166886779Y-90856723D02*
X166839160Y-90666247D01*
X166839160Y-90666247D02*
X166839160Y-90523390D01*
X166839160Y-90523390D02*
X166886779Y-90332914D01*
X166886779Y-90332914D02*
X166934398Y-90237676D01*
X166934398Y-90237676D02*
X167029636Y-90142438D01*
X167029636Y-90142438D02*
X167172493Y-90094819D01*
X167172493Y-90094819D02*
X167267731Y-90094819D01*
X167267731Y-90094819D02*
X167410588Y-90142438D01*
X167410588Y-90142438D02*
X167458207Y-90190057D01*
X168220112Y-90571009D02*
X167886779Y-90571009D01*
X167886779Y-91094819D02*
X167886779Y-90094819D01*
X167886779Y-90094819D02*
X168362969Y-90094819D01*
X169267731Y-90142438D02*
X169172493Y-90094819D01*
X169172493Y-90094819D02*
X169029636Y-90094819D01*
X169029636Y-90094819D02*
X168886779Y-90142438D01*
X168886779Y-90142438D02*
X168791541Y-90237676D01*
X168791541Y-90237676D02*
X168743922Y-90332914D01*
X168743922Y-90332914D02*
X168696303Y-90523390D01*
X168696303Y-90523390D02*
X168696303Y-90666247D01*
X168696303Y-90666247D02*
X168743922Y-90856723D01*
X168743922Y-90856723D02*
X168791541Y-90951961D01*
X168791541Y-90951961D02*
X168886779Y-91047200D01*
X168886779Y-91047200D02*
X169029636Y-91094819D01*
X169029636Y-91094819D02*
X169124874Y-91094819D01*
X169124874Y-91094819D02*
X169267731Y-91047200D01*
X169267731Y-91047200D02*
X169315350Y-90999580D01*
X169315350Y-90999580D02*
X169315350Y-90666247D01*
X169315350Y-90666247D02*
X169124874Y-90666247D01*
X124185707Y-73819819D02*
X123852374Y-73343628D01*
X123614279Y-73819819D02*
X123614279Y-72819819D01*
X123614279Y-72819819D02*
X123995231Y-72819819D01*
X123995231Y-72819819D02*
X124090469Y-72867438D01*
X124090469Y-72867438D02*
X124138088Y-72915057D01*
X124138088Y-72915057D02*
X124185707Y-73010295D01*
X124185707Y-73010295D02*
X124185707Y-73153152D01*
X124185707Y-73153152D02*
X124138088Y-73248390D01*
X124138088Y-73248390D02*
X124090469Y-73296009D01*
X124090469Y-73296009D02*
X123995231Y-73343628D01*
X123995231Y-73343628D02*
X123614279Y-73343628D01*
X124614279Y-73296009D02*
X124947612Y-73296009D01*
X125090469Y-73819819D02*
X124614279Y-73819819D01*
X124614279Y-73819819D02*
X124614279Y-72819819D01*
X124614279Y-72819819D02*
X125090469Y-72819819D01*
X125995231Y-73819819D02*
X125519041Y-73819819D01*
X125519041Y-73819819D02*
X125519041Y-72819819D01*
X126280946Y-73534104D02*
X126757136Y-73534104D01*
X126185708Y-73819819D02*
X126519041Y-72819819D01*
X126519041Y-72819819D02*
X126852374Y-73819819D01*
X127376184Y-73343628D02*
X127376184Y-73819819D01*
X127042851Y-72819819D02*
X127376184Y-73343628D01*
X127376184Y-73343628D02*
X127709517Y-72819819D01*
X119478095Y-100784819D02*
X119478095Y-101594342D01*
X119478095Y-101594342D02*
X119525714Y-101689580D01*
X119525714Y-101689580D02*
X119573333Y-101737200D01*
X119573333Y-101737200D02*
X119668571Y-101784819D01*
X119668571Y-101784819D02*
X119859047Y-101784819D01*
X119859047Y-101784819D02*
X119954285Y-101737200D01*
X119954285Y-101737200D02*
X120001904Y-101689580D01*
X120001904Y-101689580D02*
X120049523Y-101594342D01*
X120049523Y-101594342D02*
X120049523Y-100784819D01*
X121049523Y-101784819D02*
X120478095Y-101784819D01*
X120763809Y-101784819D02*
X120763809Y-100784819D01*
X120763809Y-100784819D02*
X120668571Y-100927676D01*
X120668571Y-100927676D02*
X120573333Y-101022914D01*
X120573333Y-101022914D02*
X120478095Y-101070533D01*
X170460952Y-111594819D02*
X170460952Y-110594819D01*
X170460952Y-110594819D02*
X170794285Y-111309104D01*
X170794285Y-111309104D02*
X171127618Y-110594819D01*
X171127618Y-110594819D02*
X171127618Y-111594819D01*
X171603809Y-111594819D02*
X171603809Y-110928152D01*
X171603809Y-110594819D02*
X171556190Y-110642438D01*
X171556190Y-110642438D02*
X171603809Y-110690057D01*
X171603809Y-110690057D02*
X171651428Y-110642438D01*
X171651428Y-110642438D02*
X171603809Y-110594819D01*
X171603809Y-110594819D02*
X171603809Y-110690057D01*
X172508570Y-111547200D02*
X172413332Y-111594819D01*
X172413332Y-111594819D02*
X172222856Y-111594819D01*
X172222856Y-111594819D02*
X172127618Y-111547200D01*
X172127618Y-111547200D02*
X172079999Y-111499580D01*
X172079999Y-111499580D02*
X172032380Y-111404342D01*
X172032380Y-111404342D02*
X172032380Y-111118628D01*
X172032380Y-111118628D02*
X172079999Y-111023390D01*
X172079999Y-111023390D02*
X172127618Y-110975771D01*
X172127618Y-110975771D02*
X172222856Y-110928152D01*
X172222856Y-110928152D02*
X172413332Y-110928152D01*
X172413332Y-110928152D02*
X172508570Y-110975771D01*
X172937142Y-111594819D02*
X172937142Y-110928152D01*
X172937142Y-111118628D02*
X172984761Y-111023390D01*
X172984761Y-111023390D02*
X173032380Y-110975771D01*
X173032380Y-110975771D02*
X173127618Y-110928152D01*
X173127618Y-110928152D02*
X173222856Y-110928152D01*
X173699047Y-111594819D02*
X173603809Y-111547200D01*
X173603809Y-111547200D02*
X173556190Y-111499580D01*
X173556190Y-111499580D02*
X173508571Y-111404342D01*
X173508571Y-111404342D02*
X173508571Y-111118628D01*
X173508571Y-111118628D02*
X173556190Y-111023390D01*
X173556190Y-111023390D02*
X173603809Y-110975771D01*
X173603809Y-110975771D02*
X173699047Y-110928152D01*
X173699047Y-110928152D02*
X173841904Y-110928152D01*
X173841904Y-110928152D02*
X173937142Y-110975771D01*
X173937142Y-110975771D02*
X173984761Y-111023390D01*
X173984761Y-111023390D02*
X174032380Y-111118628D01*
X174032380Y-111118628D02*
X174032380Y-111404342D01*
X174032380Y-111404342D02*
X173984761Y-111499580D01*
X173984761Y-111499580D02*
X173937142Y-111547200D01*
X173937142Y-111547200D02*
X173841904Y-111594819D01*
X173841904Y-111594819D02*
X173699047Y-111594819D01*
X175175238Y-111547200D02*
X175318095Y-111594819D01*
X175318095Y-111594819D02*
X175556190Y-111594819D01*
X175556190Y-111594819D02*
X175651428Y-111547200D01*
X175651428Y-111547200D02*
X175699047Y-111499580D01*
X175699047Y-111499580D02*
X175746666Y-111404342D01*
X175746666Y-111404342D02*
X175746666Y-111309104D01*
X175746666Y-111309104D02*
X175699047Y-111213866D01*
X175699047Y-111213866D02*
X175651428Y-111166247D01*
X175651428Y-111166247D02*
X175556190Y-111118628D01*
X175556190Y-111118628D02*
X175365714Y-111071009D01*
X175365714Y-111071009D02*
X175270476Y-111023390D01*
X175270476Y-111023390D02*
X175222857Y-110975771D01*
X175222857Y-110975771D02*
X175175238Y-110880533D01*
X175175238Y-110880533D02*
X175175238Y-110785295D01*
X175175238Y-110785295D02*
X175222857Y-110690057D01*
X175222857Y-110690057D02*
X175270476Y-110642438D01*
X175270476Y-110642438D02*
X175365714Y-110594819D01*
X175365714Y-110594819D02*
X175603809Y-110594819D01*
X175603809Y-110594819D02*
X175746666Y-110642438D01*
X176175238Y-111594819D02*
X176175238Y-110594819D01*
X176175238Y-110594819D02*
X176413333Y-110594819D01*
X176413333Y-110594819D02*
X176556190Y-110642438D01*
X176556190Y-110642438D02*
X176651428Y-110737676D01*
X176651428Y-110737676D02*
X176699047Y-110832914D01*
X176699047Y-110832914D02*
X176746666Y-111023390D01*
X176746666Y-111023390D02*
X176746666Y-111166247D01*
X176746666Y-111166247D02*
X176699047Y-111356723D01*
X176699047Y-111356723D02*
X176651428Y-111451961D01*
X176651428Y-111451961D02*
X176556190Y-111547200D01*
X176556190Y-111547200D02*
X176413333Y-111594819D01*
X176413333Y-111594819D02*
X176175238Y-111594819D01*
X122234819Y-112401904D02*
X123044342Y-112401904D01*
X123044342Y-112401904D02*
X123139580Y-112354285D01*
X123139580Y-112354285D02*
X123187200Y-112306666D01*
X123187200Y-112306666D02*
X123234819Y-112211428D01*
X123234819Y-112211428D02*
X123234819Y-112020952D01*
X123234819Y-112020952D02*
X123187200Y-111925714D01*
X123187200Y-111925714D02*
X123139580Y-111878095D01*
X123139580Y-111878095D02*
X123044342Y-111830476D01*
X123044342Y-111830476D02*
X122234819Y-111830476D01*
X123187200Y-111401904D02*
X123234819Y-111259047D01*
X123234819Y-111259047D02*
X123234819Y-111020952D01*
X123234819Y-111020952D02*
X123187200Y-110925714D01*
X123187200Y-110925714D02*
X123139580Y-110878095D01*
X123139580Y-110878095D02*
X123044342Y-110830476D01*
X123044342Y-110830476D02*
X122949104Y-110830476D01*
X122949104Y-110830476D02*
X122853866Y-110878095D01*
X122853866Y-110878095D02*
X122806247Y-110925714D01*
X122806247Y-110925714D02*
X122758628Y-111020952D01*
X122758628Y-111020952D02*
X122711009Y-111211428D01*
X122711009Y-111211428D02*
X122663390Y-111306666D01*
X122663390Y-111306666D02*
X122615771Y-111354285D01*
X122615771Y-111354285D02*
X122520533Y-111401904D01*
X122520533Y-111401904D02*
X122425295Y-111401904D01*
X122425295Y-111401904D02*
X122330057Y-111354285D01*
X122330057Y-111354285D02*
X122282438Y-111306666D01*
X122282438Y-111306666D02*
X122234819Y-111211428D01*
X122234819Y-111211428D02*
X122234819Y-110973333D01*
X122234819Y-110973333D02*
X122282438Y-110830476D01*
X122711009Y-110068571D02*
X122758628Y-109925714D01*
X122758628Y-109925714D02*
X122806247Y-109878095D01*
X122806247Y-109878095D02*
X122901485Y-109830476D01*
X122901485Y-109830476D02*
X123044342Y-109830476D01*
X123044342Y-109830476D02*
X123139580Y-109878095D01*
X123139580Y-109878095D02*
X123187200Y-109925714D01*
X123187200Y-109925714D02*
X123234819Y-110020952D01*
X123234819Y-110020952D02*
X123234819Y-110401904D01*
X123234819Y-110401904D02*
X122234819Y-110401904D01*
X122234819Y-110401904D02*
X122234819Y-110068571D01*
X122234819Y-110068571D02*
X122282438Y-109973333D01*
X122282438Y-109973333D02*
X122330057Y-109925714D01*
X122330057Y-109925714D02*
X122425295Y-109878095D01*
X122425295Y-109878095D02*
X122520533Y-109878095D01*
X122520533Y-109878095D02*
X122615771Y-109925714D01*
X122615771Y-109925714D02*
X122663390Y-109973333D01*
X122663390Y-109973333D02*
X122711009Y-110068571D01*
X122711009Y-110068571D02*
X122711009Y-110401904D01*
X148496033Y-114223333D02*
X147796033Y-114223333D01*
X147796033Y-114223333D02*
X148296033Y-113990000D01*
X148296033Y-113990000D02*
X147796033Y-113756666D01*
X147796033Y-113756666D02*
X148496033Y-113756666D01*
X148496033Y-113423333D02*
X147796033Y-113423333D01*
X148496033Y-113090000D02*
X147796033Y-113090000D01*
X147796033Y-113090000D02*
X148296033Y-112856667D01*
X148296033Y-112856667D02*
X147796033Y-112623333D01*
X147796033Y-112623333D02*
X148496033Y-112623333D01*
X147796033Y-112356667D02*
X148496033Y-111890000D01*
X147796033Y-111890000D02*
X148496033Y-112356667D01*
X148496033Y-111223333D02*
X148162700Y-111456666D01*
X148496033Y-111623333D02*
X147796033Y-111623333D01*
X147796033Y-111623333D02*
X147796033Y-111356666D01*
X147796033Y-111356666D02*
X147829366Y-111290000D01*
X147829366Y-111290000D02*
X147862700Y-111256666D01*
X147862700Y-111256666D02*
X147929366Y-111223333D01*
X147929366Y-111223333D02*
X148029366Y-111223333D01*
X148029366Y-111223333D02*
X148096033Y-111256666D01*
X148096033Y-111256666D02*
X148129366Y-111290000D01*
X148129366Y-111290000D02*
X148162700Y-111356666D01*
X148162700Y-111356666D02*
X148162700Y-111623333D01*
X147796033Y-111023333D02*
X147796033Y-110623333D01*
X148496033Y-110823333D02*
X147796033Y-110823333D01*
X148496033Y-110023333D02*
X148496033Y-110423333D01*
X148496033Y-110223333D02*
X147796033Y-110223333D01*
X147796033Y-110223333D02*
X147896033Y-110290000D01*
X147896033Y-110290000D02*
X147962700Y-110356667D01*
X147962700Y-110356667D02*
X147996033Y-110423333D01*
X147796033Y-109590000D02*
X147796033Y-109523333D01*
X147796033Y-109523333D02*
X147829366Y-109456666D01*
X147829366Y-109456666D02*
X147862700Y-109423333D01*
X147862700Y-109423333D02*
X147929366Y-109390000D01*
X147929366Y-109390000D02*
X148062700Y-109356666D01*
X148062700Y-109356666D02*
X148229366Y-109356666D01*
X148229366Y-109356666D02*
X148362700Y-109390000D01*
X148362700Y-109390000D02*
X148429366Y-109423333D01*
X148429366Y-109423333D02*
X148462700Y-109456666D01*
X148462700Y-109456666D02*
X148496033Y-109523333D01*
X148496033Y-109523333D02*
X148496033Y-109590000D01*
X148496033Y-109590000D02*
X148462700Y-109656666D01*
X148462700Y-109656666D02*
X148429366Y-109690000D01*
X148429366Y-109690000D02*
X148362700Y-109723333D01*
X148362700Y-109723333D02*
X148229366Y-109756666D01*
X148229366Y-109756666D02*
X148062700Y-109756666D01*
X148062700Y-109756666D02*
X147929366Y-109723333D01*
X147929366Y-109723333D02*
X147862700Y-109690000D01*
X147862700Y-109690000D02*
X147829366Y-109656666D01*
X147829366Y-109656666D02*
X147796033Y-109590000D01*
X147796033Y-108756666D02*
X147796033Y-108889999D01*
X147796033Y-108889999D02*
X147829366Y-108956666D01*
X147829366Y-108956666D02*
X147862700Y-108989999D01*
X147862700Y-108989999D02*
X147962700Y-109056666D01*
X147962700Y-109056666D02*
X148096033Y-109089999D01*
X148096033Y-109089999D02*
X148362700Y-109089999D01*
X148362700Y-109089999D02*
X148429366Y-109056666D01*
X148429366Y-109056666D02*
X148462700Y-109023333D01*
X148462700Y-109023333D02*
X148496033Y-108956666D01*
X148496033Y-108956666D02*
X148496033Y-108823333D01*
X148496033Y-108823333D02*
X148462700Y-108756666D01*
X148462700Y-108756666D02*
X148429366Y-108723333D01*
X148429366Y-108723333D02*
X148362700Y-108689999D01*
X148362700Y-108689999D02*
X148196033Y-108689999D01*
X148196033Y-108689999D02*
X148129366Y-108723333D01*
X148129366Y-108723333D02*
X148096033Y-108756666D01*
X148096033Y-108756666D02*
X148062700Y-108823333D01*
X148062700Y-108823333D02*
X148062700Y-108956666D01*
X148062700Y-108956666D02*
X148096033Y-109023333D01*
X148096033Y-109023333D02*
X148129366Y-109056666D01*
X148129366Y-109056666D02*
X148196033Y-109089999D01*
X147862700Y-108423332D02*
X147829366Y-108389999D01*
X147829366Y-108389999D02*
X147796033Y-108323332D01*
X147796033Y-108323332D02*
X147796033Y-108156666D01*
X147796033Y-108156666D02*
X147829366Y-108089999D01*
X147829366Y-108089999D02*
X147862700Y-108056666D01*
X147862700Y-108056666D02*
X147929366Y-108023332D01*
X147929366Y-108023332D02*
X147996033Y-108023332D01*
X147996033Y-108023332D02*
X148096033Y-108056666D01*
X148096033Y-108056666D02*
X148496033Y-108456666D01*
X148496033Y-108456666D02*
X148496033Y-108023332D01*
X137316009Y-110720543D02*
X137316009Y-110387210D01*
X137839819Y-110244353D02*
X137839819Y-110720543D01*
X137839819Y-110720543D02*
X136839819Y-110720543D01*
X136839819Y-110720543D02*
X136839819Y-110244353D01*
X137173152Y-109958638D02*
X137173152Y-109577686D01*
X136839819Y-109815781D02*
X137696961Y-109815781D01*
X137696961Y-109815781D02*
X137792200Y-109768162D01*
X137792200Y-109768162D02*
X137839819Y-109672924D01*
X137839819Y-109672924D02*
X137839819Y-109577686D01*
X137839819Y-109244352D02*
X136839819Y-109244352D01*
X137839819Y-108815781D02*
X137316009Y-108815781D01*
X137316009Y-108815781D02*
X137220771Y-108863400D01*
X137220771Y-108863400D02*
X137173152Y-108958638D01*
X137173152Y-108958638D02*
X137173152Y-109101495D01*
X137173152Y-109101495D02*
X137220771Y-109196733D01*
X137220771Y-109196733D02*
X137268390Y-109244352D01*
X137792200Y-107958638D02*
X137839819Y-108053876D01*
X137839819Y-108053876D02*
X137839819Y-108244352D01*
X137839819Y-108244352D02*
X137792200Y-108339590D01*
X137792200Y-108339590D02*
X137696961Y-108387209D01*
X137696961Y-108387209D02*
X137316009Y-108387209D01*
X137316009Y-108387209D02*
X137220771Y-108339590D01*
X137220771Y-108339590D02*
X137173152Y-108244352D01*
X137173152Y-108244352D02*
X137173152Y-108053876D01*
X137173152Y-108053876D02*
X137220771Y-107958638D01*
X137220771Y-107958638D02*
X137316009Y-107911019D01*
X137316009Y-107911019D02*
X137411247Y-107911019D01*
X137411247Y-107911019D02*
X137506485Y-108387209D01*
X137839819Y-107482447D02*
X137173152Y-107482447D01*
X137363628Y-107482447D02*
X137268390Y-107434828D01*
X137268390Y-107434828D02*
X137220771Y-107387209D01*
X137220771Y-107387209D02*
X137173152Y-107291971D01*
X137173152Y-107291971D02*
X137173152Y-107196733D01*
X137173152Y-106863399D02*
X137839819Y-106863399D01*
X137268390Y-106863399D02*
X137220771Y-106815780D01*
X137220771Y-106815780D02*
X137173152Y-106720542D01*
X137173152Y-106720542D02*
X137173152Y-106577685D01*
X137173152Y-106577685D02*
X137220771Y-106482447D01*
X137220771Y-106482447D02*
X137316009Y-106434828D01*
X137316009Y-106434828D02*
X137839819Y-106434828D01*
X137792200Y-105577685D02*
X137839819Y-105672923D01*
X137839819Y-105672923D02*
X137839819Y-105863399D01*
X137839819Y-105863399D02*
X137792200Y-105958637D01*
X137792200Y-105958637D02*
X137696961Y-106006256D01*
X137696961Y-106006256D02*
X137316009Y-106006256D01*
X137316009Y-106006256D02*
X137220771Y-105958637D01*
X137220771Y-105958637D02*
X137173152Y-105863399D01*
X137173152Y-105863399D02*
X137173152Y-105672923D01*
X137173152Y-105672923D02*
X137220771Y-105577685D01*
X137220771Y-105577685D02*
X137316009Y-105530066D01*
X137316009Y-105530066D02*
X137411247Y-105530066D01*
X137411247Y-105530066D02*
X137506485Y-106006256D01*
X137173152Y-105244351D02*
X137173152Y-104863399D01*
X136839819Y-105101494D02*
X137696961Y-105101494D01*
X137696961Y-105101494D02*
X137792200Y-105053875D01*
X137792200Y-105053875D02*
X137839819Y-104958637D01*
X137839819Y-104958637D02*
X137839819Y-104863399D01*
X127674676Y-113084019D02*
X127674676Y-113893542D01*
X127674676Y-113893542D02*
X127722295Y-113988780D01*
X127722295Y-113988780D02*
X127769914Y-114036400D01*
X127769914Y-114036400D02*
X127865152Y-114084019D01*
X127865152Y-114084019D02*
X128055628Y-114084019D01*
X128055628Y-114084019D02*
X128150866Y-114036400D01*
X128150866Y-114036400D02*
X128198485Y-113988780D01*
X128198485Y-113988780D02*
X128246104Y-113893542D01*
X128246104Y-113893542D02*
X128246104Y-113084019D01*
X128674676Y-114036400D02*
X128817533Y-114084019D01*
X128817533Y-114084019D02*
X129055628Y-114084019D01*
X129055628Y-114084019D02*
X129150866Y-114036400D01*
X129150866Y-114036400D02*
X129198485Y-113988780D01*
X129198485Y-113988780D02*
X129246104Y-113893542D01*
X129246104Y-113893542D02*
X129246104Y-113798304D01*
X129246104Y-113798304D02*
X129198485Y-113703066D01*
X129198485Y-113703066D02*
X129150866Y-113655447D01*
X129150866Y-113655447D02*
X129055628Y-113607828D01*
X129055628Y-113607828D02*
X128865152Y-113560209D01*
X128865152Y-113560209D02*
X128769914Y-113512590D01*
X128769914Y-113512590D02*
X128722295Y-113464971D01*
X128722295Y-113464971D02*
X128674676Y-113369733D01*
X128674676Y-113369733D02*
X128674676Y-113274495D01*
X128674676Y-113274495D02*
X128722295Y-113179257D01*
X128722295Y-113179257D02*
X128769914Y-113131638D01*
X128769914Y-113131638D02*
X128865152Y-113084019D01*
X128865152Y-113084019D02*
X129103247Y-113084019D01*
X129103247Y-113084019D02*
X129246104Y-113131638D01*
X130008009Y-113560209D02*
X130150866Y-113607828D01*
X130150866Y-113607828D02*
X130198485Y-113655447D01*
X130198485Y-113655447D02*
X130246104Y-113750685D01*
X130246104Y-113750685D02*
X130246104Y-113893542D01*
X130246104Y-113893542D02*
X130198485Y-113988780D01*
X130198485Y-113988780D02*
X130150866Y-114036400D01*
X130150866Y-114036400D02*
X130055628Y-114084019D01*
X130055628Y-114084019D02*
X129674676Y-114084019D01*
X129674676Y-114084019D02*
X129674676Y-113084019D01*
X129674676Y-113084019D02*
X130008009Y-113084019D01*
X130008009Y-113084019D02*
X130103247Y-113131638D01*
X130103247Y-113131638D02*
X130150866Y-113179257D01*
X130150866Y-113179257D02*
X130198485Y-113274495D01*
X130198485Y-113274495D02*
X130198485Y-113369733D01*
X130198485Y-113369733D02*
X130150866Y-113464971D01*
X130150866Y-113464971D02*
X130103247Y-113512590D01*
X130103247Y-113512590D02*
X130008009Y-113560209D01*
X130008009Y-113560209D02*
X129674676Y-113560209D01*
X131436581Y-114084019D02*
X131436581Y-113084019D01*
X131436581Y-113560209D02*
X132008009Y-113560209D01*
X132008009Y-114084019D02*
X132008009Y-113084019D01*
X132627057Y-114084019D02*
X132531819Y-114036400D01*
X132531819Y-114036400D02*
X132484200Y-113988780D01*
X132484200Y-113988780D02*
X132436581Y-113893542D01*
X132436581Y-113893542D02*
X132436581Y-113607828D01*
X132436581Y-113607828D02*
X132484200Y-113512590D01*
X132484200Y-113512590D02*
X132531819Y-113464971D01*
X132531819Y-113464971D02*
X132627057Y-113417352D01*
X132627057Y-113417352D02*
X132769914Y-113417352D01*
X132769914Y-113417352D02*
X132865152Y-113464971D01*
X132865152Y-113464971D02*
X132912771Y-113512590D01*
X132912771Y-113512590D02*
X132960390Y-113607828D01*
X132960390Y-113607828D02*
X132960390Y-113893542D01*
X132960390Y-113893542D02*
X132912771Y-113988780D01*
X132912771Y-113988780D02*
X132865152Y-114036400D01*
X132865152Y-114036400D02*
X132769914Y-114084019D01*
X132769914Y-114084019D02*
X132627057Y-114084019D01*
X133341343Y-114036400D02*
X133436581Y-114084019D01*
X133436581Y-114084019D02*
X133627057Y-114084019D01*
X133627057Y-114084019D02*
X133722295Y-114036400D01*
X133722295Y-114036400D02*
X133769914Y-113941161D01*
X133769914Y-113941161D02*
X133769914Y-113893542D01*
X133769914Y-113893542D02*
X133722295Y-113798304D01*
X133722295Y-113798304D02*
X133627057Y-113750685D01*
X133627057Y-113750685D02*
X133484200Y-113750685D01*
X133484200Y-113750685D02*
X133388962Y-113703066D01*
X133388962Y-113703066D02*
X133341343Y-113607828D01*
X133341343Y-113607828D02*
X133341343Y-113560209D01*
X133341343Y-113560209D02*
X133388962Y-113464971D01*
X133388962Y-113464971D02*
X133484200Y-113417352D01*
X133484200Y-113417352D02*
X133627057Y-113417352D01*
X133627057Y-113417352D02*
X133722295Y-113464971D01*
X134055629Y-113417352D02*
X134436581Y-113417352D01*
X134198486Y-113084019D02*
X134198486Y-113941161D01*
X134198486Y-113941161D02*
X134246105Y-114036400D01*
X134246105Y-114036400D02*
X134341343Y-114084019D01*
X134341343Y-114084019D02*
X134436581Y-114084019D01*
X147226033Y-112343333D02*
X146526033Y-112343333D01*
X146526033Y-112343333D02*
X146526033Y-112176666D01*
X146526033Y-112176666D02*
X146559366Y-112076666D01*
X146559366Y-112076666D02*
X146626033Y-112010000D01*
X146626033Y-112010000D02*
X146692700Y-111976666D01*
X146692700Y-111976666D02*
X146826033Y-111943333D01*
X146826033Y-111943333D02*
X146926033Y-111943333D01*
X146926033Y-111943333D02*
X147059366Y-111976666D01*
X147059366Y-111976666D02*
X147126033Y-112010000D01*
X147126033Y-112010000D02*
X147192700Y-112076666D01*
X147192700Y-112076666D02*
X147226033Y-112176666D01*
X147226033Y-112176666D02*
X147226033Y-112343333D01*
X146526033Y-111743333D02*
X147226033Y-111510000D01*
X147226033Y-111510000D02*
X146526033Y-111276666D01*
X146526033Y-110843333D02*
X147026033Y-110843333D01*
X147026033Y-110843333D02*
X147126033Y-110876666D01*
X147126033Y-110876666D02*
X147192700Y-110943333D01*
X147192700Y-110943333D02*
X147226033Y-111043333D01*
X147226033Y-111043333D02*
X147226033Y-111110000D01*
X146526033Y-110210000D02*
X146526033Y-110343333D01*
X146526033Y-110343333D02*
X146559366Y-110410000D01*
X146559366Y-110410000D02*
X146592700Y-110443333D01*
X146592700Y-110443333D02*
X146692700Y-110510000D01*
X146692700Y-110510000D02*
X146826033Y-110543333D01*
X146826033Y-110543333D02*
X147092700Y-110543333D01*
X147092700Y-110543333D02*
X147159366Y-110510000D01*
X147159366Y-110510000D02*
X147192700Y-110476667D01*
X147192700Y-110476667D02*
X147226033Y-110410000D01*
X147226033Y-110410000D02*
X147226033Y-110276667D01*
X147226033Y-110276667D02*
X147192700Y-110210000D01*
X147192700Y-110210000D02*
X147159366Y-110176667D01*
X147159366Y-110176667D02*
X147092700Y-110143333D01*
X147092700Y-110143333D02*
X146926033Y-110143333D01*
X146926033Y-110143333D02*
X146859366Y-110176667D01*
X146859366Y-110176667D02*
X146826033Y-110210000D01*
X146826033Y-110210000D02*
X146792700Y-110276667D01*
X146792700Y-110276667D02*
X146792700Y-110410000D01*
X146792700Y-110410000D02*
X146826033Y-110476667D01*
X146826033Y-110476667D02*
X146859366Y-110510000D01*
X146859366Y-110510000D02*
X146926033Y-110543333D01*
X147026033Y-109876666D02*
X147026033Y-109543333D01*
X147226033Y-109943333D02*
X146526033Y-109710000D01*
X146526033Y-109710000D02*
X147226033Y-109476666D01*
X161841666Y-94504819D02*
X161841666Y-95219104D01*
X161841666Y-95219104D02*
X161794047Y-95361961D01*
X161794047Y-95361961D02*
X161698809Y-95457200D01*
X161698809Y-95457200D02*
X161555952Y-95504819D01*
X161555952Y-95504819D02*
X161460714Y-95504819D01*
X162317857Y-95504819D02*
X162317857Y-94504819D01*
X162317857Y-94504819D02*
X162698809Y-94504819D01*
X162698809Y-94504819D02*
X162794047Y-94552438D01*
X162794047Y-94552438D02*
X162841666Y-94600057D01*
X162841666Y-94600057D02*
X162889285Y-94695295D01*
X162889285Y-94695295D02*
X162889285Y-94838152D01*
X162889285Y-94838152D02*
X162841666Y-94933390D01*
X162841666Y-94933390D02*
X162794047Y-94981009D01*
X162794047Y-94981009D02*
X162698809Y-95028628D01*
X162698809Y-95028628D02*
X162317857Y-95028628D01*
X163841666Y-95504819D02*
X163270238Y-95504819D01*
X163555952Y-95504819D02*
X163555952Y-94504819D01*
X163555952Y-94504819D02*
X163460714Y-94647676D01*
X163460714Y-94647676D02*
X163365476Y-94742914D01*
X163365476Y-94742914D02*
X163270238Y-94790533D01*
X160744761Y-96790057D02*
X160649523Y-96742438D01*
X160649523Y-96742438D02*
X160554285Y-96647200D01*
X160554285Y-96647200D02*
X160411428Y-96504342D01*
X160411428Y-96504342D02*
X160316190Y-96456723D01*
X160316190Y-96456723D02*
X160220952Y-96456723D01*
X160268571Y-96694819D02*
X160173333Y-96647200D01*
X160173333Y-96647200D02*
X160078095Y-96551961D01*
X160078095Y-96551961D02*
X160030476Y-96361485D01*
X160030476Y-96361485D02*
X160030476Y-96028152D01*
X160030476Y-96028152D02*
X160078095Y-95837676D01*
X160078095Y-95837676D02*
X160173333Y-95742438D01*
X160173333Y-95742438D02*
X160268571Y-95694819D01*
X160268571Y-95694819D02*
X160459047Y-95694819D01*
X160459047Y-95694819D02*
X160554285Y-95742438D01*
X160554285Y-95742438D02*
X160649523Y-95837676D01*
X160649523Y-95837676D02*
X160697142Y-96028152D01*
X160697142Y-96028152D02*
X160697142Y-96361485D01*
X160697142Y-96361485D02*
X160649523Y-96551961D01*
X160649523Y-96551961D02*
X160554285Y-96647200D01*
X160554285Y-96647200D02*
X160459047Y-96694819D01*
X160459047Y-96694819D02*
X160268571Y-96694819D01*
X161649523Y-96694819D02*
X161078095Y-96694819D01*
X161363809Y-96694819D02*
X161363809Y-95694819D01*
X161363809Y-95694819D02*
X161268571Y-95837676D01*
X161268571Y-95837676D02*
X161173333Y-95932914D01*
X161173333Y-95932914D02*
X161078095Y-95980533D01*
X128108333Y-111959580D02*
X128060714Y-112007200D01*
X128060714Y-112007200D02*
X127917857Y-112054819D01*
X127917857Y-112054819D02*
X127822619Y-112054819D01*
X127822619Y-112054819D02*
X127679762Y-112007200D01*
X127679762Y-112007200D02*
X127584524Y-111911961D01*
X127584524Y-111911961D02*
X127536905Y-111816723D01*
X127536905Y-111816723D02*
X127489286Y-111626247D01*
X127489286Y-111626247D02*
X127489286Y-111483390D01*
X127489286Y-111483390D02*
X127536905Y-111292914D01*
X127536905Y-111292914D02*
X127584524Y-111197676D01*
X127584524Y-111197676D02*
X127679762Y-111102438D01*
X127679762Y-111102438D02*
X127822619Y-111054819D01*
X127822619Y-111054819D02*
X127917857Y-111054819D01*
X127917857Y-111054819D02*
X128060714Y-111102438D01*
X128060714Y-111102438D02*
X128108333Y-111150057D01*
X128489286Y-111150057D02*
X128536905Y-111102438D01*
X128536905Y-111102438D02*
X128632143Y-111054819D01*
X128632143Y-111054819D02*
X128870238Y-111054819D01*
X128870238Y-111054819D02*
X128965476Y-111102438D01*
X128965476Y-111102438D02*
X129013095Y-111150057D01*
X129013095Y-111150057D02*
X129060714Y-111245295D01*
X129060714Y-111245295D02*
X129060714Y-111340533D01*
X129060714Y-111340533D02*
X129013095Y-111483390D01*
X129013095Y-111483390D02*
X128441667Y-112054819D01*
X128441667Y-112054819D02*
X129060714Y-112054819D01*
X170429819Y-91086904D02*
X170429819Y-90515476D01*
X171429819Y-90801190D02*
X170429819Y-90801190D01*
X171429819Y-90182142D02*
X170429819Y-90182142D01*
X170429819Y-90182142D02*
X170429819Y-89801190D01*
X170429819Y-89801190D02*
X170477438Y-89705952D01*
X170477438Y-89705952D02*
X170525057Y-89658333D01*
X170525057Y-89658333D02*
X170620295Y-89610714D01*
X170620295Y-89610714D02*
X170763152Y-89610714D01*
X170763152Y-89610714D02*
X170858390Y-89658333D01*
X170858390Y-89658333D02*
X170906009Y-89705952D01*
X170906009Y-89705952D02*
X170953628Y-89801190D01*
X170953628Y-89801190D02*
X170953628Y-90182142D01*
X170429819Y-88753571D02*
X170429819Y-88944047D01*
X170429819Y-88944047D02*
X170477438Y-89039285D01*
X170477438Y-89039285D02*
X170525057Y-89086904D01*
X170525057Y-89086904D02*
X170667914Y-89182142D01*
X170667914Y-89182142D02*
X170858390Y-89229761D01*
X170858390Y-89229761D02*
X171239342Y-89229761D01*
X171239342Y-89229761D02*
X171334580Y-89182142D01*
X171334580Y-89182142D02*
X171382200Y-89134523D01*
X171382200Y-89134523D02*
X171429819Y-89039285D01*
X171429819Y-89039285D02*
X171429819Y-88848809D01*
X171429819Y-88848809D02*
X171382200Y-88753571D01*
X171382200Y-88753571D02*
X171334580Y-88705952D01*
X171334580Y-88705952D02*
X171239342Y-88658333D01*
X171239342Y-88658333D02*
X171001247Y-88658333D01*
X171001247Y-88658333D02*
X170906009Y-88705952D01*
X170906009Y-88705952D02*
X170858390Y-88753571D01*
X170858390Y-88753571D02*
X170810771Y-88848809D01*
X170810771Y-88848809D02*
X170810771Y-89039285D01*
X170810771Y-89039285D02*
X170858390Y-89134523D01*
X170858390Y-89134523D02*
X170906009Y-89182142D01*
X170906009Y-89182142D02*
X171001247Y-89229761D01*
X142951905Y-100994819D02*
X142951905Y-99994819D01*
X143523333Y-100994819D02*
X143094762Y-100423390D01*
X143523333Y-99994819D02*
X142951905Y-100566247D01*
X144475714Y-100994819D02*
X143904286Y-100994819D01*
X144190000Y-100994819D02*
X144190000Y-99994819D01*
X144190000Y-99994819D02*
X144094762Y-100137676D01*
X144094762Y-100137676D02*
X143999524Y-100232914D01*
X143999524Y-100232914D02*
X143904286Y-100280533D01*
X170913095Y-83229819D02*
X171484523Y-83229819D01*
X171198809Y-84229819D02*
X171198809Y-83229819D01*
X171817857Y-84229819D02*
X171817857Y-83229819D01*
X171817857Y-83229819D02*
X172198809Y-83229819D01*
X172198809Y-83229819D02*
X172294047Y-83277438D01*
X172294047Y-83277438D02*
X172341666Y-83325057D01*
X172341666Y-83325057D02*
X172389285Y-83420295D01*
X172389285Y-83420295D02*
X172389285Y-83563152D01*
X172389285Y-83563152D02*
X172341666Y-83658390D01*
X172341666Y-83658390D02*
X172294047Y-83706009D01*
X172294047Y-83706009D02*
X172198809Y-83753628D01*
X172198809Y-83753628D02*
X171817857Y-83753628D01*
X172770238Y-83325057D02*
X172817857Y-83277438D01*
X172817857Y-83277438D02*
X172913095Y-83229819D01*
X172913095Y-83229819D02*
X173151190Y-83229819D01*
X173151190Y-83229819D02*
X173246428Y-83277438D01*
X173246428Y-83277438D02*
X173294047Y-83325057D01*
X173294047Y-83325057D02*
X173341666Y-83420295D01*
X173341666Y-83420295D02*
X173341666Y-83515533D01*
X173341666Y-83515533D02*
X173294047Y-83658390D01*
X173294047Y-83658390D02*
X172722619Y-84229819D01*
X172722619Y-84229819D02*
X173341666Y-84229819D01*
X164407200Y-77233332D02*
X164454819Y-77090475D01*
X164454819Y-77090475D02*
X164454819Y-76852380D01*
X164454819Y-76852380D02*
X164407200Y-76757142D01*
X164407200Y-76757142D02*
X164359580Y-76709523D01*
X164359580Y-76709523D02*
X164264342Y-76661904D01*
X164264342Y-76661904D02*
X164169104Y-76661904D01*
X164169104Y-76661904D02*
X164073866Y-76709523D01*
X164073866Y-76709523D02*
X164026247Y-76757142D01*
X164026247Y-76757142D02*
X163978628Y-76852380D01*
X163978628Y-76852380D02*
X163931009Y-77042856D01*
X163931009Y-77042856D02*
X163883390Y-77138094D01*
X163883390Y-77138094D02*
X163835771Y-77185713D01*
X163835771Y-77185713D02*
X163740533Y-77233332D01*
X163740533Y-77233332D02*
X163645295Y-77233332D01*
X163645295Y-77233332D02*
X163550057Y-77185713D01*
X163550057Y-77185713D02*
X163502438Y-77138094D01*
X163502438Y-77138094D02*
X163454819Y-77042856D01*
X163454819Y-77042856D02*
X163454819Y-76804761D01*
X163454819Y-76804761D02*
X163502438Y-76661904D01*
X163454819Y-76328570D02*
X164454819Y-76090475D01*
X164454819Y-76090475D02*
X163740533Y-75899999D01*
X163740533Y-75899999D02*
X164454819Y-75709523D01*
X164454819Y-75709523D02*
X163454819Y-75471428D01*
X164454819Y-74566666D02*
X164454819Y-75138094D01*
X164454819Y-74852380D02*
X163454819Y-74852380D01*
X163454819Y-74852380D02*
X163597676Y-74947618D01*
X163597676Y-74947618D02*
X163692914Y-75042856D01*
X163692914Y-75042856D02*
X163740533Y-75138094D01*
X162856666Y-70914819D02*
X162856666Y-71629104D01*
X162856666Y-71629104D02*
X162809047Y-71771961D01*
X162809047Y-71771961D02*
X162713809Y-71867200D01*
X162713809Y-71867200D02*
X162570952Y-71914819D01*
X162570952Y-71914819D02*
X162475714Y-71914819D01*
X163285238Y-71010057D02*
X163332857Y-70962438D01*
X163332857Y-70962438D02*
X163428095Y-70914819D01*
X163428095Y-70914819D02*
X163666190Y-70914819D01*
X163666190Y-70914819D02*
X163761428Y-70962438D01*
X163761428Y-70962438D02*
X163809047Y-71010057D01*
X163809047Y-71010057D02*
X163856666Y-71105295D01*
X163856666Y-71105295D02*
X163856666Y-71200533D01*
X163856666Y-71200533D02*
X163809047Y-71343390D01*
X163809047Y-71343390D02*
X163237619Y-71914819D01*
X163237619Y-71914819D02*
X163856666Y-71914819D01*
X157603333Y-117239580D02*
X157555714Y-117287200D01*
X157555714Y-117287200D02*
X157412857Y-117334819D01*
X157412857Y-117334819D02*
X157317619Y-117334819D01*
X157317619Y-117334819D02*
X157174762Y-117287200D01*
X157174762Y-117287200D02*
X157079524Y-117191961D01*
X157079524Y-117191961D02*
X157031905Y-117096723D01*
X157031905Y-117096723D02*
X156984286Y-116906247D01*
X156984286Y-116906247D02*
X156984286Y-116763390D01*
X156984286Y-116763390D02*
X157031905Y-116572914D01*
X157031905Y-116572914D02*
X157079524Y-116477676D01*
X157079524Y-116477676D02*
X157174762Y-116382438D01*
X157174762Y-116382438D02*
X157317619Y-116334819D01*
X157317619Y-116334819D02*
X157412857Y-116334819D01*
X157412857Y-116334819D02*
X157555714Y-116382438D01*
X157555714Y-116382438D02*
X157603333Y-116430057D01*
X158555714Y-117334819D02*
X157984286Y-117334819D01*
X158270000Y-117334819D02*
X158270000Y-116334819D01*
X158270000Y-116334819D02*
X158174762Y-116477676D01*
X158174762Y-116477676D02*
X158079524Y-116572914D01*
X158079524Y-116572914D02*
X157984286Y-116620533D01*
X128066666Y-79929819D02*
X128066666Y-80644104D01*
X128066666Y-80644104D02*
X128019047Y-80786961D01*
X128019047Y-80786961D02*
X127923809Y-80882200D01*
X127923809Y-80882200D02*
X127780952Y-80929819D01*
X127780952Y-80929819D02*
X127685714Y-80929819D01*
X128542857Y-80929819D02*
X128542857Y-79929819D01*
X128542857Y-79929819D02*
X128923809Y-79929819D01*
X128923809Y-79929819D02*
X129019047Y-79977438D01*
X129019047Y-79977438D02*
X129066666Y-80025057D01*
X129066666Y-80025057D02*
X129114285Y-80120295D01*
X129114285Y-80120295D02*
X129114285Y-80263152D01*
X129114285Y-80263152D02*
X129066666Y-80358390D01*
X129066666Y-80358390D02*
X129019047Y-80406009D01*
X129019047Y-80406009D02*
X128923809Y-80453628D01*
X128923809Y-80453628D02*
X128542857Y-80453628D01*
X129495238Y-80025057D02*
X129542857Y-79977438D01*
X129542857Y-79977438D02*
X129638095Y-79929819D01*
X129638095Y-79929819D02*
X129876190Y-79929819D01*
X129876190Y-79929819D02*
X129971428Y-79977438D01*
X129971428Y-79977438D02*
X130019047Y-80025057D01*
X130019047Y-80025057D02*
X130066666Y-80120295D01*
X130066666Y-80120295D02*
X130066666Y-80215533D01*
X130066666Y-80215533D02*
X130019047Y-80358390D01*
X130019047Y-80358390D02*
X129447619Y-80929819D01*
X129447619Y-80929819D02*
X130066666Y-80929819D01*
X157746075Y-100629819D02*
X157412742Y-100153628D01*
X157174647Y-100629819D02*
X157174647Y-99629819D01*
X157174647Y-99629819D02*
X157555599Y-99629819D01*
X157555599Y-99629819D02*
X157650837Y-99677438D01*
X157650837Y-99677438D02*
X157698456Y-99725057D01*
X157698456Y-99725057D02*
X157746075Y-99820295D01*
X157746075Y-99820295D02*
X157746075Y-99963152D01*
X157746075Y-99963152D02*
X157698456Y-100058390D01*
X157698456Y-100058390D02*
X157650837Y-100106009D01*
X157650837Y-100106009D02*
X157555599Y-100153628D01*
X157555599Y-100153628D02*
X157174647Y-100153628D01*
X158079409Y-99629819D02*
X158746075Y-99629819D01*
X158746075Y-99629819D02*
X158317504Y-100629819D01*
X160691851Y-100695438D02*
X160358518Y-100219247D01*
X160120423Y-100695438D02*
X160120423Y-99695438D01*
X160120423Y-99695438D02*
X160501375Y-99695438D01*
X160501375Y-99695438D02*
X160596613Y-99743057D01*
X160596613Y-99743057D02*
X160644232Y-99790676D01*
X160644232Y-99790676D02*
X160691851Y-99885914D01*
X160691851Y-99885914D02*
X160691851Y-100028771D01*
X160691851Y-100028771D02*
X160644232Y-100124009D01*
X160644232Y-100124009D02*
X160596613Y-100171628D01*
X160596613Y-100171628D02*
X160501375Y-100219247D01*
X160501375Y-100219247D02*
X160120423Y-100219247D01*
X161548994Y-99695438D02*
X161358518Y-99695438D01*
X161358518Y-99695438D02*
X161263280Y-99743057D01*
X161263280Y-99743057D02*
X161215661Y-99790676D01*
X161215661Y-99790676D02*
X161120423Y-99933533D01*
X161120423Y-99933533D02*
X161072804Y-100124009D01*
X161072804Y-100124009D02*
X161072804Y-100504961D01*
X161072804Y-100504961D02*
X161120423Y-100600199D01*
X161120423Y-100600199D02*
X161168042Y-100647819D01*
X161168042Y-100647819D02*
X161263280Y-100695438D01*
X161263280Y-100695438D02*
X161453756Y-100695438D01*
X161453756Y-100695438D02*
X161548994Y-100647819D01*
X161548994Y-100647819D02*
X161596613Y-100600199D01*
X161596613Y-100600199D02*
X161644232Y-100504961D01*
X161644232Y-100504961D02*
X161644232Y-100266866D01*
X161644232Y-100266866D02*
X161596613Y-100171628D01*
X161596613Y-100171628D02*
X161548994Y-100124009D01*
X161548994Y-100124009D02*
X161453756Y-100076390D01*
X161453756Y-100076390D02*
X161263280Y-100076390D01*
X161263280Y-100076390D02*
X161168042Y-100124009D01*
X161168042Y-100124009D02*
X161120423Y-100171628D01*
X161120423Y-100171628D02*
X161072804Y-100266866D01*
X122629819Y-81841666D02*
X122153628Y-82174999D01*
X122629819Y-82413094D02*
X121629819Y-82413094D01*
X121629819Y-82413094D02*
X121629819Y-82032142D01*
X121629819Y-82032142D02*
X121677438Y-81936904D01*
X121677438Y-81936904D02*
X121725057Y-81889285D01*
X121725057Y-81889285D02*
X121820295Y-81841666D01*
X121820295Y-81841666D02*
X121963152Y-81841666D01*
X121963152Y-81841666D02*
X122058390Y-81889285D01*
X122058390Y-81889285D02*
X122106009Y-81936904D01*
X122106009Y-81936904D02*
X122153628Y-82032142D01*
X122153628Y-82032142D02*
X122153628Y-82413094D01*
X121963152Y-80984523D02*
X122629819Y-80984523D01*
X121582200Y-81222618D02*
X122296485Y-81460713D01*
X122296485Y-81460713D02*
X122296485Y-80841666D01*
X152408095Y-86874819D02*
X152408095Y-87684342D01*
X152408095Y-87684342D02*
X152455714Y-87779580D01*
X152455714Y-87779580D02*
X152503333Y-87827200D01*
X152503333Y-87827200D02*
X152598571Y-87874819D01*
X152598571Y-87874819D02*
X152789047Y-87874819D01*
X152789047Y-87874819D02*
X152884285Y-87827200D01*
X152884285Y-87827200D02*
X152931904Y-87779580D01*
X152931904Y-87779580D02*
X152979523Y-87684342D01*
X152979523Y-87684342D02*
X152979523Y-86874819D01*
X153408095Y-86970057D02*
X153455714Y-86922438D01*
X153455714Y-86922438D02*
X153550952Y-86874819D01*
X153550952Y-86874819D02*
X153789047Y-86874819D01*
X153789047Y-86874819D02*
X153884285Y-86922438D01*
X153884285Y-86922438D02*
X153931904Y-86970057D01*
X153931904Y-86970057D02*
X153979523Y-87065295D01*
X153979523Y-87065295D02*
X153979523Y-87160533D01*
X153979523Y-87160533D02*
X153931904Y-87303390D01*
X153931904Y-87303390D02*
X153360476Y-87874819D01*
X153360476Y-87874819D02*
X153979523Y-87874819D01*
X124054819Y-81841666D02*
X123578628Y-82174999D01*
X124054819Y-82413094D02*
X123054819Y-82413094D01*
X123054819Y-82413094D02*
X123054819Y-82032142D01*
X123054819Y-82032142D02*
X123102438Y-81936904D01*
X123102438Y-81936904D02*
X123150057Y-81889285D01*
X123150057Y-81889285D02*
X123245295Y-81841666D01*
X123245295Y-81841666D02*
X123388152Y-81841666D01*
X123388152Y-81841666D02*
X123483390Y-81889285D01*
X123483390Y-81889285D02*
X123531009Y-81936904D01*
X123531009Y-81936904D02*
X123578628Y-82032142D01*
X123578628Y-82032142D02*
X123578628Y-82413094D01*
X124054819Y-80889285D02*
X124054819Y-81460713D01*
X124054819Y-81174999D02*
X123054819Y-81174999D01*
X123054819Y-81174999D02*
X123197676Y-81270237D01*
X123197676Y-81270237D02*
X123292914Y-81365475D01*
X123292914Y-81365475D02*
X123340533Y-81460713D01*
X146283333Y-87859580D02*
X146235714Y-87907200D01*
X146235714Y-87907200D02*
X146092857Y-87954819D01*
X146092857Y-87954819D02*
X145997619Y-87954819D01*
X145997619Y-87954819D02*
X145854762Y-87907200D01*
X145854762Y-87907200D02*
X145759524Y-87811961D01*
X145759524Y-87811961D02*
X145711905Y-87716723D01*
X145711905Y-87716723D02*
X145664286Y-87526247D01*
X145664286Y-87526247D02*
X145664286Y-87383390D01*
X145664286Y-87383390D02*
X145711905Y-87192914D01*
X145711905Y-87192914D02*
X145759524Y-87097676D01*
X145759524Y-87097676D02*
X145854762Y-87002438D01*
X145854762Y-87002438D02*
X145997619Y-86954819D01*
X145997619Y-86954819D02*
X146092857Y-86954819D01*
X146092857Y-86954819D02*
X146235714Y-87002438D01*
X146235714Y-87002438D02*
X146283333Y-87050057D01*
X146616667Y-86954819D02*
X147283333Y-86954819D01*
X147283333Y-86954819D02*
X146854762Y-87954819D01*
X160929819Y-89629408D02*
X160453628Y-89962741D01*
X160929819Y-90200836D02*
X159929819Y-90200836D01*
X159929819Y-90200836D02*
X159929819Y-89819884D01*
X159929819Y-89819884D02*
X159977438Y-89724646D01*
X159977438Y-89724646D02*
X160025057Y-89677027D01*
X160025057Y-89677027D02*
X160120295Y-89629408D01*
X160120295Y-89629408D02*
X160263152Y-89629408D01*
X160263152Y-89629408D02*
X160358390Y-89677027D01*
X160358390Y-89677027D02*
X160406009Y-89724646D01*
X160406009Y-89724646D02*
X160453628Y-89819884D01*
X160453628Y-89819884D02*
X160453628Y-90200836D01*
X159929819Y-88724646D02*
X159929819Y-89200836D01*
X159929819Y-89200836D02*
X160406009Y-89248455D01*
X160406009Y-89248455D02*
X160358390Y-89200836D01*
X160358390Y-89200836D02*
X160310771Y-89105598D01*
X160310771Y-89105598D02*
X160310771Y-88867503D01*
X160310771Y-88867503D02*
X160358390Y-88772265D01*
X160358390Y-88772265D02*
X160406009Y-88724646D01*
X160406009Y-88724646D02*
X160501247Y-88677027D01*
X160501247Y-88677027D02*
X160739342Y-88677027D01*
X160739342Y-88677027D02*
X160834580Y-88724646D01*
X160834580Y-88724646D02*
X160882200Y-88772265D01*
X160882200Y-88772265D02*
X160929819Y-88867503D01*
X160929819Y-88867503D02*
X160929819Y-89105598D01*
X160929819Y-89105598D02*
X160882200Y-89200836D01*
X160882200Y-89200836D02*
X160834580Y-89248455D01*
X164883333Y-82709580D02*
X164835714Y-82757200D01*
X164835714Y-82757200D02*
X164692857Y-82804819D01*
X164692857Y-82804819D02*
X164597619Y-82804819D01*
X164597619Y-82804819D02*
X164454762Y-82757200D01*
X164454762Y-82757200D02*
X164359524Y-82661961D01*
X164359524Y-82661961D02*
X164311905Y-82566723D01*
X164311905Y-82566723D02*
X164264286Y-82376247D01*
X164264286Y-82376247D02*
X164264286Y-82233390D01*
X164264286Y-82233390D02*
X164311905Y-82042914D01*
X164311905Y-82042914D02*
X164359524Y-81947676D01*
X164359524Y-81947676D02*
X164454762Y-81852438D01*
X164454762Y-81852438D02*
X164597619Y-81804819D01*
X164597619Y-81804819D02*
X164692857Y-81804819D01*
X164692857Y-81804819D02*
X164835714Y-81852438D01*
X164835714Y-81852438D02*
X164883333Y-81900057D01*
X165216667Y-81804819D02*
X165835714Y-81804819D01*
X165835714Y-81804819D02*
X165502381Y-82185771D01*
X165502381Y-82185771D02*
X165645238Y-82185771D01*
X165645238Y-82185771D02*
X165740476Y-82233390D01*
X165740476Y-82233390D02*
X165788095Y-82281009D01*
X165788095Y-82281009D02*
X165835714Y-82376247D01*
X165835714Y-82376247D02*
X165835714Y-82614342D01*
X165835714Y-82614342D02*
X165788095Y-82709580D01*
X165788095Y-82709580D02*
X165740476Y-82757200D01*
X165740476Y-82757200D02*
X165645238Y-82804819D01*
X165645238Y-82804819D02*
X165359524Y-82804819D01*
X165359524Y-82804819D02*
X165264286Y-82757200D01*
X165264286Y-82757200D02*
X165216667Y-82709580D01*
X143341666Y-81804819D02*
X143341666Y-82519104D01*
X143341666Y-82519104D02*
X143294047Y-82661961D01*
X143294047Y-82661961D02*
X143198809Y-82757200D01*
X143198809Y-82757200D02*
X143055952Y-82804819D01*
X143055952Y-82804819D02*
X142960714Y-82804819D01*
X144341666Y-82804819D02*
X143770238Y-82804819D01*
X144055952Y-82804819D02*
X144055952Y-81804819D01*
X144055952Y-81804819D02*
X143960714Y-81947676D01*
X143960714Y-81947676D02*
X143865476Y-82042914D01*
X143865476Y-82042914D02*
X143770238Y-82090533D01*
X164908333Y-84359580D02*
X164860714Y-84407200D01*
X164860714Y-84407200D02*
X164717857Y-84454819D01*
X164717857Y-84454819D02*
X164622619Y-84454819D01*
X164622619Y-84454819D02*
X164479762Y-84407200D01*
X164479762Y-84407200D02*
X164384524Y-84311961D01*
X164384524Y-84311961D02*
X164336905Y-84216723D01*
X164336905Y-84216723D02*
X164289286Y-84026247D01*
X164289286Y-84026247D02*
X164289286Y-83883390D01*
X164289286Y-83883390D02*
X164336905Y-83692914D01*
X164336905Y-83692914D02*
X164384524Y-83597676D01*
X164384524Y-83597676D02*
X164479762Y-83502438D01*
X164479762Y-83502438D02*
X164622619Y-83454819D01*
X164622619Y-83454819D02*
X164717857Y-83454819D01*
X164717857Y-83454819D02*
X164860714Y-83502438D01*
X164860714Y-83502438D02*
X164908333Y-83550057D01*
X165765476Y-83788152D02*
X165765476Y-84454819D01*
X165527381Y-83407200D02*
X165289286Y-84121485D01*
X165289286Y-84121485D02*
X165908333Y-84121485D01*
X168213095Y-99054819D02*
X168784523Y-99054819D01*
X168498809Y-100054819D02*
X168498809Y-99054819D01*
X169117857Y-100054819D02*
X169117857Y-99054819D01*
X169117857Y-99054819D02*
X169498809Y-99054819D01*
X169498809Y-99054819D02*
X169594047Y-99102438D01*
X169594047Y-99102438D02*
X169641666Y-99150057D01*
X169641666Y-99150057D02*
X169689285Y-99245295D01*
X169689285Y-99245295D02*
X169689285Y-99388152D01*
X169689285Y-99388152D02*
X169641666Y-99483390D01*
X169641666Y-99483390D02*
X169594047Y-99531009D01*
X169594047Y-99531009D02*
X169498809Y-99578628D01*
X169498809Y-99578628D02*
X169117857Y-99578628D01*
X170022619Y-99054819D02*
X170641666Y-99054819D01*
X170641666Y-99054819D02*
X170308333Y-99435771D01*
X170308333Y-99435771D02*
X170451190Y-99435771D01*
X170451190Y-99435771D02*
X170546428Y-99483390D01*
X170546428Y-99483390D02*
X170594047Y-99531009D01*
X170594047Y-99531009D02*
X170641666Y-99626247D01*
X170641666Y-99626247D02*
X170641666Y-99864342D01*
X170641666Y-99864342D02*
X170594047Y-99959580D01*
X170594047Y-99959580D02*
X170546428Y-100007200D01*
X170546428Y-100007200D02*
X170451190Y-100054819D01*
X170451190Y-100054819D02*
X170165476Y-100054819D01*
X170165476Y-100054819D02*
X170070238Y-100007200D01*
X170070238Y-100007200D02*
X170022619Y-99959580D01*
X128813095Y-73829819D02*
X129384523Y-73829819D01*
X129098809Y-74829819D02*
X129098809Y-73829819D01*
X129717857Y-74829819D02*
X129717857Y-73829819D01*
X129717857Y-73829819D02*
X130098809Y-73829819D01*
X130098809Y-73829819D02*
X130194047Y-73877438D01*
X130194047Y-73877438D02*
X130241666Y-73925057D01*
X130241666Y-73925057D02*
X130289285Y-74020295D01*
X130289285Y-74020295D02*
X130289285Y-74163152D01*
X130289285Y-74163152D02*
X130241666Y-74258390D01*
X130241666Y-74258390D02*
X130194047Y-74306009D01*
X130194047Y-74306009D02*
X130098809Y-74353628D01*
X130098809Y-74353628D02*
X129717857Y-74353628D01*
X131194047Y-73829819D02*
X130717857Y-73829819D01*
X130717857Y-73829819D02*
X130670238Y-74306009D01*
X130670238Y-74306009D02*
X130717857Y-74258390D01*
X130717857Y-74258390D02*
X130813095Y-74210771D01*
X130813095Y-74210771D02*
X131051190Y-74210771D01*
X131051190Y-74210771D02*
X131146428Y-74258390D01*
X131146428Y-74258390D02*
X131194047Y-74306009D01*
X131194047Y-74306009D02*
X131241666Y-74401247D01*
X131241666Y-74401247D02*
X131241666Y-74639342D01*
X131241666Y-74639342D02*
X131194047Y-74734580D01*
X131194047Y-74734580D02*
X131146428Y-74782200D01*
X131146428Y-74782200D02*
X131051190Y-74829819D01*
X131051190Y-74829819D02*
X130813095Y-74829819D01*
X130813095Y-74829819D02*
X130717857Y-74782200D01*
X130717857Y-74782200D02*
X130670238Y-74734580D01*
X160884580Y-93591666D02*
X160932200Y-93639285D01*
X160932200Y-93639285D02*
X160979819Y-93782142D01*
X160979819Y-93782142D02*
X160979819Y-93877380D01*
X160979819Y-93877380D02*
X160932200Y-94020237D01*
X160932200Y-94020237D02*
X160836961Y-94115475D01*
X160836961Y-94115475D02*
X160741723Y-94163094D01*
X160741723Y-94163094D02*
X160551247Y-94210713D01*
X160551247Y-94210713D02*
X160408390Y-94210713D01*
X160408390Y-94210713D02*
X160217914Y-94163094D01*
X160217914Y-94163094D02*
X160122676Y-94115475D01*
X160122676Y-94115475D02*
X160027438Y-94020237D01*
X160027438Y-94020237D02*
X159979819Y-93877380D01*
X159979819Y-93877380D02*
X159979819Y-93782142D01*
X159979819Y-93782142D02*
X160027438Y-93639285D01*
X160027438Y-93639285D02*
X160075057Y-93591666D01*
X159979819Y-92734523D02*
X159979819Y-92924999D01*
X159979819Y-92924999D02*
X160027438Y-93020237D01*
X160027438Y-93020237D02*
X160075057Y-93067856D01*
X160075057Y-93067856D02*
X160217914Y-93163094D01*
X160217914Y-93163094D02*
X160408390Y-93210713D01*
X160408390Y-93210713D02*
X160789342Y-93210713D01*
X160789342Y-93210713D02*
X160884580Y-93163094D01*
X160884580Y-93163094D02*
X160932200Y-93115475D01*
X160932200Y-93115475D02*
X160979819Y-93020237D01*
X160979819Y-93020237D02*
X160979819Y-92829761D01*
X160979819Y-92829761D02*
X160932200Y-92734523D01*
X160932200Y-92734523D02*
X160884580Y-92686904D01*
X160884580Y-92686904D02*
X160789342Y-92639285D01*
X160789342Y-92639285D02*
X160551247Y-92639285D01*
X160551247Y-92639285D02*
X160456009Y-92686904D01*
X160456009Y-92686904D02*
X160408390Y-92734523D01*
X160408390Y-92734523D02*
X160360771Y-92829761D01*
X160360771Y-92829761D02*
X160360771Y-93020237D01*
X160360771Y-93020237D02*
X160408390Y-93115475D01*
X160408390Y-93115475D02*
X160456009Y-93163094D01*
X160456009Y-93163094D02*
X160551247Y-93210713D01*
X131813095Y-76104819D02*
X132384523Y-76104819D01*
X132098809Y-77104819D02*
X132098809Y-76104819D01*
X132717857Y-77104819D02*
X132717857Y-76104819D01*
X132717857Y-76104819D02*
X133098809Y-76104819D01*
X133098809Y-76104819D02*
X133194047Y-76152438D01*
X133194047Y-76152438D02*
X133241666Y-76200057D01*
X133241666Y-76200057D02*
X133289285Y-76295295D01*
X133289285Y-76295295D02*
X133289285Y-76438152D01*
X133289285Y-76438152D02*
X133241666Y-76533390D01*
X133241666Y-76533390D02*
X133194047Y-76581009D01*
X133194047Y-76581009D02*
X133098809Y-76628628D01*
X133098809Y-76628628D02*
X132717857Y-76628628D01*
X134241666Y-77104819D02*
X133670238Y-77104819D01*
X133955952Y-77104819D02*
X133955952Y-76104819D01*
X133955952Y-76104819D02*
X133860714Y-76247676D01*
X133860714Y-76247676D02*
X133765476Y-76342914D01*
X133765476Y-76342914D02*
X133670238Y-76390533D01*
X121179819Y-81841666D02*
X120703628Y-82174999D01*
X121179819Y-82413094D02*
X120179819Y-82413094D01*
X120179819Y-82413094D02*
X120179819Y-82032142D01*
X120179819Y-82032142D02*
X120227438Y-81936904D01*
X120227438Y-81936904D02*
X120275057Y-81889285D01*
X120275057Y-81889285D02*
X120370295Y-81841666D01*
X120370295Y-81841666D02*
X120513152Y-81841666D01*
X120513152Y-81841666D02*
X120608390Y-81889285D01*
X120608390Y-81889285D02*
X120656009Y-81936904D01*
X120656009Y-81936904D02*
X120703628Y-82032142D01*
X120703628Y-82032142D02*
X120703628Y-82413094D01*
X120179819Y-81508332D02*
X120179819Y-80889285D01*
X120179819Y-80889285D02*
X120560771Y-81222618D01*
X120560771Y-81222618D02*
X120560771Y-81079761D01*
X120560771Y-81079761D02*
X120608390Y-80984523D01*
X120608390Y-80984523D02*
X120656009Y-80936904D01*
X120656009Y-80936904D02*
X120751247Y-80889285D01*
X120751247Y-80889285D02*
X120989342Y-80889285D01*
X120989342Y-80889285D02*
X121084580Y-80936904D01*
X121084580Y-80936904D02*
X121132200Y-80984523D01*
X121132200Y-80984523D02*
X121179819Y-81079761D01*
X121179819Y-81079761D02*
X121179819Y-81365475D01*
X121179819Y-81365475D02*
X121132200Y-81460713D01*
X121132200Y-81460713D02*
X121084580Y-81508332D01*
X132616666Y-73704819D02*
X132616666Y-74419104D01*
X132616666Y-74419104D02*
X132569047Y-74561961D01*
X132569047Y-74561961D02*
X132473809Y-74657200D01*
X132473809Y-74657200D02*
X132330952Y-74704819D01*
X132330952Y-74704819D02*
X132235714Y-74704819D01*
X132997619Y-73704819D02*
X133616666Y-73704819D01*
X133616666Y-73704819D02*
X133283333Y-74085771D01*
X133283333Y-74085771D02*
X133426190Y-74085771D01*
X133426190Y-74085771D02*
X133521428Y-74133390D01*
X133521428Y-74133390D02*
X133569047Y-74181009D01*
X133569047Y-74181009D02*
X133616666Y-74276247D01*
X133616666Y-74276247D02*
X133616666Y-74514342D01*
X133616666Y-74514342D02*
X133569047Y-74609580D01*
X133569047Y-74609580D02*
X133521428Y-74657200D01*
X133521428Y-74657200D02*
X133426190Y-74704819D01*
X133426190Y-74704819D02*
X133140476Y-74704819D01*
X133140476Y-74704819D02*
X133045238Y-74657200D01*
X133045238Y-74657200D02*
X132997619Y-74609580D01*
X162938095Y-98879819D02*
X163509523Y-98879819D01*
X163223809Y-99879819D02*
X163223809Y-98879819D01*
X163842857Y-99879819D02*
X163842857Y-98879819D01*
X163842857Y-98879819D02*
X164223809Y-98879819D01*
X164223809Y-98879819D02*
X164319047Y-98927438D01*
X164319047Y-98927438D02*
X164366666Y-98975057D01*
X164366666Y-98975057D02*
X164414285Y-99070295D01*
X164414285Y-99070295D02*
X164414285Y-99213152D01*
X164414285Y-99213152D02*
X164366666Y-99308390D01*
X164366666Y-99308390D02*
X164319047Y-99356009D01*
X164319047Y-99356009D02*
X164223809Y-99403628D01*
X164223809Y-99403628D02*
X163842857Y-99403628D01*
X165271428Y-99213152D02*
X165271428Y-99879819D01*
X165033333Y-98832200D02*
X164795238Y-99546485D01*
X164795238Y-99546485D02*
X165414285Y-99546485D01*
X153904819Y-94113094D02*
X152904819Y-94113094D01*
X152904819Y-94113094D02*
X152904819Y-93874999D01*
X152904819Y-93874999D02*
X152952438Y-93732142D01*
X152952438Y-93732142D02*
X153047676Y-93636904D01*
X153047676Y-93636904D02*
X153142914Y-93589285D01*
X153142914Y-93589285D02*
X153333390Y-93541666D01*
X153333390Y-93541666D02*
X153476247Y-93541666D01*
X153476247Y-93541666D02*
X153666723Y-93589285D01*
X153666723Y-93589285D02*
X153761961Y-93636904D01*
X153761961Y-93636904D02*
X153857200Y-93732142D01*
X153857200Y-93732142D02*
X153904819Y-93874999D01*
X153904819Y-93874999D02*
X153904819Y-94113094D01*
X153238152Y-92684523D02*
X153904819Y-92684523D01*
X152857200Y-92922618D02*
X153571485Y-93160713D01*
X153571485Y-93160713D02*
X153571485Y-92541666D01*
X168211905Y-87654819D02*
X168211905Y-86654819D01*
X168211905Y-86654819D02*
X168450000Y-86654819D01*
X168450000Y-86654819D02*
X168592857Y-86702438D01*
X168592857Y-86702438D02*
X168688095Y-86797676D01*
X168688095Y-86797676D02*
X168735714Y-86892914D01*
X168735714Y-86892914D02*
X168783333Y-87083390D01*
X168783333Y-87083390D02*
X168783333Y-87226247D01*
X168783333Y-87226247D02*
X168735714Y-87416723D01*
X168735714Y-87416723D02*
X168688095Y-87511961D01*
X168688095Y-87511961D02*
X168592857Y-87607200D01*
X168592857Y-87607200D02*
X168450000Y-87654819D01*
X168450000Y-87654819D02*
X168211905Y-87654819D01*
X169688095Y-86654819D02*
X169211905Y-86654819D01*
X169211905Y-86654819D02*
X169164286Y-87131009D01*
X169164286Y-87131009D02*
X169211905Y-87083390D01*
X169211905Y-87083390D02*
X169307143Y-87035771D01*
X169307143Y-87035771D02*
X169545238Y-87035771D01*
X169545238Y-87035771D02*
X169640476Y-87083390D01*
X169640476Y-87083390D02*
X169688095Y-87131009D01*
X169688095Y-87131009D02*
X169735714Y-87226247D01*
X169735714Y-87226247D02*
X169735714Y-87464342D01*
X169735714Y-87464342D02*
X169688095Y-87559580D01*
X169688095Y-87559580D02*
X169640476Y-87607200D01*
X169640476Y-87607200D02*
X169545238Y-87654819D01*
X169545238Y-87654819D02*
X169307143Y-87654819D01*
X169307143Y-87654819D02*
X169211905Y-87607200D01*
X169211905Y-87607200D02*
X169164286Y-87559580D01*
D14*
G04 #@! TO.C,U1*
X152647000Y-110833000D02*
X152393000Y-111087000D01*
X152139000Y-110706000D01*
X152393000Y-110452000D01*
X152647000Y-110833000D01*
G36*
X152647000Y-110833000D02*
G01*
X152393000Y-111087000D01*
X152139000Y-110706000D01*
X152393000Y-110452000D01*
X152647000Y-110833000D01*
G37*
X152266000Y-111214000D02*
X152012000Y-111468000D01*
X151758000Y-111087000D01*
X152012000Y-110833000D01*
X152266000Y-111214000D01*
G36*
X152266000Y-111214000D02*
G01*
X152012000Y-111468000D01*
X151758000Y-111087000D01*
X152012000Y-110833000D01*
X152266000Y-111214000D01*
G37*
X151885000Y-111595000D02*
X151631000Y-111849000D01*
X151377000Y-111468000D01*
X151631000Y-111214000D01*
X151885000Y-111595000D01*
G36*
X151885000Y-111595000D02*
G01*
X151631000Y-111849000D01*
X151377000Y-111468000D01*
X151631000Y-111214000D01*
X151885000Y-111595000D01*
G37*
X151504000Y-111087000D02*
X151250000Y-111341000D01*
X150996000Y-110960000D01*
X151250000Y-110706000D01*
X151504000Y-111087000D01*
G36*
X151504000Y-111087000D02*
G01*
X151250000Y-111341000D01*
X150996000Y-110960000D01*
X151250000Y-110706000D01*
X151504000Y-111087000D01*
G37*
X151123000Y-111468000D02*
X150869000Y-111722000D01*
X150615000Y-111341000D01*
X150869000Y-111087000D01*
X151123000Y-111468000D01*
G36*
X151123000Y-111468000D02*
G01*
X150869000Y-111722000D01*
X150615000Y-111341000D01*
X150869000Y-111087000D01*
X151123000Y-111468000D01*
G37*
X151123000Y-110579000D02*
X150869000Y-110833000D01*
X150615000Y-110452000D01*
X150869000Y-110198000D01*
X151123000Y-110579000D01*
G36*
X151123000Y-110579000D02*
G01*
X150869000Y-110833000D01*
X150615000Y-110452000D01*
X150869000Y-110198000D01*
X151123000Y-110579000D01*
G37*
X150742000Y-110960000D02*
X150488000Y-111214000D01*
X150234000Y-110833000D01*
X150488000Y-110579000D01*
X150742000Y-110960000D01*
G36*
X150742000Y-110960000D02*
G01*
X150488000Y-111214000D01*
X150234000Y-110833000D01*
X150488000Y-110579000D01*
X150742000Y-110960000D01*
G37*
X150361000Y-110452000D02*
X150107000Y-110706000D01*
X149853000Y-110325000D01*
X150107000Y-110071000D01*
X150361000Y-110452000D01*
G36*
X150361000Y-110452000D02*
G01*
X150107000Y-110706000D01*
X149853000Y-110325000D01*
X150107000Y-110071000D01*
X150361000Y-110452000D01*
G37*
D12*
X162413026Y-111140000D02*
G75*
G02*
X160616974Y-111140000I-898026J0D01*
G01*
X160616974Y-111140000D02*
G75*
G02*
X162413026Y-111140000I898026J0D01*
G01*
X179930000Y-120030000D02*
X118970000Y-120030000D01*
X179930000Y-106060000D02*
X178660000Y-106060000D01*
X179930000Y-104790000D02*
X167230000Y-104790000D01*
X179930000Y-102250000D02*
X179930000Y-120030000D01*
X178660000Y-116220000D02*
X179930000Y-116220000D01*
X178660000Y-106060000D02*
X178660000Y-116220000D01*
X167230000Y-117490000D02*
X179930000Y-117490000D01*
X167230000Y-104790000D02*
X167230000Y-117490000D01*
X163420000Y-112410000D02*
X159610000Y-112410000D01*
X163420000Y-109870000D02*
X163420000Y-112410000D01*
X159610000Y-112410000D02*
X159610000Y-109870000D01*
X159610000Y-109870000D02*
X163420000Y-109870000D01*
X154530000Y-117490000D02*
X154530000Y-104790000D01*
X154530000Y-104790000D02*
X141830000Y-104790000D01*
X141830000Y-117490000D02*
X154530000Y-117490000D01*
X141830000Y-104790000D02*
X141830000Y-117490000D01*
X137969200Y-116979200D02*
X125269200Y-116979200D01*
X137969200Y-114439200D02*
X137969200Y-116979200D01*
X136200000Y-111038400D02*
X136200000Y-104788400D01*
X136200000Y-104788400D02*
X132200000Y-104788400D01*
X132200000Y-111038400D02*
X136200000Y-111038400D01*
X132200000Y-105038400D02*
X132200000Y-111038400D01*
X132200000Y-104788400D02*
X132200000Y-105038400D01*
X127809200Y-114439200D02*
X127809200Y-116979200D01*
X125269200Y-116979200D02*
X125269200Y-114439200D01*
X125269200Y-114439200D02*
X137969200Y-114439200D01*
X125269200Y-114439200D02*
X127809200Y-114439200D01*
X124050000Y-114950000D02*
X124050000Y-107330000D01*
X124050000Y-114950000D02*
X118970000Y-114950000D01*
X124050000Y-107330000D02*
X118970000Y-107330000D01*
X118970000Y-120030000D02*
X118970000Y-102250000D01*
X118970000Y-114950000D02*
X117700000Y-114950000D01*
X118970000Y-102250000D02*
X179930000Y-102250000D01*
X117700000Y-114950000D02*
X117700000Y-107330000D01*
X117700000Y-107330000D02*
X118970000Y-107330000D01*
D15*
G04 #@! TO.C,JP1*
X161565000Y-91370000D02*
X161565000Y-94130000D01*
X166755000Y-91370000D02*
X161565000Y-91370000D01*
X166755000Y-91370000D02*
X166755000Y-94130000D01*
X166755000Y-94130000D02*
X161565000Y-94130000D01*
X168025000Y-91370000D02*
X169405000Y-91370000D01*
X169405000Y-91370000D02*
X169405000Y-92750000D01*
G04 #@! TO.C,Q1*
X158625000Y-94652500D02*
X157975000Y-94652500D01*
X158625000Y-94652500D02*
X159275000Y-94652500D01*
X158625000Y-97772500D02*
X157975000Y-97772500D01*
X158625000Y-97772500D02*
X159275000Y-97772500D01*
X160027500Y-98052500D02*
X159547500Y-98052500D01*
X159787500Y-97722500D01*
X160027500Y-98052500D01*
G36*
X160027500Y-98052500D02*
G01*
X159547500Y-98052500D01*
X159787500Y-97722500D01*
X160027500Y-98052500D01*
G37*
G04 #@! TO.C,C2*
X126030000Y-112760580D02*
X126030000Y-112479420D01*
X127050000Y-112760580D02*
X127050000Y-112479420D01*
G04 #@! TO.C,D2*
X119592500Y-74490000D02*
X119592500Y-76410000D01*
X119592500Y-76410000D02*
X122277500Y-76410000D01*
X122277500Y-74490000D02*
X119592500Y-74490000D01*
G04 #@! TO.C,TP6*
X172250000Y-92750000D02*
G75*
G02*
X169450000Y-92750000I-1400000J0D01*
G01*
X169450000Y-92750000D02*
G75*
G02*
X172250000Y-92750000I1400000J0D01*
G01*
G04 #@! TO.C,K1*
X144782500Y-89057500D02*
X152582500Y-89057500D01*
X144782500Y-101757500D02*
X144782500Y-89057500D01*
X147220500Y-96139500D02*
X147855500Y-96139500D01*
X147220500Y-96774500D02*
X147220500Y-96139500D01*
X147855500Y-96647500D02*
X147855500Y-95631500D01*
X147855500Y-96647500D02*
X149760500Y-96647500D01*
X148236500Y-96647500D02*
X148871500Y-95631500D01*
X149760500Y-95631500D02*
X147855500Y-95631500D01*
X149760500Y-96647500D02*
X149760500Y-95631500D01*
X150420500Y-96139500D02*
X149760500Y-96139500D01*
X150420500Y-96774500D02*
X150420500Y-96139500D01*
X152582500Y-89057500D02*
X152582500Y-101757500D01*
X152582500Y-101757500D02*
X144782500Y-101757500D01*
X152782500Y-99857500D02*
X152782500Y-101957500D01*
X152782500Y-101957500D02*
X150582500Y-101957500D01*
G04 #@! TO.C,TP2*
X170825000Y-84725000D02*
G75*
G02*
X168025000Y-84725000I-1400000J0D01*
G01*
X168025000Y-84725000D02*
G75*
G02*
X170825000Y-84725000I1400000J0D01*
G01*
G04 #@! TO.C,C1*
X155290000Y-116160580D02*
X155290000Y-115879420D01*
X156310000Y-116160580D02*
X156310000Y-115879420D01*
G04 #@! TO.C,JP2*
X124795000Y-80030000D02*
X124795000Y-77380000D01*
X127555000Y-77380000D02*
X124795000Y-77380000D01*
X127555000Y-80030000D02*
X124795000Y-80030000D01*
X127555000Y-80030000D02*
X127555000Y-77380000D01*
X127555000Y-81300000D02*
X127555000Y-82680000D01*
X127555000Y-82680000D02*
X126175000Y-82680000D01*
G04 #@! TO.C,R7*
X157912742Y-98277500D02*
X158387258Y-98277500D01*
X157912742Y-99322500D02*
X158387258Y-99322500D01*
G04 #@! TO.C,R6*
X161037742Y-98302500D02*
X161512258Y-98302500D01*
X161037742Y-99347500D02*
X161512258Y-99347500D01*
G04 #@! TO.C,R4*
X121577500Y-78787742D02*
X121577500Y-79262258D01*
X122622500Y-78787742D02*
X122622500Y-79262258D01*
G04 #@! TO.C,U2*
X154365000Y-81190000D02*
X154365000Y-82450000D01*
X154365000Y-88010000D02*
X154365000Y-86750000D01*
X158125000Y-81190000D02*
X154365000Y-81190000D01*
X158125000Y-88010000D02*
X154365000Y-88010000D01*
X159645000Y-88240000D02*
X159165000Y-88240000D01*
X159405000Y-87910000D01*
X159645000Y-88240000D01*
G36*
X159645000Y-88240000D02*
G01*
X159165000Y-88240000D01*
X159405000Y-87910000D01*
X159645000Y-88240000D01*
G37*
G04 #@! TO.C,R1*
X123112951Y-79318971D02*
X123112951Y-78844455D01*
X124157951Y-79318971D02*
X124157951Y-78844455D01*
G04 #@! TO.C,C7*
X145615000Y-82179437D02*
X145615000Y-86635000D01*
X145615000Y-86635000D02*
X147315000Y-86635000D01*
X146679437Y-81115000D02*
X145615000Y-82179437D01*
X146679437Y-81115000D02*
X147315000Y-81115000D01*
X150060000Y-80250000D02*
X150060000Y-80875000D01*
X150070563Y-81115000D02*
X149435000Y-81115000D01*
X150070563Y-81115000D02*
X151135000Y-82179437D01*
X150372500Y-80562500D02*
X149747500Y-80562500D01*
X151135000Y-82179437D02*
X151135000Y-86635000D01*
X151135000Y-86635000D02*
X149435000Y-86635000D01*
D16*
G04 #@! TO.C,G\u002A\u002A\u002A*
G36*
X172291168Y-88342423D02*
G01*
X172393278Y-88357741D01*
X172454516Y-88376096D01*
X172485314Y-88406239D01*
X172496110Y-88456923D01*
X172497357Y-88515364D01*
X172493408Y-88588087D01*
X172483331Y-88633740D01*
X172475849Y-88641667D01*
X172440493Y-88636915D01*
X172371546Y-88624637D01*
X172308065Y-88612290D01*
X172161788Y-88582914D01*
X172161788Y-88325260D01*
X172291168Y-88342423D01*
G37*
G36*
X172272369Y-91360655D02*
G01*
X172367022Y-91379985D01*
X172497357Y-91407937D01*
X172497357Y-91534863D01*
X172492631Y-91616736D01*
X172476911Y-91655692D01*
X172460607Y-91661789D01*
X172415420Y-91656241D01*
X172340801Y-91642083D01*
X172292823Y-91631543D01*
X172161788Y-91601296D01*
X172161788Y-91476665D01*
X172163594Y-91407744D01*
X172175819Y-91368642D01*
X172208674Y-91354549D01*
X172272369Y-91360655D01*
G37*
G36*
X172291168Y-90717219D02*
G01*
X172393259Y-90732511D01*
X172454487Y-90750901D01*
X172485288Y-90781303D01*
X172496095Y-90832634D01*
X172497357Y-90893387D01*
X172497357Y-91022917D01*
X172413465Y-91005119D01*
X172323225Y-90987032D01*
X172245681Y-90972702D01*
X172195941Y-90961024D01*
X172171181Y-90938759D01*
X172162700Y-90891010D01*
X172161788Y-90829070D01*
X172161788Y-90700057D01*
X172291168Y-90717219D01*
G37*
G36*
X172984676Y-88490252D02*
G01*
X173058301Y-88503709D01*
X173170267Y-88524882D01*
X173314429Y-88552592D01*
X173484640Y-88585660D01*
X173674752Y-88622909D01*
X173794461Y-88646507D01*
X174614024Y-88808428D01*
X174614024Y-89072797D01*
X173775101Y-88905058D01*
X172936179Y-88737319D01*
X172936179Y-88612054D01*
X172939768Y-88539407D01*
X172948919Y-88493652D01*
X172955538Y-88485688D01*
X172984676Y-88490252D01*
G37*
G36*
X173141676Y-89141214D02*
G01*
X173196119Y-89212095D01*
X173227778Y-89260682D01*
X173232858Y-89296206D01*
X173211193Y-89342453D01*
X173195010Y-89369266D01*
X173149540Y-89488731D01*
X173153728Y-89611724D01*
X173206344Y-89733075D01*
X173306161Y-89847616D01*
X173309490Y-89850558D01*
X173352676Y-89887265D01*
X173393804Y-89917055D01*
X173440023Y-89942175D01*
X173498480Y-89964869D01*
X173576325Y-89987382D01*
X173680704Y-90011960D01*
X173818767Y-90040846D01*
X173997662Y-90076287D01*
X174078404Y-90092051D01*
X174614024Y-90196461D01*
X174614024Y-90466699D01*
X173775101Y-90298961D01*
X172936179Y-90131222D01*
X172936179Y-90003027D01*
X172937624Y-89927204D01*
X172947222Y-89890807D01*
X172972869Y-89881636D01*
X173011944Y-89885952D01*
X173087709Y-89897072D01*
X173025842Y-89823547D01*
X172955535Y-89705684D01*
X172917348Y-89566767D01*
X172911412Y-89421037D01*
X172937857Y-89282738D01*
X172996816Y-89166112D01*
X173019534Y-89138890D01*
X173060563Y-89105008D01*
X173098020Y-89104432D01*
X173141676Y-89141214D01*
G37*
G36*
X173032977Y-92322296D02*
G01*
X173062248Y-92328357D01*
X173090812Y-92337526D01*
X173122826Y-92353123D01*
X173162443Y-92378465D01*
X173213817Y-92416872D01*
X173281102Y-92471661D01*
X173368452Y-92546152D01*
X173480023Y-92643662D01*
X173619968Y-92767511D01*
X173792440Y-92921016D01*
X173878353Y-92997605D01*
X174368800Y-93434906D01*
X174375878Y-93012981D01*
X174378707Y-92856805D01*
X174381882Y-92744885D01*
X174386529Y-92669859D01*
X174393776Y-92624363D01*
X174404750Y-92601034D01*
X174420578Y-92592509D01*
X174440410Y-92591410D01*
X174514538Y-92598720D01*
X174555945Y-92607327D01*
X174614024Y-92622891D01*
X174614024Y-93824594D01*
X174508621Y-93800911D01*
X174471569Y-93788304D01*
X174425336Y-93763432D01*
X174365559Y-93722854D01*
X174287875Y-93663132D01*
X174187922Y-93580827D01*
X174061336Y-93472501D01*
X173903754Y-93334713D01*
X173792310Y-93236289D01*
X173181402Y-92695348D01*
X173174293Y-93094930D01*
X173171482Y-93249614D01*
X173167537Y-93359614D01*
X173159619Y-93431844D01*
X173144889Y-93473217D01*
X173120508Y-93490649D01*
X173083637Y-93491052D01*
X173031438Y-93481341D01*
X173016844Y-93478379D01*
X172936179Y-93462246D01*
X172936179Y-92304775D01*
X173032977Y-92322296D01*
G37*
G36*
X173194068Y-86905167D02*
G01*
X173237781Y-86952474D01*
X173257382Y-86977109D01*
X173326582Y-87067836D01*
X173249608Y-87144810D01*
X173175348Y-87251581D01*
X173145391Y-87372065D01*
X173157176Y-87498317D01*
X173208147Y-87622387D01*
X173295742Y-87736330D01*
X173417403Y-87832198D01*
X173482220Y-87867152D01*
X173629384Y-87923584D01*
X173792380Y-87964777D01*
X173952297Y-87987200D01*
X174090221Y-87987317D01*
X174111314Y-87984688D01*
X174235597Y-87944077D01*
X174327416Y-87869341D01*
X174384465Y-87768259D01*
X174404437Y-87648610D01*
X174385024Y-87518172D01*
X174323920Y-87384724D01*
X174299860Y-87349028D01*
X174219209Y-87237693D01*
X174306911Y-87163807D01*
X174394613Y-87089922D01*
X174476919Y-87184215D01*
X174564309Y-87320390D01*
X174619501Y-87483650D01*
X174639842Y-87658744D01*
X174622679Y-87830422D01*
X174601915Y-87902776D01*
X174527689Y-88039134D01*
X174415984Y-88143293D01*
X174270707Y-88213914D01*
X174095766Y-88249660D01*
X173895067Y-88249194D01*
X173689274Y-88215219D01*
X173469555Y-88143198D01*
X173281404Y-88040634D01*
X173127993Y-87911969D01*
X173012492Y-87761644D01*
X172938072Y-87594098D01*
X172907905Y-87413773D01*
X172925162Y-87225109D01*
X172940372Y-87166509D01*
X172970347Y-87100952D01*
X173019030Y-87026562D01*
X173075432Y-86956939D01*
X173128567Y-86905685D01*
X173166674Y-86886382D01*
X173194068Y-86905167D01*
G37*
G36*
X172994258Y-90667956D02*
G01*
X173031764Y-90675972D01*
X173110755Y-90692210D01*
X173223826Y-90715189D01*
X173363576Y-90743426D01*
X173522601Y-90775440D01*
X173693498Y-90809748D01*
X173868865Y-90844870D01*
X174041298Y-90879322D01*
X174203395Y-90911624D01*
X174347752Y-90940293D01*
X174466967Y-90963847D01*
X174553637Y-90980805D01*
X174600359Y-90989685D01*
X174606352Y-90990651D01*
X174610687Y-91013916D01*
X174613469Y-91073526D01*
X174614024Y-91122725D01*
X174612433Y-91199897D01*
X174603406Y-91237296D01*
X174580559Y-91246764D01*
X174549492Y-91242463D01*
X174497777Y-91237825D01*
X174489980Y-91255655D01*
X174524175Y-91300948D01*
X174526133Y-91303119D01*
X174582062Y-91395890D01*
X174619582Y-91520038D01*
X174636655Y-91657979D01*
X174631244Y-91792128D01*
X174601308Y-91904902D01*
X174596964Y-91914172D01*
X174511947Y-92030850D01*
X174391295Y-92118057D01*
X174296641Y-92155153D01*
X174255888Y-92164126D01*
X174209853Y-92167959D01*
X174151110Y-92165777D01*
X174072233Y-92156705D01*
X173965799Y-92139870D01*
X173824381Y-92114396D01*
X173640555Y-92079409D01*
X173620223Y-92075483D01*
X173452351Y-92042970D01*
X173298881Y-92013117D01*
X173167992Y-91987526D01*
X173067865Y-91967798D01*
X173006679Y-91955536D01*
X172994258Y-91952931D01*
X172958964Y-91938388D01*
X172941689Y-91905475D01*
X172936358Y-91839648D01*
X172936179Y-91813869D01*
X172941819Y-91729261D01*
X172959496Y-91690922D01*
X172970269Y-91687602D01*
X173005025Y-91692514D01*
X173082160Y-91706218D01*
X173193470Y-91727165D01*
X173330755Y-91753805D01*
X173485813Y-91784591D01*
X173516971Y-91790854D01*
X173678791Y-91822596D01*
X173828548Y-91850385D01*
X173956936Y-91872619D01*
X174054651Y-91887696D01*
X174112387Y-91894012D01*
X174116581Y-91894106D01*
X174238775Y-91873537D01*
X174329707Y-91816127D01*
X174386245Y-91728325D01*
X174405259Y-91616578D01*
X174383619Y-91487332D01*
X174352174Y-91408881D01*
X174315258Y-91342071D01*
X174271447Y-91286756D01*
X174214459Y-91240223D01*
X174138010Y-91199761D01*
X174035818Y-91162657D01*
X173901602Y-91126201D01*
X173729079Y-91087679D01*
X173511967Y-91044381D01*
X173504415Y-91042925D01*
X172936179Y-90933467D01*
X172936179Y-90793783D01*
X172937735Y-90713847D01*
X172945900Y-90674160D01*
X172965917Y-90663363D01*
X172994258Y-90667956D01*
G37*
G36*
X173502512Y-85299862D02*
G01*
X173639147Y-85319214D01*
X173811983Y-85349621D01*
X174027566Y-85391657D01*
X174059044Y-85398000D01*
X174601118Y-85507545D01*
X174609030Y-85645149D01*
X174612208Y-85724248D01*
X174606719Y-85763275D01*
X174587785Y-85773635D01*
X174557403Y-85768385D01*
X174514919Y-85759236D01*
X174430246Y-85741885D01*
X174311863Y-85718038D01*
X174168248Y-85689398D01*
X174007880Y-85657671D01*
X173959160Y-85648079D01*
X173759613Y-85609799D01*
X173603572Y-85582880D01*
X173484191Y-85567296D01*
X173394621Y-85563018D01*
X173328015Y-85570020D01*
X173277524Y-85588276D01*
X173236303Y-85617757D01*
X173209233Y-85645128D01*
X173160034Y-85735248D01*
X173148305Y-85845186D01*
X173170398Y-85963544D01*
X173222665Y-86078925D01*
X173301458Y-86179929D01*
X173403130Y-86255157D01*
X173404741Y-86255995D01*
X173452827Y-86272964D01*
X173542491Y-86297325D01*
X173664587Y-86326877D01*
X173809967Y-86359416D01*
X173969483Y-86392741D01*
X173988912Y-86396642D01*
X174147927Y-86428539D01*
X174292573Y-86457751D01*
X174414097Y-86482497D01*
X174503745Y-86500992D01*
X174552765Y-86511453D01*
X174555945Y-86512188D01*
X174591018Y-86527244D01*
X174608330Y-86560276D01*
X174613804Y-86625806D01*
X174614024Y-86654557D01*
X174609656Y-86728024D01*
X174598492Y-86774564D01*
X174589830Y-86783130D01*
X174560209Y-86778169D01*
X174486138Y-86764109D01*
X174373746Y-86742187D01*
X174229164Y-86713640D01*
X174058523Y-86679705D01*
X173867952Y-86641617D01*
X173663582Y-86600614D01*
X173451543Y-86557932D01*
X173237966Y-86514808D01*
X173028980Y-86472478D01*
X172830717Y-86432179D01*
X172649306Y-86395148D01*
X172490877Y-86362621D01*
X172361562Y-86335835D01*
X172267490Y-86316026D01*
X172214792Y-86304431D01*
X172206961Y-86302457D01*
X172178392Y-86281513D01*
X172164712Y-86232265D01*
X172161788Y-86161879D01*
X172163407Y-86088799D01*
X172167541Y-86042748D01*
X172170668Y-86034553D01*
X172198360Y-86039376D01*
X172266274Y-86052457D01*
X172364051Y-86071716D01*
X172481334Y-86095070D01*
X172607764Y-86120439D01*
X172732983Y-86145741D01*
X172846633Y-86168896D01*
X172938356Y-86187822D01*
X172997793Y-86200439D01*
X173009731Y-86203139D01*
X173070377Y-86217516D01*
X173020132Y-86145394D01*
X172953864Y-86014475D01*
X172916383Y-85863264D01*
X172910434Y-85710670D01*
X172937821Y-85578053D01*
X172997600Y-85476003D01*
X173088332Y-85383303D01*
X173187026Y-85321516D01*
X173244333Y-85302392D01*
X173311652Y-85292025D01*
X173395529Y-85290990D01*
X173502512Y-85299862D01*
G37*
G36*
X172209616Y-93962643D02*
G01*
X172283698Y-93976415D01*
X172398381Y-93998335D01*
X172548650Y-94027427D01*
X172729491Y-94062718D01*
X172935891Y-94103232D01*
X173162834Y-94147993D01*
X173405307Y-94196027D01*
X173407266Y-94196416D01*
X174614024Y-94435991D01*
X174614024Y-94829987D01*
X174613497Y-94965989D01*
X174612043Y-95081673D01*
X174609853Y-95168194D01*
X174607120Y-95216706D01*
X174605488Y-95223984D01*
X174578678Y-95219128D01*
X174509530Y-95205651D01*
X174406301Y-95185189D01*
X174277252Y-95159377D01*
X174149390Y-95133639D01*
X174004497Y-95104483D01*
X173878186Y-95079243D01*
X173778714Y-95059553D01*
X173714340Y-95047051D01*
X173693292Y-95043293D01*
X173689697Y-95067278D01*
X173686850Y-95131922D01*
X173685115Y-95226261D01*
X173684756Y-95299684D01*
X173685867Y-95418759D01*
X173690275Y-95495854D01*
X173699592Y-95540590D01*
X173715430Y-95562585D01*
X173729929Y-95569227D01*
X173769628Y-95578477D01*
X173850425Y-95595620D01*
X173962744Y-95618681D01*
X174097007Y-95645685D01*
X174194563Y-95665018D01*
X174614024Y-95747657D01*
X174614024Y-96533001D01*
X173730841Y-96356033D01*
X173524054Y-96314711D01*
X173333315Y-96276811D01*
X173164535Y-96243493D01*
X173023625Y-96215913D01*
X172916498Y-96195230D01*
X172849064Y-96182602D01*
X172827386Y-96179065D01*
X172819516Y-96203203D01*
X172813071Y-96268926D01*
X172808715Y-96366200D01*
X172807113Y-96484989D01*
X172807113Y-96791151D01*
X173704116Y-96970207D01*
X174601118Y-97149262D01*
X174608243Y-97541806D01*
X174610195Y-97677525D01*
X174610880Y-97792916D01*
X174610322Y-97879121D01*
X174608548Y-97927280D01*
X174607118Y-97934350D01*
X174580271Y-97929486D01*
X174509935Y-97915843D01*
X174403230Y-97894846D01*
X174267273Y-97867918D01*
X174109183Y-97836485D01*
X173936081Y-97801970D01*
X173755084Y-97765797D01*
X173573311Y-97729392D01*
X173397882Y-97694177D01*
X173235915Y-97661577D01*
X173094529Y-97633017D01*
X172980842Y-97609921D01*
X172901975Y-97593712D01*
X172865193Y-97585851D01*
X172807113Y-97571984D01*
X172807113Y-99296578D01*
X172926572Y-99314492D01*
X173006045Y-99328105D01*
X173066820Y-99341494D01*
X173081450Y-99345997D01*
X173093452Y-99342905D01*
X173102501Y-99319384D01*
X173108976Y-99269728D01*
X173113259Y-99188232D01*
X173115729Y-99069191D01*
X173116768Y-98906899D01*
X173116870Y-98814754D01*
X173117361Y-98630167D01*
X173119109Y-98491209D01*
X173122518Y-98391888D01*
X173127998Y-98326215D01*
X173135954Y-98288199D01*
X173146794Y-98271849D01*
X173153902Y-98269919D01*
X173194856Y-98274951D01*
X173272360Y-98288269D01*
X173372515Y-98307206D01*
X173481418Y-98329093D01*
X173585171Y-98351263D01*
X173626164Y-98360549D01*
X173645238Y-98366288D01*
X173659650Y-98377882D01*
X173670162Y-98401964D01*
X173677538Y-98445167D01*
X173682542Y-98514124D01*
X173685939Y-98615466D01*
X173688491Y-98755829D01*
X173690697Y-98921020D01*
X173697662Y-99468143D01*
X173994512Y-99527575D01*
X173994512Y-98431101D01*
X174155843Y-98464209D01*
X174273660Y-98488323D01*
X174399571Y-98514000D01*
X174465599Y-98527419D01*
X174614024Y-98557522D01*
X174614024Y-100439195D01*
X174555945Y-100425296D01*
X174520905Y-100417870D01*
X174442415Y-100401804D01*
X174326539Y-100378312D01*
X174179339Y-100348608D01*
X174006879Y-100313903D01*
X173815223Y-100275411D01*
X173610432Y-100234346D01*
X173398571Y-100191919D01*
X173185703Y-100149345D01*
X172977891Y-100107836D01*
X172781198Y-100068605D01*
X172601687Y-100032865D01*
X172445422Y-100001830D01*
X172318465Y-99976712D01*
X172226881Y-99958724D01*
X172176731Y-99949080D01*
X172169055Y-99947765D01*
X172167990Y-99922557D01*
X172166972Y-99849356D01*
X172166012Y-99731795D01*
X172165122Y-99573506D01*
X172164313Y-99378121D01*
X172163596Y-99149275D01*
X172162982Y-98890598D01*
X172162483Y-98605725D01*
X172162110Y-98298288D01*
X172161875Y-97971919D01*
X172161788Y-97630251D01*
X172161788Y-97611687D01*
X172161808Y-97211603D01*
X172161913Y-96860012D01*
X172162170Y-96553783D01*
X172162647Y-96289784D01*
X172163412Y-96064883D01*
X172164532Y-95875947D01*
X172166076Y-95719845D01*
X172168111Y-95593444D01*
X172170704Y-95493612D01*
X172173924Y-95417218D01*
X172177838Y-95361129D01*
X172182514Y-95322213D01*
X172188019Y-95297338D01*
X172194421Y-95283372D01*
X172201789Y-95277182D01*
X172210189Y-95275638D01*
X172212288Y-95275610D01*
X172251869Y-95280623D01*
X172331011Y-95294213D01*
X172438784Y-95314210D01*
X172564253Y-95338442D01*
X172696486Y-95364737D01*
X172824552Y-95390925D01*
X172937517Y-95414835D01*
X173024449Y-95434294D01*
X173071697Y-95446298D01*
X173092011Y-95447927D01*
X173105155Y-95432531D01*
X173112659Y-95391538D01*
X173116053Y-95316377D01*
X173116869Y-95198478D01*
X173116870Y-95193350D01*
X173116870Y-94926920D01*
X172761941Y-94853968D01*
X172620833Y-94824916D01*
X172486681Y-94797209D01*
X172373189Y-94773682D01*
X172294062Y-94757172D01*
X172284400Y-94755138D01*
X172161788Y-94729259D01*
X172161788Y-94344203D01*
X172163012Y-94209741D01*
X172166382Y-94095586D01*
X172171449Y-94010721D01*
X172177763Y-93964130D01*
X172181148Y-93957994D01*
X172209616Y-93962643D01*
G37*
D15*
G04 #@! TO.C,R5*
X161102500Y-89462742D02*
X161102500Y-89937258D01*
X162147500Y-89462742D02*
X162147500Y-89937258D01*
G04 #@! TO.C,C3*
X162234420Y-81840000D02*
X162515580Y-81840000D01*
X162234420Y-82860000D02*
X162515580Y-82860000D01*
G04 #@! TO.C,J1*
X118940000Y-83080000D02*
X144340000Y-83080000D01*
X144340000Y-99280000D01*
X118940000Y-99280000D01*
X118940000Y-83080000D01*
D16*
G04 #@! TO.C,G\u002A\u002A\u002A*
G36*
X176580313Y-98040143D02*
G01*
X176597580Y-98069411D01*
X176629813Y-98124633D01*
X176674810Y-98202013D01*
X176730367Y-98297757D01*
X176794282Y-98408069D01*
X176864354Y-98529153D01*
X176936798Y-98654477D01*
X177255002Y-99205257D01*
X177373027Y-99210394D01*
X177434052Y-99211106D01*
X177481094Y-99208053D01*
X177504074Y-99201896D01*
X177504162Y-99201807D01*
X177501409Y-99182301D01*
X177483809Y-99140112D01*
X177454409Y-99081875D01*
X177424289Y-99027928D01*
X177386145Y-98960111D01*
X177355580Y-98901741D01*
X177336245Y-98860043D01*
X177331764Y-98845368D01*
X177411450Y-98845368D01*
X177419728Y-98866931D01*
X177442178Y-98911138D01*
X177475222Y-98971228D01*
X177509329Y-99030358D01*
X177607209Y-99196670D01*
X178485898Y-99196670D01*
X178461164Y-99158029D01*
X178446825Y-99134102D01*
X178417664Y-99084220D01*
X178375912Y-99012241D01*
X178323801Y-98922024D01*
X178263560Y-98817429D01*
X178197420Y-98702315D01*
X178155909Y-98629935D01*
X178087630Y-98511197D01*
X178024093Y-98401459D01*
X177967479Y-98304430D01*
X177919970Y-98223820D01*
X177883747Y-98163338D01*
X177860992Y-98126694D01*
X177854606Y-98117575D01*
X177844935Y-98115498D01*
X177829573Y-98127559D01*
X177806632Y-98156550D01*
X177774226Y-98205263D01*
X177730467Y-98276488D01*
X177673467Y-98373018D01*
X177622636Y-98460679D01*
X177564233Y-98562630D01*
X177512023Y-98655171D01*
X177468353Y-98734027D01*
X177435569Y-98794924D01*
X177416018Y-98833589D01*
X177411450Y-98845368D01*
X177331764Y-98845368D01*
X177331305Y-98843863D01*
X177339609Y-98823296D01*
X177363059Y-98777089D01*
X177399464Y-98709251D01*
X177446633Y-98623793D01*
X177502377Y-98524725D01*
X177564502Y-98416057D01*
X177574544Y-98398643D01*
X177817783Y-97977332D01*
X178145572Y-97977357D01*
X178473361Y-97977381D01*
X178630283Y-98247843D01*
X178786959Y-98518096D01*
X178926281Y-98758868D01*
X179048317Y-98970280D01*
X179153136Y-99152451D01*
X179240806Y-99305502D01*
X179311397Y-99429552D01*
X179364976Y-99524722D01*
X179401613Y-99591132D01*
X179421375Y-99628901D01*
X179425207Y-99638353D01*
X179416312Y-99657808D01*
X179393304Y-99699813D01*
X179359971Y-99757607D01*
X179331022Y-99806338D01*
X179289635Y-99875917D01*
X179236698Y-99965962D01*
X179177684Y-100067107D01*
X179118067Y-100169987D01*
X179087767Y-100222588D01*
X178937398Y-100484273D01*
X178891480Y-100484435D01*
X177657780Y-100488781D01*
X177450996Y-100489443D01*
X177254117Y-100489944D01*
X177069855Y-100490286D01*
X176900919Y-100490468D01*
X176750024Y-100490493D01*
X176619878Y-100490361D01*
X176513195Y-100490074D01*
X176432685Y-100489632D01*
X176381060Y-100489037D01*
X176373826Y-100488767D01*
X176361032Y-100488289D01*
X176360988Y-100488277D01*
X176349133Y-100472784D01*
X176322298Y-100430684D01*
X176306904Y-100405460D01*
X176455443Y-100405460D01*
X176472162Y-100407201D01*
X176520498Y-100408853D01*
X176597721Y-100410392D01*
X176701101Y-100411793D01*
X176827908Y-100413034D01*
X176975412Y-100414090D01*
X177140882Y-100414939D01*
X177321588Y-100415556D01*
X177514801Y-100415917D01*
X177673462Y-100416007D01*
X178891480Y-100416007D01*
X179098579Y-100059651D01*
X179156482Y-99959523D01*
X179208168Y-99869198D01*
X179251255Y-99792919D01*
X179283358Y-99734929D01*
X179302094Y-99699472D01*
X179305983Y-99690415D01*
X179289316Y-99688288D01*
X179241031Y-99686271D01*
X179163859Y-99684392D01*
X179060529Y-99682680D01*
X178933772Y-99681165D01*
X178786316Y-99679874D01*
X178620894Y-99678838D01*
X178485898Y-99678275D01*
X178440233Y-99678085D01*
X178247065Y-99677644D01*
X178088898Y-99677535D01*
X176871507Y-99677535D01*
X176663475Y-100036224D01*
X176605523Y-100136564D01*
X176553785Y-100226949D01*
X176510624Y-100303182D01*
X176478406Y-100361065D01*
X176459496Y-100396402D01*
X176455443Y-100405460D01*
X176306904Y-100405460D01*
X176282383Y-100365279D01*
X176231293Y-100279873D01*
X176170930Y-100177771D01*
X176103197Y-100062275D01*
X176029997Y-99936688D01*
X175953233Y-99804315D01*
X175874807Y-99668458D01*
X175796624Y-99532422D01*
X175720584Y-99399509D01*
X175648593Y-99273023D01*
X175582551Y-99156267D01*
X175524363Y-99052545D01*
X175475932Y-98965161D01*
X175439159Y-98897418D01*
X175415948Y-98852619D01*
X175409070Y-98836304D01*
X175478364Y-98836304D01*
X175919676Y-99600189D01*
X176005212Y-99747750D01*
X176085774Y-99885772D01*
X176159708Y-100011489D01*
X176225363Y-100122136D01*
X176281083Y-100214946D01*
X176325217Y-100287153D01*
X176356110Y-100335991D01*
X176372110Y-100358696D01*
X176373826Y-100359986D01*
X176388132Y-100343585D01*
X176415798Y-100302018D01*
X176453931Y-100240378D01*
X176499639Y-100163760D01*
X176550029Y-100077258D01*
X176602208Y-99985964D01*
X176653284Y-99894972D01*
X176700365Y-99809375D01*
X176740558Y-99734268D01*
X176770971Y-99674744D01*
X176788710Y-99635895D01*
X176792012Y-99623594D01*
X176782435Y-99603585D01*
X176757246Y-99556826D01*
X176718108Y-99486254D01*
X176666682Y-99394808D01*
X176604630Y-99285425D01*
X176533614Y-99161045D01*
X176455295Y-99024603D01*
X176371336Y-98879040D01*
X176351975Y-98845570D01*
X176267182Y-98699774D01*
X176187336Y-98563867D01*
X176114106Y-98440593D01*
X176049161Y-98332697D01*
X175994170Y-98242924D01*
X175950803Y-98174019D01*
X175920729Y-98128726D01*
X175905617Y-98109791D01*
X175904350Y-98109518D01*
X175892235Y-98127713D01*
X175865550Y-98171401D01*
X175826839Y-98236295D01*
X175778648Y-98318108D01*
X175723521Y-98412554D01*
X175684527Y-98479807D01*
X175478364Y-98836304D01*
X175409070Y-98836304D01*
X175408191Y-98834218D01*
X175416590Y-98813579D01*
X175440118Y-98767356D01*
X175476553Y-98699610D01*
X175523676Y-98614401D01*
X175579265Y-98515788D01*
X175641101Y-98407832D01*
X175646727Y-98398090D01*
X175884916Y-97985919D01*
X176213474Y-97981254D01*
X176542031Y-97976588D01*
X176580313Y-98040143D01*
G37*
G36*
X178592809Y-91694502D02*
G01*
X178712258Y-91903146D01*
X178665798Y-91986361D01*
X178640074Y-92035188D01*
X178623202Y-92072492D01*
X178619338Y-92085920D01*
X178634975Y-92095146D01*
X178675749Y-92103002D01*
X178726392Y-92107378D01*
X178833447Y-92112491D01*
X178948911Y-92309990D01*
X178991642Y-92383854D01*
X179027341Y-92447033D01*
X179052758Y-92493665D01*
X179064640Y-92517883D01*
X179065115Y-92519612D01*
X179057422Y-92539836D01*
X179036731Y-92579784D01*
X179014334Y-92619117D01*
X178986812Y-92666875D01*
X178968118Y-92701378D01*
X178962813Y-92713431D01*
X178978416Y-92716760D01*
X179018986Y-92718437D01*
X179066264Y-92718235D01*
X179123969Y-92719574D01*
X179167842Y-92725222D01*
X179185415Y-92732013D01*
X179200837Y-92753539D01*
X179228040Y-92796931D01*
X179263154Y-92855462D01*
X179302308Y-92922403D01*
X179341632Y-92991027D01*
X179377257Y-93054606D01*
X179405312Y-93106412D01*
X179421927Y-93139716D01*
X179424784Y-93148138D01*
X179415970Y-93165536D01*
X179391978Y-93208580D01*
X179355069Y-93273326D01*
X179307507Y-93355832D01*
X179251555Y-93452152D01*
X179189475Y-93558344D01*
X179186349Y-93563674D01*
X179123134Y-93671011D01*
X179064823Y-93769186D01*
X179013880Y-93854115D01*
X178972771Y-93921713D01*
X178943962Y-93967896D01*
X178929918Y-93988580D01*
X178929786Y-93988725D01*
X178918934Y-93992941D01*
X178893415Y-93996608D01*
X178851300Y-93999759D01*
X178790659Y-94002424D01*
X178709562Y-94004637D01*
X178606081Y-94006428D01*
X178478285Y-94007831D01*
X178324246Y-94008876D01*
X178142034Y-94009596D01*
X177929719Y-94010023D01*
X177685372Y-94010188D01*
X177632570Y-94010192D01*
X176436728Y-94010192D01*
X176372719Y-94010192D01*
X176355202Y-94010192D01*
X176321835Y-93954378D01*
X176314574Y-93942120D01*
X176436728Y-93942120D01*
X177660315Y-93937515D01*
X178883903Y-93932910D01*
X178993929Y-93743999D01*
X179049049Y-93649507D01*
X179110510Y-93544380D01*
X179169580Y-93443544D01*
X179204921Y-93383350D01*
X179244761Y-93314563D01*
X179277225Y-93256564D01*
X179298821Y-93215730D01*
X179306088Y-93198732D01*
X179289403Y-93196605D01*
X179241101Y-93194588D01*
X179163910Y-93192709D01*
X179060561Y-93190997D01*
X178933784Y-93189482D01*
X178876444Y-93188980D01*
X178786308Y-93188192D01*
X178620863Y-93187156D01*
X178440179Y-93186403D01*
X178246985Y-93185961D01*
X178088436Y-93185852D01*
X176870583Y-93185852D01*
X176803438Y-93301775D01*
X176717562Y-93450064D01*
X176647290Y-93571482D01*
X176590988Y-93668864D01*
X176547023Y-93745050D01*
X176513762Y-93802875D01*
X176489571Y-93845177D01*
X176472819Y-93874794D01*
X176461870Y-93894562D01*
X176457254Y-93903168D01*
X176436728Y-93942120D01*
X176314574Y-93942120D01*
X176274484Y-93874437D01*
X176217127Y-93776400D01*
X176151640Y-93663573D01*
X176079903Y-93539263D01*
X176003793Y-93406778D01*
X175925188Y-93269423D01*
X175845966Y-93130506D01*
X175768006Y-92993335D01*
X175693184Y-92861215D01*
X175623380Y-92737455D01*
X175560470Y-92625361D01*
X175506334Y-92528240D01*
X175462849Y-92449399D01*
X175431893Y-92392146D01*
X175415345Y-92359786D01*
X175413079Y-92354125D01*
X175415234Y-92345868D01*
X175477046Y-92345868D01*
X175816832Y-92933304D01*
X175896545Y-93071144D01*
X175975022Y-93206901D01*
X176049627Y-93336010D01*
X176117724Y-93453907D01*
X176176675Y-93556027D01*
X176223845Y-93637806D01*
X176256597Y-93694678D01*
X176257961Y-93697052D01*
X176298441Y-93765266D01*
X176333592Y-93820403D01*
X176359627Y-93856794D01*
X176372719Y-93868789D01*
X176384519Y-93853418D01*
X176410404Y-93813212D01*
X176447434Y-93753171D01*
X176492672Y-93678293D01*
X176543180Y-93593577D01*
X176596020Y-93504022D01*
X176648253Y-93414626D01*
X176696941Y-93330388D01*
X176739147Y-93256306D01*
X176771931Y-93197380D01*
X176792356Y-93158608D01*
X176797817Y-93145575D01*
X176789680Y-93128315D01*
X176765905Y-93084198D01*
X176728099Y-93016066D01*
X176677874Y-92926764D01*
X176616837Y-92819138D01*
X176546598Y-92696031D01*
X176472956Y-92567596D01*
X177174544Y-92567596D01*
X177213153Y-92636291D01*
X177251761Y-92704986D01*
X178876444Y-92704986D01*
X178918618Y-92640585D01*
X178944155Y-92601034D01*
X178959713Y-92575874D01*
X178961803Y-92571889D01*
X178945358Y-92571065D01*
X178897748Y-92570293D01*
X178822153Y-92569588D01*
X178721756Y-92568966D01*
X178599739Y-92568442D01*
X178526718Y-92568228D01*
X178459282Y-92568030D01*
X178303568Y-92567747D01*
X178135779Y-92567608D01*
X178068678Y-92567596D01*
X177174544Y-92567596D01*
X176472956Y-92567596D01*
X176468766Y-92560288D01*
X176384951Y-92414754D01*
X176357883Y-92367886D01*
X176255377Y-92190952D01*
X176168510Y-92042066D01*
X176113805Y-91949340D01*
X176815067Y-91949340D01*
X176854221Y-92017903D01*
X176893374Y-92086466D01*
X177710046Y-92086598D01*
X178526718Y-92086731D01*
X178564046Y-92022329D01*
X178586865Y-91982209D01*
X178600298Y-91957139D01*
X178601770Y-91953634D01*
X178585204Y-91952810D01*
X178537477Y-91952037D01*
X178461774Y-91951332D01*
X178361281Y-91950710D01*
X178239182Y-91950185D01*
X178098665Y-91949774D01*
X177942914Y-91949491D01*
X177775115Y-91949352D01*
X177708615Y-91949340D01*
X176815067Y-91949340D01*
X176113805Y-91949340D01*
X176096098Y-91919326D01*
X176036960Y-91820833D01*
X175989915Y-91744687D01*
X175953778Y-91688986D01*
X175927369Y-91651832D01*
X175909505Y-91631324D01*
X175899005Y-91625562D01*
X175896776Y-91626756D01*
X175882791Y-91647462D01*
X175854496Y-91693534D01*
X175814558Y-91760479D01*
X175765641Y-91843805D01*
X175710413Y-91939019D01*
X175676875Y-91997334D01*
X175477046Y-92345868D01*
X175415234Y-92345868D01*
X175419934Y-92327855D01*
X175443811Y-92274590D01*
X175483587Y-92196497D01*
X175538136Y-92095743D01*
X175606333Y-91974496D01*
X175645464Y-91906406D01*
X175883841Y-91494236D01*
X177178601Y-91490046D01*
X178473361Y-91485857D01*
X178592809Y-91694502D01*
G37*
G36*
X178473361Y-94731855D02*
G01*
X178544612Y-94856183D01*
X178567892Y-94896676D01*
X178606271Y-94963280D01*
X178657659Y-95052371D01*
X178719963Y-95160325D01*
X178791091Y-95283517D01*
X178868951Y-95418325D01*
X178951452Y-95561123D01*
X179021184Y-95681788D01*
X179102871Y-95823417D01*
X179178981Y-95955950D01*
X179247839Y-96076431D01*
X179307773Y-96181902D01*
X179357106Y-96269408D01*
X179394165Y-96335990D01*
X179417275Y-96378692D01*
X179424780Y-96394499D01*
X179415934Y-96411735D01*
X179391847Y-96454592D01*
X179354789Y-96519140D01*
X179307031Y-96601450D01*
X179250841Y-96697594D01*
X179188490Y-96803642D01*
X179185027Y-96809516D01*
X179122253Y-96916107D01*
X179065321Y-97013082D01*
X179016534Y-97096490D01*
X178978199Y-97162379D01*
X178952620Y-97206799D01*
X178942104Y-97225798D01*
X178942016Y-97226007D01*
X178924745Y-97227638D01*
X178889587Y-97228790D01*
X178876359Y-97229223D01*
X178800091Y-97230751D01*
X178699174Y-97232211D01*
X178576842Y-97233592D01*
X178436326Y-97234882D01*
X178280860Y-97236070D01*
X178113677Y-97237143D01*
X177938010Y-97238092D01*
X177757091Y-97238904D01*
X177574153Y-97239568D01*
X177392430Y-97240073D01*
X177215153Y-97240406D01*
X177045557Y-97240558D01*
X176886874Y-97240515D01*
X176742337Y-97240268D01*
X176615178Y-97239804D01*
X176508631Y-97239112D01*
X176425928Y-97238180D01*
X176370303Y-97236998D01*
X176369545Y-97236955D01*
X176344988Y-97235553D01*
X176343797Y-97235187D01*
X176331744Y-97216187D01*
X176304783Y-97170866D01*
X176289308Y-97144415D01*
X176461650Y-97144415D01*
X176462739Y-97149399D01*
X176471606Y-97153706D01*
X176490509Y-97157384D01*
X176521701Y-97160482D01*
X176567440Y-97163047D01*
X176629981Y-97165127D01*
X176711581Y-97166772D01*
X176814493Y-97168028D01*
X176940976Y-97168943D01*
X177093284Y-97169566D01*
X177273674Y-97169945D01*
X177484401Y-97170128D01*
X177670678Y-97170165D01*
X178889587Y-97170165D01*
X179065786Y-96865331D01*
X179121235Y-96769575D01*
X179172763Y-96680913D01*
X179217188Y-96604793D01*
X179251330Y-96546665D01*
X179272007Y-96511977D01*
X179273847Y-96508975D01*
X179295283Y-96471091D01*
X179305794Y-96446208D01*
X179305999Y-96444574D01*
X179289329Y-96442447D01*
X179241041Y-96440430D01*
X179163864Y-96438551D01*
X179060528Y-96436840D01*
X178933762Y-96435324D01*
X178786295Y-96434034D01*
X178620857Y-96432998D01*
X178480186Y-96432412D01*
X178440178Y-96432245D01*
X178246985Y-96431803D01*
X178088336Y-96431693D01*
X177398369Y-96431693D01*
X176870384Y-96431693D01*
X176670957Y-96775179D01*
X176613556Y-96874411D01*
X176561757Y-96964653D01*
X176518138Y-97041358D01*
X176485277Y-97099975D01*
X176465754Y-97135959D01*
X176461650Y-97144415D01*
X176289308Y-97144415D01*
X176264834Y-97102583D01*
X176213817Y-97014697D01*
X176153654Y-96910566D01*
X176086265Y-96793552D01*
X176013572Y-96667012D01*
X175937495Y-96534305D01*
X175859955Y-96398791D01*
X175782872Y-96263829D01*
X175708168Y-96132778D01*
X175637764Y-96008997D01*
X175573580Y-95895845D01*
X175517538Y-95796682D01*
X175471557Y-95714866D01*
X175437560Y-95653756D01*
X175417466Y-95616713D01*
X175412708Y-95606925D01*
X175414703Y-95587859D01*
X175476595Y-95587859D01*
X175918122Y-96353251D01*
X176003599Y-96501104D01*
X176084002Y-96639554D01*
X176157690Y-96765822D01*
X176223022Y-96877124D01*
X176278359Y-96970679D01*
X176322058Y-97043706D01*
X176352480Y-97093423D01*
X176367984Y-97117048D01*
X176369545Y-97118644D01*
X176380533Y-97104555D01*
X176405668Y-97065572D01*
X176442055Y-97006619D01*
X176486796Y-96932623D01*
X176536994Y-96848508D01*
X176589752Y-96759199D01*
X176642173Y-96669623D01*
X176691359Y-96584703D01*
X176734415Y-96509367D01*
X176768442Y-96448537D01*
X176790544Y-96407141D01*
X176797853Y-96390480D01*
X176789722Y-96373005D01*
X176765986Y-96328695D01*
X176728267Y-96260431D01*
X176678189Y-96171091D01*
X176617375Y-96063555D01*
X176547448Y-95940702D01*
X176470033Y-95805412D01*
X176386752Y-95660564D01*
X176366967Y-95626247D01*
X176282235Y-95479515D01*
X176202506Y-95341729D01*
X176129457Y-95215771D01*
X176117485Y-95195182D01*
X176812142Y-95195182D01*
X176837117Y-95233823D01*
X176853032Y-95260105D01*
X176882982Y-95311071D01*
X176923975Y-95381572D01*
X176973021Y-95466462D01*
X177027129Y-95560591D01*
X177039165Y-95581592D01*
X177093894Y-95676428D01*
X177144306Y-95762459D01*
X177187416Y-95834699D01*
X177220242Y-95888160D01*
X177239800Y-95917855D01*
X177242086Y-95920774D01*
X177263842Y-95937054D01*
X177299583Y-95946354D01*
X177357346Y-95950206D01*
X177398369Y-95950565D01*
X177464248Y-95948661D01*
X177517950Y-95943878D01*
X177519032Y-95943646D01*
X177657607Y-95943646D01*
X177673997Y-95945650D01*
X177720037Y-95947438D01*
X177791027Y-95948929D01*
X177882270Y-95950041D01*
X177989067Y-95950691D01*
X178068896Y-95950828D01*
X178480186Y-95950828D01*
X178272582Y-95590092D01*
X178064977Y-95229356D01*
X177861292Y-95582910D01*
X177804155Y-95682377D01*
X177753208Y-95771623D01*
X177710818Y-95846456D01*
X177679351Y-95902684D01*
X177661174Y-95936117D01*
X177657607Y-95943646D01*
X177519032Y-95943646D01*
X177549123Y-95937191D01*
X177551113Y-95936151D01*
X177564734Y-95918555D01*
X177592430Y-95876227D01*
X177631193Y-95814235D01*
X177678019Y-95737645D01*
X177729900Y-95651527D01*
X177783831Y-95560947D01*
X177836806Y-95470972D01*
X177885817Y-95386670D01*
X177927859Y-95313110D01*
X177959926Y-95255357D01*
X177979012Y-95218481D01*
X177983035Y-95208063D01*
X177966729Y-95205030D01*
X177920004Y-95202251D01*
X177846789Y-95199813D01*
X177751013Y-95197803D01*
X177636604Y-95196306D01*
X177507491Y-95195409D01*
X177398025Y-95195182D01*
X176812142Y-95195182D01*
X176117485Y-95195182D01*
X176064770Y-95104526D01*
X176010123Y-95010875D01*
X175967197Y-94937702D01*
X175937670Y-94887888D01*
X175923223Y-94864317D01*
X175922226Y-94862930D01*
X175917091Y-94861362D01*
X175908577Y-94867570D01*
X175894993Y-94884248D01*
X175874649Y-94914092D01*
X175845852Y-94959796D01*
X175806913Y-95024055D01*
X175756140Y-95109564D01*
X175691843Y-95219017D01*
X175612329Y-95355109D01*
X175598604Y-95378640D01*
X175476595Y-95587859D01*
X175414703Y-95587859D01*
X175414748Y-95587425D01*
X175427876Y-95551801D01*
X175453125Y-95498123D01*
X175491525Y-95424458D01*
X175544110Y-95328874D01*
X175611912Y-95209440D01*
X175695962Y-95064223D01*
X175772601Y-94933282D01*
X175891145Y-94731491D01*
X178473361Y-94731855D01*
G37*
G36*
X177242751Y-82168444D02*
G01*
X177305659Y-82277969D01*
X177362501Y-82378403D01*
X177411086Y-82465756D01*
X177449223Y-82536040D01*
X177474723Y-82585264D01*
X177485394Y-82609440D01*
X177485581Y-82610668D01*
X177477143Y-82633451D01*
X177454441Y-82678833D01*
X177421025Y-82740049D01*
X177384001Y-82804310D01*
X177282710Y-82976048D01*
X177412715Y-82981111D01*
X177485347Y-82981337D01*
X177537643Y-82976192D01*
X177561513Y-82967381D01*
X177573979Y-82948804D01*
X177601615Y-82903729D01*
X177642482Y-82835443D01*
X177694640Y-82747230D01*
X177756149Y-82642375D01*
X177825070Y-82524166D01*
X177899463Y-82395885D01*
X177924452Y-82352649D01*
X178233885Y-81816818D01*
X178359785Y-81816818D01*
X178403589Y-81889807D01*
X178425701Y-81927253D01*
X178461482Y-81988553D01*
X178507492Y-82067779D01*
X178560287Y-82159002D01*
X178616427Y-82256295D01*
X178622956Y-82267630D01*
X178798520Y-82572464D01*
X179052404Y-82572464D01*
X179141360Y-82571779D01*
X179216704Y-82569892D01*
X179272456Y-82567056D01*
X179302637Y-82563525D01*
X179306288Y-82561708D01*
X179298088Y-82544444D01*
X179275036Y-82501602D01*
X179239454Y-82437352D01*
X179193665Y-82355861D01*
X179139994Y-82261297D01*
X179095910Y-82184209D01*
X178885531Y-81817466D01*
X178359785Y-81816818D01*
X178233885Y-81816818D01*
X178268596Y-81756710D01*
X178932226Y-81756710D01*
X179170431Y-82168881D01*
X179232739Y-82277594D01*
X179288989Y-82377460D01*
X179336955Y-82464392D01*
X179374414Y-82534301D01*
X179399141Y-82583098D01*
X179408914Y-82606696D01*
X179408983Y-82607405D01*
X179400764Y-82628628D01*
X179377381Y-82675447D01*
X179341029Y-82743817D01*
X179293901Y-82829694D01*
X179238190Y-82929033D01*
X179176090Y-83037791D01*
X179166790Y-83053923D01*
X179087585Y-83191130D01*
X179052404Y-83252072D01*
X178999174Y-83344279D01*
X178907408Y-83503235D01*
X178818138Y-83657865D01*
X178737214Y-83798033D01*
X178701151Y-83860497D01*
X178640256Y-83965183D01*
X178584190Y-84060078D01*
X178535444Y-84141085D01*
X178496510Y-84204106D01*
X178469879Y-84245042D01*
X178458533Y-84259586D01*
X178438594Y-84261582D01*
X178387027Y-84263373D01*
X178306555Y-84264941D01*
X178199898Y-84266269D01*
X178069777Y-84267338D01*
X178056603Y-84267407D01*
X177918912Y-84268131D01*
X177750024Y-84268629D01*
X177565834Y-84268814D01*
X177400000Y-84268692D01*
X177369062Y-84268669D01*
X177162429Y-84268175D01*
X177161781Y-84268173D01*
X175909442Y-84264160D01*
X175884549Y-84264080D01*
X175820683Y-84152451D01*
X175792023Y-84102393D01*
X175750146Y-84029298D01*
X175698922Y-83939920D01*
X175642225Y-83841016D01*
X175583925Y-83739342D01*
X175579539Y-83731693D01*
X175526320Y-83638004D01*
X175479485Y-83553846D01*
X175441583Y-83483947D01*
X175415169Y-83433034D01*
X175402793Y-83405834D01*
X175402692Y-83405392D01*
X175485125Y-83405392D01*
X175493345Y-83426216D01*
X175516088Y-83470640D01*
X175550479Y-83533746D01*
X175593641Y-83610616D01*
X175642702Y-83696331D01*
X175694784Y-83785975D01*
X175747014Y-83874628D01*
X175796515Y-83957372D01*
X175840413Y-84029289D01*
X175875833Y-84085461D01*
X175899898Y-84120970D01*
X175909442Y-84131209D01*
X175920603Y-84115878D01*
X175946763Y-84074172D01*
X175985941Y-84009508D01*
X176036160Y-83925304D01*
X176095440Y-83824974D01*
X176109154Y-83801615D01*
X176816092Y-83801615D01*
X176832609Y-83803351D01*
X176879530Y-83804941D01*
X176952912Y-83806336D01*
X177048811Y-83807485D01*
X177163286Y-83808340D01*
X177292392Y-83808849D01*
X177400000Y-83808975D01*
X177537734Y-83808671D01*
X177663891Y-83807807D01*
X177774529Y-83806455D01*
X177865706Y-83804688D01*
X177933477Y-83802579D01*
X177973900Y-83800201D01*
X177983908Y-83798219D01*
X177975716Y-83780951D01*
X177952683Y-83738097D01*
X177917132Y-83673822D01*
X177871380Y-83592295D01*
X177817747Y-83497681D01*
X177773530Y-83420263D01*
X177563151Y-83053064D01*
X177238527Y-83061916D01*
X177126843Y-83255533D01*
X177027310Y-83428085D01*
X176969052Y-83529369D01*
X176916947Y-83620503D01*
X176873324Y-83697372D01*
X176840510Y-83755859D01*
X176820831Y-83791850D01*
X176816092Y-83801615D01*
X176109154Y-83801615D01*
X176161802Y-83711936D01*
X176233268Y-83589607D01*
X176307858Y-83461403D01*
X176383594Y-83330740D01*
X176458496Y-83201036D01*
X176530585Y-83075706D01*
X176564427Y-83016601D01*
X177634777Y-83016601D01*
X177634785Y-83016869D01*
X177644535Y-83036638D01*
X177668652Y-83080504D01*
X177704212Y-83143449D01*
X177748291Y-83220455D01*
X177797966Y-83306503D01*
X177850314Y-83396575D01*
X177902412Y-83485652D01*
X177951334Y-83568715D01*
X177994160Y-83640747D01*
X178027964Y-83696729D01*
X178049823Y-83731643D01*
X178056603Y-83740972D01*
X178068354Y-83728992D01*
X178094378Y-83690809D01*
X178132437Y-83630340D01*
X178180296Y-83551501D01*
X178235715Y-83458209D01*
X178296459Y-83354379D01*
X178360290Y-83243929D01*
X178424969Y-83130774D01*
X178488261Y-83018832D01*
X178547928Y-82912018D01*
X178601733Y-82814249D01*
X178647438Y-82729442D01*
X178682805Y-82661512D01*
X178705599Y-82614376D01*
X178713581Y-82591951D01*
X178713453Y-82591143D01*
X178702485Y-82569808D01*
X178676821Y-82523259D01*
X178639001Y-82455995D01*
X178591561Y-82372512D01*
X178537039Y-82277308D01*
X178502842Y-82217920D01*
X178445720Y-82119534D01*
X178394169Y-82031922D01*
X178350672Y-81959208D01*
X178317712Y-81905514D01*
X178297771Y-81874963D01*
X178293036Y-81869454D01*
X178282627Y-81883836D01*
X178257623Y-81924196D01*
X178220287Y-81986585D01*
X178172884Y-82067055D01*
X178117681Y-82161660D01*
X178056940Y-82266450D01*
X177992926Y-82377480D01*
X177927905Y-82490801D01*
X177864141Y-82602466D01*
X177803899Y-82708526D01*
X177749443Y-82805035D01*
X177703038Y-82888045D01*
X177666949Y-82953607D01*
X177643440Y-82997775D01*
X177634777Y-83016601D01*
X176564427Y-83016601D01*
X176597884Y-82958167D01*
X176658412Y-82851837D01*
X176710191Y-82760131D01*
X176751242Y-82686465D01*
X176779585Y-82634258D01*
X176793243Y-82606924D01*
X176794168Y-82603761D01*
X176784925Y-82586191D01*
X176761004Y-82543039D01*
X176724786Y-82478535D01*
X176678653Y-82396907D01*
X176624986Y-82302386D01*
X176584247Y-82230877D01*
X176526626Y-82130469D01*
X176474482Y-82040737D01*
X176430240Y-81965763D01*
X176396325Y-81909628D01*
X176375163Y-81876414D01*
X176369209Y-81868985D01*
X176358991Y-81883208D01*
X176333783Y-81923909D01*
X176295543Y-81987690D01*
X176246224Y-82071152D01*
X176187784Y-82170896D01*
X176122177Y-82283524D01*
X176051360Y-82405638D01*
X175977287Y-82533839D01*
X175901916Y-82664727D01*
X175827200Y-82794905D01*
X175755096Y-82920973D01*
X175687560Y-83039534D01*
X175626547Y-83147189D01*
X175574012Y-83240538D01*
X175531912Y-83316184D01*
X175502202Y-83370728D01*
X175486838Y-83400770D01*
X175485125Y-83405392D01*
X175402692Y-83405392D01*
X175402189Y-83403200D01*
X175410522Y-83385082D01*
X175434509Y-83340008D01*
X175472594Y-83270746D01*
X175523218Y-83180066D01*
X175584825Y-83070734D01*
X175655856Y-82945520D01*
X175734755Y-82807192D01*
X175819965Y-82658518D01*
X175872966Y-82566377D01*
X176299759Y-81825405D01*
X176439830Y-81825405D01*
X176655345Y-82198935D01*
X176870860Y-82572464D01*
X177126843Y-82572464D01*
X177216191Y-82571863D01*
X177291950Y-82570207D01*
X177348167Y-82567717D01*
X177378886Y-82564615D01*
X177382827Y-82562953D01*
X177374606Y-82546006D01*
X177351539Y-82503620D01*
X177316023Y-82440061D01*
X177270454Y-82359596D01*
X177217226Y-82266492D01*
X177182758Y-82206597D01*
X177124953Y-82106911D01*
X177071962Y-82016526D01*
X177026467Y-81939934D01*
X176991150Y-81881631D01*
X176968692Y-81846108D01*
X176962702Y-81837808D01*
X176944292Y-81828714D01*
X176906006Y-81822837D01*
X176843783Y-81819920D01*
X176753562Y-81819707D01*
X176691272Y-81820634D01*
X176439830Y-81825405D01*
X176299759Y-81825405D01*
X176343814Y-81748919D01*
X176671723Y-81748521D01*
X176999633Y-81748123D01*
X177242751Y-82168444D01*
G37*
G36*
X177076490Y-88368400D02*
G01*
X177110902Y-88426199D01*
X177139050Y-88470505D01*
X177156524Y-88494496D01*
X177159568Y-88496877D01*
X177171249Y-88482887D01*
X177194848Y-88445743D01*
X177225953Y-88392508D01*
X177237135Y-88372577D01*
X177272727Y-88308502D01*
X177402173Y-88308502D01*
X177583321Y-88621923D01*
X177639956Y-88719947D01*
X177693009Y-88811833D01*
X177739248Y-88891980D01*
X177775441Y-88954785D01*
X177798356Y-88994645D01*
X177801200Y-88999614D01*
X177837931Y-89063883D01*
X178579768Y-89064015D01*
X179321605Y-89064148D01*
X179104930Y-88686325D01*
X178888254Y-88308502D01*
X177402173Y-88308502D01*
X177272727Y-88308502D01*
X177306115Y-88248394D01*
X178935481Y-88248394D01*
X179180086Y-88669151D01*
X179243160Y-88777939D01*
X179300205Y-88876884D01*
X179349039Y-88962157D01*
X179387478Y-89029928D01*
X179413342Y-89076367D01*
X179424448Y-89097644D01*
X179424712Y-89098495D01*
X179416488Y-89115382D01*
X179393639Y-89157013D01*
X179358918Y-89218506D01*
X179321605Y-89283596D01*
X179315078Y-89294982D01*
X179269700Y-89373276D01*
X179222865Y-89453859D01*
X179162310Y-89558305D01*
X179091452Y-89680706D01*
X179013707Y-89815156D01*
X178932490Y-89955749D01*
X178851217Y-90096580D01*
X178804890Y-90176927D01*
X178732806Y-90301488D01*
X178665266Y-90417239D01*
X178604374Y-90520643D01*
X178552237Y-90608163D01*
X178510961Y-90676263D01*
X178482652Y-90721407D01*
X178469748Y-90739749D01*
X178454908Y-90748970D01*
X178428601Y-90755480D01*
X178386132Y-90759566D01*
X178322804Y-90761517D01*
X178233921Y-90761620D01*
X178132571Y-90760438D01*
X177849301Y-90756192D01*
X177820758Y-90755764D01*
X177740473Y-90621863D01*
X177660187Y-90487962D01*
X177596992Y-90600966D01*
X177562776Y-90659586D01*
X177531678Y-90708441D01*
X177509958Y-90737746D01*
X177508606Y-90739160D01*
X177498394Y-90745200D01*
X177479005Y-90750215D01*
X177447565Y-90754293D01*
X177401202Y-90757524D01*
X177337041Y-90759996D01*
X177252211Y-90761798D01*
X177143836Y-90763016D01*
X177107737Y-90763210D01*
X177009045Y-90763742D01*
X176927722Y-90763900D01*
X176844964Y-90764061D01*
X176698943Y-90764088D01*
X176537716Y-90763765D01*
X176386877Y-90762946D01*
X176249932Y-90761688D01*
X176130388Y-90760045D01*
X176031751Y-90758075D01*
X175957528Y-90755833D01*
X175919534Y-90753818D01*
X175911226Y-90753377D01*
X175896501Y-90751207D01*
X175882205Y-90732451D01*
X175854162Y-90688493D01*
X175815068Y-90624064D01*
X175767617Y-90543889D01*
X175714507Y-90452699D01*
X175658433Y-90355220D01*
X175602091Y-90256182D01*
X175548178Y-90160312D01*
X175499389Y-90072339D01*
X175458420Y-89996991D01*
X175427967Y-89938995D01*
X175410727Y-89903081D01*
X175408461Y-89896108D01*
X175488093Y-89896108D01*
X175496386Y-89915443D01*
X175519644Y-89960181D01*
X175555520Y-90026062D01*
X175601670Y-90108822D01*
X175655747Y-90204198D01*
X175699739Y-90280822D01*
X175766474Y-90395804D01*
X175818524Y-90483654D01*
X175857871Y-90547270D01*
X175886499Y-90589550D01*
X175906392Y-90613394D01*
X175919534Y-90621700D01*
X175927909Y-90617366D01*
X175928930Y-90615711D01*
X175940804Y-90594920D01*
X175968131Y-90547373D01*
X176009186Y-90476062D01*
X176042691Y-90417913D01*
X177706550Y-90417913D01*
X177771581Y-90530982D01*
X177809108Y-90591061D01*
X177835479Y-90621791D01*
X177849301Y-90622625D01*
X177869645Y-90587968D01*
X177903085Y-90530639D01*
X177947301Y-90454643D01*
X177999973Y-90363986D01*
X178058779Y-90262674D01*
X178121398Y-90154713D01*
X178185509Y-90044106D01*
X178248792Y-89934860D01*
X178308926Y-89830981D01*
X178363589Y-89736474D01*
X178410461Y-89655343D01*
X178447221Y-89591596D01*
X178471548Y-89549236D01*
X178481121Y-89532270D01*
X178481179Y-89532133D01*
X178465764Y-89530165D01*
X178424198Y-89528799D01*
X178364677Y-89528271D01*
X178348851Y-89528294D01*
X178215754Y-89528749D01*
X178111760Y-89712912D01*
X178065721Y-89794043D01*
X178008428Y-89894399D01*
X177945879Y-90003506D01*
X177884074Y-90110891D01*
X177857158Y-90157494D01*
X177706550Y-90417913D01*
X176042691Y-90417913D01*
X176062245Y-90383976D01*
X176124304Y-90276330D01*
X176836697Y-90276330D01*
X176850751Y-90293907D01*
X176891228Y-90300069D01*
X176927722Y-90300659D01*
X176979393Y-90298542D01*
X177013578Y-90293082D01*
X177021885Y-90287779D01*
X177013632Y-90266983D01*
X176992650Y-90226845D01*
X176972324Y-90191213D01*
X176923056Y-90107527D01*
X176878161Y-90184135D01*
X176846642Y-90241639D01*
X176836697Y-90276330D01*
X176124304Y-90276330D01*
X176125587Y-90274104D01*
X176197486Y-90149436D01*
X176269718Y-90024234D01*
X176968836Y-90024234D01*
X177033431Y-90136544D01*
X177065454Y-90188326D01*
X177091833Y-90223870D01*
X177107737Y-90236834D01*
X177109275Y-90236116D01*
X177120743Y-90218091D01*
X177146661Y-90174561D01*
X177184746Y-90109505D01*
X177232719Y-90026907D01*
X177288297Y-89930747D01*
X177349199Y-89825007D01*
X177413145Y-89713668D01*
X177477852Y-89600713D01*
X177541041Y-89490122D01*
X177600428Y-89385878D01*
X177653733Y-89291962D01*
X177698676Y-89212356D01*
X177732973Y-89151041D01*
X177754345Y-89111998D01*
X177760649Y-89099241D01*
X177752444Y-89082391D01*
X177729380Y-89039959D01*
X177693786Y-88976100D01*
X177647992Y-88894970D01*
X177594326Y-88800726D01*
X177550913Y-88724981D01*
X177492612Y-88624161D01*
X177439793Y-88534017D01*
X177394880Y-88458591D01*
X177360299Y-88401923D01*
X177338474Y-88368055D01*
X177331947Y-88360046D01*
X177319923Y-88374025D01*
X177296780Y-88410866D01*
X177267258Y-88462964D01*
X177263615Y-88469690D01*
X177204511Y-88579310D01*
X177354538Y-88839439D01*
X177504564Y-89099568D01*
X177129164Y-89747508D01*
X176968836Y-90024234D01*
X176269718Y-90024234D01*
X176276220Y-90012964D01*
X176360066Y-89867676D01*
X176372749Y-89845703D01*
X176456533Y-89700411D01*
X176534860Y-89564315D01*
X176606095Y-89440274D01*
X176668601Y-89331150D01*
X176720745Y-89239802D01*
X176760890Y-89169091D01*
X176787401Y-89121877D01*
X176798643Y-89101021D01*
X176798919Y-89100288D01*
X176790724Y-89084064D01*
X176767689Y-89042205D01*
X176732132Y-88978829D01*
X176686373Y-88898055D01*
X176632734Y-88803999D01*
X176588540Y-88726892D01*
X176530191Y-88625884D01*
X176477364Y-88535550D01*
X176432468Y-88459922D01*
X176397916Y-88403034D01*
X176376118Y-88368917D01*
X176369574Y-88360697D01*
X176359284Y-88375104D01*
X176334033Y-88415998D01*
X176295777Y-88479973D01*
X176246471Y-88563623D01*
X176188071Y-88663543D01*
X176122532Y-88776327D01*
X176051808Y-88898568D01*
X175977856Y-89026860D01*
X175902632Y-89157799D01*
X175828089Y-89287977D01*
X175756184Y-89413989D01*
X175688872Y-89532429D01*
X175628109Y-89639891D01*
X175575849Y-89732969D01*
X175534048Y-89808257D01*
X175504662Y-89862349D01*
X175489645Y-89891839D01*
X175488093Y-89896108D01*
X175408461Y-89896108D01*
X175407844Y-89894209D01*
X175416220Y-89874917D01*
X175440287Y-89828790D01*
X175478448Y-89758677D01*
X175529108Y-89667424D01*
X175590673Y-89557878D01*
X175661547Y-89432887D01*
X175740134Y-89295298D01*
X175824839Y-89147958D01*
X175862525Y-89082696D01*
X175949644Y-88931851D01*
X176031690Y-88789453D01*
X176107023Y-88658368D01*
X176174006Y-88541463D01*
X176231000Y-88441604D01*
X176276368Y-88361657D01*
X176306219Y-88308502D01*
X176437575Y-88308502D01*
X176485150Y-88390602D01*
X176508790Y-88431395D01*
X176546021Y-88495638D01*
X176593209Y-88577062D01*
X176646723Y-88669400D01*
X176702929Y-88766382D01*
X176704113Y-88768425D01*
X176875501Y-89064148D01*
X177129164Y-89064148D01*
X177218079Y-89063653D01*
X177293380Y-89062291D01*
X177349083Y-89060244D01*
X177379206Y-89057696D01*
X177382827Y-89056390D01*
X177374705Y-89039500D01*
X177352439Y-88998585D01*
X177319173Y-88939301D01*
X177278053Y-88867302D01*
X177265779Y-88846012D01*
X177211212Y-88751058D01*
X177152133Y-88647452D01*
X177096114Y-88548511D01*
X177055401Y-88475951D01*
X176962069Y-88308511D01*
X176699822Y-88308507D01*
X176437575Y-88308502D01*
X176306219Y-88308502D01*
X176308471Y-88304491D01*
X176325670Y-88272971D01*
X176328054Y-88268075D01*
X176335282Y-88258209D01*
X176351338Y-88250911D01*
X176380761Y-88245807D01*
X176428088Y-88242522D01*
X176497857Y-88240682D01*
X176594609Y-88239911D01*
X176670451Y-88239807D01*
X177002000Y-88239807D01*
X177076490Y-88368400D01*
G37*
G36*
X178604943Y-84997889D02*
G01*
X178933140Y-85002552D01*
X179171236Y-85413184D01*
X179233622Y-85522158D01*
X179289760Y-85622866D01*
X179337426Y-85711107D01*
X179374398Y-85782678D01*
X179398455Y-85833376D01*
X179407373Y-85859000D01*
X179407376Y-85859702D01*
X179398297Y-85886657D01*
X179374611Y-85936840D01*
X179339476Y-86004082D01*
X179322313Y-86034958D01*
X179296046Y-86082212D01*
X179274279Y-86119893D01*
X179223313Y-86207309D01*
X179160596Y-86315256D01*
X179091490Y-86434485D01*
X179021356Y-86555745D01*
X178955747Y-86669453D01*
X178848231Y-86855857D01*
X178756546Y-87014315D01*
X178679553Y-87146744D01*
X178616110Y-87255059D01*
X178565079Y-87341178D01*
X178525320Y-87407017D01*
X178495692Y-87454491D01*
X178475057Y-87485518D01*
X178462273Y-87502014D01*
X178458542Y-87505365D01*
X178438584Y-87507416D01*
X178387016Y-87509364D01*
X178306576Y-87511180D01*
X178200001Y-87512840D01*
X178073895Y-87514271D01*
X178070028Y-87514315D01*
X177919395Y-87515579D01*
X177776941Y-87516445D01*
X177750839Y-87516604D01*
X177567099Y-87517365D01*
X177370910Y-87517833D01*
X177176741Y-87517983D01*
X177102651Y-87517922D01*
X176971363Y-87517815D01*
X176919135Y-87517685D01*
X176775885Y-87517330D01*
X176593040Y-87516554D01*
X176425561Y-87515515D01*
X176276181Y-87514239D01*
X176147633Y-87512753D01*
X176042650Y-87511084D01*
X175963964Y-87509260D01*
X175914309Y-87507307D01*
X175909724Y-87506806D01*
X175896529Y-87505365D01*
X175877535Y-87483701D01*
X175850579Y-87443797D01*
X175838684Y-87424053D01*
X175731952Y-87239901D01*
X175641992Y-87083751D01*
X175567973Y-86954109D01*
X175509064Y-86849484D01*
X175464434Y-86768382D01*
X175433251Y-86709312D01*
X175417538Y-86676700D01*
X175494686Y-86676700D01*
X175496916Y-86683848D01*
X175510743Y-86708742D01*
X175539082Y-86758577D01*
X175579200Y-86828590D01*
X175628364Y-86914017D01*
X175683841Y-87010093D01*
X175712743Y-87060033D01*
X175909724Y-87400137D01*
X176113761Y-87045626D01*
X176816092Y-87045626D01*
X176831699Y-87050474D01*
X176872262Y-87053805D01*
X176919135Y-87054817D01*
X177776941Y-87054817D01*
X177880425Y-87054817D01*
X177934846Y-87052876D01*
X177972219Y-87047828D01*
X177983616Y-87041937D01*
X177975365Y-87021104D01*
X177954415Y-86981025D01*
X177934713Y-86946498D01*
X177886104Y-86863940D01*
X177860271Y-86903564D01*
X177833996Y-86947219D01*
X177806357Y-86997708D01*
X177805689Y-86999002D01*
X177776941Y-87054817D01*
X176919135Y-87054817D01*
X176973425Y-87052868D01*
X177010646Y-87047801D01*
X177021885Y-87041937D01*
X177013632Y-87021146D01*
X176992646Y-86981000D01*
X176972238Y-86945224D01*
X176922885Y-86861391D01*
X176892436Y-86910876D01*
X176854345Y-86973175D01*
X176831170Y-87012330D01*
X176819548Y-87034279D01*
X176816115Y-87044959D01*
X176816092Y-87045626D01*
X176113761Y-87045626D01*
X176125238Y-87025685D01*
X176199627Y-86896555D01*
X176266776Y-86780148D01*
X176967473Y-86780148D01*
X177032481Y-86891277D01*
X177064149Y-86943704D01*
X177088794Y-86981315D01*
X177101862Y-86997229D01*
X177102651Y-86997242D01*
X177117295Y-86976254D01*
X177145711Y-86929974D01*
X177185664Y-86862384D01*
X177233508Y-86779902D01*
X177931434Y-86779902D01*
X177996312Y-86892822D01*
X178033420Y-86952915D01*
X178058787Y-86983003D01*
X178073895Y-86984779D01*
X178075163Y-86983052D01*
X178102027Y-86938491D01*
X178141018Y-86872541D01*
X178189844Y-86789180D01*
X178246213Y-86692391D01*
X178307834Y-86586153D01*
X178372414Y-86474446D01*
X178437663Y-86361253D01*
X178501287Y-86250552D01*
X178560996Y-86146325D01*
X178614498Y-86052552D01*
X178659501Y-85973215D01*
X178693712Y-85912292D01*
X178714841Y-85873766D01*
X178720801Y-85861646D01*
X178713011Y-85842680D01*
X178690278Y-85798282D01*
X178654925Y-85732711D01*
X178609274Y-85650228D01*
X178555649Y-85555094D01*
X178512888Y-85480255D01*
X178438407Y-85352490D01*
X178378095Y-85253073D01*
X178332310Y-85182557D01*
X178301412Y-85141492D01*
X178285760Y-85130432D01*
X178285335Y-85130716D01*
X178267994Y-85153101D01*
X178241303Y-85195907D01*
X178216704Y-85239539D01*
X178166133Y-85333278D01*
X178315936Y-85593022D01*
X178465740Y-85852765D01*
X178198587Y-86316333D01*
X178092326Y-86500719D01*
X177931434Y-86779902D01*
X177233508Y-86779902D01*
X177234920Y-86777467D01*
X177291246Y-86679207D01*
X177352407Y-86571584D01*
X177416170Y-86458583D01*
X177480300Y-86344186D01*
X177542564Y-86232375D01*
X177600728Y-86127134D01*
X177652557Y-86032446D01*
X177695818Y-85952292D01*
X177728278Y-85890655D01*
X177747701Y-85851519D01*
X177752325Y-85838986D01*
X177741660Y-85818284D01*
X177716306Y-85772336D01*
X177678791Y-85705620D01*
X177631640Y-85622613D01*
X177577378Y-85527792D01*
X177543993Y-85469751D01*
X177487158Y-85371253D01*
X177436155Y-85283102D01*
X177393440Y-85209523D01*
X177361467Y-85154739D01*
X177342693Y-85122977D01*
X177338788Y-85116730D01*
X177327481Y-85125667D01*
X177305405Y-85156043D01*
X177277991Y-85199013D01*
X177250666Y-85245726D01*
X177228861Y-85287335D01*
X177218550Y-85312695D01*
X177222038Y-85340615D01*
X177242300Y-85391218D01*
X177280149Y-85466217D01*
X177336403Y-85567324D01*
X177355890Y-85601110D01*
X177502769Y-85854162D01*
X177128989Y-86500748D01*
X176967473Y-86780148D01*
X176266776Y-86780148D01*
X176285073Y-86748429D01*
X176375389Y-86592020D01*
X176464390Y-86438038D01*
X176545889Y-86297195D01*
X176569613Y-86256237D01*
X176630448Y-86151035D01*
X176685217Y-86055929D01*
X176731673Y-85974854D01*
X176767569Y-85911743D01*
X176790658Y-85870529D01*
X176798696Y-85855170D01*
X176790578Y-85839230D01*
X176767637Y-85797624D01*
X176732184Y-85734455D01*
X176686530Y-85653824D01*
X176632988Y-85559834D01*
X176588540Y-85482164D01*
X176530221Y-85381011D01*
X176477416Y-85290500D01*
X176432532Y-85214670D01*
X176397977Y-85157558D01*
X176376157Y-85123205D01*
X176369574Y-85114801D01*
X176359606Y-85129153D01*
X176334187Y-85170526D01*
X176294951Y-85236139D01*
X176243529Y-85323215D01*
X176181554Y-85428976D01*
X176110656Y-85550642D01*
X176032469Y-85685434D01*
X175948624Y-85830575D01*
X175919529Y-85881072D01*
X175820046Y-86054114D01*
X175736628Y-86199927D01*
X175668000Y-86320932D01*
X175612889Y-86419550D01*
X175570019Y-86498202D01*
X175538116Y-86559309D01*
X175515905Y-86605291D01*
X175502113Y-86638570D01*
X175495465Y-86661566D01*
X175494686Y-86676700D01*
X175417538Y-86676700D01*
X175414686Y-86670780D01*
X175407906Y-86651294D01*
X175407844Y-86650278D01*
X175416196Y-86630493D01*
X175440210Y-86583807D01*
X175478322Y-86513030D01*
X175528966Y-86420978D01*
X175590580Y-86310461D01*
X175661597Y-86184295D01*
X175740455Y-86045290D01*
X175825588Y-85896261D01*
X175875829Y-85808765D01*
X176305040Y-85062660D01*
X176434319Y-85062660D01*
X176458852Y-85101301D01*
X176474306Y-85127056D01*
X176503999Y-85177785D01*
X176545124Y-85248644D01*
X176594873Y-85334788D01*
X176650437Y-85431372D01*
X176677836Y-85479124D01*
X176872288Y-85818306D01*
X177128989Y-85818306D01*
X177217902Y-85817461D01*
X177292687Y-85815132D01*
X177347574Y-85811629D01*
X177376792Y-85807262D01*
X177379964Y-85804834D01*
X177370231Y-85786716D01*
X177345930Y-85742980D01*
X177309450Y-85677880D01*
X177263179Y-85595671D01*
X177209505Y-85500607D01*
X177168155Y-85427537D01*
X176962069Y-85063712D01*
X176434319Y-85062660D01*
X176305040Y-85062660D01*
X176343814Y-84995258D01*
X176672640Y-84994612D01*
X177001467Y-84993965D01*
X177079045Y-85125605D01*
X177156622Y-85257246D01*
X177188149Y-85204255D01*
X177216152Y-85157191D01*
X177250849Y-85098882D01*
X177266481Y-85072615D01*
X177272405Y-85062660D01*
X177399306Y-85062660D01*
X177446881Y-85144760D01*
X177470521Y-85185554D01*
X177507752Y-85249797D01*
X177554940Y-85331221D01*
X177608454Y-85423558D01*
X177664660Y-85520540D01*
X177665844Y-85522583D01*
X177837232Y-85818306D01*
X178092326Y-85818306D01*
X178180937Y-85817430D01*
X178255400Y-85815015D01*
X178309926Y-85811385D01*
X178338726Y-85806861D01*
X178341695Y-85804420D01*
X178331961Y-85786183D01*
X178307657Y-85742335D01*
X178271174Y-85677137D01*
X178224898Y-85594849D01*
X178171219Y-85499728D01*
X178129885Y-85426675D01*
X177923800Y-85062816D01*
X177399306Y-85062660D01*
X177272405Y-85062660D01*
X177313286Y-84993965D01*
X177966099Y-84993965D01*
X178039406Y-85122586D01*
X178073339Y-85180460D01*
X178101104Y-85224734D01*
X178118331Y-85248564D01*
X178121299Y-85250838D01*
X178133085Y-85236800D01*
X178157192Y-85199637D01*
X178189239Y-85146239D01*
X178203316Y-85121848D01*
X178237107Y-85062660D01*
X178363904Y-85062660D01*
X178545052Y-85376081D01*
X178601687Y-85474105D01*
X178654740Y-85565991D01*
X178700979Y-85646138D01*
X178737172Y-85708943D01*
X178760087Y-85748803D01*
X178762931Y-85753772D01*
X178799662Y-85818041D01*
X179060987Y-85818174D01*
X179322313Y-85818306D01*
X179175024Y-85564993D01*
X179119689Y-85469699D01*
X179064237Y-85373982D01*
X179013599Y-85286367D01*
X178972704Y-85215377D01*
X178956633Y-85187352D01*
X178885531Y-85063025D01*
X178624718Y-85062843D01*
X178363904Y-85062660D01*
X178237107Y-85062660D01*
X178276746Y-84993227D01*
X178604943Y-84997889D01*
G37*
D15*
G04 #@! TO.C,C4*
X162234420Y-83490000D02*
X162515580Y-83490000D01*
X162234420Y-84510000D02*
X162515580Y-84510000D01*
G04 #@! TO.C,TP3*
X170850000Y-97225000D02*
G75*
G02*
X168050000Y-97225000I-1400000J0D01*
G01*
X168050000Y-97225000D02*
G75*
G02*
X170850000Y-97225000I1400000J0D01*
G01*
G04 #@! TO.C,TP5*
X131400000Y-71850000D02*
G75*
G02*
X128600000Y-71850000I-1400000J0D01*
G01*
X128600000Y-71850000D02*
G75*
G02*
X131400000Y-71850000I1400000J0D01*
G01*
G04 #@! TO.C,D3*
X119592500Y-72490000D02*
X119592500Y-74410000D01*
X119592500Y-74410000D02*
X122277500Y-74410000D01*
X122277500Y-72490000D02*
X119592500Y-72490000D01*
G04 #@! TO.C,C6*
X153325000Y-89715000D02*
X153950000Y-89715000D01*
X153637500Y-89402500D02*
X153637500Y-90027500D01*
X154190000Y-89704437D02*
X154190000Y-90340000D01*
X154190000Y-89704437D02*
X155254437Y-88640000D01*
X154190000Y-93095563D02*
X154190000Y-92460000D01*
X154190000Y-93095563D02*
X155254437Y-94160000D01*
X155254437Y-88640000D02*
X159710000Y-88640000D01*
X155254437Y-94160000D02*
X159710000Y-94160000D01*
X159710000Y-88640000D02*
X159710000Y-90340000D01*
X159710000Y-94160000D02*
X159710000Y-92460000D01*
G04 #@! TO.C,TP1*
X131250000Y-76650000D02*
G75*
G02*
X128450000Y-76650000I-1400000J0D01*
G01*
X128450000Y-76650000D02*
G75*
G02*
X131250000Y-76650000I1400000J0D01*
G01*
G04 #@! TO.C,R3*
X120052500Y-78787742D02*
X120052500Y-79262258D01*
X121097500Y-78787742D02*
X121097500Y-79262258D01*
G04 #@! TO.C,J3*
X132295000Y-70570000D02*
X132295000Y-73330000D01*
X137485000Y-70570000D02*
X132295000Y-70570000D01*
X137485000Y-70570000D02*
X137485000Y-73330000D01*
X137485000Y-73330000D02*
X132295000Y-73330000D01*
X138755000Y-70570000D02*
X140135000Y-70570000D01*
X140135000Y-70570000D02*
X140135000Y-71950000D01*
G04 #@! TO.C,TP4*
X165025000Y-97150000D02*
G75*
G02*
X162225000Y-97150000I-1400000J0D01*
G01*
X162225000Y-97150000D02*
G75*
G02*
X165025000Y-97150000I1400000J0D01*
G01*
G04 #@! TO.C,D4*
X152950000Y-101285000D02*
X152950000Y-95775000D01*
X152950000Y-101285000D02*
X156250000Y-101285000D01*
X156250000Y-101285000D02*
X156250000Y-95775000D01*
G04 #@! TO.C,D5*
X167860000Y-84875000D02*
X162350000Y-84875000D01*
X167860000Y-88175000D02*
X162350000Y-88175000D01*
X167860000Y-88175000D02*
X167860000Y-84875000D01*
G04 #@! TO.C,D1*
X119592500Y-70490000D02*
X119592500Y-72410000D01*
X119592500Y-72410000D02*
X122277500Y-72410000D01*
X122277500Y-70490000D02*
X119592500Y-70490000D01*
G04 #@! TD*
%LPC*%
D17*
G04 #@! TO.C,U1*
X120970000Y-112410000D03*
X120970000Y-109870000D03*
X135210000Y-105958400D03*
X135210000Y-107958400D03*
X135210000Y-109958400D03*
X133210000Y-109958400D03*
X133210000Y-107958400D03*
D18*
X133210000Y-105958400D03*
D19*
X136699200Y-115709200D03*
X134159200Y-115709200D03*
X131619200Y-115709200D03*
X129079200Y-115709200D03*
D20*
X126539200Y-115709200D03*
D19*
X165960000Y-106060000D03*
X165960000Y-108600000D03*
X165960000Y-111140000D03*
X165960000Y-113680000D03*
X165960000Y-116220000D03*
X122780000Y-106060000D03*
X120240000Y-103520000D03*
X122780000Y-103520000D03*
X125320000Y-103520000D03*
X127860000Y-103520000D03*
X130400000Y-103520000D03*
X132940000Y-103520000D03*
X135480000Y-103520000D03*
X138020000Y-103520000D03*
X140560000Y-103520000D03*
X143100000Y-103520000D03*
X145640000Y-103520000D03*
X148180000Y-103520000D03*
X150720000Y-103520000D03*
X153260000Y-103520000D03*
X155800000Y-103520000D03*
X158340000Y-103520000D03*
X160880000Y-103520000D03*
X163420000Y-103520000D03*
X165960000Y-103520000D03*
X168500000Y-103520000D03*
X171040000Y-103520000D03*
X173580000Y-103520000D03*
X176120000Y-103520000D03*
X178660000Y-103520000D03*
X178660000Y-118760000D03*
X176120000Y-118760000D03*
X173580000Y-118760000D03*
X171040000Y-118760000D03*
X168500000Y-118760000D03*
X165960000Y-118760000D03*
X163420000Y-118760000D03*
X160880000Y-118760000D03*
X158340000Y-118760000D03*
X155800000Y-118760000D03*
X153260000Y-118760000D03*
X150720000Y-118760000D03*
X148180000Y-118760000D03*
X145640000Y-118760000D03*
X143100000Y-118760000D03*
X140560000Y-118760000D03*
X138020000Y-118760000D03*
X135480000Y-118760000D03*
X132940000Y-118760000D03*
X130400000Y-118760000D03*
X127860000Y-118760000D03*
X125320000Y-118760000D03*
X122780000Y-118760000D03*
D20*
X120240000Y-118760000D03*
G04 #@! TD*
D21*
G04 #@! TO.C,JP1*
X168025000Y-92750000D03*
D22*
X165485000Y-92750000D03*
X162945000Y-92750000D03*
G04 #@! TD*
D23*
G04 #@! TO.C,Q1*
X159562500Y-97162500D03*
X159562500Y-95262500D03*
X157687500Y-96212500D03*
G04 #@! TD*
D24*
G04 #@! TO.C,C2*
X126540000Y-113395000D03*
X126540000Y-111845000D03*
G04 #@! TD*
D25*
G04 #@! TO.C,D2*
X120340000Y-75450000D03*
X122215000Y-75450000D03*
G04 #@! TD*
D26*
G04 #@! TO.C,TP6*
X170850000Y-92750000D03*
G04 #@! TD*
D27*
G04 #@! TO.C,K1*
X151182500Y-100457500D03*
D26*
X151182500Y-97917500D03*
X151182500Y-90297500D03*
X146102500Y-90297500D03*
X146102500Y-97917500D03*
X146102500Y-100457500D03*
G04 #@! TD*
G04 #@! TO.C,TP2*
X169425000Y-84725000D03*
G04 #@! TD*
D28*
G04 #@! TO.C,SW1*
X163925000Y-73450000D03*
X177875000Y-73450000D03*
X163925000Y-78450000D03*
X177875000Y-78450000D03*
G04 #@! TD*
D29*
G04 #@! TO.C,J2*
X149125015Y-74324999D03*
X149625015Y-71425000D03*
X150125015Y-74324999D03*
X150625015Y-71425000D03*
X151125015Y-74324999D03*
X151625015Y-71425000D03*
X152125015Y-74324999D03*
X152625015Y-71425000D03*
X153125015Y-74324999D03*
X153625015Y-71425000D03*
X154125015Y-74324999D03*
X154625015Y-71425000D03*
X155125015Y-74324999D03*
X155625015Y-71425000D03*
X156125015Y-74324999D03*
X156625015Y-71425000D03*
X157125015Y-74324999D03*
X157625015Y-71425000D03*
X158125015Y-74324999D03*
X158625015Y-71425000D03*
X159125015Y-74324999D03*
X159625015Y-71425000D03*
X160125015Y-74324999D03*
X160625015Y-71425000D03*
D30*
X148125011Y-74225000D03*
X161624989Y-74225000D03*
X148125011Y-71525000D03*
X161624989Y-71525000D03*
G04 #@! TD*
D24*
G04 #@! TO.C,C1*
X155800000Y-116795000D03*
X155800000Y-115245000D03*
G04 #@! TD*
D21*
G04 #@! TO.C,JP2*
X126175000Y-81300000D03*
D22*
X126175000Y-78760000D03*
G04 #@! TD*
D31*
G04 #@! TO.C,R7*
X157325000Y-98800000D03*
X158975000Y-98800000D03*
G04 #@! TD*
G04 #@! TO.C,R6*
X160450000Y-98825000D03*
X162100000Y-98825000D03*
G04 #@! TD*
D32*
G04 #@! TO.C,R4*
X122100000Y-78200000D03*
X122100000Y-79850000D03*
G04 #@! TD*
D33*
G04 #@! TO.C,U2*
X159425000Y-86900000D03*
X159425000Y-84600000D03*
D34*
X153125000Y-84600000D03*
D33*
X159425000Y-82300000D03*
G04 #@! TD*
D35*
G04 #@! TO.C,R1*
X123635451Y-79906713D03*
X123635451Y-78256713D03*
G04 #@! TD*
D36*
G04 #@! TO.C,C7*
X148375000Y-81675000D03*
X148375000Y-86075000D03*
G04 #@! TD*
D32*
G04 #@! TO.C,R5*
X161625000Y-88875000D03*
X161625000Y-90525000D03*
G04 #@! TD*
D37*
G04 #@! TO.C,C3*
X161600000Y-82350000D03*
X163150000Y-82350000D03*
G04 #@! TD*
D26*
G04 #@! TO.C,J1*
X138630000Y-95580000D03*
X136090000Y-94350000D03*
X138630000Y-93080000D03*
X136090000Y-91810000D03*
X138630000Y-90540000D03*
X135990000Y-89270000D03*
X138630000Y-88000000D03*
X136090000Y-86730000D03*
D38*
X143460000Y-94100000D03*
X143460000Y-96640000D03*
X143460000Y-85720000D03*
X143460000Y-88260000D03*
D39*
X132790000Y-83310000D03*
X132790000Y-99050000D03*
G04 #@! TD*
D37*
G04 #@! TO.C,C4*
X161600000Y-84000000D03*
X163150000Y-84000000D03*
G04 #@! TD*
D26*
G04 #@! TO.C,TP3*
X169450000Y-97225000D03*
G04 #@! TD*
G04 #@! TO.C,TP5*
X130000000Y-71850000D03*
G04 #@! TD*
D25*
G04 #@! TO.C,D3*
X120340000Y-73450000D03*
X122215000Y-73450000D03*
G04 #@! TD*
D40*
G04 #@! TO.C,C6*
X154750000Y-91400000D03*
X159150000Y-91400000D03*
G04 #@! TD*
D26*
G04 #@! TO.C,TP1*
X129850000Y-76650000D03*
G04 #@! TD*
D32*
G04 #@! TO.C,R3*
X120575000Y-78200000D03*
X120575000Y-79850000D03*
G04 #@! TD*
D21*
G04 #@! TO.C,J3*
X138755000Y-71950000D03*
D22*
X136215000Y-71950000D03*
X133675000Y-71950000D03*
G04 #@! TD*
D26*
G04 #@! TO.C,TP4*
X163625000Y-97150000D03*
G04 #@! TD*
D41*
G04 #@! TO.C,D4*
X154600000Y-99775000D03*
X154600000Y-95775000D03*
G04 #@! TD*
D42*
G04 #@! TO.C,D5*
X166350000Y-86525000D03*
X162350000Y-86525000D03*
G04 #@! TD*
D25*
G04 #@! TO.C,D1*
X120340000Y-71450000D03*
X122215000Y-71450000D03*
G04 #@! TD*
%LPD*%
M02*
