M48
; DRILL file {KiCad 9.0.2} date 2025-07-06T17:30:26+0200
; FORMAT={-:-/ absolute / metric / decimal}
; #@! TF.CreationDate,2025-07-06T17:30:26+02:00
; #@! TF.GenerationSoftware,Kicad,Pcbnew,9.0.2
; #@! TF.FileFunction,Plated,1,2,PTH
FMAT,2
METRIC
; #@! TA.AperFunction,Plated,PTH,ViaDrill
T1C0.300
; #@! TA.AperFunction,Plated,PTH,ViaDrill
T2C0.500
; #@! TA.AperFunction,Plated,PTH,ComponentDrill
T3C0.800
; #@! TA.AperFunction,Plated,PTH,ComponentDrill
T4C1.000
; #@! TA.AperFunction,Plated,PTH,ComponentDrill
T5C1.100
; #@! TA.AperFunction,Plated,PTH,ComponentDrill
T6C1.200
; #@! TA.AperFunction,Plated,PTH,ComponentDrill
T7C1.800
%
G90
G05
T1
X120.325Y-89.05
X120.325Y-93.575
X120.325Y-98.125
X120.375Y-84.45
X120.375Y-116.175
X120.625Y-106.05
X122.825Y-101.25
X123.1Y-89.06
X123.1Y-93.585
X123.1Y-98.135
X123.15Y-84.46
X123.25Y-76.725
X123.3Y-70.42
X123.35Y-116.425
X123.39Y-71.45
X123.45Y-75.45
X123.49Y-74.57
X123.65Y-72.35
X123.962Y-75.787
X124.775Y-113.125
X124.875Y-107.6
X125.225Y-105.1
X125.373Y-84.9
X126.0Y-72.325
X126.35Y-109.7
X127.4Y-102.05
X127.975Y-70.7
X128.45Y-105.92
X128.575Y-78.8
X128.8Y-93.725
X128.85Y-88.0
X129.2Y-74.25
X129.5Y-110.275
X129.8Y-99.65
X130.5Y-82.375
X130.525Y-106.25
X131.7Y-91.025
X131.875Y-87.875
X133.175Y-75.425
X133.525Y-79.325
X134.3Y-92.975
X134.36Y-107.07
X134.79Y-101.11
X134.85Y-70.5
X134.91Y-80.88
X135.05Y-83.625
X135.77Y-100.24
X135.925Y-112.025
X136.04Y-107.06
X136.575Y-96.25
X136.85Y-99.4
X137.475Y-70.525
X137.49Y-81.16
X138.26Y-75.73
X138.6Y-84.96
X138.75Y-97.7
X139.825Y-99.8
X139.85Y-107.75
X139.925Y-73.925
X139.925Y-114.775
X140.26Y-110.98
X140.625Y-92.5
X140.725Y-88.75
X141.1Y-84.925
X141.275Y-75.75
X142.225Y-98.975
X142.65Y-101.675
X143.025Y-76.65
X143.05Y-75.75
X143.08Y-81.98
X143.32Y-115.67
X143.325Y-92.15
X143.41Y-79.15
X143.85Y-76.65
X143.9Y-74.075
X144.24Y-106.8
X144.475Y-108.7
X144.56Y-87.08
X144.78Y-110.86
X144.85Y-75.75
X145.7Y-92.84
X146.225Y-113.075
X146.95Y-70.425
X147.04Y-78.94
X147.28Y-96.7
X147.52Y-83.875
X148.18Y-88.36
X148.246Y-75.875
X148.39Y-98.13
X148.4Y-100.85
X149.1Y-78.175
X149.125Y-75.845
X149.125Y-77.475
X149.925Y-89.1
X149.96Y-82.65
X150.0Y-92.025
X150.1Y-85.775
X150.125Y-75.55
X150.35Y-107.625
X150.775Y-116.225
X150.9Y-94.12
X151.125Y-75.3
X151.44Y-76.26
X151.525Y-82.325
X151.525Y-83.375
X151.525Y-84.475
X151.525Y-85.55
X151.525Y-86.575
X151.625Y-70.5
X151.98Y-78.27
X152.625Y-70.5
X153.25Y-87.75
X153.575Y-72.7
X153.85Y-76.375
X154.04Y-107.76
X154.13Y-70.27
X154.575Y-72.625
X156.131Y-75.506
X156.625Y-72.425
X156.725Y-112.425
X156.83Y-86.57
X156.85Y-83.75
X156.85Y-85.15
X157.0Y-107.3
X157.15Y-70.27
X157.15Y-80.025
X157.175Y-82.25
X157.425Y-72.525
X157.775Y-87.925
X157.825Y-76.075
X158.025Y-97.45
X158.043Y-73.034
X158.075Y-95.225
X158.13Y-85.48
X158.23Y-83.6
X158.65Y-70.475
X158.85Y-99.9
X159.075Y-80.025
X159.19Y-90.04
X159.6Y-70.475
X159.8Y-73.0
X160.025Y-93.75
X160.15Y-115.575
X160.675Y-70.4
X161.175Y-95.175
X161.25Y-91.88
X161.275Y-97.8
X162.15Y-78.225
X162.875Y-110.55
X162.88Y-74.92
X163.05Y-106.375
X163.6Y-89.85
X163.66Y-114.37
X163.975Y-83.2
X164.24Y-84.1
X164.525Y-70.725
X165.02Y-101.7
X165.2Y-81.6
X165.45Y-73.45
X166.075Y-97.0
X166.45Y-81.7
X166.45Y-88.75
X166.875Y-78.375
X167.225Y-84.675
X168.875Y-78.35
X168.93Y-111.1
X168.97Y-115.29
X169.025Y-106.375
X169.35Y-74.825
X169.625Y-82.25
X169.975Y-70.675
X171.025Y-81.875
X171.025Y-90.375
X171.075Y-87.075
X171.175Y-95.4
X171.4Y-78.35
X171.57Y-116.08
X172.33Y-106.63
X172.45Y-81.93
X174.65Y-114.15
X174.9Y-108.55
X175.6Y-70.8
X175.725Y-77.375
X177.725Y-101.625
X178.15Y-75.825
X178.65Y-115.75
X178.675Y-111.275
X178.7Y-105.425
X178.975Y-70.9
X179.2Y-80.875
X179.375Y-101.35
X179.44Y-91.44
T2
X138.95Y-81.8
X140.387Y-81.354
X141.825Y-80.575
T3
X120.97Y-109.87
X120.97Y-112.41
X133.21Y-105.958
X133.21Y-107.958
X133.21Y-109.958
X135.21Y-105.958
X135.21Y-107.958
X135.21Y-109.958
T4
X126.175Y-78.76
X126.175Y-81.3
X129.85Y-76.65
X130.0Y-71.85
X133.675Y-71.95
X135.99Y-89.27
X136.09Y-86.73
X136.09Y-91.81
X136.09Y-94.35
X136.215Y-71.95
X138.63Y-88.0
X138.63Y-90.54
X138.63Y-93.08
X138.63Y-95.58
X138.755Y-71.95
X146.102Y-90.297
X146.102Y-97.917
X146.102Y-100.457
X151.183Y-90.297
X151.183Y-97.917
X151.183Y-100.457
X162.945Y-92.75
X163.625Y-97.15
X165.485Y-92.75
X168.025Y-92.75
X169.425Y-84.725
X169.45Y-97.225
X170.85Y-92.75
T5
X120.24Y-103.52
X120.24Y-118.76
X122.78Y-103.52
X122.78Y-106.06
X122.78Y-118.76
X125.32Y-103.52
X125.32Y-118.76
X126.539Y-115.709
X127.86Y-103.52
X127.86Y-118.76
X129.079Y-115.709
X130.4Y-103.52
X130.4Y-118.76
X131.619Y-115.709
X132.94Y-103.52
X132.94Y-118.76
X134.159Y-115.709
X135.48Y-103.52
X135.48Y-118.76
X136.699Y-115.709
X138.02Y-103.52
X138.02Y-118.76
X140.56Y-103.52
X140.56Y-118.76
X143.1Y-103.52
X143.1Y-118.76
X145.64Y-103.52
X145.64Y-118.76
X148.18Y-103.52
X148.18Y-118.76
X150.72Y-103.52
X150.72Y-118.76
X153.26Y-103.52
X153.26Y-118.76
X155.8Y-103.52
X155.8Y-118.76
X158.34Y-103.52
X158.34Y-118.76
X160.88Y-103.52
X160.88Y-118.76
X163.42Y-103.52
X163.42Y-118.76
X165.96Y-103.52
X165.96Y-106.06
X165.96Y-108.6
X165.96Y-111.14
X165.96Y-113.68
X165.96Y-116.22
X165.96Y-118.76
X168.5Y-103.52
X168.5Y-118.76
X171.04Y-103.52
X171.04Y-118.76
X173.58Y-103.52
X173.58Y-118.76
X176.12Y-103.52
X176.12Y-118.76
X178.66Y-103.52
X178.66Y-118.76
T6
X143.46Y-85.72
X143.46Y-88.26
X143.46Y-94.1
X143.46Y-96.64
T7
X132.79Y-83.31
X132.79Y-99.05
M30
