%TF.GenerationSoftware,KiCad,Pcbnew,9.0.2*%
%TF.CreationDate,2025-07-06T17:30:26+02:00*%
%TF.ProjectId,injection-controller,696e6a65-6374-4696-9f6e-2d636f6e7472,rev?*%
%TF.SameCoordinates,Original*%
%TF.FileFunction,Drillmap*%
%TF.FilePolarity,Positive*%
%FSLAX45Y45*%
G04 Gerber Fmt 4.5, Leading zero omitted, Abs format (unit mm)*
G04 Created by KiCad (PCBNEW 9.0.2) date 2025-07-06 17:30:26*
%MOMM*%
%LPD*%
G01*
G04 APERTURE LIST*
%ADD10C,0.100000*%
%ADD11C,0.120000*%
%ADD12C,0.200000*%
G04 APERTURE END LIST*
D10*
X11897000Y-6968000D02*
X17993000Y-6968000D01*
X17993000Y-12003000D01*
X11897000Y-12003000D01*
X11897000Y-6968000D01*
D11*
X13134000Y-8546500D02*
G75*
G02*
X12814000Y-8546500I-160000J0D01*
G01*
X12814000Y-8546500D02*
G75*
G02*
X13134000Y-8546500I160000J0D01*
G01*
X13134000Y-9689500D02*
G75*
G02*
X12814000Y-9689500I-160000J0D01*
G01*
X12814000Y-9689500D02*
G75*
G02*
X13134000Y-9689500I160000J0D01*
G01*
D12*
X12152777Y-12319484D02*
X12152777Y-12119484D01*
X12152777Y-12119484D02*
X12200396Y-12119484D01*
X12200396Y-12119484D02*
X12228967Y-12129008D01*
X12228967Y-12129008D02*
X12248015Y-12148055D01*
X12248015Y-12148055D02*
X12257539Y-12167103D01*
X12257539Y-12167103D02*
X12267062Y-12205198D01*
X12267062Y-12205198D02*
X12267062Y-12233769D01*
X12267062Y-12233769D02*
X12257539Y-12271865D01*
X12257539Y-12271865D02*
X12248015Y-12290912D01*
X12248015Y-12290912D02*
X12228967Y-12309960D01*
X12228967Y-12309960D02*
X12200396Y-12319484D01*
X12200396Y-12319484D02*
X12152777Y-12319484D01*
X12352777Y-12319484D02*
X12352777Y-12186150D01*
X12352777Y-12224246D02*
X12362301Y-12205198D01*
X12362301Y-12205198D02*
X12371824Y-12195674D01*
X12371824Y-12195674D02*
X12390872Y-12186150D01*
X12390872Y-12186150D02*
X12409920Y-12186150D01*
X12476586Y-12319484D02*
X12476586Y-12186150D01*
X12476586Y-12119484D02*
X12467062Y-12129008D01*
X12467062Y-12129008D02*
X12476586Y-12138531D01*
X12476586Y-12138531D02*
X12486110Y-12129008D01*
X12486110Y-12129008D02*
X12476586Y-12119484D01*
X12476586Y-12119484D02*
X12476586Y-12138531D01*
X12600396Y-12319484D02*
X12581348Y-12309960D01*
X12581348Y-12309960D02*
X12571824Y-12290912D01*
X12571824Y-12290912D02*
X12571824Y-12119484D01*
X12705158Y-12319484D02*
X12686110Y-12309960D01*
X12686110Y-12309960D02*
X12676586Y-12290912D01*
X12676586Y-12290912D02*
X12676586Y-12119484D01*
X12933729Y-12319484D02*
X12933729Y-12119484D01*
X12933729Y-12119484D02*
X13000396Y-12262341D01*
X13000396Y-12262341D02*
X13067062Y-12119484D01*
X13067062Y-12119484D02*
X13067062Y-12319484D01*
X13248015Y-12319484D02*
X13248015Y-12214722D01*
X13248015Y-12214722D02*
X13238491Y-12195674D01*
X13238491Y-12195674D02*
X13219443Y-12186150D01*
X13219443Y-12186150D02*
X13181348Y-12186150D01*
X13181348Y-12186150D02*
X13162301Y-12195674D01*
X13248015Y-12309960D02*
X13228967Y-12319484D01*
X13228967Y-12319484D02*
X13181348Y-12319484D01*
X13181348Y-12319484D02*
X13162301Y-12309960D01*
X13162301Y-12309960D02*
X13152777Y-12290912D01*
X13152777Y-12290912D02*
X13152777Y-12271865D01*
X13152777Y-12271865D02*
X13162301Y-12252817D01*
X13162301Y-12252817D02*
X13181348Y-12243293D01*
X13181348Y-12243293D02*
X13228967Y-12243293D01*
X13228967Y-12243293D02*
X13248015Y-12233769D01*
X13343253Y-12186150D02*
X13343253Y-12386150D01*
X13343253Y-12195674D02*
X13362301Y-12186150D01*
X13362301Y-12186150D02*
X13400396Y-12186150D01*
X13400396Y-12186150D02*
X13419443Y-12195674D01*
X13419443Y-12195674D02*
X13428967Y-12205198D01*
X13428967Y-12205198D02*
X13438491Y-12224246D01*
X13438491Y-12224246D02*
X13438491Y-12281388D01*
X13438491Y-12281388D02*
X13428967Y-12300436D01*
X13428967Y-12300436D02*
X13419443Y-12309960D01*
X13419443Y-12309960D02*
X13400396Y-12319484D01*
X13400396Y-12319484D02*
X13362301Y-12319484D01*
X13362301Y-12319484D02*
X13343253Y-12309960D01*
X13524205Y-12300436D02*
X13533729Y-12309960D01*
X13533729Y-12309960D02*
X13524205Y-12319484D01*
X13524205Y-12319484D02*
X13514682Y-12309960D01*
X13514682Y-12309960D02*
X13524205Y-12300436D01*
X13524205Y-12300436D02*
X13524205Y-12319484D01*
X13524205Y-12195674D02*
X13533729Y-12205198D01*
X13533729Y-12205198D02*
X13524205Y-12214722D01*
X13524205Y-12214722D02*
X13514682Y-12205198D01*
X13514682Y-12205198D02*
X13524205Y-12195674D01*
X13524205Y-12195674D02*
X13524205Y-12214722D01*
M02*
